<svg width="26" height="29" viewBox="0 0 26 29" fill="none" xmlns="http://www.w3.org/2000/svg">
<path d="M25.1002 28.4333H0.915855V13.4147C0.598416 13.3982 0.321729 13.3839 0 13.3674V5.39392H6.23082C5.78791 4.49844 5.57878 3.66126 5.82222 2.76468C6.16218 1.51167 6.93326 0.688796 8.16656 0.382969C9.402 0.0771415 10.4884 0.406071 11.2745 1.44126C11.8085 2.14423 12.2246 2.9418 12.6922 3.69867C12.7844 3.84828 12.8659 4.00339 12.9753 4.19591C13.4633 3.37854 13.9105 2.59747 14.3909 1.8373C14.8081 1.17614 15.3583 0.653593 16.1143 0.432473C17.3937 0.0584398 18.5337 0.344465 19.4249 1.36426C20.3129 2.37965 20.4909 3.56555 19.9922 4.84387C19.9333 4.99348 19.8646 5.1398 19.7606 5.37852H26V13.3542C25.718 13.3718 25.4402 13.3894 25.1013 13.4114V28.4333H25.1002ZM2.54809 13.4147V26.7633H9.71407V13.4147H2.54809ZM23.4294 26.7831V13.4125H16.2688V26.7831H23.4294V26.7831ZM11.4074 7.09137V26.7699H14.584V7.09137H11.4074ZM9.71086 11.7151V7.09467H1.61294V11.7151H9.71086V11.7151ZM16.2795 7.09247V11.6942H24.3796V7.09247H16.2795V7.09247ZM11.6058 5.46102L11.7367 5.2355C11.1479 4.28942 10.5935 3.31693 9.95644 2.40605C9.59932 1.8945 8.89045 1.8109 8.29739 2.06722C7.72364 2.31474 7.31934 2.9528 7.33542 3.58646C7.35258 4.23221 7.73115 4.89227 8.31884 5.00558C9.40414 5.2146 10.5087 5.31581 11.6058 5.46212V5.46102ZM14.2419 5.24211C14.288 5.31471 14.333 5.38842 14.3791 5.46102C15.4612 5.31911 16.5519 5.219 17.6232 5.01879C18.2217 4.90658 18.611 4.27732 18.6463 3.63046C18.6817 2.999 18.2946 2.35325 17.7241 2.08702C17.1353 1.8131 16.4157 1.8714 16.0586 2.37635C15.4065 3.29713 14.8435 4.28282 14.2429 5.24211H14.2419Z" fill="#2298D3"/>
</svg>
