<svg width="29" height="36" viewBox="0 0 29 36" fill="none" xmlns="http://www.w3.org/2000/svg">
<path fill-rule="evenodd" clip-rule="evenodd" d="M24.3223 35.9736C26.9063 35.9736 29.0008 33.8249 29.0008 31.1741V10.2309C29.0008 7.58026 26.9062 5.43164 24.3223 5.43164H10.7111C8.1271 5.43164 6.03223 7.58033 6.03223 10.2309V31.1741C6.03223 33.8249 8.1271 35.9736 10.7111 35.9736H24.3223ZM26.4488 31.1741C26.4488 32.379 25.4969 33.3557 24.3223 33.3557H10.7111C9.53648 33.3557 8.58428 32.379 8.58428 31.1741V10.2309C8.58428 9.02631 9.53648 8.04953 10.7111 8.04953H24.3223C25.4969 8.04953 26.4488 9.02631 26.4488 10.2309V31.1741Z" fill="#2297D3"/>
<path fill-rule="evenodd" clip-rule="evenodd" d="M16.2389 1.50499C16.2389 0.781855 15.6676 0.196045 14.9629 0.196045H5.60562C3.02163 0.196045 0.926758 2.34474 0.926758 4.99532V21.5756C0.926758 22.2984 1.49812 22.8845 2.20278 22.8845C2.90773 22.8845 3.47881 22.2984 3.47881 21.5756V4.99532C3.47881 3.79071 4.43102 2.81394 5.60562 2.81394H14.9629C15.6676 2.81394 16.2389 2.22784 16.2389 1.50499V1.50499Z" fill="#2297D3"/>
<path fill-rule="evenodd" clip-rule="evenodd" d="M11.1348 13.7215C11.1348 12.9987 11.7061 12.4126 12.4108 12.4126H22.619C23.3237 12.4126 23.895 12.9987 23.895 13.7215C23.895 14.4444 23.3237 15.0305 22.619 15.0305H12.4108C11.7061 15.0305 11.1348 14.4444 11.1348 13.7215Z" fill="#2297D3"/>
<path fill-rule="evenodd" clip-rule="evenodd" d="M11.1348 20.7023C11.1348 19.9794 11.7061 19.3933 12.4108 19.3933H22.619C23.3237 19.3933 23.895 19.9794 23.895 20.7023C23.895 21.4251 23.3237 22.0112 22.619 22.0112H12.4108C11.7061 22.0112 11.1348 21.4251 11.1348 20.7023Z" fill="#2297D3"/>
<path fill-rule="evenodd" clip-rule="evenodd" d="M11.1348 27.6842C11.1348 26.9613 11.7061 26.3752 12.4108 26.3752H18.3657C19.0703 26.3752 19.6417 26.9613 19.6417 27.6842C19.6417 28.407 19.0703 28.9931 18.3657 28.9931H12.4108C11.7061 28.9931 11.1348 28.407 11.1348 27.6842Z" fill="#2297D3"/>
</svg>
