<svg width="512" height="512" viewBox="0 0 512 512" fill="none" xmlns="http://www.w3.org/2000/svg">
<path d="M480 255.051H32C14.357 255.051 0 269.408 0 287.051C0 304.694 14.357 319.051 32 319.051H480C497.643 319.051 512 304.694 512 287.051C512 269.408 497.643 255.051 480 255.051ZM480 297.717H32C26.133 297.717 21.333 292.938 21.333 287.05C21.333 281.162 26.133 276.383 32 276.383H480C485.867 276.383 490.667 281.162 490.667 287.05C490.667 292.938 485.867 297.717 480 297.717Z" fill="black"/>
<path d="M482.944 298.123C477.163 296.523 471.36 299.787 469.76 305.462L440.363 408.374C433.856 431.137 412.758 447.051 389.078 447.051H122.944C99.264 447.051 78.187 431.136 71.659 408.374L42.261 305.461C40.661 299.786 34.837 296.522 29.077 298.122C27.7296 298.505 26.4711 299.151 25.3736 300.021C24.2761 300.892 23.3612 301.97 22.6815 303.195C22.0017 304.42 21.5704 305.767 21.4123 307.159C21.2541 308.551 21.3723 309.96 21.76 311.306L51.157 414.218C60.266 446.111 89.77 468.383 122.944 468.383H389.056C422.229 468.383 451.755 446.111 460.864 414.218L490.261 311.306C491.883 305.653 488.619 299.744 482.944 298.123Z" fill="black"/>
<path d="M122.944 404.405C118.208 404.405 114.005 401.205 112.683 396.661L98.8382 348.149C97.2382 342.496 91.3712 339.189 85.6542 340.81C80.0012 342.431 76.7152 348.319 78.3372 353.994L92.1822 402.506C96.0652 416.181 108.737 425.717 122.945 425.717C128.833 425.717 133.612 420.96 133.612 415.072C133.611 409.184 128.832 404.405 122.944 404.405ZM143.424 448.16C138.155 445.579 131.776 447.648 129.109 452.939L107.776 495.606C105.152 500.875 107.285 507.275 112.555 509.921C113.808 510.551 115.173 510.926 116.572 511.027C117.971 511.127 119.375 510.95 120.705 510.507C122.036 510.063 123.265 509.36 124.323 508.44C125.381 507.519 126.246 506.399 126.87 505.143L148.203 462.476C150.827 457.205 148.693 450.805 143.424 448.16ZM404.224 495.627L382.891 452.96C380.246 447.669 373.846 445.557 368.576 448.181C363.307 450.826 361.173 457.226 363.797 462.496L385.13 505.163C386.017 506.933 387.378 508.421 389.062 509.461C390.747 510.501 392.687 511.051 394.666 511.051C396.266 511.051 397.887 510.688 399.445 509.942C404.715 507.296 406.848 500.896 404.224 495.627ZM428.48 0.949219C417.6 0.949219 407.36 5.19422 399.659 12.8962L365.803 46.7522C361.643 50.9122 361.643 57.6752 365.803 61.8352C369.963 65.9952 376.726 65.9952 380.886 61.8352L414.741 28.0002C418.389 24.3312 423.274 22.3042 428.586 22.3042C439.295 22.3042 447.999 31.0082 447.999 41.7172V265.717C447.999 271.605 452.778 276.384 458.666 276.384C464.554 276.384 469.333 271.605 469.354 265.696V41.6962C469.355 19.2322 451.093 0.949219 428.48 0.949219Z" fill="black"/>
<path d="M391.573 57.4397L370.24 36.1067C367.787 33.6537 364.395 32.5227 360.96 33.1197L307.627 41.8667C303.702 42.4857 300.48 45.2587 299.222 49.0347C297.964 52.8107 298.923 56.9707 301.697 59.8077L365.697 125.728C367.702 127.84 370.497 128.971 373.334 128.971C374.337 128.971 375.361 128.822 376.385 128.544C378.25 127.999 379.931 126.953 381.243 125.52C382.556 124.087 383.451 122.322 383.83 120.416L394.497 67.0827C394.841 65.3589 394.754 63.5769 394.244 61.8948C393.734 60.2127 392.816 58.6824 391.573 57.4397ZM366.848 96.3087L331.2 59.5947L358.997 55.0507L372.416 68.4697L366.848 96.3087ZM252.864 130.187C248.704 126.027 241.941 126.027 237.781 130.187L216.448 151.52C212.288 155.68 212.288 162.443 216.448 166.603C218.539 168.672 221.269 169.718 224 169.718C226.731 169.718 229.461 168.673 231.531 166.603L252.864 145.27C257.024 141.109 257.024 134.347 252.864 130.187ZM295.531 172.853C291.371 168.693 284.608 168.693 280.448 172.853L259.115 194.186C254.955 198.346 254.955 205.109 259.115 209.269C261.122 211.264 263.837 212.383 266.667 212.384C269.398 212.384 272.128 211.339 274.198 209.269L295.531 187.936C299.691 183.776 299.691 177.013 295.531 172.853ZM316.864 108.853C312.704 104.693 305.941 104.693 301.781 108.853L280.448 130.186C276.288 134.346 276.288 141.109 280.448 145.269C282.539 147.338 285.269 148.384 288 148.384C290.731 148.384 293.461 147.339 295.531 145.269L316.864 123.936C321.024 119.776 321.024 113.013 316.864 108.853Z" fill="black"/>
</svg>
