<svg width="484" height="486" viewBox="0 0 484 486" fill="none" xmlns="http://www.w3.org/2000/svg">
<path d="M403.972 287.557C402.137 287.557 400.377 286.828 399.079 285.53C397.782 284.233 397.053 282.473 397.053 280.638V260.089C397.053 258.254 397.782 256.494 399.079 255.196C400.377 253.899 402.137 253.17 403.972 253.17C405.807 253.17 407.567 253.899 408.864 255.196C410.162 256.494 410.891 258.254 410.891 260.089V280.638C410.891 282.473 410.162 284.233 408.864 285.53C407.567 286.828 405.807 287.557 403.972 287.557Z" fill="black"/>
<path d="M183.051 485.162C181.216 485.162 179.456 484.433 178.158 483.135C176.861 481.838 176.132 480.078 176.132 478.243V7.75634C176.127 6.78647 176.326 5.82641 176.716 4.93845C177.106 4.0505 177.679 3.25449 178.397 2.60207C179.114 1.94965 179.961 1.45541 180.882 1.1514C181.803 0.847397 182.778 0.740424 183.743 0.837425L404.664 23.1855C406.376 23.3576 407.963 24.1619 409.115 25.4413C410.266 26.7206 410.899 28.3833 410.891 30.1045V143.09C410.891 144.925 410.162 146.685 408.864 147.983C407.567 149.28 405.807 150.009 403.972 150.009C402.137 150.009 400.377 149.28 399.08 147.983C397.782 146.685 397.053 144.925 397.053 143.09V36.3592L189.97 15.4087V470.321L397.053 442.264V329.071C397.053 327.236 397.782 325.476 399.08 324.179C400.377 322.881 402.137 322.152 403.972 322.152C405.807 322.152 407.567 322.881 408.864 324.179C410.162 325.476 410.891 327.236 410.891 329.071V448.284C410.891 449.957 410.285 451.574 409.184 452.835C408.084 454.095 406.564 454.915 404.906 455.141L183.985 485.099C183.675 485.141 183.363 485.162 183.051 485.162Z" fill="black"/>
<path d="M403.972 218.575C402.137 218.575 400.377 217.846 399.079 216.549C397.782 215.251 397.053 213.491 397.053 211.656V191.522C397.053 189.687 397.782 187.928 399.079 186.63C400.377 185.332 402.137 184.603 403.972 184.603C405.807 184.603 407.567 185.332 408.864 186.63C410.162 187.928 410.891 189.687 410.891 191.522V211.656C410.891 213.491 410.162 215.251 408.864 216.549C407.567 217.846 405.807 218.575 403.972 218.575ZM80.5053 459.603C78.6703 459.603 76.9105 458.874 75.6129 457.576C74.3154 456.279 73.5864 454.519 73.5864 452.684V29.8965C73.5864 28.0614 74.3154 26.3016 75.6129 25.004C76.9105 23.7065 78.6703 22.9775 80.5053 22.9775H183.044C184.879 22.9775 186.639 23.7065 187.936 25.004C189.234 26.3016 189.963 28.0614 189.963 29.8965C189.963 31.7315 189.234 33.4913 187.936 34.7889C186.639 36.0864 184.879 36.8154 183.044 36.8154H87.4243V452.684C87.4243 454.519 86.6953 456.279 85.3978 457.576C84.1002 458.874 82.3404 459.603 80.5053 459.603Z" fill="black"/>
<path d="M119.583 459.603C117.748 459.603 115.989 458.875 114.691 457.577C113.394 456.279 112.665 454.52 112.665 452.685V70.3105C112.665 68.4755 113.394 66.7156 114.691 65.4181C115.989 64.1206 117.748 63.3916 119.583 63.3916H182.995C184.83 63.3916 186.59 64.1206 187.888 65.4181C189.185 66.7156 189.914 68.4755 189.914 70.3105C189.914 72.1455 189.185 73.9054 187.888 75.2029C186.59 76.5005 184.83 77.2294 182.995 77.2294H126.502V452.685C126.502 454.52 125.773 456.279 124.476 457.577C123.178 458.875 121.418 459.603 119.583 459.603Z" fill="black"/>
<path d="M182.995 459.603H7.09568C5.26067 459.603 3.50081 458.874 2.20326 457.576C0.905713 456.279 0.176758 454.519 0.176758 452.684C0.176758 450.849 0.905713 449.089 2.20326 447.791C3.50081 446.494 5.26067 445.765 7.09568 445.765H182.995C184.83 445.765 186.59 446.494 187.888 447.791C189.185 449.089 189.914 450.849 189.914 452.684C189.914 454.519 189.185 456.279 187.888 457.576C186.59 458.874 184.83 459.603 182.995 459.603ZM476.904 459.603H370.989C369.154 459.603 367.394 458.874 366.097 457.576C364.799 456.279 364.07 454.519 364.07 452.684C364.07 450.849 364.799 449.089 366.097 447.791C367.394 446.494 369.154 445.765 370.989 445.765H476.904C478.739 445.765 480.499 446.494 481.796 447.791C483.094 449.089 483.823 450.849 483.823 452.684C483.823 454.519 483.094 456.279 481.796 457.576C480.499 458.874 478.739 459.603 476.904 459.603ZM231.068 268.004C226.122 268.004 221.288 266.538 217.176 263.79C213.064 261.042 209.859 257.137 207.966 252.568C206.074 247.999 205.579 242.971 206.544 238.121C207.508 233.27 209.89 228.815 213.387 225.318C216.884 221.821 221.339 219.439 226.19 218.475C231.04 217.51 236.068 218.005 240.637 219.898C245.206 221.79 249.111 224.995 251.859 229.107C254.606 233.219 256.073 238.054 256.073 242.999C256.066 249.629 253.429 255.984 248.741 260.672C244.053 265.36 237.697 267.997 231.068 268.004ZM231.068 231.832C228.859 231.832 226.7 232.487 224.864 233.714C223.027 234.941 221.596 236.685 220.751 238.726C219.906 240.766 219.685 243.012 220.115 245.178C220.546 247.344 221.61 249.334 223.172 250.895C224.733 252.457 226.723 253.521 228.889 253.952C231.056 254.383 233.301 254.161 235.341 253.316C237.382 252.471 239.126 251.04 240.353 249.203C241.58 247.367 242.235 245.208 242.235 242.999C242.231 240.039 241.054 237.2 238.96 235.107C236.867 233.013 234.029 231.836 231.068 231.832Z" fill="black"/>
</svg>
