<svg width="512" height="512" viewBox="0 0 512 512" fill="none" xmlns="http://www.w3.org/2000/svg">
<g clip-path="url(#clip0_11_7)">
<path d="M236 230H276V270H236V230Z" fill="#4AA7DF"/>
<path d="M452 40H428V0H388V40H124V0H84V40H60C26.916 40 0 66.916 0 100V452C0 485.084 26.916 512 60 512H265.762C251.906 500.561 239.88 487.072 230.099 472H60C48.972 472 40 463.028 40 452V188H472V230.099C487.071 239.881 500.56 251.907 512 265.762V100C512 66.916 485.084 40 452 40ZM472 148H40V100C40 88.972 48.972 80 60 80H84V120H124V80H388V120H428V80H452C463.028 80 472 88.972 472 100V148Z" fill="#4AA7DF"/>
<path d="M377 242C302.561 242 242 302.561 242 377C242 451.439 302.561 512 377 512C451.439 512 512 451.439 512 377C512 302.561 451.439 242 377 242ZM377 472C324.617 472 282 429.383 282 377C282 324.617 324.617 282 377 282C429.383 282 472 324.617 472 377C472 429.383 429.383 472 377 472Z" fill="#4AA7DF"/>
<path d="M396 310H356V397H430V357H396V310ZM156 310H196V350H156V310ZM76 310H116V350H76V310ZM76 230H116V270H76V230ZM76 390H116V430H76V390ZM156 230H196V270H156V230ZM156 390H196V430H156V390Z" fill="#4AA7DF"/>
</g>
<defs>
<clipPath id="clip0_11_7">
<rect width="512" height="512" fill="white"/>
</clipPath>
</defs>
</svg>
