<svg width="20" height="20" viewBox="0 0 20 20" fill="none" xmlns="http://www.w3.org/2000/svg">
<path d="M6.66732 10.8335C6.4463 10.8335 6.23434 10.7457 6.07806 10.5894C5.92178 10.4331 5.83398 10.2212 5.83398 10.0002C5.83398 9.77915 5.92178 9.56719 6.07806 9.41091C6.23434 9.25463 6.4463 9.16683 6.66732 9.16683C6.88833 9.16683 7.10029 9.25463 7.25657 9.41091C7.41285 9.56719 7.50065 9.77915 7.50065 10.0002C7.50065 10.2212 7.41285 10.4331 7.25657 10.5894C7.10029 10.7457 6.88833 10.8335 6.66732 10.8335ZM6.66732 14.1668C6.4463 14.1668 6.23434 14.079 6.07806 13.9228C5.92178 13.7665 5.83398 13.5545 5.83398 13.3335C5.83398 13.1125 5.92178 12.9005 6.07806 12.7442C6.23434 12.588 6.4463 12.5002 6.66732 12.5002C6.88833 12.5002 7.10029 12.588 7.25657 12.7442C7.41285 12.9005 7.50065 13.1125 7.50065 13.3335C7.50065 13.5545 7.41285 13.7665 7.25657 13.9228C7.10029 14.079 6.88833 14.1668 6.66732 14.1668ZM9.16732 13.3335C9.16732 13.5545 9.25512 13.7665 9.4114 13.9228C9.56768 14.079 9.77964 14.1668 10.0007 14.1668C10.2217 14.1668 10.4336 14.079 10.5899 13.9228C10.7462 13.7665 10.834 13.5545 10.834 13.3335C10.834 13.1125 10.7462 12.9005 10.5899 12.7442C10.4336 12.588 10.2217 12.5002 10.0007 12.5002C9.77964 12.5002 9.56768 12.588 9.4114 12.7442C9.25512 12.9005 9.16732 13.1125 9.16732 13.3335ZM13.334 14.1668C13.113 14.1668 12.901 14.079 12.7447 13.9228C12.5884 13.7665 12.5007 13.5545 12.5007 13.3335C12.5007 13.1125 12.5884 12.9005 12.7447 12.7442C12.901 12.588 13.113 12.5002 13.334 12.5002C13.555 12.5002 13.767 12.588 13.9232 12.7442C14.0795 12.9005 14.1673 13.1125 14.1673 13.3335C14.1673 13.5545 14.0795 13.7665 13.9232 13.9228C13.767 14.079 13.555 14.1668 13.334 14.1668ZM9.16732 10.0002C9.16732 10.2212 9.25512 10.4331 9.4114 10.5894C9.56768 10.7457 9.77964 10.8335 10.0007 10.8335C10.2217 10.8335 10.4336 10.7457 10.5899 10.5894C10.7462 10.4331 10.834 10.2212 10.834 10.0002C10.834 9.77915 10.7462 9.56719 10.5899 9.41091C10.4336 9.25463 10.2217 9.16683 10.0007 9.16683C9.77964 9.16683 9.56768 9.25463 9.4114 9.41091C9.25512 9.56719 9.16732 9.77915 9.16732 10.0002ZM13.334 10.8335C13.113 10.8335 12.901 10.7457 12.7447 10.5894C12.5884 10.4331 12.5007 10.2212 12.5007 10.0002C12.5007 9.77915 12.5884 9.56719 12.7447 9.41091C12.901 9.25463 13.113 9.16683 13.334 9.16683C13.555 9.16683 13.767 9.25463 13.9232 9.41091C14.0795 9.56719 14.1673 9.77915 14.1673 10.0002C14.1673 10.2212 14.0795 10.4331 13.9232 10.5894C13.767 10.7457 13.555 10.8335 13.334 10.8335ZM6.66732 5.8335C6.4463 5.8335 6.23434 5.92129 6.07806 6.07757C5.92178 6.23385 5.83398 6.44582 5.83398 6.66683C5.83398 6.88784 5.92178 7.0998 6.07806 7.25608C6.23434 7.41237 6.4463 7.50016 6.66732 7.50016H13.334C13.555 7.50016 13.767 7.41237 13.9232 7.25608C14.0795 7.0998 14.1673 6.88784 14.1673 6.66683C14.1673 6.44582 14.0795 6.23385 13.9232 6.07757C13.767 5.92129 13.555 5.8335 13.334 5.8335H6.66732Z" fill="#1F88C8"/>
<path fill-rule="evenodd" clip-rule="evenodd" d="M5 2.5C4.33696 2.5 3.70107 2.76339 3.23223 3.23223C2.76339 3.70107 2.5 4.33696 2.5 5V15C2.5 15.663 2.76339 16.2989 3.23223 16.7678C3.70107 17.2366 4.33696 17.5 5 17.5H15C15.663 17.5 16.2989 17.2366 16.7678 16.7678C17.2366 16.2989 17.5 15.663 17.5 15V5C17.5 4.33696 17.2366 3.70107 16.7678 3.23223C16.2989 2.76339 15.663 2.5 15 2.5H5ZM15 4.16667H5C4.77899 4.16667 4.56702 4.25446 4.41074 4.41074C4.25446 4.56702 4.16667 4.77899 4.16667 5V15C4.16667 15.221 4.25446 15.433 4.41074 15.5893C4.56702 15.7455 4.77899 15.8333 5 15.8333H15C15.221 15.8333 15.433 15.7455 15.5893 15.5893C15.7455 15.433 15.8333 15.221 15.8333 15V5C15.8333 4.77899 15.7455 4.56702 15.5893 4.41074C15.433 4.25446 15.221 4.16667 15 4.16667Z" fill="#1F88C8"/>
</svg>
