<svg width="20" height="20" viewBox="0 0 20 20" fill="none" xmlns="http://www.w3.org/2000/svg">
<path d="M6.66732 10.834C6.4463 10.834 6.23434 10.7462 6.07806 10.5899C5.92178 10.4336 5.83398 10.2217 5.83398 10.0007C5.83398 9.77964 5.92178 9.56768 6.07806 9.4114C6.23434 9.25512 6.4463 9.16732 6.66732 9.16732C6.88833 9.16732 7.10029 9.25512 7.25657 9.4114C7.41285 9.56768 7.50065 9.77964 7.50065 10.0007C7.50065 10.2217 7.41285 10.4336 7.25657 10.5899C7.10029 10.7462 6.88833 10.834 6.66732 10.834ZM6.66732 14.1673C6.4463 14.1673 6.23434 14.0795 6.07806 13.9232C5.92178 13.767 5.83398 13.555 5.83398 13.334C5.83398 13.113 5.92178 12.901 6.07806 12.7447C6.23434 12.5884 6.4463 12.5007 6.66732 12.5007C6.88833 12.5007 7.10029 12.5884 7.25657 12.7447C7.41285 12.901 7.50065 13.113 7.50065 13.334C7.50065 13.555 7.41285 13.767 7.25657 13.9232C7.10029 14.0795 6.88833 14.1673 6.66732 14.1673ZM9.16732 13.334C9.16732 13.555 9.25512 13.767 9.4114 13.9232C9.56768 14.0795 9.77964 14.1673 10.0007 14.1673C10.2217 14.1673 10.4336 14.0795 10.5899 13.9232C10.7462 13.767 10.834 13.555 10.834 13.334C10.834 13.113 10.7462 12.901 10.5899 12.7447C10.4336 12.5884 10.2217 12.5007 10.0007 12.5007C9.77964 12.5007 9.56768 12.5884 9.4114 12.7447C9.25512 12.901 9.16732 13.113 9.16732 13.334ZM13.334 14.1673C13.113 14.1673 12.901 14.0795 12.7447 13.9232C12.5884 13.767 12.5007 13.555 12.5007 13.334C12.5007 13.113 12.5884 12.901 12.7447 12.7447C12.901 12.5884 13.113 12.5007 13.334 12.5007C13.555 12.5007 13.767 12.5884 13.9232 12.7447C14.0795 12.901 14.1673 13.113 14.1673 13.334C14.1673 13.555 14.0795 13.767 13.9232 13.9232C13.767 14.0795 13.555 14.1673 13.334 14.1673ZM9.16732 10.0007C9.16732 10.2217 9.25512 10.4336 9.4114 10.5899C9.56768 10.7462 9.77964 10.834 10.0007 10.834C10.2217 10.834 10.4336 10.7462 10.5899 10.5899C10.7462 10.4336 10.834 10.2217 10.834 10.0007C10.834 9.77964 10.7462 9.56768 10.5899 9.4114C10.4336 9.25512 10.2217 9.16732 10.0007 9.16732C9.77964 9.16732 9.56768 9.25512 9.4114 9.4114C9.25512 9.56768 9.16732 9.77964 9.16732 10.0007ZM13.334 10.834C13.113 10.834 12.901 10.7462 12.7447 10.5899C12.5884 10.4336 12.5007 10.2217 12.5007 10.0007C12.5007 9.77964 12.5884 9.56768 12.7447 9.4114C12.901 9.25512 13.113 9.16732 13.334 9.16732C13.555 9.16732 13.767 9.25512 13.9232 9.4114C14.0795 9.56768 14.1673 9.77964 14.1673 10.0007C14.1673 10.2217 14.0795 10.4336 13.9232 10.5899C13.767 10.7462 13.555 10.834 13.334 10.834ZM6.66732 5.83398C6.4463 5.83398 6.23434 5.92178 6.07806 6.07806C5.92178 6.23434 5.83398 6.4463 5.83398 6.66732C5.83398 6.88833 5.92178 7.10029 6.07806 7.25657C6.23434 7.41285 6.4463 7.50065 6.66732 7.50065H13.334C13.555 7.50065 13.767 7.41285 13.9232 7.25657C14.0795 7.10029 14.1673 6.88833 14.1673 6.66732C14.1673 6.4463 14.0795 6.23434 13.9232 6.07806C13.767 5.92178 13.555 5.83398 13.334 5.83398H6.66732Z" fill="#1F88C8"/>
<path fill-rule="evenodd" clip-rule="evenodd" d="M5 2.5C4.33696 2.5 3.70107 2.76339 3.23223 3.23223C2.76339 3.70107 2.5 4.33696 2.5 5V15C2.5 15.663 2.76339 16.2989 3.23223 16.7678C3.70107 17.2366 4.33696 17.5 5 17.5H15C15.663 17.5 16.2989 17.2366 16.7678 16.7678C17.2366 16.2989 17.5 15.663 17.5 15V5C17.5 4.33696 17.2366 3.70107 16.7678 3.23223C16.2989 2.76339 15.663 2.5 15 2.5H5ZM15 4.16667H5C4.77899 4.16667 4.56702 4.25446 4.41074 4.41074C4.25446 4.56702 4.16667 4.77899 4.16667 5V15C4.16667 15.221 4.25446 15.433 4.41074 15.5893C4.56702 15.7455 4.77899 15.8333 5 15.8333H15C15.221 15.8333 15.433 15.7455 15.5893 15.5893C15.7455 15.433 15.8333 15.221 15.8333 15V5C15.8333 4.77899 15.7455 4.56702 15.5893 4.41074C15.433 4.25446 15.221 4.16667 15 4.16667Z" fill="#1F88C8"/>
</svg>
