<svg width="19" height="21" viewBox="0 0 19 21" fill="none" xmlns="http://www.w3.org/2000/svg">
<path d="M4.40948 7.18273C4.18267 5.65031 5.23598 4.27382 6.84505 3.76951C7.13059 3.67995 7.43867 3.70544 7.70653 3.84079C7.97438 3.97614 8.18186 4.21115 8.28667 4.49795L8.80323 5.91099C8.88639 6.13831 8.90143 6.38594 8.84641 6.62209C8.7914 6.85824 8.66885 7.07213 8.49448 7.23633L6.95786 8.67982C6.88212 8.75112 6.82568 8.84134 6.79404 8.94168C6.76241 9.04201 6.75666 9.14905 6.77736 9.25234L6.79161 9.31569L6.82842 9.47404C7.01952 10.2435 7.3107 10.983 7.69411 11.6728C8.11177 12.4057 8.63008 13.0732 9.23311 13.6547L9.28061 13.6985C9.35732 13.7684 9.45037 13.8167 9.55068 13.8387C9.65099 13.8606 9.75514 13.8556 9.85298 13.824L11.8397 13.1821C12.0655 13.1093 12.3073 13.1075 12.5341 13.1767C12.7609 13.246 12.9624 13.3831 13.1127 13.5706L14.0532 14.7413C14.445 15.2285 14.3975 15.9448 13.9475 16.3748C12.716 17.5527 11.0227 17.7939 9.84467 16.8231C8.4007 15.6283 7.18343 14.1711 6.25367 12.5243C5.31637 10.8787 4.69028 9.06649 4.4083 7.18273H4.40948ZM8.02305 9.33274L9.29605 8.13409C9.64498 7.80585 9.89031 7.37812 10.0005 6.90581C10.1108 6.43351 10.0809 5.93818 9.91473 5.48343L9.39936 4.07039C9.18839 3.49329 8.77085 3.02043 8.23183 2.74815C7.6928 2.47587 7.07285 2.42466 6.4983 2.60497C4.49973 3.23231 2.89542 5.07048 3.23505 7.36667C3.47255 8.96974 4.01998 11.0089 5.22767 13.1382C6.23077 14.9139 7.54384 16.485 9.1013 17.7732C10.8683 19.2289 13.2267 18.7319 14.7585 17.2677C15.1969 16.849 15.4629 16.2746 15.5024 15.6616C15.5419 15.0485 15.3519 14.4432 14.9711 13.969L14.0306 12.7971C13.7297 12.4225 13.3267 12.1486 12.873 12.0106C12.4194 11.8726 11.9359 11.8767 11.4846 12.0224L9.83517 12.5547C9.4093 12.1043 9.03626 11.6043 8.72367 11.0649C8.42172 10.5196 8.1864 9.93828 8.02305 9.33396V9.33274Z" fill="#1F88C8"/>
</svg>
