<svg width="32" height="32" viewBox="0 0 32 32" fill="none" xmlns="http://www.w3.org/2000/svg">
<path d="M13.4825 0.954995L6.94843 0.00850279C6.58788 -0.0364471 6.1824 0.098718 5.91206 0.36905C5.46129 0.819813 5.46129 1.58584 5.91206 2.08154L11.5 7.66948C12.4914 8.75108 12.4914 10.4183 11.455 11.4547C10.4187 12.4911 8.70618 12.4911 7.6698 11.4997L2.08154 5.86675C1.63078 5.41599 0.864747 5.41599 0.36905 5.86675C0.0987182 6.13708 -0.0364477 6.49762 0.00850302 6.90313L0.999898 13.4372C1.18001 14.6088 1.72098 15.6904 2.53197 16.5014L16.5467 30.5161C17.9436 31.913 20.242 31.913 21.6389 30.5161L30.5615 21.5935C31.9584 20.1967 31.9584 17.8982 30.5615 16.5013L16.5468 2.48659C15.6908 1.63031 14.6541 1.08971 13.4826 0.954519L13.4825 0.954995ZM29.2998 17.7636C30.0209 18.4847 30.0209 19.6113 29.2998 20.3324L20.3772 29.255C19.6562 29.976 18.5296 29.976 17.8085 29.255L3.79375 15.2402C3.25309 14.6996 2.89257 13.9785 2.75738 13.2125L2.08155 8.43584L6.4527 12.807C8.21017 14.4293 11.004 14.3844 12.6715 12.6718C14.384 10.9593 14.429 8.25569 12.8516 6.49822C12.8067 6.45327 12.7614 6.408 12.7165 6.36305L8.43554 2.08211L13.2119 2.71267C13.9779 2.80288 14.6989 3.16343 15.2396 3.74905L29.2998 17.7636Z" fill="black"/>
<path d="M9.5171 9.47218C9.87765 9.11163 9.87765 8.57099 9.5171 8.2104L1.8564 0.549707C1.49586 0.18916 0.955217 0.18916 0.594629 0.549707C0.234082 0.910255 0.234082 1.45089 0.594629 1.81148L8.25532 9.47218C8.61587 9.83241 9.15651 9.83241 9.5171 9.47218Z" fill="black"/>
</svg>
