<svg width="32" height="32" viewBox="0 0 32 32" fill="none" xmlns="http://www.w3.org/2000/svg">
<path d="M18.1268 0.954995L24.6609 0.00850279C25.0215 -0.0364471 25.427 0.098718 25.6973 0.36905C26.1481 0.819813 26.1481 1.58584 25.6973 2.08154L20.1094 7.66948C19.118 8.75108 19.118 10.4183 20.1543 11.4547C21.1907 12.4911 22.9032 12.4911 23.9396 11.4997L29.5278 5.86675C29.9786 5.41599 30.7446 5.41599 31.2403 5.86675C31.5107 6.13708 31.6458 6.49762 31.6009 6.90313L30.6095 13.4372C30.4294 14.6088 29.8884 15.6904 29.0774 16.5014L15.0627 30.5161C13.6658 31.913 11.3673 31.913 9.97045 30.5161L1.0479 21.5935C-0.348984 20.1967 -0.348984 17.8982 1.0479 16.5013L15.0626 2.48659C15.9186 1.63031 16.9553 1.08971 18.1268 0.954519L18.1268 0.954995ZM2.30959 17.7636C1.5885 18.4847 1.5885 19.6113 2.30959 20.3324L11.2321 29.255C11.9532 29.976 13.0798 29.976 13.8009 29.255L27.8156 15.2402C28.3563 14.6996 28.7168 13.9785 28.852 13.2125L29.5278 8.43584L25.1567 12.807C23.3992 14.4293 20.6054 14.3844 18.9378 12.6718C17.2254 10.9593 17.1804 8.25569 18.7577 6.49822C18.8027 6.45327 18.8479 6.408 18.8929 6.36305L23.1738 2.08211L18.3975 2.71267C17.6315 2.80288 16.9104 3.16343 16.3697 3.74905L2.30959 17.7636Z" fill="white"/>
<path d="M22.0923 9.47218C21.7317 9.11163 21.7317 8.57099 22.0923 8.2104L29.753 0.549707C30.1135 0.18916 30.6542 0.18916 31.0147 0.549707C31.3753 0.910255 31.3753 1.45089 31.0147 1.81148L23.3541 9.47218C22.9935 9.83241 22.4529 9.83241 22.0923 9.47218Z" fill="white"/>
</svg>
