<svg width="13" height="13" viewBox="0 0 13 13" fill="none" xmlns="http://www.w3.org/2000/svg">
<path d="M10.6415 2.36516C10.5806 2.30422 10.5084 2.25588 10.4289 2.22289C10.3494 2.1899 10.2641 2.17292 10.178 2.17292C10.0919 2.17292 10.0067 2.1899 9.92715 2.22289C9.84763 2.25588 9.77539 2.30422 9.71457 2.36516L6.50008 5.57308L3.28559 2.35859C3.22473 2.29773 3.15248 2.24945 3.07296 2.21652C2.99344 2.18358 2.90822 2.16663 2.82215 2.16663C2.73608 2.16663 2.65086 2.18358 2.57134 2.21652C2.49182 2.24945 2.41957 2.29773 2.35871 2.35859C2.29785 2.41945 2.24957 2.4917 2.21664 2.57122C2.1837 2.65073 2.16675 2.73596 2.16675 2.82203C2.16675 2.9081 2.1837 2.99332 2.21664 3.07284C2.24957 3.15236 2.29785 3.22461 2.35871 3.28547L5.5732 6.49996L2.35871 9.71445C2.29785 9.77531 2.24957 9.84756 2.21664 9.92708C2.1837 10.0066 2.16675 10.0918 2.16675 10.1779C2.16675 10.264 2.1837 10.3492 2.21664 10.4287C2.24957 10.5082 2.29785 10.5805 2.35871 10.6413C2.41957 10.7022 2.49182 10.7505 2.57134 10.7834C2.65086 10.8163 2.73608 10.8333 2.82215 10.8333C2.90822 10.8333 2.99344 10.8163 3.07296 10.7834C3.15248 10.7505 3.22473 10.7022 3.28559 10.6413L6.50008 7.42684L9.71457 10.6413C9.77543 10.7022 9.84769 10.7505 9.9272 10.7834C10.0067 10.8163 10.0919 10.8333 10.178 10.8333C10.2641 10.8333 10.3493 10.8163 10.4288 10.7834C10.5083 10.7505 10.5806 10.7022 10.6415 10.6413C10.7023 10.5805 10.7506 10.5082 10.7835 10.4287C10.8165 10.3492 10.8334 10.264 10.8334 10.1779C10.8334 10.0918 10.8165 10.0066 10.7835 9.92708C10.7506 9.84756 10.7023 9.77531 10.6415 9.71445L7.42696 6.49996L10.6415 3.28547C10.8912 3.03567 10.8912 2.61496 10.6415 2.36516Z" fill="black"/>
</svg>
