<svg width="25" height="23" viewBox="0 0 25 23" fill="none" xmlns="http://www.w3.org/2000/svg">
<path d="M8.30305 0.0128989C6.09162 0.0128989 4.08658 0.447657 2.58594 1.19788C1.08555 1.94791 0 3.06721 0 4.44968V17.7342C0 19.1036 1.07359 20.2175 2.57724 20.9688C4.08095 21.7204 6.08871 22.1623 8.30275 22.1623C10.1636 22.1623 11.876 21.8445 13.2672 21.2974C14.3544 21.8484 15.5823 22.1623 16.8823 22.1623C21.3084 22.1623 24.9083 18.5622 24.9083 14.1362C24.9083 9.71003 21.3085 6.11011 16.8823 6.11011C16.7871 6.11011 16.6911 6.11532 16.5969 6.1186V4.44948C16.5969 3.06701 15.5201 1.9477 14.0197 1.19748C12.5193 0.44726 10.5144 0.0126953 8.30258 0.0126953L8.30305 0.0128989ZM8.30305 1.12854C10.3714 1.12854 12.24 1.55751 13.5442 2.20964C14.8485 2.86176 15.5076 3.6921 15.5076 4.44963C15.2503 5.62513 14.3892 6.27186 13.5442 6.68093C12.2399 7.33305 10.3714 7.76203 8.30305 7.76203C6.2347 7.76203 4.36611 7.33306 3.06187 6.68093C2.09563 6.18033 1.21607 5.41741 1.0985 4.44963C1.0985 3.6921 1.75758 2.86176 3.06187 2.20964C4.36616 1.55753 6.2347 1.12854 8.30305 1.12854ZM1.10724 6.69837C1.51729 7.07618 2.02347 7.41173 2.58624 7.69298C4.08663 8.44321 6.09152 8.87797 8.30334 8.87797C9.26242 8.87797 10.1794 8.78974 11.0364 8.63588C10.3835 9.32932 9.85454 10.1409 9.47963 11.0317C9.0968 11.0653 8.70489 11.0923 8.30334 11.0923C6.23826 11.0923 4.37239 10.662 3.07057 10.0112C1.769 9.36004 1.10719 8.54171 1.10719 7.77083L1.10724 6.69837ZM16.8827 7.2173C20.7105 7.2173 23.8017 10.3085 23.8017 14.1363C23.8017 17.9642 20.7105 21.0554 16.8827 21.0554C13.0548 21.0554 9.96362 17.9642 9.96362 14.1363C9.96362 10.3085 13.0548 7.2173 16.8827 7.2173ZM1.10724 10.0195C1.51478 10.3944 2.01789 10.7256 2.57754 11.0054C4.08065 11.7569 6.08841 12.1988 8.30305 12.1988C8.57352 12.1988 8.83566 12.1863 9.09883 12.1727C8.94072 12.8006 8.85675 13.4598 8.85675 14.1361C8.85675 14.2255 8.86254 14.3157 8.86544 14.4043C8.67972 14.4114 8.49381 14.4128 8.30326 14.4128C6.23818 14.4128 4.37231 13.9825 3.07049 13.3317C1.76872 12.6813 1.10697 11.8627 1.10697 11.0919L1.10724 10.0195ZM1.10724 13.3406C1.51478 13.7155 2.01789 14.0467 2.57754 14.3265C4.08065 15.078 6.08841 15.5199 8.30305 15.5199C8.53008 15.5199 8.75595 15.5133 8.97755 15.5027C9.10903 16.2653 9.34725 16.9917 9.67816 17.6649C9.23182 17.7093 8.77522 17.734 8.30305 17.734C6.23796 17.734 4.37209 17.3037 3.07027 16.6529C1.7687 16.0023 1.1069 15.1838 1.1069 14.4131L1.10724 13.3406ZM1.10724 16.6616C1.51478 17.0366 2.01789 17.3678 2.57754 17.6476C4.08065 18.3991 6.08841 18.841 8.30305 18.841C8.99223 18.841 9.66155 18.8018 10.301 18.7199C10.7873 19.417 11.3792 20.0244 12.0566 20.5362C10.965 20.8571 9.67969 21.0551 8.30305 21.0551C6.23855 21.0551 4.37288 20.6248 3.07027 19.974C1.76791 19.3234 1.1069 18.5047 1.1069 17.7342L1.10724 16.6616Z" fill="#239ED8"/>
</svg>
