<svg width="140" height="141" viewBox="0 0 140 141" fill="none" xmlns="http://www.w3.org/2000/svg">
<g clip-path="url(#clip0_4302_170450)">
<path d="M112.764 103.462L8.53215 138.292C7.70397 138.569 6.81487 138.61 5.96472 138.41C5.11457 138.21 4.33704 137.777 3.71947 137.159C3.1019 136.542 2.66875 135.764 2.46867 134.914C2.26858 134.064 2.3095 133.175 2.58681 132.347L37.4165 28.1143L112.764 103.462Z" fill="#FDC70E"/>
<path d="M112.768 103.467C112.768 103.467 97.4165 99.9899 69.1715 71.7169C41.6755 44.2465 37.6155 28.9235 37.4219 28.1232V28.0952C37.4219 28.0952 52.8009 31.5742 81.0552 59.8285C109.31 88.0829 112.768 103.467 112.768 103.467Z" fill="#D39518"/>
<path d="M45.4111 125.967L29.9645 131.124C26.7211 128.23 23.2678 124.987 19.5811 121.3C15.8945 117.614 12.6511 114.16 9.75781 110.917L14.9145 95.4702C18.8345 100.207 23.6178 105.504 29.4978 111.384C35.3778 117.264 40.6745 122.047 45.4111 125.967Z" fill="#2167D8"/>
<path d="M87.4564 111.92L70.8664 117.45C61.7422 110.897 53.2086 103.558 45.363 95.5172C37.3226 87.6716 29.9835 79.138 23.4297 70.0138L28.9597 53.4238C36.4125 65.1649 45.2492 75.9679 55.2797 85.6005C64.9123 95.631 75.7153 104.468 87.4564 111.92Z" fill="#D3374E"/>
<path d="M59.575 48.4912C59.1136 48.4911 58.6626 48.3542 58.279 48.0978C57.8953 47.8414 57.5963 47.477 57.4198 47.0507C57.2432 46.6244 57.197 46.1553 57.287 45.7028C57.377 45.2502 57.5991 44.8345 57.9254 44.5082C62.4869 40.2043 65.4995 34.5146 66.4953 28.3227C67.491 22.1309 66.4142 15.7835 63.432 10.2665C63.2533 10.0036 63.1303 9.70693 63.0703 9.39475C63.0104 9.08256 63.0149 8.76141 63.0836 8.45103C63.1522 8.14064 63.2836 7.84755 63.4695 7.58975C63.6555 7.33195 63.8922 7.11487 64.1651 6.95183C64.438 6.7888 64.7414 6.68324 65.0565 6.64164C65.3717 6.60005 65.692 6.62329 65.9979 6.70994C66.3037 6.79658 66.5886 6.94482 66.8351 7.14553C67.0816 7.34625 67.2845 7.59522 67.4314 7.87717C70.9301 14.2916 72.218 21.68 71.0961 28.8999C69.9742 36.1198 66.5049 42.7689 61.2247 47.8192C61.0076 48.0345 60.7501 48.2047 60.467 48.32C60.1839 48.4354 59.8807 48.4935 59.575 48.4912Z" fill="#2167D8"/>
<path d="M55.6761 25.0645C55.0574 25.0643 54.464 24.8184 54.0265 24.3808L50.1205 20.4771C49.9038 20.2603 49.732 20.003 49.6148 19.7198C49.4976 19.4366 49.4374 19.1331 49.4375 18.8266C49.4376 18.5202 49.4981 18.2167 49.6155 17.9336C49.7329 17.6505 49.9048 17.3933 50.1216 17.1766C50.5595 16.7391 51.1532 16.4934 51.7721 16.4937C52.0786 16.4938 52.3821 16.5542 52.6652 16.6716C52.9483 16.789 53.2055 16.961 53.4221 17.1778L57.3258 21.0815C57.652 21.4078 57.8742 21.8235 57.9642 22.2761C58.0542 22.7286 58.0079 23.1977 57.8314 23.624C57.6548 24.0503 57.3558 24.4147 56.9722 24.6711C56.5886 24.9275 56.1376 25.0644 55.6761 25.0645Z" fill="#23AF6F"/>
<path d="M83.0052 21.1607C82.3864 21.1607 81.7929 20.9148 81.3553 20.4772C80.9177 20.0397 80.6719 19.4462 80.6719 18.8273V14.9237C80.6719 14.3048 80.9177 13.7113 81.3553 13.2738C81.7929 12.8362 82.3864 12.5903 83.0052 12.5903C83.624 12.5903 84.2175 12.8362 84.6551 13.2738C85.0927 13.7113 85.3385 14.3048 85.3385 14.9237V18.8273C85.3385 19.4462 85.0927 20.0397 84.6551 20.4772C84.2175 20.9148 83.624 21.1607 83.0052 21.1607Z" fill="#D3374E"/>
<path d="M86.9112 36.7799H83.0052C82.3864 36.7799 81.7929 36.5341 81.3553 36.0965C80.9177 35.6589 80.6719 35.0655 80.6719 34.4466C80.6719 33.8278 80.9177 33.2343 81.3553 32.7967C81.7929 32.3591 82.3864 32.1133 83.0052 32.1133H86.9112C87.53 32.1133 88.1235 32.3591 88.5611 32.7967C88.9987 33.2343 89.2445 33.8278 89.2445 34.4466C89.2445 35.0655 88.9987 35.6589 88.5611 36.0965C88.1235 36.5341 87.53 36.7799 86.9112 36.7799Z" fill="#23AF6F"/>
<path d="M94.7156 83.6333C94.2542 83.6332 93.8032 83.4963 93.4196 83.2399C93.036 82.9835 92.737 82.6191 92.5604 82.1928C92.3838 81.7665 92.3376 81.2974 92.4276 80.8449C92.5176 80.3923 92.7398 79.9766 93.066 79.6503C98.1166 74.3698 104.766 70.9004 111.986 69.7785C119.207 68.6566 126.596 69.9447 133.01 73.4436C133.52 73.7713 133.882 74.2845 134.02 74.8745C134.159 75.4645 134.062 76.0852 133.75 76.6051C133.439 77.125 132.938 77.5034 132.352 77.6602C131.767 77.817 131.144 77.7399 130.614 77.4453C125.11 74.4078 118.748 73.2995 112.541 74.297C106.335 75.2945 100.64 78.3405 96.3653 82.9496C95.9278 83.3872 95.3344 83.6331 94.7156 83.6333Z" fill="#2167D8"/>
<path d="M122.054 91.4406C121.436 91.4411 120.843 91.196 120.405 90.7593L116.499 86.8533C116.074 86.4132 115.839 85.8238 115.844 85.212C115.849 84.6002 116.095 84.015 116.527 83.5823C116.96 83.1497 117.545 82.9043 118.157 82.899C118.769 82.8937 119.358 83.1289 119.798 83.5539L123.704 87.4576C124.03 87.7839 124.252 88.1996 124.342 88.6522C124.432 89.1047 124.386 89.5738 124.21 90.0001C124.033 90.4264 123.734 90.7908 123.35 91.0472C122.967 91.3036 122.516 91.4405 122.054 91.4406Z" fill="#23AF6F"/>
<path d="M125.956 60.2069H122.054C121.435 60.2069 120.842 59.9611 120.404 59.5235C119.967 59.0859 119.721 58.4924 119.721 57.8736C119.721 57.2548 119.967 56.6613 120.404 56.2237C120.842 55.7861 121.435 55.5403 122.054 55.5403H125.956C126.574 55.5403 127.168 55.7861 127.605 56.2237C128.043 56.6613 128.289 57.2548 128.289 57.8736C128.289 58.4924 128.043 59.0859 127.605 59.5235C127.168 59.9611 126.574 60.2069 125.956 60.2069ZM106.435 60.2069C105.816 60.2069 105.223 59.9611 104.785 59.5235C104.347 59.0859 104.102 58.4924 104.102 57.8736V53.9676C104.102 53.3488 104.347 52.7553 104.785 52.3177C105.223 51.8801 105.816 51.6343 106.435 51.6343C107.054 51.6343 107.647 51.8801 108.085 52.3177C108.522 52.7553 108.768 53.3488 108.768 53.9676V57.8736C108.768 58.4924 108.522 59.0859 108.085 59.5235C107.647 59.9611 107.054 60.2069 106.435 60.2069Z" fill="#D3374E"/>
<path d="M86.911 52.3971C86.4495 52.3971 85.9985 52.2602 85.6149 52.0038C85.2313 51.7474 84.9323 51.383 84.7557 50.9567C84.5791 50.5304 84.5329 50.0613 84.6229 49.6087C84.7129 49.1562 84.9351 48.7405 85.2613 48.4141C86.2467 47.4579 87.4281 46.7273 88.7238 46.2729C90.0195 45.8184 91.3985 45.651 92.7653 45.7822H92.8166C93.5592 45.9043 94.3199 45.8537 95.0398 45.6344C95.7596 45.4151 96.4193 45.0329 96.9676 44.5175C97.4873 43.9619 97.8718 43.2939 98.0912 42.5654C98.3105 41.8369 98.3588 41.0677 98.2323 40.3175C98.0815 38.9488 98.2401 37.5638 98.6963 36.2646C99.1525 34.9654 99.8947 33.7853 100.868 32.8115C101.842 31.8376 103.021 31.0948 104.32 30.638C105.619 30.1812 107.004 30.022 108.373 30.1721C109.127 30.3237 109.907 30.2867 110.643 30.0642C111.379 29.8417 112.049 29.4407 112.593 28.8969C113.137 28.3531 113.537 27.6833 113.76 26.9471C113.982 26.2109 114.02 25.4311 113.868 24.6771C113.738 23.3091 113.907 21.9292 114.362 20.6328C114.818 19.3363 115.55 18.1543 116.507 17.1685C116.722 16.9412 116.98 16.7594 117.266 16.6339C117.552 16.5084 117.861 16.4416 118.174 16.4377C118.486 16.4337 118.796 16.4927 119.086 16.6109C119.375 16.7292 119.638 16.9044 119.858 17.1262C120.079 17.3479 120.252 17.6117 120.369 17.9019C120.485 18.192 120.542 18.5026 120.536 18.8151C120.53 19.1277 120.461 19.4359 120.334 19.7214C120.207 20.0069 120.023 20.2639 119.795 20.4771C119.275 21.033 118.89 21.7008 118.67 22.429C118.449 23.1573 118.399 23.9264 118.523 24.6771C118.673 26.0465 118.514 27.4321 118.058 28.7317C117.601 30.0313 116.858 31.2117 115.884 32.1858C114.91 33.1599 113.729 33.9027 112.43 34.3595C111.13 34.8163 109.745 34.9753 108.375 34.8248C107.623 34.6735 106.845 34.7107 106.111 34.933C105.376 35.1554 104.709 35.556 104.167 36.0991C103.625 36.6422 103.225 37.311 103.005 38.0458C102.784 38.7806 102.748 39.5586 102.901 40.3105C103.034 41.6774 102.867 43.0566 102.412 44.3525C101.958 45.6484 101.226 46.8297 100.269 47.8145C99.28 48.765 98.098 49.4919 96.8033 49.946C95.5087 50.4001 94.1316 50.5708 92.7653 50.4465H92.7116C91.9694 50.3237 91.2089 50.3739 90.4893 50.5933C89.7697 50.8126 89.1104 51.1952 88.563 51.7111C88.3463 51.9285 88.0888 52.101 87.8053 52.2187C87.5218 52.3365 87.2179 52.3971 86.911 52.3971Z" fill="#FDC70E"/>
<path d="M94.7193 25.0644C94.3359 25.0646 93.9583 24.9702 93.62 24.7897C93.2817 24.6093 92.9931 24.3482 92.7797 24.0296C92.5663 23.711 92.4347 23.3447 92.3966 22.9632C92.3584 22.5817 92.4149 22.1966 92.561 21.8421C93.8003 19.088 94.4493 16.105 94.4662 13.085C94.483 10.0649 93.8674 7.07483 92.659 4.30708C92.3669 3.76126 92.3036 3.12177 92.483 2.52928C92.6624 1.93679 93.0698 1.43984 93.6156 1.14774C94.1615 0.855653 94.801 0.792349 95.3934 0.971759C95.9859 1.15117 96.4829 1.5586 96.775 2.10441C98.3074 5.48096 99.1087 9.1433 99.1264 12.8513C99.1441 16.5592 98.3778 20.2291 96.8776 23.6201C96.7015 24.0476 96.4023 24.4131 96.018 24.6703C95.6337 24.9274 95.1817 25.0646 94.7193 25.0644ZM118.144 48.4911C117.603 48.4916 117.079 48.3045 116.661 47.9615C116.243 47.6185 115.957 47.1411 115.852 46.6108C115.747 46.0804 115.83 45.5301 116.086 45.0538C116.341 44.5775 116.755 44.2048 117.255 43.9994C120.646 42.4977 124.316 41.7304 128.025 41.7481C131.733 41.7658 135.396 42.568 138.773 44.1021C139.318 44.3942 139.726 44.8911 139.905 45.4836C140.085 46.0761 140.021 46.7156 139.729 47.2614C139.437 47.8072 138.94 48.2147 138.348 48.3941C137.755 48.5735 137.116 48.5102 136.57 48.2181C133.802 47.0086 130.811 46.3924 127.791 46.4093C124.77 46.4262 121.787 47.0757 119.033 48.3161C118.75 48.4316 118.449 48.491 118.144 48.4911Z" fill="#D3374E"/>
</g>
<defs>
<clipPath id="clip0_4302_170450">
<rect width="140" height="140" fill="white" transform="translate(0 0.876953)"/>
</clipPath>
</defs>
</svg>
