<svg width="220" height="220" viewBox="0 0 220 220" fill="none" xmlns="http://www.w3.org/2000/svg">
<g clip-path="url(#clip0_2018_73037)">
<rect width="220" height="220" rx="110" fill="#ECFDF3"/>
<g clip-path="url(#clip1_2018_73037)">
<path fill-rule="evenodd" clip-rule="evenodd" d="M-12.9371 132.089C-12.9474 128.622 -12.9637 125.154 -12.9661 121.688C-12.9725 109.146 -12.9745 96.6046 -12.9779 84.0631C-12.9779 83.7 -13.0001 83.3341 -12.9622 82.9749C-12.8987 82.3869 -12.6916 82.2638 -12.1499 82.5159C-8.89336 84.0297 -5.5763 85.4276 -2.70548 87.6418C-1.15912 88.8342 0.4202 89.996 2.06004 91.0595C5.06271 93.0076 8.39158 94.2945 11.8361 95.2188C18.4791 97.0016 24.9494 99.2846 31.4428 101.51C33.4132 102.186 35.4176 102.765 37.4038 103.397C39.7202 104.133 41.9179 105.156 43.9091 106.504C48.3312 109.499 53.2846 111.234 58.3625 112.722C61.4621 113.63 64.5558 114.552 67.649 115.48C69.7312 116.106 71.7135 116.97 73.6534 117.939C74.8406 118.532 75.7498 119.477 76.7781 120.27C77.5186 120.765 77.6814 121.571 77.6307 122.31C77.3656 126.242 77.9304 130.189 77.4128 134.111C77.1392 136.189 77.0994 138.286 76.7825 140.358C75.8753 146.28 73.8394 151.917 72.2699 157.672C71.8876 159.073 71.4739 160.465 70.8854 161.8C70.7073 162.206 70.571 162.638 70.1592 162.892C69.0626 163.002 68.0805 162.504 67.0783 162.226C57.2147 159.5 47.2822 156.998 37.5298 153.903C30.1828 151.572 23.155 148.462 16.3694 144.827C12.0796 142.529 7.57044 140.692 3.07208 138.835C-1.57584 136.917 -6.32168 135.224 -10.8299 132.987C-11.5192 132.646 -12.4043 132.766 -12.9371 132.089Z" fill="#6EC0E4"/>
<path fill-rule="evenodd" clip-rule="evenodd" d="M135.844 121.949C136.777 120.962 138.013 120.552 139.285 120.217C141.149 119.726 143.075 119.589 144.977 119.356C148.599 118.911 152.133 118.072 155.678 117.261C168.781 114.262 181.912 111.39 195.055 108.569C203.762 106.7 212.479 104.866 221.213 103.125C224.418 102.487 227.643 101.952 230.866 101.408C232.962 101.055 233.006 101.117 233.004 103.163C232.998 111.708 233.023 120.252 232.965 128.797C232.948 131.172 232.801 133.551 232.877 135.925C233.122 143.582 232.952 151.238 232.999 158.894C233.001 159.312 233.187 159.783 232.799 160.151C232.304 159.655 232.442 159.02 232.44 158.432C232.425 154.523 232.438 150.613 232.43 146.704C232.426 145.035 231.963 144.659 230.45 145.434C227.167 147.115 223.712 148.361 220.263 149.64C215.153 151.533 209.885 152.569 204.408 152.527C201.049 152.502 197.681 152.663 194.331 152.487C189.938 152.258 185.769 153.145 181.678 154.514C176.404 156.28 171.071 157.877 165.857 159.808C163.737 160.594 161.506 160.532 159.308 160.621C158.143 160.668 157.678 159.999 157.465 158.497C157.465 158.366 157.483 158.236 157.512 158.108C157.701 157.632 157.681 157.141 157.605 156.646C157.632 155.754 157.794 154.88 158.061 154.033C159.969 147.964 158.921 142.181 156.338 136.545C154.956 133.527 153.262 130.676 151.476 127.879C150.356 126.125 148.99 124.602 147.319 123.316C144.993 121.527 142.466 121.122 139.684 121.95C138.861 122.195 138.058 122.504 137.229 122.731C136.56 122.826 135.839 123.007 135.844 121.949Z" fill="#75E0A7"/>
<path fill-rule="evenodd" clip-rule="evenodd" d="M83.2289 123.115C83.7514 122.89 84.2725 122.684 84.8407 122.568C87.0217 122.124 88.9691 121.079 90.9587 120.159C93.6928 118.896 96.4308 117.644 99.2981 116.699C101.629 115.931 104.014 115.888 106.423 116.31C108.594 116.69 110.283 117.768 111.436 119.622C111.746 120.119 112.034 120.601 112.743 120.509C112.714 121.046 112.219 121.073 111.88 121.234C108.463 122.861 105.866 125.309 104.027 128.587C102.527 131.26 100.829 133.824 99.4752 136.582C98.6398 138.282 98.5778 139.973 99.2307 141.718C100.124 143.254 101.654 143.525 103.236 143.615C104.907 143.709 106.486 143.222 108.001 142.604C110.206 141.705 112.249 140.538 113.945 138.836C114.889 137.888 115.942 137.049 116.947 136.165C118.828 134.508 121.393 134.111 123.447 135.352C127.108 137.565 130.75 139.798 134.692 141.508C136.794 142.652 138.29 144.376 139.506 146.37C141.33 149.358 143.697 151.892 146.326 154.202C146.661 154.495 147.052 154.729 147.301 155.112C147.624 156.295 148.373 157.271 148.969 158.311C150.296 160.628 150.998 163.103 151.182 165.74C151.662 168.566 150.217 170.564 148.251 172.339C147.543 172.645 146.829 172.928 146.175 173.359C145.294 173.939 144.252 174.171 143.239 173.976C142.002 173.738 141.272 174.129 140.858 175.248C140.804 175.399 140.656 175.498 140.549 175.62C140.236 176.091 139.946 176.579 139.607 177.03C138.52 178.474 137.081 179.28 135.229 179.302C134.656 179.308 134.083 179.295 133.511 179.308C132.436 179.334 132.248 179.47 131.947 180.466C131.641 181.477 131.229 182.427 130.519 183.238C128.818 185.179 126.626 185.659 124.187 185.203C123.246 185.028 122.659 185.276 121.892 185.845C119.788 187.403 117.801 189.213 115.08 189.77C114.549 189.879 114.028 189.885 113.499 189.888C114.334 188.81 115.456 188.017 116.4 187.045C116.484 186.959 116.594 186.898 116.685 186.817C118.027 185.637 119.06 184.253 118.604 182.4C118.153 180.572 116.682 179.696 114.905 179.276C114.785 179.244 114.672 179.199 114.561 179.145C114.065 178.886 113.961 178.434 113.913 177.933C113.494 173.639 110.608 171.789 106.413 173.116C106.335 173.14 106.259 173.171 106.183 173.201C105.815 173.325 105.449 173.487 105.059 173.273C104.868 173.11 104.738 172.901 104.674 172.666C103.774 169.341 100.416 168.557 97.9501 169.069C96.0731 169.458 94.2035 169.927 92.3968 170.593C91.9408 170.713 91.4891 170.912 91.0109 170.683C90.6074 170.358 90.8047 169.95 90.8623 169.569C91.221 167.192 89.711 165.311 87.2707 165.122C86.2493 165.043 85.2378 165.129 84.2262 165.301C81.8779 165.7 79.5187 165.761 77.1714 165.321C76.3818 165.174 75.5586 165.004 75.0352 164.284C75.135 162.661 76.062 161.332 76.7173 159.926C80.0649 152.729 81.9738 145.178 82.9544 137.337C83.4744 133.182 83.3372 129.085 82.9234 124.959C82.8609 124.333 82.734 123.664 83.2289 123.115Z" fill="#F6B58D"/>
<path fill-rule="evenodd" clip-rule="evenodd" d="M-12.9359 132.089C-11.0112 132.275 -9.42839 133.357 -7.72066 134.084C-5.43532 135.058 -3.12291 135.963 -0.829703 136.914C2.77961 138.412 6.41647 139.841 9.99577 141.414C13.0988 142.778 16.0671 144.39 19.0933 145.896C24.2712 148.473 29.5734 150.763 35.0346 152.715C39.4882 154.309 44.0363 155.558 48.5996 156.78C51.7056 157.613 54.7865 158.529 57.8841 159.393C61.2922 160.342 64.6703 161.401 68.1428 162.12C68.7834 162.253 69.389 162.505 69.9642 162.819C70.2574 163.209 70.0695 163.604 69.9425 163.973C69.2852 165.875 68.7022 167.806 67.7472 169.595C67.2528 170.349 67.0269 171.214 66.6978 172.036C66.0385 173.684 65.4161 175.35 64.3283 176.795C62.9719 178.597 61.6946 179.126 59.5421 178.482C49.5531 175.497 39.3185 173.388 29.3545 170.318C28.2214 169.969 27.0637 169.678 25.9656 169.242C22.3848 167.82 18.6569 166.899 14.9236 165.978C11.1097 165.038 7.37243 163.833 3.62978 162.654C1.63423 162.025 -0.197483 161.013 -2.13055 160.236C-4.72536 159.194 -7.41316 158.524 -10.1964 158.212C-10.8463 158.138 -11.4894 158.006 -12.1398 157.936C-12.803 157.865 -13.0746 157.528 -12.9826 156.886C-12.9713 156.808 -12.9816 156.726 -12.9816 156.645C-12.9816 148.742 -12.9816 140.838 -12.9796 132.935C-12.9801 132.652 -12.9511 132.371 -12.9359 132.089Z" fill="#2393C3"/>
<path fill-rule="evenodd" clip-rule="evenodd" d="M140.549 175.619C140.522 175.113 140.767 174.69 140.999 174.269C141.435 173.476 141.633 173.402 142.568 173.592C143.94 173.872 145.237 173.695 146.383 172.868C146.928 172.475 147.492 172.208 148.175 172.221C148.782 171.673 149.469 171.247 150.207 170.893C150.978 170.524 151.746 170.148 152.506 169.756C155.827 168.039 157.208 165.238 157.19 161.651C157.187 160.848 157.161 160.044 157.209 159.242C157.235 158.833 157.124 158.314 157.743 158.174C157.787 158.492 157.795 158.819 157.876 159.127C158.123 160.054 158.843 160.535 159.79 160.321C160.276 160.211 160.751 160.138 161.242 160.156C163.067 160.225 164.805 159.868 166.492 159.193C168.728 158.299 171.048 157.65 173.347 156.935C176.034 156.097 178.675 155.114 181.354 154.247C183.949 153.407 186.589 152.712 189.277 152.212C189.634 152.146 190.011 152.17 190.38 152.17C194.889 152.167 199.399 152.131 203.908 152.178C209.697 152.237 215.262 151.213 220.635 149.099C222.682 148.294 224.786 147.626 226.828 146.811C227.883 146.39 228.856 145.773 229.874 145.26C230.494 144.948 231.133 144.682 231.851 144.669C232.444 144.658 232.791 144.892 232.79 145.512C232.79 145.834 232.795 146.157 232.795 146.48C232.798 151.037 232.8 155.593 232.801 160.15C229.962 161.288 227.048 162.219 224.043 162.81C214.624 164.661 205.168 166.317 195.708 167.953C187.135 169.435 178.567 170.945 169.996 172.443C168.501 172.703 167.003 172.802 165.478 172.79C160.965 172.754 156.501 173.271 152.067 174.07C149.937 174.452 147.811 174.864 145.675 175.217C143.982 175.497 142.259 175.494 140.549 175.619Z" fill="#079455"/>
<path fill-rule="evenodd" clip-rule="evenodd" d="M147.186 155.078C145.869 154.47 144.809 153.515 143.947 152.417C143.122 151.365 142.09 150.513 141.289 149.438C140.642 148.568 139.933 147.754 139.398 146.797C138.244 144.739 136.732 142.987 134.638 141.782C134.576 141.628 134.489 141.488 134.328 141.429C130.749 140.093 127.959 137.543 124.859 135.474C123.678 134.685 122.388 134.249 120.98 134.1C119.128 133.904 117.654 134.587 116.357 135.857C114.266 137.906 111.995 139.74 109.408 141.168C107.158 142.412 104.797 143.219 102.165 143.04C100.952 142.957 99.8143 142.726 98.9676 141.768C98.2409 140.138 98.2517 138.508 98.9927 136.888C100.236 134.17 101.842 131.648 103.38 129.091C104.211 127.709 105.011 126.326 106.128 125.116C107.89 123.211 109.907 121.715 112.321 120.732C112.469 120.673 112.601 120.583 112.741 120.509C114.554 119.479 116.477 118.679 118.452 118.019C121.124 117.125 123.783 117.417 126.373 118.38C128.933 119.332 131.533 120.194 133.973 121.443C134.549 121.737 135.167 121.98 135.846 121.949C136.063 122.609 136.544 122.646 137.114 122.464C140.369 123.382 143.395 124.766 146.114 126.769C147.932 128.109 149.264 129.849 150.096 131.893C151.989 136.54 152.511 141.377 152.023 146.359C151.759 149.063 151.18 151.615 149.425 153.78C148.864 154.471 148.346 155.341 147.186 155.078Z" fill="#E59F7E"/>
<path fill-rule="evenodd" clip-rule="evenodd" d="M67.7461 169.595C67.8578 168.514 68.2966 167.529 68.6986 166.537C69.1911 165.32 69.629 164.087 69.9635 162.819C70.7365 161.659 71.106 160.335 71.4932 159.03C72.9431 154.13 74.4068 149.234 75.6658 144.281C76.1608 142.334 76.4338 140.347 76.6375 138.343C76.8274 136.468 76.883 134.579 77.2658 132.717C77.4842 131.658 77.4483 130.536 77.2663 129.464C77.0552 128.215 77.1143 126.999 77.252 125.748C77.4547 123.908 77.5398 122.045 76.7792 120.27C78.0235 120.436 79.2343 120.705 80.4299 121.111C81.5954 121.507 82.5332 122.124 83.2274 123.114C83.2195 125.167 83.5422 127.197 83.649 129.241C83.7494 131.164 83.8429 133.091 83.5516 135.022C83.2825 136.807 83.1521 138.611 82.9764 140.409C82.789 142.337 82.2247 144.184 81.7632 146.055C80.9263 149.452 80.0028 152.822 78.8294 156.124C78.1248 158.108 76.978 159.89 76.2134 161.845C75.8907 162.669 75.4912 163.465 75.1261 164.274C74.1918 166.486 72.7114 168.257 70.6838 169.586C69.7052 169.589 68.7252 169.592 67.7461 169.595Z" fill="#BCE2F2"/>
<path fill-rule="evenodd" clip-rule="evenodd" d="M92.3019 170.337C92.8908 169.949 93.5771 169.812 94.2448 169.651C95.1137 169.442 95.9756 169.216 96.8362 168.97C98.6861 168.442 100.514 168.41 102.299 169.286C103.702 169.975 104.61 171.012 104.926 172.537C104.974 172.77 105.058 172.997 105.125 173.227C105.482 173.782 105.019 174.144 104.765 174.512C103.321 176.607 101.317 178.14 99.3517 179.721C96.9995 181.613 94.2423 182.725 91.4837 183.85C91.4266 183.868 91.3695 183.885 91.312 183.902C91.0896 183.705 90.8323 183.636 90.5302 183.628C87.9752 183.552 85.6727 182.732 83.5226 181.395C81.991 180.443 81.1379 179.131 80.9805 177.367C81.0282 177.336 81.0764 177.305 81.1241 177.273C82.9662 177.307 84.487 176.43 85.9905 175.56C88.3885 174.171 90.5715 172.514 92.3019 170.337Z" fill="#E59F7E"/>
<path fill-rule="evenodd" clip-rule="evenodd" d="M70.6826 169.586C71.5175 168.403 72.7151 167.546 73.613 166.408C74.1581 165.718 74.3825 164.817 75.1249 164.273C77.824 165.537 80.6545 165.392 83.5071 165.032C84.7174 164.879 85.9208 164.711 87.1543 164.735C89.0706 164.773 90.2268 165.906 91.1449 167.332C91.569 167.992 91.382 168.807 91.234 169.564C91.1695 169.895 90.8418 170.203 91.1154 170.573C91.1847 170.917 90.9235 171.087 90.7085 171.253C87.8436 173.449 84.9039 175.534 81.6331 177.122C81.4486 177.211 81.2444 177.24 81.055 177.314L80.9792 177.366C79.8456 177.174 78.7219 177.643 77.5736 177.361C74.7982 176.677 72.5183 175.366 71.184 172.755C70.6679 171.747 70.6078 170.68 70.6826 169.586Z" fill="#E59F7E"/>
<path fill-rule="evenodd" clip-rule="evenodd" d="M106.109 172.967C108.141 171.861 111.194 172.329 112.647 173.768C113.626 174.737 114.279 175.941 114.233 177.399C114.215 177.98 114.072 178.619 114.728 179.009C113.833 179.526 113.191 180.315 112.499 181.043C109.851 183.828 106.708 185.869 103.07 187.173C102.112 187.516 101.22 188.032 100.205 188.219C99.7474 187.986 99.2475 188.061 98.7614 188.015C96.694 187.823 94.7378 187.294 93.0562 186.033C92.3024 185.469 91.6298 184.821 91.3125 183.902L91.3907 183.829C92.576 183.397 93.862 183.394 95.0443 182.878C98.6197 181.322 101.783 179.259 104.239 176.207C105.04 175.211 105.496 174.051 106.109 172.967Z" fill="#E59F7E"/>
<path fill-rule="evenodd" clip-rule="evenodd" d="M114.96 179.031C116.98 179.339 118.529 180.738 118.996 182.543C119.196 183.313 118.944 183.993 118.71 184.635C118.352 185.615 117.689 186.432 116.821 187.093C116.179 187.584 115.616 188.182 115.044 188.757C114.588 189.219 114.113 189.643 113.496 189.887C111.045 190.541 108.553 190.987 106.017 190.647C104.128 190.393 102.242 189.994 100.727 188.696C101.468 188.07 102.43 187.965 103.304 187.664C107.298 186.286 110.832 184.237 113.604 181.025C114.136 180.407 114.438 179.65 114.96 179.031Z" fill="#E59F7E"/>
<path fill-rule="evenodd" clip-rule="evenodd" d="M114.959 179.031C115.017 179.552 114.749 179.951 114.476 180.36C113.101 182.411 111.201 183.918 109.157 185.251C106.719 186.842 103.991 187.816 101.213 188.657C101.061 188.704 100.888 188.685 100.725 188.696C100.499 188.593 100.335 188.423 100.203 188.219C100.617 187.571 101.38 187.535 101.998 187.289C104.35 186.356 106.676 185.396 108.744 183.909C110.437 182.69 111.946 181.276 113.308 179.725C113.73 179.244 114.101 178.96 114.726 179.009C114.804 179.019 114.881 179.026 114.959 179.031Z" fill="#C07C5C"/>
<path fill-rule="evenodd" clip-rule="evenodd" d="M147.184 155.078C148.022 154.872 148.604 154.314 149.115 153.676C150.571 151.856 151.319 149.752 151.589 147.478C151.798 145.722 151.905 143.958 151.85 142.188C151.742 138.71 151.181 135.312 149.834 132.087C148.626 129.188 146.478 127.074 143.718 125.568C141.863 124.556 139.994 123.553 137.891 123.085C137.558 123.011 137.131 122.959 137.113 122.463C138.389 122.037 139.64 121.547 140.986 121.33C142.926 121.016 144.732 121.31 146.406 122.321C148.027 123.299 149.478 124.489 150.56 126.034C153.844 130.725 156.764 135.611 158.411 141.124C159.55 144.936 159.748 148.795 158.735 152.673C158.379 154.037 158.049 155.404 157.85 156.799C157.888 156.978 157.889 157.155 157.813 157.326C157.172 158.573 156.541 159.815 156.125 161.167C155.504 163.181 154.194 164.656 152.209 165.508C151.806 165.681 151.397 165.903 150.932 165.688C150.494 164.872 150.713 163.957 150.523 163.099C150.05 160.956 149.031 159.051 147.947 157.17C147.687 156.718 147.42 156.267 147.119 155.842C146.909 155.545 147.027 155.321 147.184 155.078Z" fill="#BCE2F2"/>
<path fill-rule="evenodd" clip-rule="evenodd" d="M150.931 165.689C151.992 165.279 153.049 164.896 153.923 164.107C155.024 163.113 155.635 161.887 156.025 160.51C156.367 159.306 156.902 158.194 157.73 157.232C157.964 157.457 157.897 157.709 157.795 157.964C157.752 158.028 157.734 158.098 157.74 158.174C157.522 158.406 157.552 158.696 157.557 158.974C157.586 160.707 157.49 162.431 157.262 164.151C157.06 165.686 156.422 166.982 155.28 168.06C154.358 168.931 153.383 169.716 152.233 170.275C151.134 170.808 149.982 171.238 148.975 171.953C148.756 172.108 148.443 172.135 148.172 172.22C148.167 171.806 148.483 171.586 148.749 171.354C150.295 170 151.097 168.35 150.896 166.282C150.877 166.088 150.918 165.887 150.931 165.689Z" fill="#75E0A7"/>
<path fill-rule="evenodd" clip-rule="evenodd" d="M157.799 157.964C157.778 157.72 157.756 157.476 157.734 157.232C157.773 157.088 157.813 156.943 157.853 156.799C158.079 157.198 158.119 157.589 157.799 157.964Z" fill="#E5BF43"/>
<path fill-rule="evenodd" clip-rule="evenodd" d="M98.9688 141.768C99.0391 141.738 99.1493 141.663 99.1754 141.684C100.775 143.039 102.69 142.884 104.537 142.614C107.57 142.171 110.097 140.602 112.472 138.778C113.923 137.665 115.308 136.481 116.613 135.2C118.08 133.761 119.894 133.566 121.85 133.887C123.832 134.212 125.38 135.358 126.905 136.488C129.191 138.179 131.41 139.951 134.041 141.13C134.275 141.235 134.884 141.184 134.639 141.782C133.788 141.393 132.94 140.993 132.084 140.614C129.276 139.37 126.66 137.788 124.148 136.063C121.67 134.362 118.826 134.778 116.774 136.702C115.325 138.061 113.928 139.493 112.292 140.627C109.552 142.526 106.596 143.955 103.131 143.932C101.933 143.923 100.785 143.649 99.8056 142.904C99.4135 142.607 99.0288 142.302 98.9688 141.768Z" fill="#C07C5C"/>
<path fill-rule="evenodd" clip-rule="evenodd" d="M106.11 172.966C106.201 173.965 105.625 174.725 105.135 175.499C103.934 177.395 102.285 178.886 100.484 180.203C98.7146 181.498 96.786 182.528 94.7235 183.319C93.6401 183.734 92.5523 183.977 91.3912 183.829C91.373 183.326 91.803 183.262 92.1287 183.172C94.9262 182.402 97.3459 180.922 99.5815 179.176C101.584 177.61 103.58 176.002 104.918 173.782C105.025 173.605 105.114 173.434 105.126 173.228C105.455 173.14 105.783 173.053 106.11 172.966Z" fill="#C07C5C"/>
<path fill-rule="evenodd" clip-rule="evenodd" d="M81.0547 177.315C81.1369 176.999 81.4114 176.901 81.6682 176.774C84.8569 175.198 87.7469 173.177 90.5316 171.001C90.721 170.853 90.9208 170.716 91.1156 170.574C91.5112 170.495 91.9067 170.416 92.3013 170.337C91.6302 171.81 90.4775 172.855 89.183 173.788C86.9803 175.376 84.723 176.848 82.0584 177.61C81.5885 177.744 81.2963 177.722 81.0547 177.315Z" fill="#C07C5C"/>
</g>
<rect x="74" y="24" width="72" height="72" rx="36" fill="#A9EFC5"/>
<rect x="86" y="36" width="48" height="48" rx="24" fill="#17B26A"/>
<path fill-rule="evenodd" clip-rule="evenodd" d="M120.192 50.7803L105.872 64.6003L102.072 60.5403C101.372 59.8803 100.272 59.8403 99.472 60.4003C98.692 60.9803 98.472 62.0003 98.952 62.8203L103.452 70.1403C103.892 70.8203 104.652 71.2403 105.512 71.2403C106.332 71.2403 107.112 70.8203 107.552 70.1403C108.272 69.2003 122.012 52.8203 122.012 52.8203C123.812 50.9803 121.632 49.3603 120.192 50.7603V50.7803Z" fill="white"/>
</g>
<defs>
<clipPath id="clip0_2018_73037">
<rect width="220" height="220" rx="110" fill="white"/>
</clipPath>
<clipPath id="clip1_2018_73037">
<rect width="246" height="111" fill="white" transform="translate(-13 80)"/>
</clipPath>
</defs>
</svg>
