<svg width="20" height="20" viewBox="0 0 20 20" fill="none" xmlns="http://www.w3.org/2000/svg">
<path d="M16.375 4.25H7.625C5.448 4.25 4.25 5.448 4.25 7.625V16.375C4.25 18.552 5.448 19.75 7.625 19.75H16.375C18.552 19.75 19.75 18.552 19.75 16.375V7.625C19.75 5.448 18.552 4.25 16.375 4.25ZM18.25 16.375C18.25 17.707 17.707 18.25 16.375 18.25H7.625C6.293 18.25 5.75 17.707 5.75 16.375V7.625C5.75 6.293 6.293 5.75 7.625 5.75H16.375C17.707 5.75 18.25 6.293 18.25 7.625V16.375ZM1.75 3.62V12.38C1.75 13.578 2.23309 13.873 2.39209 13.971C2.74609 14.187 2.85589 14.649 2.63989 15.002C2.49789 15.233 2.25202 15.36 1.99902 15.36C1.86602 15.36 1.72991 15.324 1.60791 15.25C0.70691 14.698 0.25 13.733 0.25 12.38V3.62C0.25 1.478 1.47912 0.25 3.62012 0.25H12.3799C14.0649 0.25 14.87 0.988971 15.25 1.60797C15.466 1.96097 15.355 2.42298 15.002 2.63898C14.648 2.85598 14.1879 2.74399 13.9709 2.39099C13.8739 2.23199 13.5779 1.74902 12.3799 1.74902H3.62012C2.29212 1.75002 1.75 2.292 1.75 3.62Z" fill="white"/>
</svg>
