<svg width="40" height="40" viewBox="0 0 40 40" fill="none" xmlns="http://www.w3.org/2000/svg">
<path d="M26.6673 21.4987V28.4987C26.6673 34.332 24.334 36.6654 18.5007 36.6654H11.5007C5.66732 36.6654 3.33398 34.332 3.33398 28.4987V21.4987C3.33398 15.6654 5.66732 13.332 11.5007 13.332H18.5007C24.334 13.332 26.6673 15.6654 26.6673 21.4987Z" stroke="#101828" stroke-width="3" stroke-linecap="round" stroke-linejoin="round"/>
<path d="M36.6673 11.4987V18.4987C36.6673 24.332 34.334 26.6654 28.5007 26.6654H26.6673V21.4987C26.6673 15.6654 24.334 13.332 18.5007 13.332H13.334V11.4987C13.334 5.66536 15.6673 3.33203 21.5007 3.33203H28.5007C34.334 3.33203 36.6673 5.66536 36.6673 11.4987Z" stroke="#101828" stroke-width="3" stroke-linecap="round" stroke-linejoin="round"/>
</svg>
