<svg width="31" height="31" viewBox="0 0 31 31" fill="none" xmlns="http://www.w3.org/2000/svg">
<circle cx="15.5" cy="15.5" r="15.5" fill="#0AA4FF"/>
<path d="M17.41 16.0002L21.71 11.7102C21.8983 11.5219 22.0041 11.2665 22.0041 11.0002C22.0041 10.7339 21.8983 10.4785 21.71 10.2902C21.5217 10.1019 21.2663 9.99609 21 9.99609C20.7337 9.99609 20.4783 10.1019 20.29 10.2902L16 14.5902L11.71 10.2902C11.5217 10.1019 11.2663 9.99609 11 9.99609C10.7337 9.99609 10.4783 10.1019 10.29 10.2902C10.1017 10.4785 9.99591 10.7339 9.99591 11.0002C9.99591 11.2665 10.1017 11.5219 10.29 11.7102L14.59 16.0002L10.29 20.2902C10.1963 20.3831 10.1219 20.4937 10.0711 20.6156C10.0203 20.7375 9.9942 20.8682 9.9942 21.0002C9.9942 21.1322 10.0203 21.2629 10.0711 21.3848C10.1219 21.5066 10.1963 21.6172 10.29 21.7102C10.383 21.8039 10.4936 21.8783 10.6154 21.9291C10.7373 21.9798 10.868 22.006 11 22.006C11.132 22.006 11.2627 21.9798 11.3846 21.9291C11.5064 21.8783 11.617 21.8039 11.71 21.7102L16 17.4102L20.29 21.7102C20.383 21.8039 20.4936 21.8783 20.6154 21.9291C20.7373 21.9798 20.868 22.006 21 22.006C21.132 22.006 21.2627 21.9798 21.3846 21.9291C21.5064 21.8783 21.617 21.8039 21.71 21.7102C21.8037 21.6172 21.8781 21.5066 21.9289 21.3848C21.9797 21.2629 22.0058 21.1322 22.0058 21.0002C22.0058 20.8682 21.9797 20.7375 21.9289 20.6156C21.8781 20.4937 21.8037 20.3831 21.71 20.2902L17.41 16.0002Z" fill="white"/>
</svg>
