<svg width="49" height="45" viewBox="0 0 49 45" fill="none" xmlns="http://www.w3.org/2000/svg">
<path d="M48.125 38.25V30.375C48.125 29.8529 47.9176 29.3521 47.5484 28.9829C47.1792 28.6137 46.6784 28.4062 46.1562 28.4062C45.6341 28.4062 45.1333 28.6137 44.7641 28.9829C44.3949 29.3521 44.1875 29.8529 44.1875 30.375V38.25C44.1875 38.7721 43.9801 39.2729 43.6109 39.6421C43.2417 40.0113 42.7409 40.2188 42.2188 40.2188H6.78125C6.25911 40.2188 5.75835 40.0113 5.38913 39.6421C5.01992 39.2729 4.8125 38.7721 4.8125 38.25V30.375C4.8125 29.8529 4.60508 29.3521 4.23587 28.9829C3.86665 28.6137 3.36589 28.4062 2.84375 28.4062C2.32161 28.4062 1.82085 28.6137 1.45163 28.9829C1.08242 29.3521 0.875 29.8529 0.875 30.375V38.25C0.875 39.8164 1.49726 41.3187 2.6049 42.4264C3.71254 43.534 5.21482 44.1562 6.78125 44.1562H42.2188C43.7852 44.1562 45.2875 43.534 46.3951 42.4264C47.5027 41.3187 48.125 39.8164 48.125 38.25ZM35.5644 27.9731L25.7206 35.8481C25.373 36.1228 24.943 36.2722 24.5 36.2722C24.057 36.2722 23.627 36.1228 23.2794 35.8481L13.4356 27.9731C13.077 27.6346 12.8584 27.1737 12.8233 26.6817C12.7881 26.1898 12.9389 25.7025 13.2458 25.3164C13.5527 24.9303 13.9934 24.6735 14.4806 24.5967C14.9678 24.5199 15.4661 24.6288 15.8769 24.9019L22.5312 30.2175V2.8125C22.5312 2.29036 22.7387 1.7896 23.1079 1.42038C23.4771 1.05117 23.9779 0.84375 24.5 0.84375C25.0221 0.84375 25.5229 1.05117 25.8921 1.42038C26.2613 1.7896 26.4688 2.29036 26.4688 2.8125V30.2175L33.1231 24.9019C33.3214 24.7147 33.5563 24.5708 33.8131 24.4792C34.0699 24.3876 34.3429 24.3504 34.6148 24.3698C34.8867 24.3892 35.1517 24.4649 35.3928 24.5921C35.634 24.7192 35.8461 24.8951 36.0157 25.1085C36.1853 25.3219 36.3088 25.5682 36.3783 25.8319C36.4477 26.0955 36.4617 26.3707 36.4193 26.64C36.3769 26.9093 36.279 27.1668 36.1318 27.3963C35.9846 27.6258 35.7914 27.8222 35.5644 27.9731Z" fill="black"/>
</svg>
