<svg width="20" height="20" viewBox="0 0 20 20" fill="none" xmlns="http://www.w3.org/2000/svg">
<path d="M15.8333 10.0384C15.3725 10.0384 15 10.4118 15 10.8717V17.5384C15 17.9976 14.6266 18.3717 14.1667 18.3717H2.5C2.03996 18.3717 1.66672 17.9976 1.66672 17.5384V5.8717C1.66672 5.41256 2.03996 5.03842 2.5 5.03842H9.16672C9.62754 5.03842 10 4.66506 10 4.20514C10 3.7451 9.62754 3.3717 9.16672 3.3717H2.5C1.12168 3.3717 0 4.49338 0 5.8717V17.5384C0 18.9168 1.12168 20.0384 2.5 20.0384H14.1667C15.545 20.0384 16.6667 18.9168 16.6667 17.5384V10.8717C16.6667 10.4109 16.2941 10.0384 15.8333 10.0384Z" fill="#2091CE"/>
<path d="M7.81344 9.27925C7.75552 9.33743 7.71585 9.41126 7.6993 9.49167L7.11016 12.4385C7.0827 12.575 7.12602 12.7158 7.2243 12.815C7.26309 12.8537 7.30911 12.8843 7.35974 12.9052C7.41037 12.9261 7.46462 12.9368 7.51938 12.9367C7.54594 12.9367 7.57356 12.9342 7.60102 12.9284L10.5469 12.3393C10.6285 12.3225 10.7027 12.2834 10.7602 12.225L17.3536 5.63163L14.4077 2.68593L7.81344 9.27925ZM19.3901 0.648467C18.5777 -0.164072 17.256 -0.164072 16.4443 0.648467L15.291 1.80171L18.2368 4.74757L19.3901 3.59417C19.7835 3.20171 20.0002 2.67831 20.0002 2.12167C20.0002 1.56503 19.7835 1.04167 19.3901 0.648467Z" fill="#2091CE"/>
</svg>
