<svg width="231" height="243" viewBox="0 0 231 243" fill="none" xmlns="http://www.w3.org/2000/svg">
<path d="M224.279 152.046C220.936 152.046 218.228 154.755 218.228 158.098V211.833C218.215 221.856 210.095 229.979 200.072 229.989H30.2598C20.2359 229.979 12.116 221.856 12.1039 211.833V54.125C12.116 44.1036 20.2365 35.9813 30.2598 35.9691H83.9951C87.3376 35.9691 90.0471 33.2597 90.0471 29.9172C90.0471 26.5765 87.3376 23.8652 83.9951 23.8652H30.2598C13.5552 23.884 0.0187611 37.4204 0 54.125V211.835C0.0187611 228.539 13.5552 242.076 30.2598 242.095H200.072C216.776 242.076 230.313 228.539 230.331 211.835V158.098C230.331 154.755 227.622 152.046 224.279 152.046Z" fill="white"/>
<path d="M215.761 8.2927C205.125 -2.34301 187.881 -2.34301 177.246 8.2927L69.2742 116.264C68.5352 117.003 68.0001 117.921 67.7213 118.928L53.5228 170.188C53.2362 171.22 53.2288 172.31 53.5013 173.346C53.7737 174.382 54.3163 175.327 55.0736 176.084C55.8309 176.842 56.7757 177.384 57.8115 177.657C58.8473 177.93 59.9369 177.923 60.9691 177.637L112.229 163.436C113.236 163.157 114.154 162.622 114.893 161.883L222.861 53.9099C233.481 43.2664 233.481 26.0376 222.861 15.3947L215.761 8.2927ZM82.4608 120.198L170.827 31.8294L199.326 60.328L110.958 148.696L82.4608 120.198ZM76.7684 131.621L99.5358 154.391L68.0426 163.117L76.7684 131.621ZM214.305 45.3519L207.886 51.7694L179.385 23.2683L185.806 16.8502C191.714 10.9422 201.293 10.9422 207.2 16.8502L214.305 23.9515C220.203 29.8667 220.203 39.4391 214.305 45.3519Z" fill="white"/>
</svg>
