<svg width="15" height="15" viewBox="0 0 15 15" fill="none" xmlns="http://www.w3.org/2000/svg">
<path d="M9.2487 2.41671L12.582 5.75004M1.33203 13.6668H4.66536L13.4154 4.91676C13.6342 4.69789 13.8079 4.43805 13.9263 4.15208C14.0448 3.86612 14.1057 3.55962 14.1057 3.25009C14.1057 2.94056 14.0448 2.63406 13.9263 2.3481C13.8079 2.06213 13.6342 1.80229 13.4154 1.58342C13.1965 1.36455 12.9367 1.19094 12.6507 1.07248C12.3647 0.954033 12.0582 0.893066 11.7487 0.893066C11.4392 0.893066 11.1327 0.954033 10.8467 1.07248C10.5607 1.19094 10.3009 1.36455 10.082 1.58342L1.33203 10.3334V13.6668Z" stroke="#26A1D6" stroke-width="1.5" stroke-linecap="round" stroke-linejoin="round"/>
</svg>
