<svg width="40" height="40" viewBox="0 0 40 40" fill="none" xmlns="http://www.w3.org/2000/svg">
<path d="M33.334 6.66797H6.66732C4.83398 6.66797 3.35065 8.16797 3.35065 10.0013L3.33398 30.0013C3.33398 31.8346 4.83398 33.3346 6.66732 33.3346H33.334C35.1673 33.3346 36.6673 31.8346 36.6673 30.0013V10.0013C36.6673 8.16797 35.1673 6.66797 33.334 6.66797ZM32.6673 13.7513L20.884 21.118C20.3507 21.4513 19.6507 21.4513 19.1173 21.118L7.33398 13.7513C7.16686 13.6575 7.02052 13.5307 6.9038 13.3787C6.78708 13.2267 6.70242 13.0526 6.65494 12.8669C6.60747 12.6812 6.59816 12.4879 6.62758 12.2985C6.657 12.1091 6.72454 11.9277 6.82612 11.7651C6.9277 11.6026 7.06119 11.4624 7.21853 11.353C7.37586 11.2435 7.55377 11.1672 7.74148 11.1285C7.92918 11.0898 8.12279 11.0896 8.31058 11.1279C8.49836 11.1662 8.67642 11.2422 8.83398 11.3513L20.0007 18.3346L31.1673 11.3513C31.3249 11.2422 31.5029 11.1662 31.6907 11.1279C31.8785 11.0896 32.0721 11.0898 32.2598 11.1285C32.4475 11.1672 32.6254 11.2435 32.7828 11.353C32.9401 11.4624 33.0736 11.6026 33.1752 11.7651C33.2768 11.9277 33.3443 12.1091 33.3737 12.2985C33.4031 12.4879 33.3938 12.6812 33.3464 12.8669C33.2989 13.0526 33.2142 13.2267 33.0975 13.3787C32.9808 13.5307 32.8344 13.6575 32.6673 13.7513Z" fill="black"/>
</svg>
