<svg width="34" height="28" viewBox="0 0 34 28" fill="none" xmlns="http://www.w3.org/2000/svg">
<path d="M30.3359 0.666687H3.66927C1.83594 0.666687 0.352604 2.16669 0.352604 4.00002L0.335938 24C0.335938 25.8334 1.83594 27.3334 3.66927 27.3334H30.3359C32.1693 27.3334 33.6693 25.8334 33.6693 24V4.00002C33.6693 2.16669 32.1693 0.666687 30.3359 0.666687ZM29.6693 7.75002L17.8859 15.1167C17.3526 15.45 16.6526 15.45 16.1193 15.1167L4.33594 7.75002C4.16882 7.65621 4.02247 7.52946 3.90575 7.37744C3.78903 7.22543 3.70437 7.05132 3.6569 6.86564C3.60942 6.67996 3.60011 6.48658 3.62953 6.2972C3.65895 6.10782 3.7265 5.92638 3.82807 5.76385C3.92965 5.60133 4.06314 5.46111 4.22048 5.35168C4.37782 5.24224 4.55572 5.16587 4.74343 5.12718C4.93114 5.0885 5.12474 5.0883 5.31253 5.1266C5.50031 5.1649 5.67838 5.24091 5.83594 5.35002L17.0026 12.3334L28.1693 5.35002C28.3268 5.24091 28.5049 5.1649 28.6927 5.1266C28.8805 5.0883 29.0741 5.0885 29.2618 5.12718C29.4495 5.16587 29.6274 5.24224 29.7847 5.35168C29.9421 5.46111 30.0756 5.60133 30.1771 5.76385C30.2787 5.92638 30.3463 6.10782 30.3757 6.2972C30.4051 6.48658 30.3958 6.67996 30.3483 6.86564C30.3008 7.05132 30.2162 7.22543 30.0995 7.37744C29.9827 7.52946 29.8364 7.65621 29.6693 7.75002Z" fill="black"/>
</svg>
