<svg width="22" height="18" viewBox="0 0 22 18" fill="none" xmlns="http://www.w3.org/2000/svg">
<g clip-path="url(#clip0_2719_109126)">
<path d="M14.5819 8.9999C14.5819 10.9799 12.9819 12.5799 11.0019 12.5799C9.02185 12.5799 7.42188 10.9799 7.42188 8.9999C7.42188 7.0199 9.02185 5.41992 11.0019 5.41992C12.9819 5.41992 14.5819 7.0199 14.5819 8.9999Z" stroke="#182230" stroke-width="1.5" stroke-linecap="round" stroke-linejoin="round"/>
<path d="M10.9959 17.2697C14.5259 17.2697 17.8159 15.1897 20.1059 11.5897C21.0059 10.1797 21.0059 7.8097 20.1059 6.39973C17.8159 2.79973 14.5259 0.719727 10.9959 0.719727C7.46594 0.719727 4.17594 2.79973 1.88594 6.39973C0.985937 7.8097 0.985937 10.1797 1.88594 11.5897C4.17594 15.1897 7.46594 17.2697 10.9959 17.2697Z" stroke="#182230" stroke-width="1.5" stroke-linecap="round" stroke-linejoin="round"/>
</g>
<defs>
<clipPath id="clip0_2719_109126">
<rect width="22" height="18" fill="white"/>
</clipPath>
</defs>
</svg>
