<svg width="32" height="32" viewBox="0 0 32 32" fill="none" xmlns="http://www.w3.org/2000/svg">
<path d="M29.3346 16.0003C29.3346 8.64033 23.3613 2.66699 16.0013 2.66699C8.6413 2.66699 2.66797 8.64033 2.66797 16.0003C2.66797 22.4537 7.25464 27.827 13.3346 29.067V20.0003H10.668V16.0003H13.3346V12.667C13.3346 10.0937 15.428 8.00033 18.0013 8.00033H21.3346V12.0003H18.668C17.9346 12.0003 17.3346 12.6003 17.3346 13.3337V16.0003H21.3346V20.0003H17.3346V29.267C24.068 28.6003 29.3346 22.9203 29.3346 16.0003Z" fill="white"/>
<path d="M18.3159 26H13.0322C12.3996 26 11.8213 26.3574 11.5384 26.9233C11.2169 27.5663 11.3176 28.3875 11.948 28.7331C12.6781 29.1334 13.8807 29.5 16 29.5C17.2834 29.5 18.3651 29.2983 19.2205 29.0428C20.4421 28.678 20.5297 27.2238 19.5342 26.4274C19.1884 26.1507 18.7587 26 18.3159 26Z" fill="white"/>
</svg>
