<svg width="12" height="11" viewBox="0 0 12 11" fill="none" xmlns="http://www.w3.org/2000/svg">
<path d="M6.42736 4.54379C5.78083 5.31995 5.17025 6.1137 4.5955 6.92517C4.30812 7.33085 4.02074 7.75422 3.75142 8.17763L1.45278 5.39061C1.18344 5.07316 0.71642 5.00254 0.357269 5.23188C-0.0199363 5.47883 -0.109636 5.97273 0.141799 6.34319L3.03322 10.559C3.105 10.6648 3.21286 10.7706 3.33851 10.8413C3.50011 10.9471 3.67976 11 3.85926 11C4.20051 11 4.57756 10.8236 4.73929 10.5237C4.90089 10.2414 5.70902 8.77737 6.24782 7.9836C6.76857 7.18985 7.30738 6.41369 7.90006 5.65513C8.47482 4.8967 9.0854 4.15572 9.73192 3.4502C10.3606 2.74469 11.0429 2.02144 11.7254 1.404L11.7433 1.3864C12.0665 1.08655 12.0846 0.592662 11.7972 0.27509C11.4919 -0.0600906 10.989 -0.095401 10.6478 0.204586C9.85755 0.892523 9.15718 1.58046 8.45677 2.30371C7.73847 3.02683 7.05596 3.76769 6.42736 4.54382L6.42736 4.54379Z" fill="#FF7E03"/>
</svg>
