<svg width="28" height="28" viewBox="0 0 28 28" fill="none" xmlns="http://www.w3.org/2000/svg">
<g clip-path="url(#clip0_2523_83791)">
<path opacity="0.42" d="M14.015 26.595C21.7553 26.595 28.03 25.0878 28.03 23.2287C28.03 21.3695 21.7553 19.8623 14.015 19.8623C6.27473 19.8623 0 21.3695 0 23.2287C0 25.0878 6.27473 26.595 14.015 26.595Z" fill="#EAECF0"/>
<path d="M7.95222 8.79541L2.92969 6.83008V22.4088C2.92969 22.7592 3.14442 23.0738 3.47075 23.2015L7.77628 24.8863C7.89266 24.9319 8.01638 24.9553 8.1414 24.9553H24.3577C24.7044 24.9553 24.9855 24.6742 24.9855 24.3274V8.79559H7.95222V8.79541Z" fill="#98A2B3"/>
<path d="M25.0581 8.82464H8.00553L2.92969 6.83008H20.1134L25.0581 8.82464Z" fill="#F1404A"/>
<path d="M14.3768 7.83147C14.3369 7.79139 14.2973 7.75223 14.2578 7.71289C14.2973 7.71399 14.3354 7.71601 14.3755 7.71693C14.3755 7.7184 14.3755 7.72061 14.3755 7.72061C14.3779 7.72061 14.3799 7.72043 14.3823 7.72043C14.3795 7.76345 14.3779 7.8004 14.3768 7.83147Z" fill="#EED92E"/>
<path d="M14.375 7.93562C14.3923 7.93599 14.4085 7.93709 14.4257 7.93728C14.443 7.93691 14.4592 7.93599 14.4765 7.93562L14.4257 7.88672L14.375 7.93562Z" fill="#D6C429"/>
<path d="M14.3752 7.93568C14.3764 7.93568 14.3776 7.93586 14.3788 7.93586C14.3956 7.91868 14.4121 7.90299 14.4289 7.88581L14.4054 7.86328H14.3757C14.3748 7.90133 14.375 7.92866 14.3752 7.93568Z" fill="#D6C429"/>
<path d="M14.375 7.86355H14.4053L14.3756 7.83496C14.375 7.847 14.3752 7.8534 14.375 7.86355Z" fill="#D6C429"/>
<path d="M14.3755 7.71694C14.3354 7.71602 14.2973 7.71418 14.2578 7.71289C14.2973 7.75223 14.3369 7.79139 14.3768 7.83147C14.3779 7.8004 14.3795 7.76363 14.3825 7.72025C14.3801 7.72025 14.3781 7.72043 14.3757 7.72043C14.3757 7.72043 14.3755 7.71841 14.3755 7.71694Z" fill="#EED92E"/>
<path d="M14.4829 7.86328H14.4531L14.4297 7.88581C14.4465 7.9028 14.4629 7.91868 14.4797 7.93586C14.481 7.93586 14.4821 7.93568 14.4834 7.93568C14.4836 7.92866 14.4838 7.90133 14.4829 7.86328Z" fill="#EED92E"/>
<path d="M14.4828 7.83496L14.4531 7.86355H14.4834C14.4832 7.85358 14.4834 7.84719 14.4828 7.83496Z" fill="#EED92E"/>
<path d="M10.4192 16.3411L11.3551 17.527C11.4287 17.6202 11.5703 17.62 11.6436 17.5266L12.5744 16.3415C12.6478 16.2481 12.7893 16.2479 12.8629 16.3411L13.7989 17.527C13.8724 17.6202 14.014 17.62 14.0873 17.5266L15.0181 16.3415C15.0915 16.2481 15.233 16.2479 15.3066 16.3411L16.2426 17.527C16.3161 17.6202 16.4577 17.62 16.531 17.5266L17.4618 16.3415C17.5352 16.2481 17.6767 16.2479 17.7503 16.3411L18.6863 17.527C18.7598 17.6202 18.9014 17.62 18.9747 17.5266L19.9055 16.3415C19.9789 16.2481 20.1205 16.2479 20.194 16.3411L21.13 17.527C21.2035 17.6202 21.3451 17.62 21.4184 17.5266L22.3492 16.3415C22.4226 16.2481 22.5642 16.2479 22.6377 16.3411L23.5737 17.527C23.6472 17.6202 23.7888 17.62 23.8621 17.5266L24.9827 16.1751V12.71L23.8621 14.0327C23.7888 14.1261 23.6472 14.1263 23.5737 14.0331L22.6377 12.8473C22.5642 12.7541 22.4226 12.7543 22.3492 12.8477L21.4184 14.0327C21.3451 14.1261 21.2035 14.1263 21.13 14.0331L20.194 12.8473C20.1205 12.7541 19.9789 12.7543 19.9055 12.8477L18.9747 14.0327C18.9014 14.1261 18.7598 14.1263 18.6863 14.0331L17.7503 12.8473C17.6767 12.7541 17.5352 12.7543 17.4618 12.8477L16.531 14.0327C16.4577 14.1261 16.3163 14.1263 16.2426 14.0331L15.3066 12.8473C15.233 12.7541 15.0915 12.7543 15.0181 12.8477L14.0873 14.0327C14.014 14.1261 13.8724 14.1263 13.7989 14.0331L12.8629 12.8473C12.7893 12.7541 12.6478 12.7543 12.5744 12.8477L11.6436 14.0327C11.5703 14.1261 11.4287 14.1263 11.3551 14.0331L10.4192 12.8473C10.3456 12.7541 10.2041 12.7543 10.1307 12.8477L9.1999 14.0327C9.12654 14.1261 8.98498 14.1263 8.91144 14.0331L7.86719 12.71V16.204L8.91144 17.527C8.98498 17.6202 9.12654 17.62 9.1999 17.5266L10.1307 16.3415C10.2043 16.2481 10.3456 16.2479 10.4192 16.3411Z" fill="#FFFDFF"/>
<path d="M10.4192 23.5472L11.3551 24.733C11.4287 24.8262 11.5703 24.826 11.6436 24.7326L12.5744 23.5476C12.6478 23.4542 12.7893 23.454 12.8629 23.5472L13.7989 24.733C13.8724 24.8262 14.014 24.826 14.0873 24.7326L15.0181 23.5476C15.0915 23.4542 15.233 23.454 15.3066 23.5472L16.2426 24.733C16.3161 24.8262 16.4577 24.826 16.531 24.7326L17.4618 23.5476C17.5352 23.4542 17.6767 23.454 17.7503 23.5472L18.6863 24.733C18.7598 24.8262 18.9014 24.826 18.9747 24.7326L19.9055 23.5476C19.9789 23.4542 20.1205 23.454 20.194 23.5472L21.13 24.733C21.2035 24.8262 21.3451 24.826 21.4184 24.7326L22.3492 23.5476C22.4226 23.4542 22.5642 23.454 22.6377 23.5472L23.5737 24.733C23.6472 24.8262 23.7888 24.826 23.8621 24.7326L24.9827 23.3812V19.916L23.8621 21.2386C23.7888 21.332 23.6472 21.3322 23.5737 21.239L22.6377 20.0532C22.5642 19.96 22.4226 19.9601 22.3492 20.0535L21.4184 21.2386C21.3451 21.332 21.2035 21.3322 21.13 21.239L20.194 20.0532C20.1205 19.96 19.9789 19.9601 19.9055 20.0535L18.9747 21.2386C18.9014 21.332 18.7598 21.3322 18.6863 21.239L17.7503 20.0532C17.6767 19.96 17.5352 19.9601 17.4618 20.0535L16.531 21.2386C16.4577 21.332 16.3163 21.3322 16.2426 21.239L15.3066 20.0532C15.233 19.96 15.0915 19.9601 15.0181 20.0535L14.0873 21.2386C14.014 21.332 13.8724 21.3322 13.7989 21.239L12.8629 20.0532C12.7893 19.96 12.6478 19.9601 12.5744 20.0535L11.6436 21.2386C11.5703 21.332 11.4287 21.3322 11.3551 21.239L10.4192 20.0532C10.3456 19.96 10.2041 19.9601 10.1307 20.0535L9.1999 21.2386C9.12654 21.332 8.98498 21.3322 8.91144 21.239L7.86719 19.916V23.41L8.91144 24.733C8.98498 24.8262 9.12654 24.826 9.1999 24.7326L10.1307 23.5476C10.2043 23.454 10.3456 23.4538 10.4192 23.5472Z" fill="#FFFDFF"/>
<path d="M17.8309 12.7549H14.9375V24.9548H17.8309V12.7549Z" fill="#667085"/>
<path d="M6.68771 13.7779L5.24451 11.3525L4.0256 12.686L2.92969 10.5039V12.7768V14.5239L4.0256 16.18L5.24451 14.8466L6.68771 17.2719L7.87041 16.2028V12.7088L6.68771 13.7779Z" fill="#E0DFE0"/>
<path d="M6.60719 20.8504L5.33349 18.7098C5.28918 18.6354 5.18568 18.6249 5.12722 18.6887L4.15227 19.7556C4.09124 19.8223 3.98221 19.8072 3.94158 19.7263L2.92969 17.7119V19.9848V21.7319L3.94232 23.2621C3.98608 23.3283 4.07855 23.3397 4.13701 23.286L5.13236 22.3754C5.1912 22.3217 5.28404 22.3333 5.32761 22.4L6.60499 24.3536C6.64837 24.42 6.74085 24.4319 6.79968 24.3788L7.87041 23.411V19.917L6.80464 20.8803C6.74416 20.9348 6.64892 20.9204 6.60719 20.8504Z" fill="#E0DFE0"/>
<path d="M25.4191 8.72944V12.3557C25.4191 12.5759 25.2406 12.7542 25.0205 12.7542H7.8528L7.79765 12.7325L2.85435 10.7902C2.70176 10.7303 2.60156 10.583 2.60156 10.4192V6.79702C2.60156 6.57677 2.78008 6.39844 3.00014 6.39844H20.3004C20.3522 6.39844 20.4035 6.40855 20.4515 6.42822L25.1716 8.36046C25.3213 8.42168 25.4191 8.56747 25.4191 8.72944Z" fill="#EAECF0"/>
<path d="M22.6887 7.33203H22.6422H4.39369C4.26684 7.33203 4.16406 7.4348 4.16406 7.56147V11.3224L5.52968 11.8591V8.10695C5.52968 7.97274 5.63834 7.86409 5.77255 7.86409H24.0077L22.6887 7.33203Z" fill="#667085"/>
<path d="M12.0809 6.39844H9.1875L14.902 8.75536C15.002 8.79655 15.0673 8.89417 15.0673 9.00227V12.7542H17.9607V8.96881C17.9607 8.88093 17.9076 8.80151 17.8263 8.76805L12.0809 6.39844Z" fill="#667085"/>
<path d="M4.35156 11.3779V23.5448L5.71718 24.079V11.9144L4.35156 11.3779Z" fill="#667085"/>
<path opacity="0.15" d="M7.95222 12.7569H7.85331L7.79816 12.7352L2.92969 10.8223V11.4775L7.79816 13.3904L7.85331 13.4121H7.95222H24.9853V12.7569H7.95222Z" fill="black"/>
<path d="M21.2617 3.41289C21.2617 3.41289 21.2707 7.60756 14.3828 7.70758L15.4558 6.6749C15.4558 6.6749 19.5344 6.85581 19.2061 4.04239C19.2061 4.04239 19.6056 2.51204 21.2617 3.41289Z" fill="#475467"/>
<path d="M7.64844 3.41289C7.64844 3.41289 7.63943 7.60756 14.5273 7.70758L13.4544 6.6749C13.4544 6.6749 9.37569 6.85581 9.70404 4.04239C9.70404 4.04239 9.30454 2.51204 7.64844 3.41289Z" fill="#475467"/>
<path d="M21.2524 3.41279C21.2524 3.41279 18.6363 3.47806 14.4144 7.77274C14.4144 7.77274 14.342 5.53733 16.3437 3.68121C18.3454 1.82508 20.1241 1.19265 21.2524 3.41279Z" fill="#667085"/>
<path d="M7.64844 3.41949C7.64844 3.41949 10.3056 3.47795 14.5275 7.77263C14.5275 7.77263 14.5999 5.53043 12.5982 3.6743C10.5964 1.81817 8.77671 1.19934 7.64844 3.41949Z" fill="#667085"/>
</g>
<defs>
<clipPath id="clip0_2523_83791">
<rect width="28" height="28" fill="white"/>
</clipPath>
</defs>
</svg>
