<svg width="28" height="28" viewBox="0 0 28 28" fill="none" xmlns="http://www.w3.org/2000/svg">
<g clip-path="url(#clip0_2523_83788)">
<path opacity="0.42" d="M14.0173 26.1537C21.7589 26.1537 28.0346 24.6463 28.0346 22.7868C28.0346 20.9273 21.7589 19.4199 14.0173 19.4199C6.27577 19.4199 0 20.9273 0 22.7868C0 24.6463 6.27577 26.1537 14.0173 26.1537Z" fill="#155976"/>
<path d="M7.96087 8.35042L2.9375 6.38477V21.966C2.9375 22.3165 3.15227 22.6311 3.47865 22.7589L7.7849 24.444C7.90129 24.4896 8.02504 24.5129 8.15008 24.5129H24.369C24.7158 24.5129 24.997 24.2318 24.997 23.885V8.35061H7.96087V8.35042Z" fill="#2A4494"/>
<path d="M25.0696 8.37966H8.01419L2.9375 6.38477H20.124L25.0696 8.37966Z" fill="#F1404A"/>
<path d="M14.3924 7.38715C14.3525 7.34707 14.313 7.3079 14.2734 7.26855C14.313 7.26966 14.351 7.27168 14.3911 7.2726C14.3911 7.27407 14.3911 7.27628 14.3911 7.27628C14.3935 7.27628 14.3955 7.27609 14.3979 7.27609C14.3952 7.31912 14.3935 7.35608 14.3924 7.38715Z" fill="#EED92E"/>
<path d="M14.3984 7.49129C14.4157 7.49166 14.4319 7.49276 14.4492 7.49295C14.4665 7.49258 14.4827 7.49166 14.4999 7.49129L14.4492 7.44238L14.3984 7.49129Z" fill="#D6C429"/>
<path d="M14.3908 7.49135C14.3921 7.49135 14.3932 7.49153 14.3945 7.49153C14.4113 7.47436 14.4277 7.45866 14.4445 7.44148L14.4211 7.41895H14.3913C14.3904 7.457 14.3906 7.48433 14.3908 7.49135Z" fill="#D6C429"/>
<path d="M14.3984 7.4202H14.4287L14.399 7.3916C14.3984 7.40364 14.3986 7.41004 14.3984 7.4202Z" fill="#D6C429"/>
<path d="M14.3911 7.2726C14.351 7.27168 14.313 7.26984 14.2734 7.26855C14.313 7.3079 14.3525 7.34707 14.3924 7.38716C14.3935 7.35608 14.3952 7.31931 14.3981 7.27591C14.3957 7.27591 14.3937 7.27609 14.3913 7.27609C14.3913 7.27609 14.3911 7.27407 14.3911 7.2726Z" fill="#EED92E"/>
<path d="M14.5063 7.41895H14.4766L14.4531 7.44148C14.4699 7.45847 14.4864 7.47436 14.5032 7.49153C14.5045 7.49153 14.5056 7.49135 14.5069 7.49135C14.5071 7.48433 14.5072 7.457 14.5063 7.41895Z" fill="#EED92E"/>
<path d="M14.4985 7.39062L14.4688 7.41922H14.499C14.4988 7.40925 14.499 7.40285 14.4985 7.39062Z" fill="#EED92E"/>
<path d="M10.4274 15.8974L11.3635 17.0834C11.4371 17.1766 11.5787 17.1765 11.652 17.083L12.583 15.8978C12.6564 15.8044 12.798 15.8042 12.8715 15.8974L13.8076 17.0834C13.8812 17.1766 14.0228 17.1765 14.0962 17.083L15.0271 15.8978C15.1005 15.8044 15.2421 15.8042 15.3156 15.8974L16.2518 17.0834C16.3253 17.1766 16.4669 17.1765 16.5403 17.083L17.4712 15.8978C17.5446 15.8044 17.6862 15.8042 17.7597 15.8974L18.6959 17.0834C18.7694 17.1766 18.911 17.1765 18.9844 17.083L19.9153 15.8978C19.9887 15.8044 20.1303 15.8042 20.2038 15.8974L21.14 17.0834C21.2135 17.1766 21.3551 17.1765 21.4285 17.083L22.3594 15.8978C22.4328 15.8044 22.5744 15.8042 22.648 15.8974L23.5841 17.0834C23.6576 17.1766 23.7992 17.1765 23.8726 17.083L24.9933 15.7314V12.2656L23.8726 13.5886C23.7992 13.682 23.6576 13.6822 23.5841 13.589L22.648 12.403C22.5744 12.3098 22.4328 12.3099 22.3594 12.4034L21.4285 13.5886C21.3551 13.682 21.2135 13.6822 21.14 13.589L20.2038 12.403C20.1303 12.3098 19.9887 12.3099 19.9153 12.4034L18.9844 13.5886C18.911 13.682 18.7694 13.6822 18.6959 13.589L17.7597 12.403C17.6862 12.3098 17.5446 12.3099 17.4712 12.4034L16.5403 13.5886C16.4669 13.682 16.3255 13.6822 16.2518 13.589L15.3156 12.403C15.2421 12.3098 15.1005 12.3099 15.0271 12.4034L14.0962 13.5886C14.0228 13.682 13.8812 13.6822 13.8076 13.589L12.8715 12.403C12.798 12.3098 12.6564 12.3099 12.583 12.4034L11.652 13.5886C11.5787 13.682 11.4371 13.6822 11.3635 13.589L10.4274 12.403C10.3539 12.3098 10.2123 12.3099 10.1389 12.4034L9.20793 13.5886C9.13456 13.682 8.99298 13.6822 8.91943 13.589L7.875 12.2656V15.7602L8.91943 17.0834C8.99298 17.1766 9.13456 17.1765 9.20793 17.083L10.1389 15.8978C10.2125 15.8044 10.3539 15.8042 10.4274 15.8974Z" fill="#FFFDFF"/>
<path d="M10.4274 23.1044L11.3635 24.2904C11.4371 24.3837 11.5787 24.3835 11.652 24.2901L12.583 23.1048C12.6564 23.0114 12.798 23.0112 12.8715 23.1044L13.8076 24.2904C13.8812 24.3837 14.0228 24.3835 14.0962 24.2901L15.0271 23.1048C15.1005 23.0114 15.2421 23.0112 15.3156 23.1044L16.2518 24.2904C16.3253 24.3837 16.4669 24.3835 16.5403 24.2901L17.4712 23.1048C17.5446 23.0114 17.6862 23.0112 17.7597 23.1044L18.6959 24.2904C18.7694 24.3837 18.911 24.3835 18.9844 24.2901L19.9153 23.1048C19.9887 23.0114 20.1303 23.0112 20.2038 23.1044L21.14 24.2904C21.2135 24.3837 21.3551 24.3835 21.4285 24.2901L22.3594 23.1048C22.4328 23.0114 22.5744 23.0112 22.648 23.1044L23.5841 24.2904C23.6576 24.3837 23.7992 24.3835 23.8726 24.2901L24.9933 22.9384V19.4727L23.8726 20.7955C23.7992 20.8889 23.6576 20.8891 23.5841 20.7958L22.648 19.6098C22.5744 19.5166 22.4328 19.5168 22.3594 19.6102L21.4285 20.7955C21.3551 20.8889 21.2135 20.8891 21.14 20.7958L20.2038 19.6098C20.1303 19.5166 19.9887 19.5168 19.9153 19.6102L18.9844 20.7955C18.911 20.8889 18.7694 20.8891 18.6959 20.7958L17.7597 19.6098C17.6862 19.5166 17.5446 19.5168 17.4712 19.6102L16.5403 20.7955C16.4669 20.8889 16.3255 20.8891 16.2518 20.7958L15.3156 19.6098C15.2421 19.5166 15.1005 19.5168 15.0271 19.6102L14.0962 20.7955C14.0228 20.8889 13.8812 20.8891 13.8076 20.7958L12.8715 19.6098C12.798 19.5166 12.6564 19.5168 12.583 19.6102L11.652 20.7955C11.5787 20.8889 11.4371 20.8891 11.3635 20.7958L10.4274 19.6098C10.3539 19.5166 10.2123 19.5168 10.1389 19.6102L9.20793 20.7955C9.13456 20.8889 8.99298 20.8891 8.91943 20.7958L7.875 19.4727V22.9673L8.91943 24.2904C8.99298 24.3837 9.13456 24.3835 9.20793 24.2901L10.1389 23.1048C10.2125 23.0112 10.3539 23.011 10.4274 23.1044Z" fill="#FFFDFF"/>
<path d="M17.8392 12.3115H14.9453V24.5135H17.8392V12.3115Z" fill="#4EA5D9"/>
<path d="M6.69615 13.3341L5.2527 10.9084L4.0336 12.242L2.9375 10.0596V12.3329V14.0802L4.0336 15.7366L5.2527 14.403L6.69615 16.8287L7.87904 15.7594V12.2648L6.69615 13.3341Z" fill="#E0DFE0"/>
<path d="M6.61561 20.4066L5.3417 18.2657C5.29739 18.1912 5.19387 18.1807 5.13539 18.2445L4.16029 19.3116C4.09924 19.3783 3.9902 19.3632 3.94956 19.2823L2.9375 17.2676V19.5409V21.2883L3.9503 22.8187C3.99406 22.8849 4.08655 22.8963 4.14502 22.8426L5.14054 21.9318C5.19938 21.8781 5.29224 21.8897 5.33582 21.9565L6.61341 23.9104C6.6568 23.9767 6.74929 23.9887 6.80813 23.9356L7.87904 22.9676V19.473L6.8131 20.4365C6.7526 20.491 6.65735 20.4766 6.61561 20.4066Z" fill="#E0DFE0"/>
<path d="M25.4307 8.28647V11.9133C25.4307 12.1336 25.2521 12.3119 25.032 12.3119H7.86148L7.80632 12.2902L2.86221 10.3476C2.70959 10.2876 2.60938 10.1403 2.60938 9.97649V6.35373C2.60938 6.13344 2.78792 5.95508 3.00802 5.95508H20.3111C20.363 5.95508 20.4143 5.96519 20.4623 5.98487L25.1832 7.91742C25.3328 7.97866 25.4307 8.12447 25.4307 8.28647Z" fill="#2A4494"/>
<path d="M22.6996 6.88672H22.6531H4.40154C4.27467 6.88672 4.17188 6.98951 4.17188 7.1162V10.8778L5.53772 11.4145V7.66176C5.53772 7.52753 5.6464 7.41886 5.78063 7.41886H24.0188L22.6996 6.88672Z" fill="#4EA5D9"/>
<path d="M12.0892 5.95508H9.19531L14.9108 8.31239C15.0108 8.35358 15.0761 8.45122 15.0761 8.55934V12.3119H17.97V8.52588C17.97 8.43798 17.9168 8.35855 17.8356 8.32508L12.0892 5.95508Z" fill="#4EA5D9"/>
<path d="M4.35938 10.9336V23.1025L5.72522 23.6368V11.4701L4.35938 10.9336Z" fill="#428CB8"/>
<path opacity="0.15" d="M7.96087 12.3129H7.86194L7.80678 12.2912L2.9375 10.3779V11.0333L7.80678 12.9465L7.86194 12.9682H7.96087H24.9968V12.3129H7.96087Z" fill="black"/>
<path d="M21.2706 2.96665C21.2706 2.96665 21.2796 7.16202 14.3906 7.26205L15.4637 6.2292C15.4637 6.2292 19.5431 6.41014 19.2147 3.59625C19.2147 3.59625 19.6142 2.06565 21.2706 2.96665Z" fill="#3B7CA3"/>
<path d="M7.65625 2.96763C7.65625 2.96763 7.64724 7.16299 14.5362 7.26302L13.4631 6.23018C13.4631 6.23018 9.38378 6.41112 9.71219 3.59723C9.71219 3.59723 9.31262 2.06663 7.65625 2.96763Z" fill="#3B7CA3"/>
<path d="M21.2614 2.96674C21.2614 2.96674 18.6448 3.03201 14.4222 7.3274C14.4222 7.3274 14.3498 5.09163 16.3518 3.2352C18.3539 1.37876 20.1329 0.746224 21.2614 2.96674Z" fill="#4EA5D9"/>
<path d="M7.65625 2.97441C7.65625 2.97441 10.3138 3.03288 14.5364 7.32827C14.5364 7.32827 14.6089 5.0857 12.6068 3.22926C10.6047 1.37283 8.78471 0.753898 7.65625 2.97441Z" fill="#4EA5D9"/>
</g>
<defs>
<clipPath id="clip0_2523_83788">
<rect width="28" height="28" fill="white"/>
</clipPath>
</defs>
</svg>
