<svg width="512" height="390" viewBox="0 0 512 390" fill="none" xmlns="http://www.w3.org/2000/svg">
<path d="M252.596 205.809C255.266 207.573 258.395 208.514 261.595 208.516C266.929 208.516 272.155 205.925 275.288 201.141C280.267 193.58 278.181 183.419 270.621 178.441C235.789 155.51 217.214 130.111 212.174 98.5358C209.849 83.6974 212.937 61.1741 225.254 46.7807C233.241 37.454 243.775 32.9101 257.468 32.9101C284.322 32.9101 295.309 51.9815 299.47 63.3401C309.525 90.7441 301.227 124.858 280.195 142.668C273.282 148.525 272.43 158.864 278.269 165.759C284.126 172.681 294.456 173.533 301.36 167.685C332.873 141.009 345.014 92.3861 330.237 52.0695C318.328 19.5626 291.119 0.154297 257.467 0.154297C234.287 0.154297 214.533 8.91299 200.342 25.4814C179.887 49.4156 176.488 82.5264 179.807 103.656C188.487 157.977 225.511 187.972 252.596 205.809Z" fill="black"/>
<path d="M381.639 357.091H147.665C148.26 283.708 152.795 261.913 154.827 255.825C159.299 242.434 177.678 228.66 193.767 219.663C208.304 242.559 231.386 256.207 257.042 256.207H257.051C282.414 256.198 305.301 242.559 319.767 219.672C335.856 228.67 354.209 242.444 358.672 255.817C364.441 273.149 364.112 297.518 363.846 317.095C363.793 321.115 363.739 324.949 363.739 328.508C363.739 337.56 371.07 344.89 380.122 344.89C389.173 344.89 396.504 337.56 396.504 328.508C396.504 325.091 396.557 321.408 396.61 317.539C396.921 295.486 397.302 268.047 389.759 245.444C377.389 208.366 324.897 185.258 318.951 182.746C316.945 181.893 314.789 181.45 312.609 181.444C310.43 181.437 308.271 181.868 306.26 182.71C304.251 183.551 302.429 184.784 300.901 186.337C299.373 187.889 298.169 189.73 297.36 191.753C289.426 211.587 274.357 223.435 257.052 223.435H257.043C239.65 223.435 223.995 211.294 216.167 191.753C215.358 189.73 214.154 187.889 212.626 186.337C211.098 184.784 209.276 183.552 207.267 182.71C205.256 181.87 203.097 181.44 200.918 181.447C198.738 181.453 196.582 181.895 194.576 182.746C188.639 185.258 136.138 208.357 123.75 245.453C117.839 263.201 114.849 306.278 114.849 373.466C114.849 382.518 122.18 389.849 131.231 389.849H381.65C390.692 389.849 398.023 382.527 398.023 373.475C398.021 364.422 390.69 357.091 381.639 357.091ZM101.82 200.973C79.0932 200.973 60.6079 177.19 60.6079 147.966C60.6079 118.769 79.0932 95.0131 101.82 95.0131C113.455 95.0131 124.983 101.74 131.904 112.557C136.971 120.482 143.832 137.335 132.827 161.181C129.037 169.398 132.623 179.125 140.841 182.923C149.068 186.704 158.785 183.127 162.574 174.909C175.389 147.141 174.262 117.989 159.486 94.8981C146.406 74.4608 124.85 62.2583 101.811 62.2583C61.0249 62.2583 27.843 100.702 27.843 147.967C27.843 195.259 61.0249 233.729 101.811 233.729C110.863 233.729 118.203 226.407 118.203 217.356C118.202 208.303 110.872 200.973 101.82 200.973ZM81.1162 341.499H33.3718C34.0998 325.277 35.5728 301.157 38.2437 286.975C41.7045 268.463 51.6622 258.018 59.4089 252.516C66.8017 247.28 68.5316 237.056 63.2868 229.681C58.051 222.289 47.8363 220.55 40.4526 225.803C30.07 233.169 11.7886 250.137 6.0468 280.932C1.28997 306.197 0.0570123 355.397 0.00301417 357.473C-0.0465834 359.657 0.339903 361.829 1.13986 363.861C1.93981 365.894 3.13716 367.747 4.66185 369.311C6.18812 370.874 8.01164 372.116 10.025 372.963C12.0384 373.81 14.201 374.246 16.3854 374.245H81.1152C90.1668 374.245 97.4976 366.933 97.4976 357.881C97.4986 348.829 90.1678 341.499 81.1162 341.499ZM484.174 147.948C484.174 100.683 450.992 62.2393 410.206 62.2393C387.158 62.2393 365.594 74.4328 352.505 94.8701C337.729 117.952 336.593 147.113 349.39 174.881C353.18 183.09 362.914 186.693 371.123 182.904C379.332 179.115 382.935 169.388 379.146 161.171C368.141 137.317 375.019 120.473 380.087 112.547C387.017 101.73 398.545 95.0031 410.198 95.0031C432.925 95.0031 451.41 118.76 451.41 147.956C451.41 177.179 432.925 200.963 410.198 200.963C401.146 200.963 393.815 208.294 393.815 217.346C393.815 226.397 401.146 233.728 410.198 233.728C450.974 233.728 484.165 195.258 484.174 147.948ZM505.951 280.967C500.431 251.176 483.073 234.385 473.222 227.036C465.972 221.641 455.704 223.114 450.291 230.364C444.886 237.615 446.377 247.892 453.619 253.296C460.976 258.78 470.427 269.057 473.746 286.991C476.417 301.155 477.89 325.267 478.618 341.48H430.865C421.813 341.48 414.482 348.811 414.482 357.863C414.482 366.915 421.813 374.245 430.865 374.245H495.613C500.023 374.245 504.247 372.47 507.344 369.302C508.867 367.737 510.063 365.884 510.861 363.851C511.66 361.819 512.045 359.647 511.994 357.464C511.942 355.388 510.717 306.179 505.951 280.967Z" fill="black"/>
</svg>
