<svg width="512" height="408" viewBox="0 0 512 408" fill="none" xmlns="http://www.w3.org/2000/svg">
<path d="M256 82.5244L73.398 233.061C73.398 233.273 73.3446 233.586 73.2378 234.012C73.1333 234.434 73.0776 234.741 73.0776 234.959V387.393C73.0776 392.897 75.0898 397.667 79.1131 401.683C83.1353 405.702 87.8982 407.724 93.4031 407.724H215.347V285.774H296.655V407.729H418.597C424.101 407.729 428.871 405.711 432.887 401.683C436.911 397.671 438.93 392.898 438.93 387.393V234.959C438.93 234.114 438.814 233.476 438.609 233.061L256 82.5244Z" fill="black"/>
<path d="M508.467 198.761L438.923 140.962V11.3911C438.923 8.42899 437.971 5.993 436.06 4.08648C434.164 2.18219 431.728 1.23004 428.759 1.23004H367.786C364.821 1.23004 362.386 2.18219 360.478 4.08648C358.575 5.993 357.624 8.4301 357.624 11.3911V73.3175L280.138 8.53021C273.37 3.02532 265.324 0.273438 256.007 0.273438C246.691 0.273438 238.646 3.02532 231.872 8.53021L3.52842 198.761C1.41167 200.452 0.251517 202.727 0.0357261 205.586C-0.178952 208.442 0.560743 210.937 2.25704 213.053L21.9463 236.554C23.6426 238.458 25.8628 239.623 28.6158 240.049C31.1574 240.263 33.6991 239.52 36.2407 237.827L256 54.5804L475.762 237.826C477.459 239.303 479.678 240.04 482.431 240.04H483.386C486.134 239.622 488.35 238.45 490.055 236.55L509.747 213.052C511.44 210.932 512.181 208.441 511.961 205.582C511.744 202.731 510.58 200.455 508.467 198.761Z" fill="black"/>
</svg>
