<svg width="36" height="51" viewBox="0 0 36 51" fill="none" xmlns="http://www.w3.org/2000/svg">
<path d="M32.4457 8.25169C27.4248 0.150028 16.6417 -2.4174 8.483 2.48934C0.21028 7.51019 -2.47136 18.2933 2.49224 26.5661L4.20396 29.7042C4.03283 30.5029 4.03283 31.587 4.48931 32.6138C5.0027 33.698 5.91566 34.4398 7.2278 34.9531C7.11358 35.7519 7.11358 36.7217 7.57006 37.6347C8.08345 38.7188 8.99641 39.4606 10.3085 39.974C10.1943 40.7727 10.1943 41.6857 10.6508 42.5987C11.1642 43.6828 12.0772 44.4246 13.3893 44.938C13.2751 45.7367 13.2751 46.7066 13.7316 47.6765C14.3023 48.9317 15.5575 49.8446 17.3261 50.3012L18.0679 50.4723L22.4611 43.2836C22.5181 43.1694 22.7465 42.5991 22.8607 41.8573C24.4582 41.4008 25.5422 40.5451 26.0556 39.3468C26.5121 38.4338 26.5121 37.5209 26.3979 36.7221C27.7673 36.2087 28.6799 35.4669 29.1936 34.3828C29.6501 33.356 29.6501 32.3288 29.5359 31.5301C30.848 31.0167 31.761 30.2749 32.2744 29.1908C32.674 28.392 32.7309 27.5364 32.674 26.7945C36.6104 20.6895 35.2982 12.8733 32.4455 8.25196L32.4457 8.25169ZM30.7339 9.33582C33.0733 13.1015 34.2142 19.1491 31.7607 24.341L24.8574 12.7591C24.1729 11.6181 23.3741 11.3897 22.8603 11.3897C21.662 11.3897 20.9206 12.5306 20.8064 12.7591L19.9507 14.3566C17.6688 17.6657 15.4436 17.7226 14.1884 17.4373L22.9745 3.05968C26.0556 4.20106 28.851 6.31196 30.7338 9.33582H30.7339ZM6.3719 31.8151C5.91542 30.8452 6.31499 29.6469 6.42882 29.3046L9.96606 23.5423C10.7079 23.8276 11.2212 24.2841 11.5066 24.8544C11.9631 25.8243 11.5635 27.0225 11.4497 27.3649L7.91246 33.1845C7.11373 32.7849 6.60032 32.3857 6.3719 31.8151ZM9.39617 36.8359C8.93969 35.8661 9.33926 34.6678 9.45308 34.3255L12.9903 28.5631C13.7322 28.8485 14.2455 29.3049 14.5309 29.8752C14.9305 30.7882 14.6451 31.8723 14.474 32.2715L10.8795 38.1481C10.1949 37.8058 9.68114 37.4062 9.39617 36.8359ZM12.4769 41.8564C12.0773 40.9434 12.3627 39.8593 12.5338 39.4601L16.1283 33.5835C16.8701 33.8689 17.3835 34.3254 17.6689 34.8387C18.1253 35.8655 17.7258 37.0638 17.6119 37.3492L14.1317 43.1116C13.2756 42.8266 12.7623 42.427 12.4769 41.8564ZM17.0413 48.2467C16.2995 47.9614 15.7861 47.5049 15.5007 46.9346C15.0443 45.9647 15.4438 44.7095 15.5577 44.4241L19.0949 38.6618C19.8367 38.9471 20.3501 39.4036 20.6355 39.9739C21.0919 41.0007 20.6924 42.199 20.5785 42.4844L17.0413 48.2467ZM30.449 28.449C30.1636 29.0197 29.6502 29.4189 28.9084 29.7042L24.2298 22.0017C23.3741 20.5753 22.6892 19.4912 22.5181 19.149C21.8335 18.008 20.065 18.9779 20.065 18.9779L21.2059 20.8606L22.7465 23.428L27.3109 31.0731C27.4251 31.3011 27.8816 32.5564 27.3678 33.6404C27.0825 34.2111 26.5691 34.6103 25.8273 34.9526C25.8273 34.9526 21.3202 27.4786 20.5783 26.2803C19.8364 25.0819 18.1252 26.1091 18.1252 26.1091L24.1728 36.0936C24.1728 36.0936 24.8004 37.5199 24.287 38.6609C24.059 39.1743 23.5452 39.5739 22.8037 39.9161C22.7468 39.688 22.6895 39.4596 22.5757 39.2316C22.0623 38.1474 21.1493 37.4056 19.8372 36.8922C19.9514 36.0935 19.9514 35.1237 19.4949 34.1538C18.9815 33.0696 18.0686 32.3278 16.7564 31.8144C16.8707 31.0157 16.8707 30.1027 16.4142 29.1329C15.9008 28.0488 14.9878 27.307 13.6757 26.7936C13.7899 25.9949 13.7899 25.025 13.3334 24.1121C12.7627 22.8569 11.5649 21.9439 9.73892 21.4874L8.9971 21.3162L5.23144 27.535L4.20467 25.7091C-0.24554 18.3493 2.15073 8.82112 9.45363 4.37091C13.0477 2.08967 17.1553 1.57629 20.9785 2.4324L11.3363 18.1793L12.192 18.6927C12.2489 18.7496 17.2698 21.8308 21.663 15.3836L22.5187 13.7292C22.5756 13.615 22.7467 13.4438 22.804 13.3869C22.8609 13.4438 22.9751 13.5581 23.0894 13.7292L30.3353 25.8817C30.4491 26.1097 30.9629 27.4218 30.4491 28.449L30.449 28.449Z" fill="#2296D2"/>
</svg>
