<svg width="17" height="16" viewBox="0 0 17 16" fill="none" xmlns="http://www.w3.org/2000/svg">
<path d="M1.83594 6.66699C1.83594 4.78137 1.83594 3.83857 2.42172 3.25278C3.00751 2.66699 3.95032 2.66699 5.83594 2.66699H11.1693C13.0549 2.66699 13.9977 2.66699 14.5835 3.25278C15.1693 3.83857 15.1693 4.78137 15.1693 6.66699V9.33366C15.1693 11.2193 15.1693 12.1621 14.5835 12.7479C13.9977 13.3337 13.0549 13.3337 11.1693 13.3337H5.83594C3.95032 13.3337 3.00751 13.3337 2.42172 12.7479C1.83594 12.1621 1.83594 11.2193 1.83594 9.33366V6.66699Z" stroke="white" stroke-linecap="round" stroke-linejoin="round"/>
<path d="M4.5 6.60351C4.5 3.5739 8.5 6.66075 8.5 8.66732H6.16667C5.0088 8.66732 4.5 7.64723 4.5 6.60351Z" stroke="white" stroke-linecap="round" stroke-linejoin="round"/>
<path d="M12.5 6.60351C12.5 3.5739 8.5 6.66075 8.5 8.66732H10.8333C11.9912 8.66732 12.5 7.64723 12.5 6.60351Z" stroke="white" stroke-linecap="round" stroke-linejoin="round"/>
<path d="M8.5 2.66699V13.3337" stroke="white" stroke-linecap="round" stroke-linejoin="round"/>
<path d="M1.83594 8.66699H15.1693" stroke="white" stroke-linecap="round" stroke-linejoin="round"/>
<path d="M10.5 10.667L8.5 8.66699L6.5 10.667" stroke="white" stroke-linecap="round" stroke-linejoin="round"/>
</svg>
