<svg width="55" height="50" viewBox="0 0 55 50" fill="none" xmlns="http://www.w3.org/2000/svg">
<path d="M13.1732 8.54873C13.5673 8.69032 13.8822 8.99331 14.0386 9.38145C14.1951 9.7696 14.1787 10.2063 13.9936 10.582C13.7114 11.1454 13.8188 11.8257 14.2604 12.2752C14.7025 12.7242 15.3813 12.843 15.9491 12.5702C16.1427 12.4791 16.3541 12.4311 16.568 12.4306C17.1992 12.4306 17.7606 12.8316 17.9655 13.4287C18.17 14.0203 18.725 14.4194 19.3513 14.4248C19.9771 14.4303 20.539 14.0411 20.7538 13.453C20.8954 13.0589 21.1984 12.7445 21.5871 12.5881C21.9752 12.4316 22.4119 12.4479 22.7872 12.6336C23.3506 12.9163 24.0318 12.8089 24.4808 12.3663C24.9298 11.9232 25.0467 11.2434 24.7714 10.676C24.6798 10.4825 24.6323 10.2711 24.6318 10.0572C24.6318 9.42595 25.0328 8.86403 25.6299 8.65859C26.219 8.45214 26.6156 7.89815 26.6215 7.27382C26.627 6.64952 26.2403 6.08858 25.6546 5.8713C25.0704 5.65891 24.6818 5.10293 24.6828 4.48107C24.6818 4.25829 24.7323 4.03847 24.8303 3.83796C25.112 3.27555 25.0051 2.59629 24.5645 2.14723C24.1238 1.69819 23.4466 1.57888 22.8792 1.84968C22.4999 2.02741 22.0628 2.03533 21.6776 1.87196C21.2919 1.70858 20.9939 1.38876 20.8577 0.992695C20.6528 0.403056 20.0993 0.00598822 19.475 5.67226e-05C18.8507 -0.00538922 18.2898 0.381763 18.0744 0.967942C17.861 1.55313 17.303 1.94177 16.6802 1.9393C16.4574 1.94029 16.2371 1.88979 16.0366 1.79176C15.4742 1.51005 14.795 1.61749 14.3469 2.05861C13.8984 2.49974 13.78 3.17701 14.0528 3.74389C14.2306 4.12263 14.239 4.5588 14.0761 4.94448C13.9137 5.32966 13.5949 5.62818 13.1998 5.76483C12.6082 5.96832 12.2091 6.52182 12.2032 7.14708C12.1973 7.77286 12.5859 8.33379 13.1731 8.54871L13.1732 8.54873ZM19.4127 4.15093H19.4132C20.2251 4.15093 21.0039 4.47323 21.5782 5.04703C22.152 5.62132 22.4748 6.40012 22.4748 7.21202C22.4748 8.02393 22.1525 8.80275 21.5782 9.37702C21.0039 9.95082 20.2251 10.2736 19.4132 10.2736C18.6013 10.2736 17.8224 9.95081 17.2487 9.37652C16.6744 8.80223 16.3521 8.02343 16.3521 7.21153C16.3516 6.3996 16.6739 5.6208 17.2482 5.04653C17.822 4.47274 18.6013 4.15043 19.4132 4.15093H19.4127Z" fill="#208DCB"/>
<path d="M29.4889 7.47268C29.7127 7.96776 29.5983 8.55048 29.2037 8.92425C28.8136 9.29556 28.6987 9.87184 28.9171 10.3644C29.1349 10.857 29.6394 11.1595 30.1766 11.1199C30.536 11.0917 30.8905 11.2174 31.1514 11.4665C31.4123 11.7155 31.5549 12.064 31.543 12.4245C31.5361 12.6195 31.5742 12.8141 31.6539 12.9918C31.8381 13.3859 32.2089 13.6597 32.6396 13.7191C33.0703 13.779 33.5015 13.6161 33.7857 13.2869C33.905 13.1463 34.054 13.0339 34.2219 12.9577C34.718 12.7334 35.3021 12.8487 35.6755 13.2453C36.0463 13.6369 36.6236 13.7523 37.1166 13.5344C37.6102 13.3161 37.9127 12.8111 37.8726 12.2734C37.8325 11.7393 38.1306 11.2372 38.6182 11.0164C38.793 10.9367 38.9836 10.8991 39.1757 10.9055C39.7178 10.9263 40.2129 10.6011 40.4089 10.0956C40.605 9.58959 40.458 9.0158 40.0431 8.66631C39.901 8.546 39.7876 8.39599 39.7104 8.22667C39.4861 7.73159 39.601 7.14887 39.9956 6.7751C40.3837 6.40378 40.4981 5.82849 40.2802 5.33684C40.0629 4.84522 39.5604 4.54273 39.0247 4.58085C38.489 4.62095 37.986 4.32192 37.7657 3.83229C37.6865 3.65703 37.6489 3.46643 37.6548 3.27434C37.6766 2.73272 37.3508 2.23714 36.8453 2.04207C36.3394 1.84651 35.7656 1.99504 35.4175 2.41041C35.1828 2.68469 34.8427 2.84657 34.4818 2.85548C34.1213 2.8639 33.7738 2.71884 33.5263 2.45645C33.1544 2.06781 32.5797 1.95395 32.088 2.17128C31.5964 2.38913 31.2939 2.89114 31.332 3.42732C31.3602 3.78724 31.234 4.14172 30.985 4.40263C30.7359 4.66354 30.3879 4.80612 30.027 4.79423C29.4844 4.77245 28.9878 5.0987 28.7922 5.60567C28.5967 6.11263 28.7452 6.68793 29.1616 7.03645C29.3012 7.15626 29.4126 7.30528 29.4888 7.47262L29.4889 7.47268ZM33.5095 5.44736V5.44686C34.1467 5.15873 34.8725 5.13496 35.5275 5.38151C36.182 5.62806 36.7122 6.12463 37.0008 6.76185C37.2895 7.39902 37.3132 8.12533 37.0667 8.77983C36.8201 9.43482 36.3241 9.96457 35.6869 10.2537C35.0497 10.5423 34.3234 10.5661 33.6689 10.32C33.0139 10.074 32.4837 9.57741 32.1945 8.94021C31.9054 8.30304 31.8816 7.57622 32.1282 6.92122C32.3747 6.26622 32.8718 5.73549 33.5094 5.44684L33.5095 5.44736Z" fill="#208DCB"/>
<path d="M25.6838 15.4245C25.5417 15.3388 25.3813 15.2873 25.2159 15.274C24.8466 15.2492 24.4896 15.4141 24.2688 15.7111C24.0475 16.0082 23.9921 16.3973 24.1218 16.7439C24.2307 17.0305 24.2124 17.3503 24.0718 17.6226C23.9307 17.8949 23.6806 18.095 23.3836 18.1717C22.9395 18.288 22.6167 18.6717 22.5781 19.1297C22.5395 19.5871 22.7929 20.0193 23.2113 20.2089C23.4915 20.3347 23.7049 20.5738 23.798 20.8664C23.891 21.159 23.8544 21.4773 23.698 21.7417C23.4613 22.1378 23.5024 22.6408 23.8009 22.9933C24.0995 23.3453 24.5886 23.4691 25.0184 23.3007C25.1649 23.2443 25.3223 23.221 25.4793 23.2334C25.9417 23.2681 26.3303 23.5933 26.4462 24.0424C26.5645 24.485 26.9477 24.8058 27.4047 24.8444C27.8611 24.883 28.2928 24.6305 28.4834 24.2142C28.6711 23.7988 29.0993 23.5453 29.5538 23.5809C29.7167 23.5923 29.8751 23.6413 30.0162 23.724C30.1583 23.8097 30.3187 23.8607 30.4841 23.874C30.8534 23.8993 31.2099 23.7349 31.4307 23.4384C31.652 23.1423 31.7074 22.7537 31.5782 22.4071C31.5218 22.2596 31.4985 22.1011 31.5104 21.9432C31.5455 21.4823 31.8693 21.0936 32.3169 20.9763C32.759 20.8585 33.0798 20.4758 33.1184 20.0198C33.157 19.5633 32.905 19.1321 32.4887 18.942C32.0723 18.7539 31.8188 18.3246 31.8554 17.8692C31.8668 17.7058 31.9158 17.5479 31.9985 17.4068C32.0842 17.2642 32.1352 17.1043 32.1485 16.9384C32.1733 16.5696 32.0089 16.2136 31.7124 15.9933C31.4158 15.7725 31.0277 15.7175 30.6816 15.8473C30.5341 15.9037 30.3756 15.927 30.2177 15.9151C29.7573 15.8804 29.3691 15.5581 29.2508 15.1121C29.135 14.668 28.7518 14.3457 28.2948 14.3071C27.8373 14.2679 27.4056 14.5214 27.2165 14.9398C27.0908 15.2195 26.8516 15.4329 26.559 15.5255C26.2664 15.6185 25.9481 15.5829 25.6837 15.4269L25.6838 15.4245ZM28.0176 17.336V17.3355C28.6117 17.3805 29.1632 17.6593 29.5514 18.1108C29.9396 18.5623 30.1326 19.15 30.0876 19.7436C30.0425 20.3377 29.7638 20.8892 29.3123 21.2774C28.8603 21.6656 28.2731 21.8582 27.6795 21.8131C27.0854 21.7681 26.5338 21.4893 26.1456 21.0373C25.7575 20.5858 25.5649 19.9981 25.61 19.4045C25.655 18.8109 25.9342 18.2594 26.3858 17.8717C26.8373 17.4835 27.4239 17.291 28.0175 17.3355L28.0176 17.336Z" fill="#208DCB"/>
<path d="M54.3338 37.1138C54.1046 35.0675 51.6416 28.1502 50.1384 25.7309C49.7275 25.162 48.9745 24.959 48.3339 25.2442L44.5282 26.8934C44.0733 27.0503 43.7119 27.4033 43.544 27.8548C43.4455 28.1251 43.4237 28.4177 43.4811 28.7004C42.2934 29.0014 40.2913 29.4495 39.4844 29.3708C36.3589 29.1128 33.2176 29.1004 30.0897 29.3336C28.4975 29.5094 26.9567 30.005 25.5602 30.7896C23.0739 29.2558 17.7463 28.895 15.1783 28.9301C13.741 28.9499 12.3053 28.8137 10.8973 28.5246C10.9132 28.2969 10.88 28.0686 10.8008 27.8548C10.6404 27.4151 10.2943 27.0686 9.85471 26.9077L5.97326 25.2299C5.33856 24.962 4.60331 25.1709 4.20382 25.7319C2.7013 28.1503 0.238213 35.0676 0.00893789 37.1148V37.1153C-0.0722551 37.8881 0.406982 38.6094 1.15109 38.8341L5.09934 40.0089C5.24886 40.054 5.40381 40.0768 5.55976 40.0773C5.84939 40.0763 6.13307 39.9951 6.37912 39.8426C6.58557 39.7144 6.76132 39.5421 6.89252 39.3376C8.6318 40.0114 10.3299 40.7858 11.9795 41.6556C12.7935 42.1393 13.6722 42.7363 14.6035 43.3686C14.8847 43.5597 15.1807 43.7568 15.4763 43.9587C15.5352 44.6489 15.912 45.2722 16.4957 45.645C16.8497 45.9005 17.273 46.0426 17.7096 46.052C17.7913 46.051 17.8725 46.0446 17.9532 46.0327C18.0443 46.3406 18.221 46.6164 18.4631 46.8278C18.8434 47.1659 19.333 47.3551 19.8414 47.3595C20.0796 47.3585 20.3157 47.313 20.537 47.2253C20.637 47.4739 20.794 47.6962 20.995 47.8739C21.3752 48.2125 21.8649 48.4017 22.3743 48.4061C22.6179 48.4056 22.8595 48.3586 23.0853 48.267C23.1679 48.4497 23.2803 48.617 23.418 48.7621C23.8061 49.1665 24.3398 49.3977 24.8997 49.4042C25.1992 49.4037 25.4943 49.3339 25.7621 49.2002C25.7804 49.1913 25.7973 49.1784 25.8146 49.1695C26.0032 49.2309 26.1884 49.2943 26.384 49.3517V49.3522C26.68 49.4418 26.9875 49.4888 27.2969 49.4918C27.9687 49.5245 28.6089 49.2047 28.9866 48.6487C29.046 48.5517 29.0945 48.4482 29.1317 48.3407C29.4193 48.4269 29.7183 48.4714 30.0188 48.4734C30.5793 48.4868 31.1263 48.3011 31.5625 47.9491C31.7289 47.8071 31.8641 47.6318 31.9601 47.4352C32.1923 47.5249 32.4393 47.5719 32.6884 47.5744C33.2156 47.566 33.7271 47.3912 34.1498 47.0753C34.5875 46.7694 34.9127 46.3282 35.0756 45.8193C35.24 45.8549 35.4068 45.8738 35.5747 45.8747C36.0737 45.8767 36.5624 45.7341 36.9818 45.4648C37.4357 45.1871 37.7194 44.6994 37.7358 44.1677C40.4528 42.4008 41.792 41.4339 43.203 40.4159L43.51 40.1941C44.4996 39.4822 46.2765 39.0708 47.2577 38.907L47.2582 38.9075C47.3716 39.2951 47.6236 39.6283 47.9662 39.8427C48.2127 39.9947 48.4964 40.0758 48.786 40.0764C48.9415 40.0759 49.0959 40.0531 49.2445 40.008L53.1973 38.8312C53.9389 38.6055 54.4157 37.8851 54.334 37.1137L54.3338 37.1138ZM17.1239 44.7315C16.7164 44.4508 16.5367 44.0523 16.5872 43.8899C16.6585 43.5181 16.8837 43.1938 17.2075 42.9983C17.2763 42.9715 17.3491 42.9581 17.4229 42.9586C17.609 42.9685 17.7897 43.0235 17.9496 43.119C18.2596 43.2656 18.4725 43.5607 18.5135 43.9008C18.5254 44.0706 18.4913 44.2404 18.4145 44.3924C18.4046 44.4078 18.3947 44.4236 18.3853 44.4389H18.3848C18.3011 44.589 18.1878 44.7211 18.0521 44.8271C17.7179 45.0875 17.2922 44.8469 17.1238 44.7315L17.1239 44.7315ZM19.2027 46.0019C19.0735 45.886 18.9675 45.7152 19.022 45.5949C19.0962 45.432 19.1784 45.2731 19.269 45.1186C19.2948 45.08 19.317 45.0399 19.3403 44.9998C19.5448 44.6122 19.8691 44.3013 20.2646 44.1126C20.4716 44.0413 20.6998 44.0636 20.8889 44.174C21.0691 44.2607 21.1786 44.4473 21.1662 44.6468C21.1246 45.2568 20.7899 45.8093 20.2686 46.1286C19.9235 46.3236 19.4923 46.2726 19.2027 46.0018V46.0019ZM21.735 47.0509C21.6057 46.9351 21.4998 46.7643 21.5547 46.644C21.7701 46.0128 22.2132 45.484 22.7969 45.1617C22.8741 45.1345 22.9548 45.1207 23.0365 45.1202C23.1712 45.1231 23.3034 45.1583 23.4212 45.2231C23.6009 45.3103 23.7103 45.4969 23.6985 45.6959C23.695 45.9425 23.6296 46.1846 23.5088 46.4C23.4173 46.5262 23.3321 46.6534 23.2554 46.7792C23.1271 46.9366 22.9737 47.0718 22.8009 47.1787C22.4558 47.3733 22.0246 47.3218 21.735 47.051V47.0509ZM24.2212 47.998C24.1009 47.8728 24.0089 47.6941 24.0722 47.5782C24.1034 47.5228 24.1356 47.4673 24.1678 47.4163C24.2732 47.2822 24.3678 47.1396 24.4505 46.9906C24.6827 46.6286 25.0243 46.3504 25.4258 46.1964C25.5119 46.1742 25.6015 46.1687 25.6897 46.1791C25.856 46.29 26.0451 46.4118 26.2407 46.5425C26.2739 46.6237 26.2877 46.7113 26.2823 46.7985C26.1937 47.4039 25.8179 47.9287 25.2733 48.2069C24.9139 48.3728 24.4881 48.2866 24.2212 47.9936V47.998ZM28.0473 48.0599C27.8953 48.301 27.4894 48.4837 26.8091 48.3169C27.0482 48.0079 27.2225 47.6535 27.321 47.2757C27.6082 47.4757 27.883 47.6718 28.1166 47.8475C28.0978 47.8352 28.0859 47.8253 28.0948 47.8342C28.1117 47.8495 28.1206 47.9426 28.0488 48.0579L28.0473 48.0599ZM36.3647 44.5483C35.9028 44.8533 35.3023 44.8464 34.8472 44.532C33.2763 43.2204 30.5079 39.4811 30.4796 39.4436C30.2974 39.197 29.9504 39.1445 29.7038 39.3267C29.4578 39.5084 29.4053 39.856 29.5875 40.102C29.7018 40.256 32.3342 43.8097 34.0175 45.2771C34.0858 45.4841 33.8967 45.8871 33.4941 46.1841H33.4937C33.2679 46.3846 32.9718 46.4866 32.6708 46.4678C32.3698 46.4495 32.0886 46.3113 31.8896 46.0851C30.8553 44.9573 28.3032 42.4304 28.1948 42.3229C27.977 42.1076 27.626 42.109 27.4106 42.3269C27.1952 42.5447 27.1972 42.8957 27.4146 43.1111C27.4403 43.1368 29.9271 45.5989 30.9921 46.7484L30.9926 46.7489C31.0188 46.889 30.9584 47.0316 30.8396 47.1103C30.4703 47.4282 29.6752 47.4911 28.8509 47.0178H28.8504C28.8222 46.99 28.7915 46.9648 28.7588 46.943C28.2746 46.5786 27.631 46.137 27.04 45.7424C26.9251 45.5919 26.784 45.4632 26.6241 45.3617C26.4746 45.2721 26.3142 45.2018 26.1463 45.1528C25.7716 44.9087 25.5082 44.7409 25.481 44.7221C25.3567 44.6429 25.2062 44.6166 25.0626 44.6488C24.919 44.681 24.7938 44.7686 24.7151 44.8929C24.6903 44.9364 24.6715 44.9835 24.6596 45.0325C24.519 44.6884 24.2596 44.4067 23.9289 44.2374C23.4694 43.9879 22.9258 43.9433 22.4318 44.1141C22.3561 44.1433 22.2818 44.1765 22.21 44.2136C22.1021 43.769 21.803 43.3948 21.3931 43.1908C20.9337 42.9413 20.3901 42.8967 19.896 43.0675C19.753 43.1195 19.6163 43.1863 19.4876 43.2675C19.2945 42.7893 18.939 42.3937 18.4841 42.1516C17.9781 41.8323 17.3528 41.7654 16.7909 41.9699C16.377 42.1491 16.0364 42.464 15.8255 42.863C15.6225 42.7254 15.4176 42.5858 15.2215 42.4546C14.2789 41.812 13.3838 41.2055 12.5407 40.7044V40.7039C10.8193 39.792 9.04541 38.983 7.22844 38.2805C7.98245 35.2649 9.07557 32.3444 10.4866 29.5749C12.0303 29.9115 13.6076 30.068 15.1874 30.0418C18.3435 29.9972 22.4013 30.4898 24.49 31.4725C23.0597 32.5335 21.9165 33.9341 21.163 35.548C20.9828 35.8797 20.7739 36.1956 20.5377 36.4907C19.9867 37.117 19.5926 37.8656 19.3876 38.674C19.2822 39.3899 19.851 40.1186 20.7739 40.4455C21.9973 40.8792 23.9069 40.5777 25.2654 38.2959C26.7507 35.806 27.8844 35.7145 29.2117 35.8561C30.1128 35.9462 30.957 36.3368 31.6084 36.9651C33.7853 39.0958 36.2295 42.8367 36.6132 44.0566C36.6691 44.2334 36.5855 44.3987 36.3652 44.5463L36.3647 44.5483ZM42.8646 39.293L42.5567 39.5148C41.2036 40.4911 39.9193 41.4179 37.3998 43.0635C36.1007 40.6178 34.4744 38.3608 32.5658 36.3541C32.7094 36.36 32.849 36.364 32.9787 36.364C33.0866 36.364 33.1881 36.361 33.2817 36.3561V36.3566C33.5881 36.3383 33.8218 36.0759 33.804 35.7694C33.7857 35.4629 33.5233 35.2293 33.2168 35.2476C32.3519 35.2451 31.4885 35.1817 30.6325 35.059C30.2141 34.901 29.7774 34.7971 29.3334 34.75C27.4535 34.553 25.9563 34.9783 24.3182 37.725C23.3018 39.4267 22.0156 39.7038 21.1481 39.3955C20.6857 39.2291 20.4738 38.94 20.4907 38.8286V38.8291C20.6818 38.2073 21.0031 37.634 21.4333 37.1458C21.716 36.7943 21.9635 36.4161 22.1735 36.0166C22.9552 34.3134 24.2276 32.8817 25.8272 31.9053C27.1673 31.1003 28.6674 30.5984 30.222 30.4345C33.2713 30.2127 36.3324 30.2261 39.3796 30.4746C40.4921 30.5855 42.9205 29.9939 43.9358 29.7295V29.729C45.2324 32.3158 46.2608 35.0283 47.0054 37.8246C46.0251 37.9929 44.0789 38.4177 42.8645 39.293L42.8646 39.293Z" fill="#208DCB"/>
</svg>
