<svg width="140" height="140" viewBox="0 0 140 140" fill="none" xmlns="http://www.w3.org/2000/svg">
<path d="M104.541 66.3758L73.8659 35.6993C73.5782 20.9071 61.5166 9.06125 46.7226 9.04099L16.8807 9C15.3114 9.0028 13.7811 9.48929 12.4982 10.3932C11.2153 11.2971 10.2423 12.5745 9.71157 14.0514C9.34705 15.0168 9.1937 16.0492 9.26186 17.0789C9.33003 18.1087 9.61812 19.1118 10.1067 20.0208C12.1231 23.1869 15.2962 25.4405 18.9499 26.3012L19.0085 26.3151C18.6259 26.8637 18.3167 27.4599 18.0886 28.0887C17.7278 29.0543 17.5774 30.0858 17.6476 31.1142C17.7178 32.1426 18.007 33.1441 18.4957 34.0517C20.5105 37.2188 23.6833 39.4731 27.3369 40.3338H27.3667C27.0029 40.865 26.708 41.4402 26.489 42.0457C26.125 43.0087 25.9709 44.0384 26.0371 45.0658C26.1032 46.0932 26.3881 47.0946 26.8727 48.003C28.8952 51.1701 32.0701 53.4266 35.7261 54.2956C38.0898 54.8645 40.5168 55.1277 42.9475 55.0785C41.3817 57.4925 41.716 60.6725 43.7492 62.7086L77.5228 96.4891C79.56 98.5223 82.7391 98.8564 85.1541 97.2906C85.1055 99.7248 85.3692 102.155 85.9389 104.522C86.8057 108.178 89.062 111.353 92.2296 113.373C93.1355 113.858 94.1349 114.144 95.1605 114.211C96.1861 114.278 97.2141 114.125 98.1756 113.762C98.786 113.542 99.3657 113.244 99.9007 112.877V112.914C100.763 116.566 103.017 119.737 106.183 121.751C107.089 122.241 108.089 122.53 109.116 122.6C110.143 122.67 111.174 122.519 112.137 122.157C112.77 121.931 113.369 121.621 113.917 121.234L113.931 121.289C114.791 124.945 117.045 128.121 120.212 130.14C121.26 130.699 122.428 130.995 123.616 131C124.487 130.997 125.35 130.84 126.166 130.536C127.649 130.008 128.931 129.035 129.839 127.75C130.748 126.465 131.237 124.93 131.24 123.357L131.2 93.5202C131.179 78.7262 119.333 66.6634 104.542 66.3758H104.541ZM85.7964 91.0995L83.3981 93.4959L80.9376 71.3277L103.093 73.7947L85.7964 91.0995ZM66.4469 37.1471L68.9122 59.3143L46.7448 56.8397L66.4469 37.1471ZM70.6632 38.2475L101.995 69.5794L74.4031 66.5097C74.2312 66.4917 74.0707 66.4152 73.9485 66.293C73.8263 66.1709 73.7498 66.0104 73.7317 65.8386L70.6632 38.2475ZM30.4807 46.13C30.2541 45.7222 30.1216 45.2689 30.0931 44.8033C30.0645 44.3377 30.1406 43.8716 30.3158 43.4392C30.5383 42.8303 30.9196 42.2919 31.4202 41.8799C31.9208 41.4679 32.5225 41.1973 33.1629 41.0962H33.3276L33.7344 41.1065H35.8069C37.3932 41.1065 39.2867 41.0888 40.9505 41.0719C42.1708 41.06 43.2509 41.0478 43.9053 41.0478C45.0278 41.0478 45.9385 40.1374 45.9385 39.0137C45.9385 37.8909 45.0281 36.9803 43.9053 36.9803H33.6517C33.4868 36.9803 33.3035 36.9803 33.1264 37.0027C31.5205 36.9767 29.9224 36.7719 28.3617 36.3921C25.819 35.8094 23.5856 34.298 22.0994 32.1541C21.87 31.7474 21.7346 31.2945 21.703 30.8286C21.6714 30.3627 21.7445 29.8957 21.9169 29.4617C22.1637 28.7775 22.6132 28.1847 23.2055 27.7624C23.7978 27.3401 24.5047 27.1083 25.232 27.098H43.9158C44.2393 27.0931 44.557 27.0111 44.8425 26.8587C45.128 26.7064 45.373 26.4882 45.5572 26.2221C45.7453 25.9537 45.8674 25.6447 45.9137 25.3202C45.9599 24.9957 45.929 24.6649 45.8234 24.3546C45.6872 23.9516 45.4281 23.6016 45.0826 23.3536C44.7371 23.1056 44.3225 22.9721 43.8972 22.972H31.1678C30.4791 22.972 29.7927 22.9839 29.1094 22.9944C28.2333 23.0063 27.3591 23.0223 26.4663 23.0102C24.2897 23.08 22.1134 22.8613 19.9943 22.3595C17.4453 21.783 15.2035 20.2752 13.7083 18.1318C13.4801 17.7233 13.3462 17.2689 13.3165 16.8018C13.2869 16.3348 13.3622 15.8671 13.537 15.433C13.7891 14.7467 14.2437 14.1531 14.8405 13.7307C15.4373 13.3082 16.1482 13.0769 16.8793 13.0673L46.7197 13.1083C58.0849 13.1288 67.7494 21.4053 69.5183 32.6317C68.4971 32.3692 67.4259 32.3715 66.4059 32.6386C65.3859 32.9056 64.4509 33.4285 63.6895 34.1577L46.8584 50.9885C46.3808 50.9885 45.9042 50.9885 45.4349 51.0045C42.5331 51.1917 39.6194 50.9802 36.775 50.376C34.223 49.7902 31.9797 48.2769 30.4807 46.13ZM47.8563 61.0617L69.3738 63.4636L69.6868 66.2883C69.8027 67.3815 70.2899 68.4018 71.0673 69.1791C71.8446 69.9564 72.8649 70.4437 73.9581 70.5596L76.7947 70.8761L79.1761 92.3955L47.8563 61.0617ZM124.791 126.707C124.359 126.881 123.894 126.955 123.429 126.925C122.964 126.895 122.512 126.76 122.107 126.531C119.963 125.038 118.454 122.797 117.875 120.249C117.371 118.118 117.153 115.93 117.228 113.742C117.216 112.871 117.228 112.001 117.246 111.127C117.256 110.443 117.269 109.755 117.269 109.064V96.3447C117.256 95.9103 117.11 95.4903 116.851 95.1418C116.591 94.7933 116.231 94.5332 115.818 94.397C115.512 94.2952 115.187 94.2674 114.868 94.3161C114.55 94.3648 114.247 94.4884 113.986 94.6769C113.725 94.8654 113.512 95.1133 113.365 95.4002C113.218 95.6871 113.142 96.0048 113.142 96.327V114.999C113.134 115.73 112.902 116.44 112.478 117.036C112.053 117.631 111.457 118.082 110.769 118.328C110.335 118.498 109.869 118.57 109.404 118.538C108.938 118.506 108.486 118.371 108.08 118.142C105.939 116.655 104.429 114.423 103.844 111.883C103.46 110.322 103.25 108.723 103.219 107.116C103.233 106.936 103.24 106.754 103.24 106.591V96.3344C103.24 95.2119 102.329 94.3015 101.206 94.3015C100.667 94.3015 100.15 94.5157 99.7682 94.8969C99.387 95.2782 99.1727 95.7952 99.1726 96.3344C99.1726 96.9879 99.1726 98.0558 99.1502 99.2801C99.1502 99.9205 99.1352 100.596 99.1297 101.275C99.1111 103.427 99.1027 105.598 99.1399 106.829V107.068C99.0388 107.712 98.7671 108.317 98.3533 108.819C97.9394 109.322 97.3984 109.705 96.7864 109.928C96.3549 110.101 95.8903 110.176 95.4263 110.147C94.9624 110.118 94.5107 109.986 94.1043 109.76C91.9613 108.263 90.4502 106.024 89.8637 103.477C89.261 100.63 89.0502 97.7148 89.2371 94.8112C89.2371 94.3339 89.2371 93.8598 89.2512 93.3879L106.083 76.555C106.828 75.8055 107.365 74.8745 107.641 73.8542C107.916 72.8338 107.921 71.7592 107.654 70.7365C118.859 72.5239 127.11 82.1762 127.132 93.5221L127.172 123.362C127.162 124.095 126.929 124.808 126.503 125.405C126.078 126.003 125.481 126.457 124.791 126.707ZM21.4185 84.1853C21.9576 84.1853 22.4743 83.9711 22.8561 83.5895L37.0924 69.353C37.4629 68.9695 37.6679 68.4558 37.6632 67.9226C37.6585 67.3895 37.4446 66.8795 37.0674 66.5025C36.6905 66.1253 36.1805 65.9113 35.6473 65.9065C35.114 65.9018 34.6003 66.1068 34.2168 66.4773L19.9802 80.7136C19.696 80.9981 19.5025 81.3605 19.4241 81.755C19.3458 82.1494 19.3861 82.5582 19.5401 82.9298C19.694 83.3013 19.9546 83.6189 20.2889 83.8424C20.6233 84.0658 21.0164 84.1852 21.4185 84.1853ZM19.9802 103.926C20.169 104.115 20.3932 104.265 20.6399 104.367C20.8867 104.469 21.1511 104.522 21.4182 104.522C21.6852 104.522 21.9497 104.469 22.1964 104.367C22.4431 104.265 22.6673 104.115 22.8561 103.926L37.0924 89.691C37.4601 89.3069 37.6627 88.794 37.6569 88.2624C37.651 87.7307 37.4372 87.2225 37.0613 86.8465C36.6853 86.4705 36.1771 86.2567 35.6454 86.2509C35.1137 86.2451 34.6009 86.4477 34.2168 86.8153L19.9802 101.051C19.7913 101.24 19.6415 101.464 19.5393 101.71C19.4371 101.957 19.3845 102.222 19.3845 102.489C19.3845 102.756 19.4371 103.02 19.5393 103.267C19.6415 103.514 19.7913 103.738 19.9802 103.927V103.926ZM57.4295 86.8153C57.0482 86.434 56.531 86.2197 55.9917 86.2197C55.4524 86.2197 54.9352 86.434 54.5538 86.8153L32.1824 109.186C31.9228 109.437 31.7347 109.752 31.6373 110.1C31.54 110.447 31.537 110.815 31.6285 111.164C31.8139 111.875 32.3697 112.43 33.0809 112.616C33.7921 112.803 34.548 112.59 35.0583 112.061L57.4295 89.691C57.8109 89.3096 58.0251 88.7924 58.0251 88.2531C58.0251 87.7139 57.8109 87.1966 57.4295 86.8153ZM63.5312 124.265L77.7666 110.028C78.1342 109.644 78.3368 109.131 78.331 108.599C78.3252 108.068 78.1114 107.56 77.7354 107.184C77.3595 106.808 76.8512 106.594 76.3195 106.588C75.7879 106.582 75.275 106.785 74.8909 107.152L60.6555 121.389C60.3958 121.639 60.2075 121.955 60.11 122.302C60.0125 122.65 60.0093 123.017 60.1007 123.366C60.1921 123.715 60.3748 124.034 60.63 124.289C60.8853 124.544 61.2039 124.727 61.5531 124.818C61.9023 124.91 62.2695 124.906 62.6171 124.809C62.9647 124.712 63.2802 124.524 63.5312 124.265ZM54.5538 107.152L40.3173 121.389C40.1229 121.576 39.9679 121.801 39.8612 122.049C39.7545 122.297 39.6983 122.564 39.6959 122.834C39.6935 123.104 39.7449 123.372 39.8472 123.622C39.9495 123.872 40.1005 124.099 40.2915 124.29C40.4826 124.481 40.7097 124.632 40.9597 124.735C41.2097 124.837 41.4776 124.888 41.7478 124.886C42.0179 124.884 42.2848 124.827 42.533 124.721C42.7812 124.614 43.0056 124.459 43.1932 124.265L57.4295 110.028C57.8 109.645 58.005 109.131 58.0003 108.598C57.9956 108.065 57.7816 107.555 57.4045 107.178C57.0276 106.8 56.5176 106.586 55.9843 106.582C55.4511 106.577 54.9374 106.782 54.5538 107.152Z" fill="#067647"/>
</svg>
