<svg width="69" height="76" viewBox="0 0 69 76" fill="none" xmlns="http://www.w3.org/2000/svg">
<path d="M17.8506 32.1322C19.3023 36.1422 21.6035 40.0392 24.4479 42.8834C26.0546 44.4987 27.8394 45.7763 29.7396 46.5517C31.0478 47.0801 32.4123 47.3785 33.8179 47.3785C35.2183 47.3785 36.5829 47.084 37.8898 46.5517C39.8578 45.7487 41.7029 44.4107 43.3532 42.7165C46.1284 39.8762 48.3758 36.0384 49.7954 32.0993C50.8935 31.7681 52.0428 29.6638 52.5105 26.9734C53.0153 24.0543 52.5387 21.5097 51.4406 21.0878C51.4803 20.3741 51.5059 19.6525 51.5021 18.9165C51.4778 8.33875 45.4314 1.35305 35.8987 0.699828C27.5883 0.125463 21.3267 3.51382 18.4746 9.14181C17.5136 11.0358 16.9691 14.2427 16.7564 16.8162C16.4361 18.1581 16.249 19.5513 16.249 20.9932H16.2823C16.2823 21.0063 16.281 21.0168 16.2785 21.0273C16.2567 21.0287 16.24 21.03 16.217 21.0352C15.0049 21.2495 14.4488 23.911 14.9818 26.9773C15.47 29.79 16.7038 31.9666 17.8506 32.1322ZM18.1222 24.2501C18.2388 23.8913 18.3964 23.6113 18.6027 23.4615C18.6898 23.3997 18.7846 23.355 18.8807 23.3393C19.1075 23.2998 19.342 23.3892 19.5752 23.5798C19.5752 23.5798 19.5752 23.5798 19.5765 23.5798C19.5765 23.5614 19.5778 23.5417 19.579 23.5246C19.6239 23.079 19.9698 20.6843 21.4241 18.7864C22.5542 17.3104 24.3556 16.1341 27.209 16.4035C27.209 16.4035 32.9236 18.563 38.1204 16.6519C38.6803 16.6414 39.2262 16.6375 39.7284 16.6532C41.8784 16.736 43.3532 17.8808 44.8971 18.6168C44.8446 17.8887 44.2975 17.1461 44.3244 16.6506C44.5717 16.7229 44.7946 16.8333 45.0111 16.9503C46.122 18.166 47.2008 20.2046 48.0542 23.5325C48.0542 23.5469 48.0542 23.5614 48.0542 23.5719C48.0606 23.5706 48.0606 23.5706 48.0657 23.5693C48.0657 23.5706 48.0657 23.5706 48.0657 23.5719L48.0798 23.5574C48.19 23.4667 48.3053 23.3997 48.4181 23.3629C48.4796 23.3406 48.5385 23.3498 48.5987 23.3432C48.6487 23.3406 48.7063 23.3209 48.7525 23.3301H48.7563C48.8101 23.3393 48.8678 23.3616 48.919 23.3813C49.4482 23.6389 49.7532 24.6602 49.7275 25.9745C49.7211 26.4095 49.6763 26.8801 49.5904 27.3664C49.5699 27.4952 49.5379 27.6069 49.5071 27.7304C49.2265 29.0487 48.7128 30.1278 48.1656 30.6075C48.0426 30.7166 47.9107 30.7942 47.7851 30.8349C47.6685 30.8757 47.5519 30.8914 47.4379 30.8717C47.311 30.852 47.1893 30.7836 47.0817 30.6785C45.7633 34.8844 43.2519 39.0719 40.0821 41.619C39.6118 41.9923 39.1288 42.334 38.6368 42.6324C37.1313 43.5393 35.5117 44.0742 33.823 44.0742C31.6256 44.0742 29.5423 43.1791 27.6831 41.7215C24.4569 39.1862 21.8943 34.9435 20.5605 30.6798C20.4516 30.7823 20.3299 30.8507 20.2017 30.873C19.9288 30.923 19.6393 30.781 19.3625 30.5011C18.8013 29.9241 18.2913 28.7648 18.0505 27.3703C18.0338 27.2783 18.0223 27.1916 18.012 27.0983C18.0146 26.1296 18.0582 25.1846 18.1222 24.2501Z" fill="#8EC64E"/>
<path d="M63.6072 53.723C60.5732 49.7024 57.3815 49.0545 56.0208 48.7877C55.8542 48.7561 55.7158 48.7285 55.6018 48.7022C54.0848 48.3395 52.3448 48.233 50.8085 48.141C49.5734 48.0661 48.3946 48.0017 47.4349 47.8032C46.3189 50.8341 40.8338 53.0356 34.0776 53.0356C27.3188 53.0356 21.8375 50.8328 20.7228 47.8032C19.758 48.0004 18.578 48.07 17.3441 48.1449C15.8078 48.2317 14.0679 48.3382 12.5534 48.7022C12.4393 48.7285 12.2984 48.7561 12.1318 48.7877C10.8493 49.0413 7.93309 49.617 5.05405 53.0606C3.3192 55.1385 1.59844 58.2548 0.259508 62.9799C-0.0736247 64.1575 -0.0761875 65.3995 0.195444 66.5575C0.321009 67.0832 0.485013 67.605 0.731018 68.0847C3.69718 73.8481 19.881 75.9024 34.034 75.9024H34.1135C48.269 75.9024 64.4439 73.8481 67.4177 68.0847C67.7073 67.5314 67.879 66.9255 68.002 66.3025C68.2096 65.2208 68.1916 64.0813 67.8867 62.9877C66.6849 58.7214 65.1678 55.7878 63.6072 53.723Z" fill="#8EC64E"/>
</svg>
