<svg width="20" height="20" viewBox="0 0 20 20" fill="none" xmlns="http://www.w3.org/2000/svg">
<mask id="mask0_2724_69896" style="mask-type:alpha" maskUnits="userSpaceOnUse" x="0" y="0" width="24" height="24">
<rect width="24" height="24" fill="#D9D9D9"/>
</mask>
<g mask="url(#mask0_2724_69896)">
<path d="M16.2016 17.0831C14.6311 17.0831 13.0534 16.718 11.4684 15.9878C9.8835 15.2575 8.42731 14.2274 7.09986 12.8972C5.77241 11.5671 4.74356 10.1109 4.01332 8.52867C3.28309 6.94641 2.91797 5.37003 2.91797 3.79952C2.91797 3.54723 3.0013 3.33699 3.16797 3.1688C3.33464 3.0006 3.54297 2.9165 3.79297 2.9165H6.51089C6.72136 2.9165 6.90699 2.98515 7.06778 3.12244C7.22857 3.25973 7.33086 3.42934 7.37466 3.63125L7.85222 6.08315C7.88534 6.31072 7.8784 6.50623 7.83139 6.66969C7.78439 6.83315 7.69998 6.97043 7.57818 7.08155L5.65351 8.95494C5.96334 9.52225 6.31725 10.0588 6.71522 10.5647C7.11319 11.0706 7.54401 11.5538 8.00768 12.0143C8.46496 12.4715 8.95107 12.8962 9.46603 13.2883C9.98099 13.6804 10.5371 14.0452 11.1343 14.3828L13.0045 12.4966C13.1348 12.3609 13.2927 12.2659 13.4781 12.2114C13.6634 12.1569 13.856 12.1435 14.0558 12.1713L16.3698 12.6425C16.5803 12.698 16.7521 12.8054 16.8851 12.9646C17.0181 13.1238 17.0846 13.3043 17.0846 13.5063V16.2081C17.0846 16.4581 17.0005 16.6665 16.8323 16.8331C16.6641 16.9998 16.4539 17.0831 16.2016 17.0831ZM5.06218 7.77228L6.54937 6.34919C6.57607 6.32782 6.59343 6.29843 6.60145 6.26105C6.60946 6.22364 6.60813 6.18892 6.59745 6.15688L6.23526 4.29469C6.22458 4.25196 6.20589 4.21991 6.17918 4.19855C6.15247 4.17717 6.11775 4.16648 6.07501 4.16648H4.29295C4.26091 4.16648 4.2342 4.17717 4.21282 4.19855C4.19145 4.21991 4.18076 4.24662 4.18076 4.27867C4.2235 4.84812 4.31671 5.42664 4.46041 6.01425C4.60411 6.60187 4.80471 7.18787 5.06218 7.77228ZM12.3122 14.9742C12.8645 15.2317 13.4406 15.4285 14.0405 15.5647C14.6404 15.7009 15.2011 15.7819 15.7224 15.8075C15.7545 15.8075 15.7812 15.7968 15.8026 15.7755C15.8239 15.7541 15.8346 15.7274 15.8346 15.6953V13.9421C15.8346 13.8994 15.8239 13.8647 15.8026 13.8379C15.7812 13.8112 15.7491 13.7925 15.7064 13.7819L13.9564 13.4261C13.9244 13.4154 13.8963 13.4141 13.8723 13.4221C13.8482 13.4301 13.8229 13.4475 13.7962 13.4742L12.3122 14.9742Z" fill="#182230"/>
</g>
</svg>
