<svg width="18" height="18" viewBox="0 0 18 18" fill="none" xmlns="http://www.w3.org/2000/svg">
<path d="M7.1747 0.0644388C7.11687 0.0995928 5.92771 1.23858 4.53614 2.59553L2.00602 5.05982H1.8253C0.99759 5.06333 0.26747 5.62228 0.0542169 6.41676C0.0108434 6.5855 0 6.91946 0 8.31859C0 9.55601 0.0108434 10.0376 0.0433735 10.1044C0.0903614 10.2064 0.242169 10.2978 0.361446 10.2978C0.466265 10.2978 0.636145 10.2064 0.672289 10.1325C0.690361 10.0974 0.712048 9.2783 0.722892 8.31156C0.740964 6.60659 0.744578 6.55035 0.816867 6.39216C0.918072 6.18123 1.13133 5.97382 1.35904 5.86485L1.53614 5.78048H15.0181L15.1952 5.86485C15.4229 5.97382 15.6361 6.18123 15.7373 6.39216C15.8096 6.54683 15.8133 6.61362 15.8241 7.73855L15.8349 8.92324L12.8602 8.93379C9.53494 8.94785 9.73735 8.93379 9.16265 9.20447C8.29157 9.6228 7.73494 10.4419 7.67349 11.3875C7.59398 12.6671 8.5012 13.8132 9.80241 14.0733C10.0446 14.1225 10.4675 14.1295 12.9578 14.1295H15.8349L15.8241 15.3177C15.8133 16.4356 15.8096 16.513 15.7373 16.6641C15.6253 16.8962 15.4554 17.0649 15.2241 17.1774L15.0181 17.2758H1.53614L1.33012 17.1774C1.0988 17.0649 0.928916 16.8962 0.816867 16.6641C0.744578 16.5095 0.740964 16.4392 0.722892 14.7447C0.704819 12.857 0.704819 12.8816 0.516867 12.7972C0.36506 12.7304 0.253012 12.7515 0.122892 12.8781L0 12.9976V14.7061C0 15.8134 0.0144578 16.4778 0.039759 16.5974C0.180723 17.2547 0.76265 17.8207 1.43855 17.9578C1.70964 18.0141 14.8446 18.0141 15.1157 17.9578C15.7916 17.8207 16.3735 17.2547 16.5145 16.5974C16.5398 16.4849 16.5542 15.9681 16.5542 15.272V14.1295H17.1325C17.7687 14.1295 17.8771 14.1049 17.9566 13.9362C17.9892 13.8694 18 13.2437 18 11.5071V9.1658L17.7542 8.92676H16.5578L16.547 7.68582C16.5325 6.51871 16.5289 6.43785 16.4566 6.24451C16.4133 6.13202 16.3229 5.96679 16.2578 5.87539C16.0627 5.60471 10.2976 0.0433464 10.1855 0.0152232C9.99036 -0.0339923 9.89277 0.0292848 9.30723 0.598779L8.7253 1.15773L8.18675 0.626903C7.88675 0.335124 7.6012 0.074985 7.54699 0.0468618C7.41325 -0.0199307 7.30482 -0.0164153 7.1747 0.0644388ZM7.79639 1.27022L8.20482 1.66746L4.71687 5.05982H3.05422L5.20482 2.96816C6.38675 1.81862 7.36265 0.876496 7.37349 0.876496C7.38072 0.876496 7.57229 1.05578 7.79639 1.27022ZM12.253 2.96816L14.4036 5.05982H5.76506L7.91566 2.96816C9.09759 1.81862 10.0735 0.876496 10.0843 0.876496C10.0952 0.876496 11.0711 1.81862 12.253 2.96816ZM17.2771 13.43L9.92169 13.4089L9.68675 13.321C9.08675 13.0925 8.6747 12.6742 8.47229 12.0906C8.36386 11.7848 8.37831 11.2329 8.5012 10.9059C8.72892 10.2907 9.27831 9.81967 9.92169 9.68257C10.0916 9.6439 10.9048 9.63335 13.7096 9.63335L17.2771 9.62984V13.43Z" fill="#1F88C8"/>
<path d="M9.98675 10.5403C9.36145 10.7477 9.08313 11.4192 9.37952 12.0062C9.48072 12.2101 9.64337 12.3648 9.87831 12.4843C10.0012 12.5511 10.088 12.5652 10.3373 12.5652C10.6735 12.5652 10.8289 12.5089 11.0747 12.298C11.4072 12.0168 11.5048 11.4684 11.2988 11.0606C11.0639 10.5931 10.4964 10.3681 9.98675 10.5403ZM10.5759 11.2961C10.7096 11.4262 10.7313 11.5422 10.6482 11.7004C10.4783 12.0168 9.9759 11.8762 9.9759 11.5071C9.9759 11.3735 10.1892 11.1766 10.3373 11.1766C10.4205 11.1766 10.4892 11.2118 10.5759 11.2961Z" fill="#1F88C8"/>
<path d="M0.122892 11.2961C-0.0108434 11.4262 -0.0325301 11.5422 0.0506024 11.7004C0.220482 12.0168 0.722892 11.8762 0.722892 11.5071C0.722892 11.3735 0.509639 11.1766 0.361446 11.1766C0.278313 11.1766 0.213253 11.2082 0.122892 11.2961Z" fill="#1F88C8"/>
</svg>
