<svg width="44" height="44" viewBox="0 0 44 44" fill="none" xmlns="http://www.w3.org/2000/svg">
<path d="M40.6205 27.845C41.5162 27.8439 42.3756 27.4878 43.0089 26.8539C43.6428 26.2206 43.9989 25.3613 44 24.4655V19.535C43.9989 18.6388 43.6428 17.7795 43.0089 17.146C42.3755 16.5121 41.5162 16.1561 40.6205 16.155H38.7722C38.5495 15.5123 38.291 14.8828 37.9967 14.2699L39.2992 12.9668H39.2997C39.9325 12.3324 40.288 11.473 40.288 10.5767C40.288 9.681 39.9325 8.82118 39.2997 8.18718L35.8133 4.70079V4.70024C35.1789 4.06745 34.319 3.71192 33.4232 3.71192C32.527 3.71192 31.6677 4.06745 31.0331 4.70024L29.7301 6.0033C29.1171 5.70896 28.4882 5.44988 27.8456 5.2283V3.38005C27.8444 2.48378 27.4878 1.62451 26.8539 0.991067C26.2206 0.357176 25.3613 0.00110065 24.4655 0H19.535C18.6387 0.000551173 17.7795 0.357176 17.146 0.991067C16.5121 1.62441 16.1555 2.48372 16.1544 3.38005V5.2283C15.5117 5.44988 14.8828 5.70894 14.2699 6.0033L12.9668 4.70024C12.3324 4.06745 11.4731 3.71247 10.5767 3.71247C9.68102 3.71247 8.82119 4.06745 8.18719 4.70024L4.70024 8.18663V8.18718C4.06745 8.82162 3.71192 9.68096 3.71192 10.5767C3.71192 11.473 4.06745 12.3323 4.70024 12.9668L6.00275 14.2699H6.0033C5.70896 14.8828 5.45043 15.5123 5.2283 16.155H3.37948C2.48376 16.1561 1.62437 16.5121 0.991068 17.146C0.357177 17.7794 0.00110065 18.6387 0 19.535V24.4655C0.00110235 25.3612 0.357177 26.2206 0.991068 26.8539C1.62441 27.4878 2.48372 27.8439 3.37948 27.845H5.22773C5.44987 28.4877 5.70894 29.1172 6.00328 29.7306L4.70022 31.0332C4.06743 31.6676 3.71191 32.5269 3.71191 33.4233C3.71191 34.3196 4.06743 35.1788 4.70022 35.8134L8.18661 39.2998V39.2992C8.82105 39.9326 9.68096 40.2875 10.5767 40.2875C11.473 40.2875 12.3323 39.9326 12.9668 39.2992L14.2693 37.9967H14.2699C14.8828 38.291 15.5118 38.5501 16.1544 38.7717V40.62C16.1555 41.5162 16.5121 42.3751 17.146 43.0089C17.7794 43.6428 18.6387 43.9989 19.535 44H24.4655C25.3612 43.9989 26.2206 43.6428 26.8545 43.0089C27.4878 42.375 27.8444 41.5163 27.8456 40.62V38.7717C28.4883 38.5496 29.1172 38.2911 29.7301 37.9967L31.0326 39.2992H31.0331C31.6676 39.9326 32.5269 40.2875 33.4232 40.2875C34.319 40.2875 35.1788 39.9326 35.8133 39.2992L39.2997 35.8128V35.8134C39.9325 35.1789 40.288 34.3196 40.288 33.4233C40.288 32.5269 39.9325 31.6677 39.2997 31.0332L37.9967 29.7306C38.291 29.1171 38.5501 28.4877 38.7722 27.845H40.6205ZM35.7021 30.7996L37.6181 32.715C38.0083 33.1063 38.0083 33.7397 37.6181 34.1316L34.1317 37.618V37.6174C33.7398 38.0077 33.1065 38.0077 32.7151 37.6174L30.7997 35.702C30.4254 35.3288 29.8505 35.2467 29.3869 35.5002C28.414 36.0299 27.3865 36.4527 26.3227 36.7614C25.8156 36.9097 25.4667 37.3744 25.4667 37.903V40.6199C25.4661 41.1727 25.018 41.6209 24.4657 41.6214H19.5352C18.9823 41.6209 18.5342 41.1727 18.5336 40.6199V37.903C18.5336 37.3743 18.1847 36.9097 17.6776 36.7614C16.6138 36.4533 15.5864 36.0305 14.6134 35.5002C14.1504 35.2461 13.5744 35.3283 13.2012 35.702L11.2858 37.6174H11.2852C10.8939 38.0077 10.2605 38.0077 9.8692 37.6174L6.38281 34.131V34.1316C5.99201 33.7402 5.99201 33.1063 6.38226 32.715L8.29824 30.7996C8.67195 30.4258 8.75464 29.8498 8.49998 29.3868C7.96972 28.4139 7.54695 27.3864 7.23882 26.322C7.09054 25.8149 6.62532 25.4665 6.09727 25.4665H3.37979C2.82747 25.466 2.37935 25.0179 2.37879 24.4655V19.535C2.37934 18.9822 2.82747 18.534 3.37979 18.5335H6.09727C6.62533 18.5335 7.09056 18.1851 7.23882 17.678C7.54695 16.6136 7.96972 15.5868 8.49998 14.6138C8.75464 14.1502 8.67197 13.5748 8.29824 13.201L6.38226 11.285C5.992 10.8937 5.992 10.2604 6.38226 9.86902L9.86864 6.38263V6.38208C10.2605 5.99183 10.8939 5.99183 11.2852 6.38208L13.2007 8.2975V8.29805C13.5744 8.67176 14.1498 8.7539 14.6134 8.49979C15.5863 7.97008 16.6138 7.54675 17.6776 7.23863C18.1848 7.09035 18.5337 6.62513 18.5337 6.09708V3.38016C18.5342 2.8273 18.9823 2.37916 19.5352 2.37861H24.4657C25.018 2.37916 25.4662 2.8273 25.4673 3.38016V6.09708C25.4667 6.62514 25.8156 7.09036 26.3227 7.23863C27.3866 7.5473 28.414 7.97008 29.3869 8.49979C29.8505 8.7539 30.426 8.67178 30.7997 8.29805L32.7151 6.38263V6.38208C33.1065 5.99183 33.7398 5.99183 34.1317 6.38208L37.6181 9.86847V9.86902C38.0084 10.2604 38.0084 10.8937 37.6181 11.285L35.7021 13.201C35.3284 13.5747 35.2463 14.1502 35.5004 14.6138C36.0306 15.5867 36.4534 16.6142 36.7615 17.678C36.9098 18.1851 37.375 18.5335 37.9037 18.5335H40.6206C41.1729 18.534 41.621 18.9822 41.6216 19.535V24.4655C41.621 25.0179 41.1729 25.466 40.6206 25.4665H37.9031C37.375 25.4665 36.9098 25.8149 36.7615 26.322C36.4534 27.3864 36.0306 28.4138 35.5004 29.3868C35.2457 29.8503 35.3284 30.4258 35.7021 30.7996H35.7021Z" fill="#1F88C8"/>
<path d="M21.9983 13.4858C19.7406 13.4858 17.5749 14.3827 15.9781 15.9795C14.3818 17.5763 13.4844 19.7415 13.4844 21.9992C13.4844 24.2576 14.3812 26.4233 15.9781 28.0195C17.5743 29.6163 19.74 30.5132 21.9978 30.5132C24.2561 30.5132 26.4213 29.6164 28.0181 28.0201C29.6149 26.4233 30.5118 24.2581 30.5118 21.9998C30.5095 19.7426 29.6116 17.5786 28.0154 15.9828C26.4196 14.3865 24.2555 13.4885 21.9983 13.4858ZM21.9983 28.1344C20.3712 28.1344 18.8107 27.4884 17.6604 26.3375C16.5094 25.1871 15.8629 23.6267 15.8629 21.9995C15.8629 20.3724 16.5095 18.8119 17.6598 17.6615C18.8107 16.5106 20.3712 15.8647 21.9983 15.8647C23.6255 15.8647 25.186 16.5107 26.3363 17.6615C27.4867 18.8119 28.1332 20.3724 28.1332 21.9995C28.1316 23.6261 27.4844 25.1855 26.3341 26.3358C25.1843 27.4856 23.6249 28.1327 21.9982 28.1344H21.9983Z" fill="#1F88C8"/>
</svg>
