<svg width="34" height="34" viewBox="0 0 34 34" fill="none" xmlns="http://www.w3.org/2000/svg">
<path fill-rule="evenodd" clip-rule="evenodd" d="M11.1421 8.2539C8.17883 8.2539 5.77691 10.6561 5.77691 13.6194C5.77691 16.5823 8.17883 18.9845 11.1421 18.9845C14.1053 18.9845 16.5073 16.5823 16.5073 13.6194C16.5073 10.6561 14.1053 8.2539 11.1421 8.2539V8.2539ZM3.30078 13.6194C3.30078 9.28863 6.8115 5.77734 11.1421 5.77734C15.4728 5.77734 18.9834 9.28835 18.9834 13.6194C18.9834 17.9501 15.4727 21.4607 11.1421 21.4607C6.81136 21.4607 3.30078 17.9499 3.30078 13.6194Z" fill="#1F88C8"/>
<path fill-rule="evenodd" clip-rule="evenodd" d="M26.0012 2.47627C23.9497 2.47627 22.2868 4.1392 22.2868 6.19069C22.2868 8.24189 23.9497 9.9051 26.0012 9.9051C26.8795 9.9051 27.6838 9.60164 28.3195 9.09309C29.1726 8.41019 29.7156 7.36409 29.7156 6.19069C29.7156 4.1392 28.0524 2.47627 26.0012 2.47627V2.47627ZM19.8105 6.19069C19.8105 2.77145 22.5823 0 26.0012 0C29.4202 0 32.1919 2.77145 32.1919 6.19069C32.1919 7.66068 31.6787 9.01131 30.8239 10.0723L33.4118 12.7608C33.8861 13.2533 33.8711 14.0371 33.3786 14.5113C32.8859 14.9856 32.1021 14.9707 31.6278 14.4782L28.9112 11.6558C28.043 12.1185 27.052 12.3813 26.0013 12.3813C22.5823 12.3813 19.8106 9.60959 19.8106 6.19063L19.8105 6.19069Z" fill="#1F88C8"/>
<path fill-rule="evenodd" clip-rule="evenodd" d="M0 30.1281C0 23.9739 4.98906 18.9849 11.1432 18.9849C17.2974 18.9849 22.2865 23.9739 22.2865 30.1281V30.5913C22.2865 31.6158 21.5687 32.5002 20.5661 32.7113L17.675 33.3199C13.3675 34.2269 8.91891 34.2269 4.6116 33.3199L1.72023 32.7113C0.717837 32.5002 0.000141424 31.6158 0.000141424 30.5913L0 30.1281ZM11.1432 21.4611C6.35653 21.4611 2.47627 25.3414 2.47627 30.1281V30.3398L5.12171 30.897C9.0926 31.7327 13.1937 31.7327 17.1649 30.897L19.8103 30.3398V30.1281C19.8103 25.3414 15.9301 21.4611 11.1434 21.4611H11.1432Z" fill="#1F88C8"/>
</svg>
