<svg width="36" height="33" viewBox="0 0 36 33" fill="none" xmlns="http://www.w3.org/2000/svg">
<path d="M31.5972 15.0352V3.71814C31.5972 1.66795 29.9293 0 27.8791 0L3.71814 0.000254459C1.66795 0.000254459 0 1.6682 0 3.71839V23.4686C0 25.5188 1.66795 27.1867 3.71814 27.1867H18.0877C19.6434 30.2532 22.8211 32.3644 26.4883 32.3644C31.6841 32.3644 35.911 28.1374 35.911 22.9417C35.9108 19.6292 34.1888 16.7159 31.5967 15.0349L31.5972 15.0352ZM3.71801 25.5034C2.59608 25.5034 1.68364 24.5909 1.68364 23.469V3.71814C1.68364 2.59621 2.59614 1.68377 3.71801 1.68377H27.8789C29.0009 1.68377 29.9133 2.59628 29.9133 3.71814V14.1727C28.8499 13.7556 27.6977 13.519 26.4883 13.519C25.9333 13.519 25.3924 13.5767 24.8631 13.6694L22.1188 11.4385C22.1149 11.4357 22.1109 11.434 22.107 11.4307C22.0834 11.4121 22.0582 11.3976 22.033 11.3818C22.0101 11.3673 21.9882 11.3515 21.964 11.3398C21.946 11.3309 21.9269 11.3253 21.9078 11.3174C21.8752 11.3039 21.8432 11.2899 21.8096 11.2803C21.7971 11.277 21.7839 11.2765 21.7709 11.2729C21.7317 11.264 21.6913 11.2556 21.6513 11.2528C21.6355 11.2518 21.6187 11.2533 21.603 11.2528C21.5658 11.2523 21.5284 11.251 21.4913 11.2556C21.4712 11.2579 21.4513 11.264 21.4312 11.2673C21.3976 11.2734 21.3645 11.279 21.332 11.2897C21.3134 11.2958 21.2956 11.3049 21.2765 11.3126C21.2429 11.3256 21.2103 11.339 21.1783 11.3563C21.175 11.3586 21.1709 11.3591 21.1676 11.3614L17.3558 13.5518L12.8244 9.32988C12.8198 9.3253 12.8132 9.32428 12.8086 9.32046C12.7323 9.25201 12.6471 9.20087 12.5555 9.16499C12.5443 9.16041 12.5336 9.15608 12.5224 9.15201C12.4308 9.12046 12.3366 9.10595 12.2407 9.10723C12.2282 9.10723 12.216 9.10723 12.2035 9.10773C12.1099 9.11282 12.0173 9.13471 11.9285 9.1716C11.9155 9.17669 11.9033 9.18178 11.8903 9.18789C11.8252 9.21868 11.7623 9.25583 11.7045 9.30469L3.12412 16.6012C2.76992 16.9019 2.72666 17.4335 3.02819 17.7877C3.19435 17.9837 3.43176 18.0842 3.66968 18.0842C3.86282 18.0842 4.05646 18.0185 4.21474 17.8839L12.2258 11.0721L18.938 17.3274C17.7672 18.8976 17.0647 20.8372 17.0647 22.9418C17.0647 23.8309 17.1965 24.6871 17.4278 25.5032L3.71801 25.5034ZM20.06 16.0716L18.6452 14.7532L21.5058 13.1099L22.8914 14.2356C21.8357 14.6743 20.8822 15.3023 20.06 16.0716ZM26.4882 30.6815C22.2206 30.6815 18.7494 27.2091 18.7494 22.9427C18.7494 18.6756 22.2217 15.2039 26.4882 15.2039C30.7552 15.2039 34.227 18.6762 34.227 22.9427C34.227 27.2091 30.7554 30.6815 26.4882 30.6815Z" fill="black"/>
<path d="M6.37833 9.69025C8.33589 9.69025 9.92854 8.09761 9.92854 6.14005C9.92854 4.18249 8.33589 2.58984 6.37833 2.58984C4.42077 2.58984 2.82812 4.18249 2.82812 6.14005C2.82812 8.09761 4.42077 9.69025 6.37833 9.69025ZM6.37833 4.27284C7.40763 4.27284 8.24502 5.11023 8.24502 6.13953C8.24502 7.16883 7.40763 8.00622 6.37833 8.00622C5.34903 8.00622 4.51164 7.16883 4.51164 6.13953C4.51164 5.11023 5.34903 4.27284 6.37833 4.27284Z" fill="black"/>
<path d="M27.0326 18.2293C27.0293 18.2265 27.0252 18.2247 27.0214 18.2219C27.0097 18.2112 26.9962 18.2028 26.9837 18.1934C26.9641 18.1794 26.9432 18.1659 26.9226 18.1535C26.9091 18.1451 26.8962 18.1361 26.8822 18.1283C26.8697 18.1216 26.8557 18.1166 26.8435 18.1102C26.8216 18.1 26.7997 18.0921 26.7773 18.0837C26.7616 18.0776 26.7458 18.0708 26.7298 18.0657C26.7168 18.0618 26.7028 18.0596 26.6898 18.0562C26.6674 18.0507 26.6443 18.0468 26.6214 18.0433C26.6046 18.0405 26.5878 18.0367 26.571 18.0349C26.5557 18.0331 26.5394 18.0339 26.5244 18.0331C26.5127 18.0326 26.502 18.0298 26.4901 18.0298C26.4784 18.0298 26.4677 18.0326 26.4557 18.0331C26.4404 18.0336 26.4241 18.0331 26.4091 18.0349C26.3923 18.0367 26.3755 18.0405 26.3588 18.0433C26.3359 18.0471 26.3127 18.0512 26.2903 18.0562C26.2773 18.0596 26.2633 18.0618 26.2504 18.0657C26.2341 18.0708 26.2183 18.0774 26.2028 18.0837C26.1804 18.0921 26.1585 18.1 26.1366 18.1102C26.1241 18.1163 26.1109 18.1219 26.0979 18.1283C26.0844 18.1361 26.071 18.1451 26.057 18.1535C26.0361 18.1659 26.016 18.1792 25.9969 18.1934C25.9839 18.2028 25.9705 18.2115 25.9587 18.2219C25.9549 18.2247 25.9509 18.2265 25.9475 18.2293L22.5683 21.0831C22.2131 21.3828 22.1681 21.9136 22.4683 22.2688C22.6345 22.4663 22.8724 22.5673 23.1116 22.5673C23.3035 22.5673 23.4966 22.5022 23.6544 22.3686L25.6483 20.6843V27.0104C25.6483 27.4751 26.0254 27.8522 26.49 27.8522C26.9547 27.8522 27.3318 27.4751 27.3318 27.0104V20.6851L29.3257 22.3693C29.4835 22.5029 29.6763 22.568 29.8685 22.568C30.1082 22.568 30.3461 22.4665 30.5117 22.2695C30.812 21.9143 30.7672 21.3833 30.4117 21.0838L27.0326 18.2293Z" fill="black"/>
</svg>
