<svg width="26" height="26" viewBox="0 0 26 26" fill="none" xmlns="http://www.w3.org/2000/svg">
<path fill-rule="evenodd" clip-rule="evenodd" d="M6.02513 1.10942C10.6598 0.595688 15.3371 0.595688 19.9718 1.10942C22.5038 1.39209 24.5451 3.38542 24.8425 5.92675C25.3921 10.6263 25.3921 15.3739 24.8425 20.0734C24.5451 22.6148 22.5038 24.6081 19.9731 24.8921C15.338 25.406 10.6603 25.406 6.02513 24.8921C3.49313 24.6081 1.45179 22.6148 1.15446 20.0748C0.604763 15.3748 0.604763 10.6267 1.15446 5.92675C1.45179 3.38542 3.49313 1.39209 6.02513 1.10942ZM19.6651 5.00009C19.3115 5.00009 18.9724 5.14056 18.7223 5.39061C18.4723 5.64066 18.3318 5.9798 18.3318 6.33342C18.3318 6.68704 18.4723 7.02618 18.7223 7.27623C18.9724 7.52628 19.3115 7.66675 19.6651 7.66675C20.0187 7.66675 20.3579 7.52628 20.6079 7.27623C20.858 7.02618 20.9985 6.68704 20.9985 6.33342C20.9985 5.9798 20.858 5.64066 20.6079 5.39061C20.3579 5.14056 20.0187 5.00009 19.6651 5.00009ZM6.66513 13.0001C6.66513 11.3204 7.33239 9.70948 8.52012 8.52174C9.70785 7.33401 11.3188 6.66675 12.9985 6.66675C14.6782 6.66675 16.2891 7.33401 17.4768 8.52174C18.6645 9.70948 19.3318 11.3204 19.3318 13.0001C19.3318 14.6798 18.6645 16.2907 17.4768 17.4784C16.2891 18.6662 14.6782 19.3334 12.9985 19.3334C11.3188 19.3334 9.70785 18.6662 8.52012 17.4784C7.33239 16.2907 6.66513 14.6798 6.66513 13.0001Z" fill="white"/>
</svg>
