<svg width="32" height="32" viewBox="0 0 32 32" fill="none" xmlns="http://www.w3.org/2000/svg">
<rect x="3" y="3" width="26" height="26" rx="13" fill="white"/>
<path d="M23.4517 12.9273C23.4433 12.2975 23.3252 11.6739 23.1027 11.0845C22.9097 10.5874 22.615 10.1359 22.2374 9.75887C21.8597 9.38186 21.4075 9.08764 20.9095 8.895C20.3267 8.67659 19.711 8.55849 19.0886 8.54574C18.2873 8.50998 18.0333 8.5 15.9992 8.5C13.9651 8.5 13.7044 8.5 12.9089 8.54574C12.2868 8.55859 11.6714 8.67668 11.0888 8.895C10.5908 9.0875 10.1385 9.38168 9.7608 9.7587C9.38314 10.1357 9.08848 10.5873 8.89566 11.0845C8.67645 11.6659 8.55841 12.2804 8.54665 12.9015C8.51083 13.7024 8.5 13.956 8.5 15.9867C8.5 18.0174 8.5 18.2769 8.54665 19.0718C8.55914 19.6939 8.67659 20.3076 8.89566 20.8905C9.0888 21.3876 9.38369 21.839 9.76147 22.2159C10.1393 22.5927 10.5916 22.8868 11.0897 23.0792C11.6706 23.3064 12.2861 23.433 12.9097 23.4534C13.7119 23.4892 13.9659 23.5 16 23.5C18.0341 23.5 18.2948 23.5 19.0903 23.4534C19.7126 23.4412 20.3284 23.3234 20.9112 23.105C21.409 22.9121 21.8612 22.6178 22.2388 22.2409C22.6164 21.8639 22.9112 21.4125 23.1043 20.9155C23.3234 20.3334 23.4409 19.7196 23.4534 19.0968C23.4892 18.2968 23.5 18.0432 23.5 16.0116C23.4983 13.9809 23.4983 13.7231 23.4517 12.9273ZM15.9942 19.8269C13.8668 19.8269 12.1434 18.1064 12.1434 15.9825C12.1434 13.8587 13.8668 12.1382 15.9942 12.1382C17.0155 12.1382 17.9949 12.5432 18.7171 13.2641C19.4393 13.9851 19.845 14.9629 19.845 15.9825C19.845 17.0021 19.4393 17.98 18.7171 18.7009C17.9949 19.4219 17.0155 19.8269 15.9942 19.8269ZM19.9982 12.8924C19.8803 12.8925 19.7635 12.8694 19.6545 12.8244C19.5455 12.7794 19.4464 12.7133 19.363 12.6301C19.2796 12.5468 19.2135 12.4479 19.1684 12.3391C19.1233 12.2303 19.1002 12.1137 19.1003 11.996C19.1003 11.8783 19.1235 11.7618 19.1686 11.6531C19.2137 11.5443 19.2798 11.4456 19.3632 11.3624C19.4465 11.2792 19.5455 11.2132 19.6543 11.1681C19.7632 11.1231 19.8799 11.0999 19.9978 11.0999C20.1157 11.0999 20.2324 11.1231 20.3413 11.1681C20.4502 11.2132 20.5491 11.2792 20.6324 11.3624C20.7158 11.4456 20.7819 11.5443 20.827 11.6531C20.8721 11.7618 20.8953 11.8783 20.8953 11.996C20.8953 12.4916 20.4938 12.8924 19.9982 12.8924Z" fill="#0F172A"/>
<path d="M16 19C17.6569 19 19 17.6569 19 16C19 14.3431 17.6569 13 16 13C14.3431 13 13 14.3431 13 16C13 17.6569 14.3431 19 16 19Z" fill="#0F172A"/>
</svg>
