<svg width="40" height="40" viewBox="0 0 40 40" fill="none" xmlns="http://www.w3.org/2000/svg">
<g clip-path="url(#clip0_2001_58520)">
<path d="M34.0819 34.0823H28.1552V24.8006C28.1552 22.5873 28.1156 19.7381 25.0727 19.7381C21.9858 19.7381 21.5134 22.1497 21.5134 24.6395V34.0817H15.5869V14.9948H21.2764V17.6033H21.3561C21.9255 16.6297 22.7483 15.8287 23.7369 15.2858C24.7254 14.7428 25.8428 14.4782 26.9698 14.52C32.9769 14.52 34.0844 18.4712 34.0844 23.6115L34.0819 34.0823ZM8.89937 12.3859C6.99984 12.3862 5.45969 10.8465 5.45937 8.94701C5.45906 7.04748 6.99859 5.50732 8.89812 5.50701C10.7977 5.50654 12.3378 7.04623 12.3381 8.94576C12.3383 9.85795 11.9761 10.7329 11.3312 11.378C10.6863 12.0232 9.81157 12.3857 8.89937 12.3859ZM11.8628 34.0825H5.92984V14.9948H11.8627L11.8628 34.0825ZM37.0366 0.00278916H2.95172C1.34078 -0.0153358 0.0196875 1.27513 0 2.88607V37.1131C0.0190625 38.7248 1.34 40.0165 2.95156 39.9997H37.0366C38.6516 40.0197 39.9777 38.7279 40 37.1131V2.88341C39.977 1.26935 38.6508 -0.0209608 37.0366 0.000132913" fill="#0A66C2"/>
</g>
<defs>
<clipPath id="clip0_2001_58520">
<rect width="40" height="40" fill="white"/>
</clipPath>
</defs>
</svg>
