<svg width="187" height="59" viewBox="0 0 187 59" fill="none" xmlns="http://www.w3.org/2000/svg">
<path d="M113.345 15.2786L101.738 6.31348V29.6069H105.901V14.8517L113.345 20.5617L120.816 14.9051V29.6069H124.978V6.31348L113.345 15.2786Z" fill="#929497"/>
<path d="M139.974 15.2786L128.341 6.31348V29.6069H132.503V14.8517L139.974 20.5617L147.418 14.9051V29.6069H151.581V6.31348L139.974 15.2786Z" fill="#929497"/>
<path d="M98.4031 6.31348H94.2407V29.6069H98.4031V6.31348Z" fill="#929497"/>
<path d="M185.44 6.31348H181.277V29.6069H185.44V6.31348Z" fill="#929497"/>
<path d="M163.427 25.4445C165.775 22.376 175.941 9.11509 178.102 6.31348C174.66 6.31348 158.704 6.31348 154.916 6.31348V10.4759H169.671C167.323 13.5443 157.157 26.8053 154.996 29.6069C158.438 29.6069 174.42 29.6069 178.182 29.6069V25.4445H163.427Z" fill="#929497"/>
<path d="M90.9053 29.6064V16.7991C88.2371 16.7991 81.9668 16.7991 79.2452 16.7991V20.9615C79.6188 20.9615 86.6095 20.9615 86.7429 20.9615V25.4707H79.2452C69.3195 25.0705 69.3462 10.9024 79.2452 10.5021C81.8868 10.5021 88.157 10.5021 90.7185 10.5021V6.31305C88.2638 6.31305 81.78 6.31305 79.2452 6.31305C72.975 6.20632 67.5052 11.7028 67.6119 17.9464C67.5052 24.19 72.975 29.6865 79.2452 29.5798L90.9053 29.6064Z" fill="#929497"/>
<path d="M70.3336 34.9165C69.8266 34.9165 69.3463 35.1833 69.3463 35.6636C69.3463 36.2506 70.0667 36.4107 70.6537 36.6241C71.721 36.9977 73.0018 37.4779 73.0018 39.0789C73.0018 40.7332 71.4542 41.4269 70.1468 41.4269C68.9728 41.4269 68.0656 40.9733 67.2651 40.1728L68.279 39.1589C68.8927 39.7459 69.373 40.1195 70.1468 40.1195C70.7605 40.1195 71.3475 39.826 71.3475 39.1589C71.3475 38.5185 70.6537 38.2517 69.88 37.9849C68.8927 37.6114 67.7988 37.1844 67.7988 35.7436C67.7988 34.3028 69.0261 33.6357 70.2802 33.6357C71.2408 33.6357 72.0145 33.9559 72.7883 34.5429L71.9078 35.6369C71.4809 35.2367 70.9206 34.9165 70.3336 34.9165Z" fill="#929497"/>
<path d="M81.4601 41.2932H80.3662L78.1516 35.7433V41.2932H76.604V33.7422H78.872L80.8998 38.9985L83.0077 33.7422H85.249V41.2932H83.7014V35.77L81.4601 41.2932Z" fill="#929497"/>
<path d="M94.0538 41.2932L93.5736 39.879H90.8787L90.3717 41.2932H88.6641L91.7592 33.7422H93.0132L95.8415 41.2932H94.0538ZM91.3323 38.625H93.1466L92.2661 36.0902L91.3323 38.625Z" fill="#929497"/>
<path d="M101.659 33.7422C102.886 33.7422 104.434 34.3559 104.434 36.0102C104.434 37.1842 103.633 37.8245 102.779 38.118C103.446 39.0519 104.567 40.5995 105.101 41.2932H103.153L101.072 38.2781H100.805V41.2932H99.2573V33.7422H101.659ZM100.805 36.9707H101.419C102.192 36.9707 102.779 36.6772 102.779 36.0368C102.779 35.4498 102.326 35.0496 101.632 35.0496H100.832V36.9707H100.805Z" fill="#929497"/>
<path d="M111.051 35.0496V41.2932H109.503V35.0496H107.715V33.7422H112.865V35.0496H111.051Z" fill="#929497"/>
<path d="M123.645 33.7422C124.872 33.7422 126.419 34.3559 126.419 36.0102C126.419 37.1842 125.619 37.8245 124.765 38.118C125.432 39.0519 126.553 40.5995 127.087 41.2932H125.139L123.058 38.2781H122.791V41.2932H121.243V33.7422H123.645ZM122.791 36.9707H123.404C124.178 36.9707 124.765 36.6772 124.765 36.0368C124.765 35.4498 124.312 35.0496 123.618 35.0496H122.817V36.9707H122.791Z" fill="#929497"/>
<path d="M130.475 41.2932V33.7422H135.331V35.0496H132.022V36.7573H135.331V38.0647H132.022V39.9858H135.331V41.2932H130.475Z" fill="#929497"/>
<path d="M145.684 38.5716L146.991 33.7422H148.726L146.564 41.2932H145.043L143.683 36.3303H143.656L142.242 41.2932H140.774L138.667 33.7422H140.401L141.655 38.5716H141.682L143.042 33.7422H144.483L145.684 38.5716Z" fill="#929497"/>
<path d="M156.196 41.2932L155.716 39.879H153.021L152.514 41.2932H150.806L153.901 33.7422H155.155L157.984 41.2932H156.196ZM153.474 38.625H155.289L154.408 36.0902L153.474 38.625Z" fill="#929497"/>
<path d="M163.774 33.7422C165.002 33.7422 166.549 34.3559 166.549 36.0102C166.549 37.1842 165.749 37.8245 164.895 38.118C165.562 39.0519 166.683 40.5995 167.216 41.2932H165.269L163.187 38.2781H162.921V41.2932H161.373V33.7422H163.774ZM162.921 36.9707H163.534C164.308 36.9707 164.895 36.6772 164.895 36.0368C164.895 35.4498 164.441 35.0496 163.748 35.0496H162.947V36.9707H162.921Z" fill="#929497"/>
<path d="M170.604 33.7422H172.819C174.767 33.7422 176.955 34.7561 176.955 37.4777C176.955 40.2793 174.794 41.2932 172.712 41.2932H170.604V33.7422ZM172.152 39.9858H172.312C174.073 39.9858 175.301 39.3721 175.301 37.5844C175.301 35.9301 174.313 35.0496 172.632 35.0496H172.152V39.9858Z" fill="#929497"/>
<path d="M182.932 34.9165C182.425 34.9165 181.944 35.1833 181.944 35.6636C181.944 36.2506 182.665 36.4107 183.252 36.6241C184.319 36.9977 185.6 37.4779 185.6 39.0789C185.6 40.7332 184.052 41.4269 182.745 41.4269C181.571 41.4269 180.664 40.9733 179.863 40.1728L180.877 39.1589C181.491 39.7459 181.971 40.1195 182.745 40.1195C183.359 40.1195 183.946 39.826 183.946 39.1589C183.946 38.5185 183.252 38.2517 182.478 37.9849C181.491 37.6114 180.397 37.1844 180.397 35.7436C180.397 34.3028 181.624 33.6357 182.878 33.6357C183.839 33.6357 184.613 33.9559 185.386 34.5429L184.506 35.6369C184.079 35.2367 183.519 34.9165 182.932 34.9165Z" fill="#929497"/>
<path d="M29.0567 0L26.6019 2.45474C19.3711 11.0997 19.3711 19.3711 19.3711 19.3711H48.4278L29.0567 0Z" fill="url(#paint0_linear_684_17516)"/>
<path d="M9.71225 19.3444H9.6322L0 28.9766L0.426912 29.4035C3.78884 32.3386 11.9002 38.6622 19.3711 38.6622V19.3711V9.68555L9.71225 19.3444Z" fill="url(#paint1_linear_684_17516)"/>
<path d="M56.7793 28.8164H29.3769L38.7156 38.1551L39.2492 38.6621H38.3954H19.3711H9.68555L19.3711 48.3476L29.0567 58.0332L43.4116 43.6783L43.8385 43.278L56.7793 56.2188V28.8164Z" fill="url(#paint2_linear_684_17516)"/>
<path d="M71.56 50.69H73L72.99 49.6H71.69L71.89 48H70.77L70.57 49.6H69.1L69.3 48H68.18L67.98 49.6H66.54V50.69H67.85L67.64 52.31H66.2V53.4H67.51L67.31 55H68.43L68.63 53.4H70.1L69.9 55H71.03L71.23 53.4H72.66V52.31H71.36L71.56 50.69ZM68.76 52.31L68.97 50.69H70.44L70.23 52.31H68.76ZM78.3373 53.7V52.08H81.5873V50.82H78.3373V49.3H82.0173V48H76.7273V55H82.1473V53.7H78.3373ZM92.3479 55L89.7379 51.38L92.1779 48H90.4279L88.8479 50.27L87.2379 48H85.3979L87.8579 51.44L85.2679 55H87.1279L88.7879 52.57L90.4779 55H92.3479ZM98.712 48H95.682V55H97.302V53.07H98.712C100.582 53.07 101.752 52.1 101.752 50.54C101.752 48.97 100.582 48 98.712 48ZM98.622 51.75H97.302V49.32H98.622C99.612 49.32 100.112 49.77 100.112 50.54C100.112 51.3 99.612 51.75 98.622 51.75ZM105.609 55H110.739V53.68H107.229V48H105.609V55ZM117.616 55.12C119.816 55.12 121.446 53.59 121.446 51.5C121.446 49.41 119.816 47.88 117.616 47.88C115.406 47.88 113.786 49.42 113.786 51.5C113.786 53.58 115.406 55.12 117.616 55.12ZM117.616 53.74C116.366 53.74 115.426 52.83 115.426 51.5C115.426 50.17 116.366 49.26 117.616 49.26C118.866 49.26 119.806 50.17 119.806 51.5C119.806 52.83 118.866 53.74 117.616 53.74ZM131.564 55L129.994 52.75C130.904 52.36 131.434 51.59 131.434 50.54C131.434 48.97 130.264 48 128.394 48H125.364V55H126.984V53.05H128.394H128.474L129.824 55H131.564ZM129.794 50.54C129.794 51.3 129.294 51.76 128.304 51.76H126.984V49.32H128.304C129.294 49.32 129.794 49.77 129.794 50.54ZM137.028 53.7V52.08H140.278V50.82H137.028V49.3H140.708V48H135.418V55H140.838V53.7H137.028ZM153.389 48H150.359V55H151.979V53.07H153.389C155.259 53.07 156.429 52.1 156.429 50.54C156.429 48.97 155.259 48 153.389 48ZM153.299 51.75H151.979V49.32H153.299C154.289 49.32 154.789 49.77 154.789 50.54C154.789 51.3 154.289 51.75 153.299 51.75ZM165.164 55H166.864L163.734 48H162.134L159.014 55H160.674L161.294 53.5H164.544L165.164 55ZM161.814 52.27L162.924 49.59L164.034 52.27H161.814ZM174.922 53.44C174.512 53.66 174.102 53.74 173.662 53.74C172.322 53.74 171.392 52.81 171.392 51.5C171.392 50.17 172.322 49.26 173.682 49.26C174.392 49.26 174.982 49.51 175.492 50.05L176.532 49.09C175.852 48.3 174.832 47.88 173.602 47.88C171.372 47.88 169.752 49.39 169.752 51.5C169.752 53.61 171.372 55.12 173.572 55.12C174.572 55.12 175.632 54.81 176.402 54.23V51.39H174.922V53.44ZM182.217 53.7V52.08H185.467V50.82H182.217V49.3H185.897V48H180.607V55H186.027V53.7H182.217Z" fill="#24A1DB"/>
<defs>
<linearGradient id="paint0_linear_684_17516" x1="19.3713" y1="9.68567" x2="48.4283" y2="9.68567" gradientUnits="userSpaceOnUse">
<stop stop-color="#1B75BB"/>
<stop offset="0.0650182" stop-color="#1E84C6"/>
<stop offset="0.1707" stop-color="#2295D1"/>
<stop offset="0.3024" stop-color="#24A0DA"/>
<stop offset="0.4871" stop-color="#26A7DF"/>
<stop offset="1" stop-color="#26A9E0"/>
</linearGradient>
<linearGradient id="paint1_linear_684_17516" x1="18.2717" y1="9.84953" x2="8.96125" y2="35.8548" gradientUnits="userSpaceOnUse">
<stop stop-color="#26A9E0"/>
<stop offset="0.5129" stop-color="#26A7DF"/>
<stop offset="0.6976" stop-color="#24A0DA"/>
<stop offset="0.8293" stop-color="#2295D1"/>
<stop offset="0.935" stop-color="#1E84C6"/>
<stop offset="1" stop-color="#1B75BB"/>
</linearGradient>
<linearGradient id="paint2_linear_684_17516" x1="57.8287" y1="30.9645" x2="18.3332" y2="57.4173" gradientUnits="userSpaceOnUse">
<stop stop-color="#9ACA3D"/>
<stop offset="0.1366" stop-color="#8CC651"/>
<stop offset="0.4155" stop-color="#68BC84"/>
<stop offset="0.8089" stop-color="#2EABD5"/>
<stop offset="0.861" stop-color="#26A9E0"/>
</linearGradient>
</defs>
</svg>
