<svg width="18" height="14" viewBox="0 0 18 14" fill="none" xmlns="http://www.w3.org/2000/svg">
<path d="M0 4.40432V11.0213C0 11.7287 0.31607 12.4071 0.87868 12.9073C1.44129 13.4074 2.20435 13.6884 3 13.6884H15C15.7956 13.6884 16.5587 13.4074 17.1213 12.9073C17.6839 12.4071 18 11.7287 18 11.0213V3.02011C18 2.31275 17.6839 1.63437 17.1213 1.1342C16.5587 0.634022 15.7956 0.353027 15 0.353027H3C2.20435 0.353027 1.44129 0.634022 0.87868 1.1342C0.31607 1.63437 0 2.31275 0 3.02011V4.40432ZM3 1.68657H15C15.3978 1.68657 15.7794 1.82706 16.0607 2.07715C16.342 2.32724 16.5 2.66643 16.5 3.02011V4.00693L9 7.59682L1.5 4.00693V3.02011C1.5 2.66643 1.65804 2.32724 1.93934 2.07715C2.22064 1.82706 2.60218 1.68657 3 1.68657V1.68657ZM1.5 5.52183L8.6445 8.94102C8.75376 8.99331 8.87591 9.02069 9 9.02069C9.12409 9.02069 9.24624 8.99331 9.3555 8.94102L16.5 5.52183V11.0213C16.5 11.375 16.342 11.7142 16.0607 11.9643C15.7794 12.2144 15.3978 12.3549 15 12.3549H3C2.60218 12.3549 2.22064 12.2144 1.93934 11.9643C1.65804 11.7142 1.5 11.375 1.5 11.0213V5.52183Z" fill="#1F88C8"/>
</svg>
