<svg width="512" height="512" viewBox="0 0 512 512" fill="none" xmlns="http://www.w3.org/2000/svg">
<g clip-path="url(#clip0_349_61)">
<path d="M214.538 190.6L113.269 132.136C112.053 131.434 110.673 131.065 109.269 131.065C107.865 131.065 106.485 131.434 105.269 132.136L4 190.6C2.78388 191.302 1.77399 192.312 1.07185 193.528C0.369704 194.744 3.71117e-05 196.124 1.43798e-06 197.528V314.467C-0.000840913 315.872 0.36841 317.253 1.0706 318.47C1.77279 319.687 2.78314 320.697 4 321.4L105.269 379.867C106.485 380.569 107.865 380.939 109.269 380.939C110.673 380.939 112.053 380.569 113.269 379.867L214.538 321.4C215.754 320.698 216.764 319.688 217.466 318.471C218.169 317.255 218.538 315.875 218.538 314.471V197.532C218.539 196.127 218.169 194.747 217.467 193.53C216.765 192.313 215.755 191.302 214.538 190.6ZM109.269 148.3L194.538 197.53L109.269 246.76L24 197.532L109.269 148.3ZM16 211.388L101.269 260.618V359.079L16 309.849V211.388ZM117.269 359.079V260.618L202.538 211.388V309.849L117.269 359.079ZM360.261 115.079V8C360.261 5.87827 361.104 3.84344 362.604 2.34315C364.104 0.842855 366.139 0 368.261 0L484.08 0C486.202 0 488.237 0.842855 489.737 2.34315C491.237 3.84344 492.08 5.87827 492.08 8C492.08 10.1217 491.237 12.1566 489.737 13.6569C488.237 15.1571 486.202 16 484.08 16H376.261V107.078H476.08V70.349L454.246 90.164C452.724 91.545 450.73 92.2875 448.675 92.2376C446.621 92.1877 444.665 91.3492 443.212 89.896L420.512 67.196C419.027 65.6927 418.197 63.6627 418.203 61.5494C418.209 59.4361 419.051 57.4111 420.546 55.9167C422.04 54.4223 424.065 53.5799 426.178 53.5734C428.292 53.5669 430.322 54.3968 431.825 55.882L449.135 73.192L498.622 28.281C500.193 26.8552 502.267 26.112 504.386 26.2148C506.505 26.3177 508.497 27.2582 509.922 28.8295C511.348 30.4008 512.092 32.4741 511.989 34.5933C511.886 36.7126 510.945 38.7042 509.374 40.13L492.074 55.83V115.079C492.074 117.201 491.231 119.236 489.731 120.736C488.231 122.236 486.196 123.079 484.074 123.079H368.261C367.21 123.079 366.17 122.872 365.199 122.47C364.229 122.068 363.347 121.478 362.604 120.736C361.861 119.993 361.272 119.11 360.87 118.14C360.468 117.169 360.261 116.13 360.261 115.079ZM509.924 223.292C511.35 224.863 512.093 226.936 511.99 229.055C511.887 231.175 510.947 233.166 509.376 234.592L492.076 250.292C492.076 250.338 492.083 250.383 492.083 250.43V309.53C492.083 311.652 491.24 313.687 489.74 315.187C488.24 316.687 486.205 317.53 484.083 317.53H368.261C366.139 317.53 364.104 316.687 362.604 315.187C361.104 313.687 360.261 311.652 360.261 309.53V202.461C360.261 200.339 361.104 198.304 362.604 196.804C364.104 195.304 366.139 194.461 368.261 194.461H484.08C486.202 194.461 488.237 195.304 489.737 196.804C491.237 198.304 492.08 200.339 492.08 202.461C492.08 204.583 491.237 206.618 489.737 208.118C488.237 209.618 486.202 210.461 484.08 210.461H376.261V301.539H476.08V264.81L454.246 284.625C452.724 286.006 450.73 286.748 448.675 286.699C446.621 286.649 444.665 285.81 443.212 284.357L420.512 261.657C419.027 260.154 418.197 258.124 418.203 256.01C418.209 253.897 419.051 251.872 420.546 250.378C422.04 248.883 424.065 248.041 426.178 248.034C428.292 248.028 430.322 248.858 431.825 250.343L449.135 267.653L498.622 222.742C499.4 222.036 500.31 221.49 501.299 221.135C502.288 220.781 503.337 220.625 504.387 220.676C505.436 220.727 506.466 220.984 507.416 221.433C508.366 221.882 509.218 222.514 509.924 223.292ZM509.924 417.752C511.35 419.323 512.093 421.396 511.99 423.516C511.887 425.635 510.947 427.626 509.376 429.052L492.076 444.752V504C492.076 506.122 491.233 508.157 489.733 509.657C488.233 511.157 486.198 512 484.076 512H368.261C366.139 512 364.104 511.157 362.604 509.657C361.104 508.157 360.261 506.122 360.261 504V396.921C360.261 394.799 361.104 392.764 362.604 391.264C364.104 389.764 366.139 388.921 368.261 388.921H484.08C486.202 388.921 488.237 389.764 489.737 391.264C491.237 392.764 492.08 394.799 492.08 396.921C492.08 399.043 491.237 401.078 489.737 402.578C488.237 404.078 486.202 404.921 484.08 404.921H376.261V496H476.08V459.271L454.246 479.085C452.724 480.466 450.73 481.209 448.676 481.159C446.621 481.109 444.665 480.271 443.212 478.818L420.512 456.118C419.755 455.378 419.153 454.496 418.74 453.522C418.327 452.547 418.111 451.501 418.105 450.443C418.099 449.385 418.303 448.336 418.706 447.357C419.108 446.379 419.7 445.49 420.448 444.741C421.197 443.993 422.086 443.401 423.064 442.999C424.043 442.596 425.092 442.392 426.15 442.398C427.208 442.404 428.254 442.62 429.229 443.033C430.203 443.446 431.085 444.048 431.825 444.805L449.135 462.114L498.622 417.204C499.4 416.498 500.31 415.952 501.299 415.597C502.288 415.242 503.337 415.086 504.387 415.137C505.436 415.188 506.465 415.445 507.415 415.894C508.366 416.342 509.218 416.974 509.924 417.752ZM294.3 264V442.458H327.4C329.522 442.458 331.557 443.301 333.057 444.801C334.557 446.301 335.4 448.336 335.4 450.458C335.4 452.58 334.557 454.615 333.057 456.115C331.557 457.615 329.522 458.458 327.4 458.458H286.3C284.178 458.458 282.143 457.615 280.643 456.115C279.143 454.615 278.3 452.58 278.3 450.458V264H258.856C256.734 264 254.699 263.157 253.199 261.657C251.699 260.157 250.856 258.122 250.856 256C250.856 253.878 251.699 251.843 253.199 250.343C254.699 248.843 256.734 248 258.856 248H278.3V61.542C278.3 59.4203 279.143 57.3854 280.643 55.8851C282.143 54.3849 284.178 53.542 286.3 53.542H327.4C329.522 53.542 331.557 54.3849 333.057 55.8851C334.557 57.3854 335.4 59.4203 335.4 61.542C335.4 63.6637 334.557 65.6986 333.057 67.1989C331.557 68.6991 329.522 69.542 327.4 69.542H294.3V248H327.4C329.522 248 331.557 248.843 333.057 250.343C334.557 251.843 335.4 253.878 335.4 256C335.4 258.122 334.557 260.157 333.057 261.657C331.557 263.157 329.522 264 327.4 264H294.3Z" fill="#3199D0"/>
</g>
<defs>
<clipPath id="clip0_349_61">
<rect width="512" height="512" fill="white"/>
</clipPath>
</defs>
</svg>
