<svg width="24" height="24" viewBox="0 0 24 24" fill="none" xmlns="http://www.w3.org/2000/svg">
<path d="M21.447 6.10523L15.447 3.10523C15.3081 3.03571 15.1549 2.99951 14.9995 2.99951C14.8441 2.99951 14.6909 3.03571 14.552 3.10523L9 5.88223L3.447 3.10523C3.2945 3.02902 3.12506 2.99307 2.95476 3.00079C2.78446 3.0085 2.61895 3.05962 2.47397 3.1493C2.32899 3.23897 2.20933 3.36422 2.12638 3.51315C2.04342 3.66209 1.99992 3.82975 2 4.00023V17.0002C2 17.3792 2.214 17.7252 2.553 17.8952L8.553 20.8952C8.69193 20.9647 8.84515 21.0009 9.0005 21.0009C9.15585 21.0009 9.30907 20.9647 9.448 20.8952L15 18.1182L20.553 20.8942C20.7051 20.9712 20.8744 21.0076 21.0446 21.0001C21.2149 20.9925 21.3803 20.9413 21.525 20.8512C21.82 20.6682 22 20.3472 22 20.0002V7.00023C22 6.62123 21.786 6.27523 21.447 6.10523ZM10 7.61823L14 5.61823V16.3822L10 18.3822V7.61823ZM4 5.61823L8 7.61823V18.3822L4 16.3822V5.61823ZM20 18.3822L16 16.3822V5.61823L20 7.61823V18.3822Z" fill="white"/>
</svg>
