<svg width="20" height="20" viewBox="0 0 20 20" fill="none" xmlns="http://www.w3.org/2000/svg">
<path d="M18.3327 8.33341V7.68132C18.3327 6.06497 18.3327 5.25681 17.8445 4.75466C17.3563 4.25253 16.5707 4.25253 14.9993 4.25253H13.2672C12.5027 4.25253 12.4963 4.25105 11.8089 3.90703L9.0326 2.5177C7.87338 1.93761 7.29378 1.64757 6.67633 1.66773C6.05887 1.68789 5.49832 2.01515 4.37722 2.66967L3.354 3.26706C2.53051 3.74782 2.11876 3.98821 1.89238 4.38811C1.66602 4.78802 1.66602 5.27502 1.66602 6.24902V13.0965C1.66602 14.3762 1.66602 15.0162 1.95123 15.3723C2.14102 15.6092 2.40698 15.7686 2.70102 15.8214C3.1429 15.9007 3.68392 15.5849 4.76591 14.9532C5.50065 14.5242 6.20777 14.0787 7.08674 14.1996C7.82326 14.3007 8.50768 14.7655 9.16602 15.0949" stroke="#26A1D6" stroke-width="1.5" stroke-linecap="round" stroke-linejoin="round"/>
<path d="M6.66602 1.66675V14.1667" stroke="#26A1D6" stroke-width="1.5" stroke-linejoin="round"/>
<path d="M12.5 4.16675V7.91675" stroke="#26A1D6" stroke-width="1.5" stroke-linecap="round" stroke-linejoin="round"/>
<path d="M15.2576 18.0696C15.0769 18.2388 14.8354 18.3333 14.5841 18.3333C14.3327 18.3333 14.0912 18.2388 13.9106 18.0696C12.2559 16.5108 10.0386 14.7696 11.1199 12.2415C11.7046 10.8747 13.1081 10 14.5841 10C16.0601 10 17.4636 10.8747 18.0482 12.2415C19.1282 14.7663 16.9163 16.5162 15.2576 18.0696Z" stroke="#26A1D6" stroke-width="1.5"/>
<path d="M14.584 13.75H14.5915" stroke="#26A1D6" stroke-width="2" stroke-linecap="round" stroke-linejoin="round"/>
</svg>
