<svg width="33" height="31" viewBox="0 0 33 31" fill="none" xmlns="http://www.w3.org/2000/svg">
<path d="M30.1123 13.6277H26.6378C26.3306 13.6277 26.036 13.7497 25.8188 13.9669C25.6016 14.1841 25.4796 14.4787 25.4796 14.7858C25.4796 15.093 25.6016 15.3876 25.8188 15.6048C26.036 15.822 26.3306 15.944 26.6378 15.944H30.1123V28.6838H2.31633V15.944H5.79082C6.09798 15.944 6.39257 15.822 6.60977 15.6048C6.82696 15.3876 6.94899 15.093 6.94899 14.7858C6.94899 14.4787 6.82696 14.1841 6.60977 13.9669C6.39257 13.7497 6.09798 13.6277 5.79082 13.6277H2.31633C1.70222 13.6284 1.11346 13.8727 0.679215 14.3069C0.244972 14.7411 0.000705013 15.3299 0 15.944V28.6838C0.000705013 29.2979 0.244972 29.8867 0.679215 30.3209C1.11346 30.7552 1.70222 30.9994 2.31633 31.0001H30.1123C30.7264 30.9994 31.3151 30.7552 31.7494 30.3209C32.1836 29.8867 32.4279 29.2979 32.4286 28.6838V15.944C32.4279 15.3299 32.1836 14.7411 31.7494 14.3069C31.3151 13.8727 30.7264 13.6284 30.1123 13.6277Z" fill="white"/>
<path d="M9.93517 7.70496L14.8519 3.41152V22.9999C14.8519 23.2651 14.9725 23.5195 15.1873 23.7071C15.4021 23.8946 15.6934 24 15.9971 24C16.3009 24 16.5922 23.8946 16.807 23.7071C17.0217 23.5195 17.1424 23.2651 17.1424 22.9999V3.41152L22.0591 7.70496C22.2751 7.88714 22.5644 7.98795 22.8647 7.98567C23.165 7.98339 23.4522 7.87821 23.6646 7.69278C23.8769 7.50735 23.9973 7.2565 24 6.99427C24.0026 6.73204 23.8871 6.47941 23.6785 6.29078C23.4363 6.07916 17.0222 0.472355 16.7725 0.27003C16.557 0.0931635 16.2712 -0.00362842 15.9755 0.000104072C15.6799 0.00383657 15.3974 0.107801 15.1879 0.290032L8.31621 6.29078C8.10996 6.47977 7.99651 6.73168 8.00008 6.99272C8.00365 7.25377 8.12397 7.50324 8.33533 7.68787C8.54669 7.87249 8.83234 7.97763 9.13127 7.98082C9.43019 7.98402 9.7187 7.88501 9.93517 7.70496Z" fill="white"/>
</svg>
