<svg width="28" height="28" viewBox="0 0 28 28" fill="none" xmlns="http://www.w3.org/2000/svg">
<path d="M21.5423 28.0009C20.9475 28.0009 20.4648 27.5182 20.4648 26.9235C20.4648 26.3287 20.9475 25.846 21.5423 25.846H21.5434C21.5434 25.2513 22.025 24.7686 22.6203 24.7686C23.2156 24.7686 23.6972 25.2513 23.6972 25.846C23.6972 27.0345 22.7307 28.0009 21.5423 28.0009Z" fill="#F8F8F8"/>
<path d="M22.6281 26.9232C22.0334 26.9232 21.5508 26.4406 21.5508 25.8459V15.2804C21.5508 14.6857 22.0334 14.2031 22.6281 14.2031C23.2227 14.2031 23.7054 14.6857 23.7054 15.2804V25.8459C23.7054 26.4406 23.2227 26.9232 22.6281 26.9232Z" fill="#F8F8F8"/>
<path d="M21.5505 27.9993H2.15932C1.56466 27.9993 1.08203 27.5167 1.08203 26.922C1.08203 26.3274 1.56466 25.8447 2.15932 25.8447H21.5505C22.1451 25.8447 22.6277 26.3274 22.6277 26.922C22.6277 27.5167 22.1451 27.9993 21.5505 27.9993Z" fill="#F8F8F8"/>
<path d="M2.15493 28.0008C0.966485 28.0008 0 27.0343 0 25.8459C0 25.2511 0.482704 24.7684 1.07746 24.7684C1.67222 24.7684 2.15493 25.2511 2.15493 25.8459V25.8475C2.74969 25.8475 3.23239 26.3291 3.23239 26.9239C3.23239 27.5187 2.74969 28.0008 2.15493 28.0008Z" fill="#F8F8F8"/>
<path d="M1.07729 26.9218C0.482624 26.9218 0 26.4391 0 25.8445V6.45332C0 5.85866 0.482624 5.37604 1.07729 5.37604C1.67195 5.37604 2.15457 5.85866 2.15457 6.45332V25.8445C2.15457 26.4391 1.67195 26.9218 1.07729 26.9218Z" fill="#F8F8F8"/>
<path d="M1.07692 7.53113C0.481626 7.53113 0 7.04842 0 6.45366C0 5.26522 0.966485 4.29874 2.15493 4.29874C2.74969 4.29874 3.23239 4.78144 3.23239 5.3762C3.23239 5.97096 2.74969 6.45366 2.15493 6.45366H2.15385C2.15385 7.04842 1.67222 7.53113 1.07692 7.53113Z" fill="#F8F8F8"/>
<path d="M12.7248 6.4534H2.15932C1.56466 6.4534 1.08203 5.97078 1.08203 5.37611C1.08203 4.78145 1.56466 4.29883 2.15932 4.29883H12.7248C13.3195 4.29883 13.8021 4.78145 13.8021 5.37611C13.8021 5.97078 13.32 6.4534 12.7248 6.4534Z" fill="#F8F8F8"/>
<path d="M11.8154 13.457C11.5396 13.457 11.2639 13.352 11.0538 13.1414C10.6331 12.7207 10.6331 12.0387 11.0538 11.6181L21.5751 1.09676C21.9952 0.67608 22.6782 0.67608 23.0984 1.09676C23.5191 1.51744 23.5191 2.19936 23.0984 2.62004L12.5771 13.1414C12.367 13.352 12.0907 13.457 11.8154 13.457Z" fill="#F8F8F8"/>
<path d="M10.7737 18.3029C10.6988 18.3029 10.6229 18.2954 10.5469 18.2787C9.96517 18.1543 9.59459 17.5811 9.71955 17L10.7597 12.1511C10.8841 11.5688 11.4583 11.1966 12.0389 11.3237C12.6207 11.4482 12.9913 12.0213 12.8663 12.6025L11.8262 17.4513C11.7174 17.9571 11.2708 18.3029 10.7737 18.3029Z" fill="#F8F8F8"/>
<path d="M15.624 17.2627C15.3482 17.2627 15.0725 17.1576 14.8624 16.947C14.4417 16.5263 14.4417 15.8444 14.8624 15.4237L25.3837 4.90242C25.8038 4.48174 26.4868 4.48174 26.907 4.90242C27.3277 5.3231 27.3277 6.00503 26.907 6.42571L16.3857 16.947C16.1756 17.1576 15.8998 17.2627 15.624 17.2627Z" fill="#F8F8F8"/>
<path d="M10.7719 18.3032C10.2747 18.3032 9.8282 17.9574 9.71939 17.4521C9.59496 16.8704 9.96501 16.2973 10.5467 16.1728L15.3956 15.1322C15.9757 15.0088 16.5499 15.3773 16.6749 15.959C16.7993 16.5407 16.4293 17.1139 15.8475 17.2383L10.9987 18.2789C10.9227 18.2951 10.8468 18.3032 10.7719 18.3032Z" fill="#F8F8F8"/>
<path d="M24.2422 8.64776C23.9663 8.64776 23.6905 8.54271 23.4804 8.33206L19.671 4.52269C19.2503 4.10194 19.2503 3.41991 19.671 2.99916C20.0912 2.57841 20.7744 2.57841 21.1946 2.99916L25.0039 6.80853C25.4247 7.22928 25.4247 7.91131 25.0039 8.33206C24.7938 8.54271 24.518 8.64776 24.2422 8.64776Z" fill="#F8F8F8"/>
<path d="M26.1448 6.74165C25.869 6.74165 25.5932 6.63662 25.3826 6.42601C24.9619 6.00533 24.9619 5.32287 25.3826 4.90219C25.681 4.60432 25.8453 4.19818 25.8453 3.76027C25.8453 3.32235 25.681 2.91621 25.3826 2.61834C24.7847 2.01991 23.694 2.02045 23.0971 2.6178C22.6765 3.03848 21.9945 3.03848 21.5733 2.61834C21.1526 2.19766 21.1526 1.5152 21.5733 1.09452C22.2789 0.388361 23.2259 0 24.2396 0C25.2533 0 26.2008 0.3889 26.9059 1.09452C27.611 1.79961 27.9993 2.746 27.9993 3.76027C27.9993 4.77453 27.611 5.72147 26.9053 6.42655C26.6964 6.63662 26.4206 6.74165 26.1448 6.74165Z" fill="#F8F8F8"/>
</svg>
