<svg width="20" height="19" viewBox="0 0 20 19" fill="none" xmlns="http://www.w3.org/2000/svg">
<path d="M18.6667 18.6667H1.33333C0.979835 18.6663 0.640932 18.5257 0.390971 18.2757C0.14101 18.0257 0.000404062 17.6868 0 17.3333V1.33333C0.000404062 0.979835 0.14101 0.640931 0.390971 0.390971C0.640932 0.14101 0.979835 0.000404062 1.33333 0H18.6667C19.0202 0.000404062 19.3591 0.14101 19.609 0.390971C19.859 0.640931 19.9996 0.979835 20 1.33333V17.3333C19.9996 17.6868 19.859 18.0257 19.609 18.2757C19.3591 18.5257 19.0202 18.6663 18.6667 18.6667ZM1.33333 1.33333V17.3333H18.6667V1.33333H1.33333Z" fill="#232323"/>
<path d="M13.6719 10.0003H6.33854C6.16173 10.0003 5.99216 9.93009 5.86714 9.80506C5.74211 9.68004 5.67188 9.51047 5.67188 9.33366C5.67188 9.15685 5.74211 8.98728 5.86714 8.86225C5.99216 8.73723 6.16173 8.66699 6.33854 8.66699H13.6719C13.8487 8.66699 14.0183 8.73723 14.1433 8.86225C14.2683 8.98728 14.3385 9.15685 14.3385 9.33366C14.3385 9.51047 14.2683 9.68004 14.1433 9.80506C14.0183 9.93009 13.8487 10.0003 13.6719 10.0003Z" fill="#7FBDE7"/>
</svg>
