<svg width="300" height="300" viewBox="0 0 300 300" fill="none" xmlns="http://www.w3.org/2000/svg">
<path d="M150 299.333C145.763 299.358 141.614 298.12 138.083 295.778C134.552 293.435 131.798 290.095 130.173 286.181C128.548 282.268 128.126 277.959 128.959 273.804C129.793 269.65 131.845 265.837 134.853 262.853L247.92 150L134.853 37.1468C131.358 33.0657 129.532 27.816 129.739 22.447C129.947 17.0779 132.173 11.9848 135.972 8.1854C139.771 4.38605 144.864 2.16031 150.233 1.95292C155.602 1.74554 160.852 3.5718 164.933 7.06676L292.933 135.067C296.907 139.064 299.137 144.471 299.137 150.107C299.137 155.743 296.907 161.15 292.933 165.147L164.933 293.147C160.96 297.088 155.596 299.31 150 299.333Z" fill="#4AA7DF"/>
<path d="M21.9999 299.334C17.7626 299.358 13.6139 298.12 10.0828 295.778C6.55171 293.436 3.7982 290.095 2.1733 286.181C0.548414 282.268 0.125768 277.959 0.959254 273.804C1.79274 269.65 3.84459 265.837 6.85322 262.854L119.92 150L6.85322 37.1469C2.83607 33.1297 0.57926 27.6813 0.57926 22.0002C0.57926 16.3191 2.83607 10.8707 6.85322 6.85355C10.8704 2.8364 16.3188 0.57959 21.9999 0.57959C27.681 0.57959 33.1294 2.8364 37.1466 6.85355L165.147 134.854C169.12 138.851 171.35 144.258 171.35 149.894C171.35 155.53 169.12 160.936 165.147 164.934L37.1466 292.934C35.1708 294.949 32.8146 296.553 30.2146 297.651C27.6146 298.75 24.8224 299.322 21.9999 299.334Z" fill="#4AA7DF"/>
</svg>
