<svg width="472" height="472" viewBox="0 0 472 472" fill="none" xmlns="http://www.w3.org/2000/svg">
<path d="M236 0C189.324 0 143.696 13.8412 104.886 39.7732C66.0755 65.7052 35.8268 102.563 17.9645 145.687C0.102257 188.81 -4.57133 236.262 4.53478 282.041C13.6409 327.821 36.1177 369.872 69.1229 402.877C102.128 435.882 144.179 458.359 189.959 467.465C235.738 476.571 283.19 471.898 326.313 454.036C369.437 436.173 406.295 405.925 432.227 367.115C458.159 328.305 472 282.676 472 236C471.937 173.428 447.052 113.438 402.807 69.193C358.562 24.9482 298.572 0.0635353 236 0ZM236 448C194.07 448 153.082 435.566 118.219 412.272C83.356 388.977 56.1834 355.867 40.1376 317.129C24.0919 278.391 19.8936 235.765 28.0736 194.641C36.2537 153.517 56.4447 115.742 86.0935 86.0934C115.742 56.4446 153.517 36.2536 194.641 28.0735C235.765 19.8935 278.391 24.0918 317.129 40.1375C355.867 56.1833 388.977 83.3559 412.272 118.219C435.566 153.082 448 194.07 448 236C447.937 292.206 425.581 346.093 385.837 385.836C346.093 425.58 292.207 447.936 236 448Z" fill="#7ACF3C"/>
<path d="M355.36 225.6L190.24 130.24C188.406 129.217 186.34 128.68 184.24 128.68C182.14 128.68 180.075 129.217 178.24 130.24C176.426 131.306 174.919 132.825 173.867 134.648C172.815 136.471 172.255 138.535 172.24 140.64V331.36C172.239 333.467 172.792 335.537 173.845 337.363C174.898 339.188 176.412 340.704 178.237 341.758C180.061 342.812 182.131 343.367 184.238 343.368C186.345 343.368 188.415 342.814 190.24 341.76L355.36 246.4C357.188 245.348 358.706 243.832 359.762 242.007C360.818 240.181 361.374 238.109 361.374 236C361.374 233.891 360.818 231.819 359.762 229.993C358.706 228.167 357.188 226.652 355.36 225.6Z" fill="#7ACF3C"/>
</svg>
