<svg width="20" height="19" viewBox="0 0 20 19" fill="none" xmlns="http://www.w3.org/2000/svg">
<path d="M18.6667 18.6667H1.33333C0.979835 18.6663 0.640932 18.5257 0.390971 18.2757C0.14101 18.0257 0.000404062 17.6868 0 17.3333V1.33333C0.000404062 0.979835 0.14101 0.640931 0.390971 0.390971C0.640932 0.14101 0.979835 0.000404062 1.33333 0H18.6667C19.0202 0.000404062 19.3591 0.14101 19.609 0.390971C19.859 0.640931 19.9996 0.979835 20 1.33333V17.3333C19.9996 17.6868 19.859 18.0257 19.609 18.2757C19.3591 18.5257 19.0202 18.6663 18.6667 18.6667ZM1.33333 1.33333V17.3333H18.6667V1.33333H1.33333Z" fill="#232323"/>
<path d="M10.0063 13.6667C9.91871 13.6667 9.83201 13.6495 9.75112 13.616C9.67022 13.5825 9.59672 13.5334 9.53481 13.4715C9.4729 13.4095 9.4238 13.336 9.3903 13.2551C9.35681 13.1743 9.33958 13.0876 9.3396 13V5.66667C9.3396 5.48986 9.40984 5.32029 9.53486 5.19526C9.65989 5.07024 9.82946 5 10.0063 5C10.1831 5 10.3526 5.07024 10.4777 5.19526C10.6027 5.32029 10.6729 5.48986 10.6729 5.66667V13C10.673 13.0876 10.6557 13.1743 10.6222 13.2551C10.5887 13.336 10.5396 13.4095 10.4777 13.4715C10.4158 13.5334 10.3423 13.5825 10.2614 13.616C10.1805 13.6495 10.0938 13.6667 10.0063 13.6667Z" fill="#7FBDE7"/>
<path d="M13.6719 10.0003H6.33854C6.16173 10.0003 5.99216 9.93009 5.86714 9.80506C5.74211 9.68004 5.67188 9.51047 5.67188 9.33366C5.67188 9.15685 5.74211 8.98728 5.86714 8.86225C5.99216 8.73723 6.16173 8.66699 6.33854 8.66699H13.6719C13.8487 8.66699 14.0183 8.73723 14.1433 8.86225C14.2683 8.98728 14.3385 9.15685 14.3385 9.33366C14.3385 9.51047 14.2683 9.68004 14.1433 9.80506C14.0183 9.93009 13.8487 10.0003 13.6719 10.0003Z" fill="#7FBDE7"/>
</svg>
