<svg width="48" height="48" viewBox="0 0 48 48" fill="none" xmlns="http://www.w3.org/2000/svg">
<g clip-path="url(#clip0_2016_72243)">
<path d="M13.946 27.4098C15.2949 27.4098 16.5988 27.3227 17.8326 27.1605V13.6367C16.5989 13.4747 15.2949 13.3875 13.946 13.3875C6.24393 13.3875 0.000119522 16.2194 0.000119522 19.7127V21.0845C0.000119522 24.5777 6.24393 27.4098 13.946 27.4098ZM13.946 34.4714C15.2949 34.4714 16.5988 34.3842 17.8326 34.2223V30.2582C16.5986 30.4203 15.2953 30.5086 13.946 30.5086C7.22293 30.5086 1.61151 28.3508 0.293426 25.4789C0.101474 25.8973 0.000119522 26.3304 0.000119522 26.7744V28.1462C0.000119522 31.6396 6.24393 34.4714 13.946 34.4714ZM17.8325 37.6282V37.3201C16.5984 37.4821 15.2952 37.5705 13.9459 37.5705C7.22281 37.5705 1.61139 35.4126 0.293306 32.5407C0.101354 32.959 0 33.3921 0 33.8361V35.2079C0 38.7014 6.24381 41.5332 13.9459 41.5332C15.4862 41.5332 16.9676 41.4196 18.353 41.2105C18.0096 40.5081 17.8325 39.7673 17.8325 38.9998V37.6282ZM34.0541 2.6748C26.352 2.6748 20.1082 5.50663 20.1082 9.00001V10.3718C20.1082 13.8651 26.352 16.697 34.0541 16.697C41.7561 16.697 48 13.8651 48 10.3718V9.00001C48 5.50663 41.7561 2.6748 34.0541 2.6748Z" fill="#26A1D6"/>
<path d="M34.0553 19.7958C27.3322 19.7958 21.7208 17.6381 20.4027 14.7661C20.2107 15.1843 20.1094 15.6175 20.1094 16.0616V17.4334C20.1094 20.9267 26.3532 23.7586 34.0553 23.7586C41.7573 23.7586 48.0012 20.9267 48.0012 17.4334V16.0616C48.0012 15.6175 47.8998 15.1843 47.7079 14.7661C46.3898 17.6381 40.7784 19.7958 34.0553 19.7958Z" fill="#26A1D6"/>
<path d="M34.0553 26.8578C27.3322 26.8578 21.7208 24.7 20.4027 21.8281C20.2107 22.2463 20.1094 22.6795 20.1094 23.1236V24.4954C20.1094 27.9889 26.3532 30.8207 34.0553 30.8207C41.7573 30.8207 48.0012 27.9889 48.0012 24.4954V23.1236C48.0012 22.6795 47.8998 22.2463 47.7079 21.8281C46.3898 24.7001 40.7784 26.8578 34.0553 26.8578Z" fill="#26A1D6"/>
<path d="M34.0553 34.3007C27.3322 34.3007 21.7208 32.1429 20.4027 29.271C20.2107 29.6893 20.1094 30.1223 20.1094 30.5664V31.9382C20.1094 35.4316 26.3532 38.2634 34.0553 38.2634C41.7573 38.2634 48.0012 35.4316 48.0012 31.9382V30.5664C48.0012 30.1223 47.8998 29.6891 47.7079 29.271C46.3898 32.1427 40.7784 34.3007 34.0553 34.3007Z" fill="#26A1D6"/>
<path d="M34.0553 41.3625C27.3322 41.3625 21.7208 39.2047 20.4027 36.3329C20.2107 36.7512 20.1094 37.1845 20.1094 37.6283V39C20.1094 42.4934 26.3532 45.3252 34.0553 45.3252C41.7573 45.3252 48.0012 42.4934 48.0012 39V37.6281C48.0012 37.1841 47.8998 36.7509 47.7079 36.3328C46.3898 39.2046 40.7784 41.3625 34.0553 41.3625Z" fill="#26A1D6"/>
</g>
<defs>
<clipPath id="clip0_2016_72243">
<rect width="48" height="48" fill="white"/>
</clipPath>
</defs>
</svg>
