<svg width="302" height="512" viewBox="0 0 302 512" fill="none" xmlns="http://www.w3.org/2000/svg">
<path d="M8.76943 275.978L236.616 503.821C241.886 509.095 248.92 512 256.421 512C263.922 512 270.957 509.095 276.227 503.821L293.006 487.045C303.925 476.115 303.925 458.349 293.006 447.434L101.678 256.106L293.219 64.5656C298.488 59.2916 301.398 52.2611 301.398 44.7643C301.398 37.2592 298.488 30.2286 293.219 24.9504L276.439 8.17945C271.165 2.90548 264.135 2.30113e-05 256.634 2.30113e-05C249.133 2.30113e-05 242.098 2.90548 236.828 8.17945L8.76943 236.23C3.48713 241.521 0.585834 248.584 0.602484 256.094C0.585834 263.632 3.48713 270.692 8.76943 275.978Z" fill="black"/>
</svg>
