<svg width="300" height="300" viewBox="0 0 300 300" fill="none" xmlns="http://www.w3.org/2000/svg">
<path d="M149.679 0.58013C153.917 0.555488 158.065 1.79329 161.596 4.13571C165.127 6.47814 167.881 9.81904 169.506 13.7325C171.131 17.646 171.553 21.9547 170.72 26.1093C169.886 30.2639 167.835 34.0762 164.826 37.0601L51.7593 149.913L164.826 262.767C168.321 266.848 170.147 272.098 169.94 277.467C169.732 282.836 167.507 287.929 163.707 291.728C159.908 295.528 154.815 297.753 149.446 297.961C144.077 298.168 138.827 296.342 134.746 292.847L6.74596 164.847C2.7726 160.85 0.542384 155.443 0.542384 149.807C0.542384 144.171 2.7726 138.764 6.74596 134.767L134.746 6.76682C138.72 2.82561 144.083 0.603696 149.679 0.58013Z" fill="#4AA7DF"/>
<path d="M277.679 0.580029C281.917 0.555386 286.065 1.79319 289.596 4.13561C293.127 6.47803 295.881 9.81894 297.506 13.7324C299.131 17.6459 299.553 21.9546 298.72 26.1092C297.886 30.2638 295.835 34.0761 292.826 37.06L179.759 149.913L292.826 262.767C296.843 266.784 299.1 272.232 299.1 277.913C299.1 283.594 296.843 289.043 292.826 293.06C288.809 297.077 283.36 299.334 277.679 299.334C271.998 299.334 266.55 297.077 262.533 293.06L134.533 165.06C130.559 161.063 128.329 155.656 128.329 150.02C128.329 144.384 130.559 138.977 134.533 134.98L262.533 6.98001C264.508 4.96426 266.865 3.36067 269.465 2.26208C272.065 1.16348 274.857 0.591746 277.679 0.580029Z" fill="#4AA7DF"/>
</svg>
