<svg width="109" height="109" viewBox="0 0 109 109" fill="none" xmlns="http://www.w3.org/2000/svg">
<path d="M100.484 34.0625H93.6719V17.0312C93.6719 15.1531 92.1437 13.625 90.2656 13.625H83.4531V5.10938C83.4531 2.29219 81.1609 0 78.3438 0H30.6562C27.8391 0 25.5469 2.29219 25.5469 5.10938V13.625H18.7344C16.8563 13.625 15.3281 15.1531 15.3281 17.0312V34.0625H8.51562C3.82011 34.0625 0 37.8826 0 42.5781V80.0469C0 84.7424 3.82011 88.5625 8.51562 88.5625H25.5469V103.891C25.5469 106.708 27.8391 109 30.6562 109H78.3438C81.1609 109 83.4531 106.708 83.4531 103.891V88.5625H100.484C105.18 88.5625 109 84.7424 109 80.0469V42.5781C109 37.8826 105.18 34.0625 100.484 34.0625ZM90.2656 17.0312V34.0625H83.4531V17.0312H90.2656ZM28.9531 5.10938C28.9531 4.17031 29.7172 3.40625 30.6562 3.40625H78.3438C79.2828 3.40625 80.0469 4.17031 80.0469 5.10938V34.0625H28.9531V5.10938ZM18.7344 17.0312H25.5469V34.0625H18.7344V17.0312ZM80.0469 103.891C80.0469 104.83 79.2828 105.594 78.3438 105.594H30.6562C29.7172 105.594 28.9531 104.83 28.9531 103.891V74.9375H80.0469V103.891ZM105.594 80.0469C105.594 82.8641 103.302 85.1562 100.484 85.1562H83.4531V74.9375H86.8594C87.3111 74.9375 87.7443 74.7581 88.0637 74.4387C88.3831 74.1193 88.5625 73.6861 88.5625 73.2344C88.5625 72.7827 88.3831 72.3495 88.0637 72.0301C87.7443 71.7107 87.3111 71.5312 86.8594 71.5312H22.1406C21.6889 71.5312 21.2557 71.7107 20.9363 72.0301C20.6169 72.3495 20.4375 72.7827 20.4375 73.2344C20.4375 73.6861 20.6169 74.1193 20.9363 74.4387C21.2557 74.7581 21.6889 74.9375 22.1406 74.9375H25.5469V85.1562H8.51562C5.69844 85.1562 3.40625 82.8641 3.40625 80.0469V42.5781C3.40625 39.7609 5.69844 37.4688 8.51562 37.4688H100.484C103.302 37.4688 105.594 39.7609 105.594 42.5781V80.0469Z" fill="black"/>
<path d="M97.0781 40.875C94.2609 40.875 91.9688 43.1672 91.9688 45.9844C91.9688 48.8016 94.2609 51.0938 97.0781 51.0938C99.8953 51.0938 102.188 48.8016 102.188 45.9844C102.188 43.1672 99.8953 40.875 97.0781 40.875ZM97.0781 47.6875C96.1391 47.6875 95.375 46.9234 95.375 45.9844C95.375 45.0453 96.1391 44.2812 97.0781 44.2812C98.0172 44.2812 98.7812 45.0453 98.7812 45.9844C98.7812 46.9234 98.0172 47.6875 97.0781 47.6875ZM83.4531 40.875C80.6359 40.875 78.3438 43.1672 78.3438 45.9844C78.3438 48.8016 80.6359 51.0938 83.4531 51.0938C86.2703 51.0938 88.5625 48.8016 88.5625 45.9844C88.5625 43.1672 86.2703 40.875 83.4531 40.875ZM83.4531 47.6875C82.5141 47.6875 81.75 46.9234 81.75 45.9844C81.75 45.0453 82.5141 44.2812 83.4531 44.2812C84.3922 44.2812 85.1562 45.0453 85.1562 45.9844C85.1562 46.9234 84.3922 47.6875 83.4531 47.6875ZM73.2344 80.0469H37.4688C37.0171 80.0469 36.5839 80.2263 36.2645 80.5457C35.9451 80.8651 35.7656 81.2983 35.7656 81.75C35.7656 82.2017 35.9451 82.6349 36.2645 82.9543C36.5839 83.2737 37.0171 83.4531 37.4688 83.4531H73.2344C73.6861 83.4531 74.1193 83.2737 74.4387 82.9543C74.7581 82.6349 74.9375 82.2017 74.9375 81.75C74.9375 81.2983 74.7581 80.8651 74.4387 80.5457C74.1193 80.2263 73.6861 80.0469 73.2344 80.0469ZM73.2344 88.5625H37.4688C37.0171 88.5625 36.5839 88.7419 36.2645 89.0613C35.9451 89.3807 35.7656 89.8139 35.7656 90.2656C35.7656 90.7173 35.9451 91.1505 36.2645 91.4699C36.5839 91.7893 37.0171 91.9688 37.4688 91.9688H73.2344C73.6861 91.9688 74.1193 91.7893 74.4387 91.4699C74.7581 91.1505 74.9375 90.7173 74.9375 90.2656C74.9375 89.8139 74.7581 89.3807 74.4387 89.0613C74.1193 88.7419 73.6861 88.5625 73.2344 88.5625ZM73.2344 97.0781H37.4688C37.0171 97.0781 36.5839 97.2576 36.2645 97.577C35.9451 97.8964 35.7656 98.3296 35.7656 98.7812C35.7656 99.2329 35.9451 99.6661 36.2645 99.9855C36.5839 100.305 37.0171 100.484 37.4688 100.484H73.2344C73.6861 100.484 74.1193 100.305 74.4387 99.9855C74.7581 99.6661 74.9375 99.2329 74.9375 98.7812C74.9375 98.3296 74.7581 97.8964 74.4387 97.577C74.1193 97.2576 73.6861 97.0781 73.2344 97.0781Z" fill="black"/>
</svg>
