<svg width="470" height="342" viewBox="0 0 470 342" fill="none" xmlns="http://www.w3.org/2000/svg">
<path d="M384.334 85.6668L299 171H363C363 241.614 305.614 299 235 299C214.157 299.071 193.625 293.938 175.267 284.067L144.12 315.214C171.279 332.499 202.807 341.676 235 341.667C329.294 341.667 405.667 265.294 405.667 171H469.667L384.334 85.6668ZM107 171C107 100.387 164.387 43.0002 235 43.0002C256.547 43.0002 277.027 48.3335 294.734 57.9335L325.88 26.7868C298.721 9.50155 267.193 0.324544 235 0.333503C140.707 0.333503 64.3335 76.7068 64.3335 171H0.333496L85.6668 256.334L171 171H107Z" fill="#7ACF3C"/>
</svg>
