<svg width="44" height="36" viewBox="0 0 44 36" fill="none" xmlns="http://www.w3.org/2000/svg">
<path d="M41.6562 32.6528H38.8047V16.168C38.8046 15.7724 38.7221 15.3811 38.5626 15.019C38.4031 14.657 38.1699 14.3321 37.878 14.0651L23.6209 1.10892C23.0953 0.628026 22.4086 0.361328 21.6962 0.361328C20.9838 0.361328 20.2971 0.628026 19.7715 1.10892L5.51439 14.0651C5.22248 14.3321 4.98935 14.657 4.8298 15.019C4.67026 15.3811 4.5878 15.7724 4.58768 16.168V32.6528H1.73626C1.35814 32.6528 0.9955 32.803 0.728128 33.0703C0.460755 33.3377 0.310547 33.7004 0.310547 34.0785C0.310547 34.4566 0.460755 34.8192 0.728128 35.0866C0.9955 35.354 1.35814 35.5042 1.73626 35.5042H41.6562C42.0343 35.5042 42.3969 35.354 42.6643 35.0866C42.9317 34.8192 43.0819 34.4566 43.0819 34.0785C43.0819 33.7004 42.9317 33.3377 42.6643 33.0703C42.3969 32.803 42.0343 32.6528 41.6562 32.6528ZM7.4391 16.168L21.6962 3.21184L35.9533 16.168V32.6528H27.399V24.0985C27.399 23.3423 27.0986 22.617 26.5639 22.0822C26.0291 21.5475 25.3039 21.2471 24.5476 21.2471H18.8448C18.0885 21.2471 17.3633 21.5475 16.8285 22.0822C16.2938 22.617 15.9934 23.3423 15.9934 24.0985V32.6528H7.4391V16.168ZM24.5476 32.6528H18.8448V24.0985H24.5476V32.6528Z" fill="#8EC64E"/>
</svg>
