<?xml version="1.0" encoding="UTF-8"?>
<svg version="1.1" xmlns="http://www.w3.org/2000/svg" width="210" height="304">
<path d="M0 0 C0.81700882 0.00141495 1.63401764 0.0028299 2.4757843 0.00428772 C5.08415393 0.00988331 7.69243759 0.02243496 10.30078125 0.03515625 C12.06966022 0.04017182 13.83854053 0.04473463 15.60742188 0.04882812 C19.94274144 0.05985129 24.27799677 0.07711287 28.61328125 0.09765625 C28.61328125 4.05765625 28.61328125 8.01765625 28.61328125 12.09765625 C26.99317139 12.12738525 26.99317139 12.12738525 25.34033203 12.15771484 C21.34074212 12.23367248 17.34152073 12.32240441 13.34228516 12.41503906 C11.60993718 12.45336966 9.87750851 12.48821531 8.14501953 12.51953125 C5.65758376 12.5650939 3.17070559 12.62310128 0.68359375 12.68359375 C-0.09353973 12.69514496 -0.87067322 12.70669617 -1.6713562 12.71859741 C-5.9932285 12.68559393 -5.9932285 12.68559393 -9.38671875 15.09765625 C-10.29203113 17.83772898 -10.51189644 20.33902942 -10.51255989 23.21193504 C-10.51516764 24.02783021 -10.51777539 24.84372538 -10.52046216 25.68434465 C-10.51823143 26.57519152 -10.51600071 27.46603839 -10.51370239 28.38388062 C-10.51526238 29.33453262 -10.51682237 30.28518462 -10.51842964 31.26464427 C-10.52242629 34.45818344 -10.5192551 37.65167529 -10.51611328 40.84521484 C-10.51746793 43.13160734 -10.51924822 45.41799962 -10.52142334 47.70439148 C-10.52599061 53.92130678 -10.52421086 60.13820553 -10.52104425 66.35512114 C-10.51851641 72.85593937 -10.52085944 79.35675617 -10.52243042 85.85757446 C-10.52436783 97.47775106 -10.52125514 109.09792009 -10.51617108 120.7180955 C-10.51170539 131.25086949 -10.51247751 141.78363246 -10.51708984 152.31640625 C-10.52244358 164.54798242 -10.52443203 176.77955075 -10.52147758 189.01112807 C-10.51991779 195.48571705 -10.51971285 201.96029844 -10.52301407 208.43488693 C-10.52590144 214.52348143 -10.52390109 220.61205511 -10.51811981 226.70064735 C-10.51679676 228.93635969 -10.51717864 231.17207378 -10.51938248 233.40778542 C-10.52211184 236.45770219 -10.51869083 239.50755209 -10.51370239 242.5574646 C-10.51593311 243.44385002 -10.51816384 244.33023545 -10.52046216 245.24348104 C-10.50648968 249.64304269 -10.27345598 253.76593097 -9.38671875 258.09765625 C-5.84002205 259.27988848 -3.0340049 259.22355861 0.71142578 259.22463989 C1.80240413 259.22697988 1.80240413 259.22697988 2.91542244 259.22936714 C5.35899999 259.23336421 7.80251571 259.23019248 10.24609375 259.22705078 C11.99534135 259.22840539 13.74458867 259.23018567 15.49383545 259.23236084 C20.24991299 259.23692802 25.00596889 259.23514853 29.76204681 259.23198175 C34.73345499 259.22945448 39.70486128 259.23179672 44.67626953 259.23336792 C53.02571954 259.23518854 61.37516071 259.23278613 69.72460938 259.22802734 C79.38522869 259.22258493 89.04582689 259.22434766 98.70644569 259.22985375 C106.99268589 259.23438794 115.27891972 259.23503392 123.56516075 259.23241508 C128.51774822 259.230854 133.47032576 259.23065395 138.4229126 259.23395157 C143.07841228 259.23683471 147.73388468 259.23484638 152.38938141 259.22905731 C154.10065923 259.2277321 155.81193933 259.2281198 157.52321625 259.23031998 C159.85388767 259.23304082 162.18447095 259.22963882 164.51513672 259.22463989 C166.47409378 259.22407435 166.47409378 259.22407435 168.47262573 259.22349739 C171.64292525 259.24221517 171.64292525 259.24221517 174.61328125 258.09765625 C175.68075315 252.87766536 175.75626179 247.86477862 175.74699402 242.56419373 C175.75039235 241.1345941 175.75039235 241.1345941 175.75385934 239.67611367 C175.76018337 236.48645599 175.75937101 233.29684098 175.75854492 230.10717773 C175.76153733 227.81886744 175.76494005 225.53055766 175.76872253 223.24224854 C175.77755646 217.02965363 175.77990034 210.8170725 175.78053832 204.60447192 C175.78148782 199.42024593 175.78516644 194.23602316 175.78871042 189.0517984 C175.79638702 177.52322274 175.79937924 165.99465493 175.79870506 154.46607708 C175.79866511 153.77481315 175.79862515 153.08354922 175.79858398 152.37133789 C175.79852266 151.33317487 175.79852266 151.33317487 175.7984601 150.27403886 C175.79805334 139.04866055 175.80763181 127.82331573 175.82172235 116.59794711 C175.83608071 105.0682128 175.84280967 93.53849917 175.84212857 82.00875527 C175.84187328 75.53700992 175.84474207 69.06530251 175.85530663 62.59356499 C175.86496566 56.51067628 175.86508189 50.42786198 175.85778999 44.3449707 C175.85674155 42.11044774 175.85912233 39.87592019 175.86515045 37.64140511 C175.8728364 34.59556012 175.86824812 31.5499743 175.86051941 28.50413513 C175.86823475 27.17223409 175.86823475 27.17223409 175.87610596 25.81342596 C175.94245289 18.91757782 175.94245289 18.91757782 172.61328125 13.09765625 C169.9490144 12.93762137 167.30767697 12.83822736 164.640625 12.78125 C163.84298233 12.7604689 163.04533966 12.73968781 162.223526 12.71827698 C159.66603514 12.65269467 157.10843845 12.59385658 154.55078125 12.53515625 C152.82095243 12.49197926 151.09113446 12.44836524 149.36132812 12.40429688 C145.11208865 12.29700453 140.86274235 12.19576199 136.61328125 12.09765625 C136.61328125 8.13765625 136.61328125 4.17765625 136.61328125 0.09765625 C141.73610884 -0.00180127 146.85836479 -0.07408784 151.98193359 -0.12207031 C153.72194214 -0.14208897 155.46188424 -0.16931261 157.20166016 -0.20410156 C159.71403471 -0.25305327 162.225514 -0.27540962 164.73828125 -0.29296875 C165.5063208 -0.31361389 166.27436035 -0.33425903 167.06567383 -0.35552979 C173.41257226 -0.3581205 178.86057368 1.38001502 183.453125 5.9140625 C183.81535156 6.49027344 184.17757812 7.06648438 184.55078125 7.66015625 C185.12119141 8.52833984 185.12119141 8.52833984 185.703125 9.4140625 C187.32589057 12.41583058 187.73905266 14.91712819 187.74470901 18.26067829 C187.74855016 19.11289976 187.7523913 19.96512124 187.75634885 20.8431676 C187.75548237 21.77972774 187.75461588 22.71628789 187.75372314 23.68122864 C187.75669427 24.67594529 187.75966539 25.67066195 187.76272655 26.69552153 C187.7714304 30.04417446 187.77292322 33.39279172 187.77441406 36.74145508 C187.77904102 39.13607358 187.78406551 41.53069133 187.78945923 43.92530823 C187.80259651 50.4418537 187.80906728 56.95839173 187.81346989 63.47494721 C187.81623224 67.54365497 187.82046958 71.61236036 187.82497406 75.68106651 C187.83716669 86.94541811 187.84746605 98.20976781 187.85084915 109.47412586 C187.8511785 110.55559948 187.8511785 110.55559948 187.8515145 111.65892104 C187.85173278 112.3816313 187.85195106 113.10434155 187.85217595 113.84895211 C187.85261942 115.31344529 187.85306598 116.77793847 187.85351562 118.24243164 C187.85384777 119.3320911 187.85384777 119.3320911 187.85418662 120.44376387 C187.85813477 132.21509304 187.8755893 143.9863603 187.89887515 155.75766555 C187.92258762 167.84214458 187.93505095 179.92659255 187.93621707 192.01109523 C187.93713388 198.79648661 187.94288776 205.58179735 187.96103668 212.36716652 C187.97747986 218.7488036 187.97969107 225.13028742 187.97089767 231.5119381 C187.9701253 233.85569544 187.97449622 236.1994609 187.98435593 238.54319763 C187.99701696 241.74002667 187.99123014 244.93630808 187.98077393 248.13313293 C187.99285853 249.5279349 187.99285853 249.5279349 188.00518727 250.95091468 C187.95931298 256.93799765 187.07841624 261.24200483 183.03515625 265.92578125 C182.4834375 266.395 181.93171875 266.86421875 181.36328125 267.34765625 C180.821875 267.8271875 180.28046875 268.30671875 179.72265625 268.80078125 C174.58394559 271.96013669 169.05056855 272.34888807 163.15042114 272.35835266 C162.43208505 272.36217821 161.71374895 272.36600376 160.97364509 272.36994523 C158.58407931 272.38020407 156.19475701 272.37629674 153.80517578 272.37231445 C152.08477559 272.37666489 150.36437733 272.38184914 148.64398193 272.38780212 C143.98276187 272.40116807 139.32162301 272.40177344 134.66038752 272.39923882 C130.7638833 272.39816743 126.86739541 272.40305683 122.97089469 272.40784425 C113.77534311 272.41893123 104.57983238 272.41938146 95.38427734 272.41333008 C85.90995941 272.40729094 76.43579002 272.41960164 66.96149743 272.44090015 C58.8160505 272.45853549 50.67065077 272.46451443 42.52518547 272.4612624 C37.66520833 272.4594524 32.80533714 272.4620574 27.94537735 272.47597694 C23.37345703 272.48858204 18.80176767 272.48658586 14.22985077 272.47356606 C12.5565648 272.47120652 10.88326244 272.47391255 9.20999527 272.48218918 C-10.12917609 272.57091473 -10.12917609 272.57091473 -16.76171875 267.16015625 C-17.29796875 266.47953125 -17.83421875 265.79890625 -18.38671875 265.09765625 C-18.94359375 264.41703125 -19.50046875 263.73640625 -20.07421875 263.03515625 C-22.1190018 260.01666699 -22.51231367 257.48863941 -22.52093983 253.94022083 C-22.52539767 253.08923276 -22.52985551 252.23824468 -22.53444844 251.36146909 C-22.53426408 250.42627319 -22.53407972 249.49107729 -22.53388977 248.52754211 C-22.53756646 247.53423659 -22.54124315 246.54093107 -22.54503125 245.51752537 C-22.55608542 242.17354365 -22.55991487 238.82959298 -22.5637207 235.4855957 C-22.56998404 233.09422201 -22.57663072 230.7028493 -22.58363342 228.31147766 C-22.60287299 221.12390331 -22.61346352 213.93632837 -22.62236121 206.74873546 C-22.62674522 203.36319705 -22.63211175 199.9776602 -22.63735008 196.59212303 C-22.65436213 185.33635565 -22.66885589 174.08058924 -22.67609882 162.82481098 C-22.67800869 159.90412202 -22.67992903 156.98343307 -22.68188477 154.06274414 C-22.68236851 153.33682912 -22.68285225 152.61091411 -22.68335065 151.86300167 C-22.69164941 140.10593655 -22.71698379 128.34897322 -22.74946544 116.59195254 C-22.78254838 104.5187644 -22.80054871 92.44562797 -22.80374306 80.37239426 C-22.80590707 73.594734 -22.81463953 66.81722216 -22.84020424 60.03960609 C-22.86345715 53.6628554 -22.86772917 47.28637184 -22.85744286 40.90958977 C-22.85694672 38.56989276 -22.86329004 36.23018272 -22.8769989 33.89052582 C-22.89467808 30.69425935 -22.88763045 27.49895562 -22.87446594 24.3026886 C-22.88543519 23.37864631 -22.89640443 22.45460401 -22.90770608 21.50256044 C-22.84099599 14.78539079 -21.40103298 9.15086486 -16.5703125 4.2578125 C-15.99410156 3.89558594 -15.41789063 3.53335938 -14.82421875 3.16015625 C-13.95603516 2.58974609 -13.95603516 2.58974609 -13.0703125 2.0078125 C-8.81795869 -0.29102378 -4.68712887 -0.03047393 0 0 Z " fill="#2190CD" transform="translate(22.38671875,31.90234375)"/>
<path d="M0 0 C4.50725681 4.8077406 5.90686252 8.44117514 7 15 C13.93 15 20.86 15 28 15 C28 25.56 28 36.12 28 47 C24.62885056 47.67422989 22.20924234 48.12513563 18.91278076 48.12698364 C18.13325043 48.12980347 17.35372009 48.13262329 16.55056763 48.13552856 C15.70984711 48.13350433 14.86912659 48.1314801 14.00292969 48.12939453 C13.10647736 48.13114685 12.21002502 48.13289917 11.28640747 48.13470459 C8.33154347 48.1390963 5.37673958 48.13619554 2.421875 48.1328125 C0.36875395 48.13348607 -1.68436702 48.13445654 -3.73748779 48.13571167 C-8.03463502 48.13718481 -12.33176144 48.13504551 -16.62890625 48.13037109 C-22.14962027 48.12465966 -27.67028582 48.12796417 -33.19099808 48.13394356 C-37.42702605 48.13754728 -41.66304243 48.13641171 -45.89907074 48.13381577 C-47.93573767 48.13314671 -49.97240563 48.13397416 -52.00907135 48.13629532 C-54.84624551 48.13882029 -57.68333965 48.13498412 -60.52050781 48.12939453 C-61.36932526 48.13141876 -62.2181427 48.13344299 -63.09268188 48.13552856 C-68.88573452 48.11426548 -68.88573452 48.11426548 -70 47 C-70.0883967 44.6243148 -70.11530305 42.27791326 -70.09765625 39.90234375 C-70.0962413 39.19348526 -70.09482635 38.48462677 -70.09336853 37.75428772 C-70.08775443 35.48198288 -70.07519963 33.20977525 -70.0625 30.9375 C-70.05748681 29.40039204 -70.05292359 27.86328255 -70.04882812 26.32617188 C-70.0386297 22.55071333 -70.01905732 18.77546596 -70 15 C-63.07 15 -56.14 15 -49 15 C-48.67 13.02 -48.34 11.04 -48 9 C-42.95823801 0.17691651 -36.75078298 -4.0497738 -27.1875 -6.8125 C-17.02664433 -7.41019739 -8.45851083 -5.99717163 0 0 Z M-25.25 -0.3125 C-27.18010547 1.86904316 -27.18010547 1.86904316 -27.4375 4.5625 C-27.15485315 6.99926829 -27.15485315 6.99926829 -25.875 8.8125 C-23.12844028 10.55198782 -21.18153026 10.39769128 -18 10 C-15.91666667 9.08333333 -15.91666667 9.08333333 -15 7 C-14.99917465 3.42243314 -14.99917465 3.42243314 -16 0 C-19.63308656 -2.42205771 -21.62619015 -3.03035738 -25.25 -0.3125 Z " fill="#2191CD" transform="translate(126,7)"/>
<path d="M0 0 C3.93098874 8.02576868 4.78519422 17.39463707 2.05078125 25.98046875 C0.85591348 28.47197536 -0.4495576 30.71513752 -2 33 C-2.37253906 33.58265625 -2.74507812 34.1653125 -3.12890625 34.765625 C-7.69837641 41.07053853 -15.56283537 44.51256707 -23 46 C-30.05797051 46.57852217 -36.6350163 45.18249185 -43 42 C-39.72179237 30.14348858 -32.04588875 16.74871226 -21.46337891 10.21142578 C-18.64329001 8.6679357 -15.7963802 7.22495743 -12.87646484 5.87988281 C-10.34875365 4.69462765 -7.96630264 3.29173392 -5.5625 1.875 C-2.25862069 0 -2.25862069 0 0 0 Z " fill="#2191CD" transform="translate(92,208)"/>
<path d="M0 0 C49.5 0 99 0 150 0 C150 2.31 150 4.62 150 7 C148.22816131 8.77183869 145.66702734 8.12615315 143.26782227 8.12698364 C141.39998581 8.13121338 141.39998581 8.13121338 139.49441528 8.13552856 C138.10174546 8.13358397 136.70907578 8.13153578 135.31640625 8.12939453 C133.85977128 8.13074853 132.40313666 8.13252845 130.94650269 8.13470459 C126.97967064 8.13927912 123.01286448 8.13748928 119.04603195 8.1343255 C114.90381549 8.131802 110.76160131 8.13413941 106.61938477 8.13571167 C99.66194255 8.1375334 92.70451092 8.13512698 85.74707031 8.13037109 C77.69172472 8.12492847 69.63640443 8.12669112 61.58105946 8.1321975 C54.67746927 8.13672855 47.77388672 8.13737922 40.87029552 8.13475883 C36.74157992 8.13319601 32.61287623 8.13300243 28.48416138 8.13629532 C24.60350478 8.13917391 20.72288097 8.13719857 16.84222794 8.13140106 C15.41392191 8.1300734 13.98561315 8.13046769 12.5573082 8.13266373 C10.61559901 8.13537495 8.67388383 8.13138066 6.73217773 8.12698364 C5.64299545 8.12660662 4.55381317 8.12622959 3.43162537 8.12584114 C1 8 1 8 0 7 C0 4.69 0 2.38 0 0 Z " fill="#2692CC" transform="translate(30,72)"/>
<path d="M0 0 C49.5 0 99 0 150 0 C150 2.31 150 4.62 150 7 C146.6215931 8.02218606 143.54213097 8.12573627 140.02095032 8.12698364 C138.18479156 8.13121338 138.18479156 8.13121338 136.3115387 8.13552856 C134.95809922 8.13358437 133.60465988 8.13153621 132.2512207 8.12939453 C130.8236995 8.13074976 129.39617864 8.13253038 127.96865845 8.13470459 C124.09497605 8.13926321 120.22132028 8.13749613 116.34763741 8.1343255 C112.29752801 8.13179528 108.2474209 8.13414116 104.1973114 8.13571167 C97.39903351 8.1375308 90.60076648 8.13513312 83.80249023 8.13037109 C75.93283002 8.1249224 68.06319569 8.12669656 60.1935361 8.1321975 C53.44275036 8.13672811 46.69197243 8.13737963 39.94118565 8.13475883 C35.90641206 8.13319661 31.87165065 8.13300092 27.83687782 8.13629532 C24.0472873 8.13917349 20.25773034 8.13719936 16.46814346 8.13140106 C15.07369861 8.13007345 13.67925096 8.13046759 12.28480721 8.13266373 C10.38923872 8.135375 8.49366408 8.13138061 6.59809875 8.12698364 C5.53493596 8.12660662 4.47177317 8.12622959 3.37639332 8.12584114 C1 8 1 8 0 7 C0 4.69 0 2.38 0 0 Z " fill="#2190CC" transform="translate(30,86)"/>
<path d="M0 0 C4.95 0 9.9 0 15 0 C15 14.52 15 29.04 15 44 C11.44157686 44.71168463 8.77278368 45.13682142 5.25 45.125 C4.47140625 45.12757813 3.6928125 45.13015625 2.890625 45.1328125 C1 45 1 45 0 44 C-0.0927833 42.61839885 -0.11747043 41.23211962 -0.11352539 39.84741211 C-0.11341209 38.52615578 -0.11341209 38.52615578 -0.11329651 37.1782074 C-0.10555458 35.74227989 -0.10555458 35.74227989 -0.09765625 34.27734375 C-0.0962413 33.30213272 -0.09482635 32.32692169 -0.09336853 31.32215881 C-0.08775133 28.19390857 -0.07519593 25.06572877 -0.0625 21.9375 C-0.05748722 19.82226666 -0.05292393 17.70703219 -0.04882812 15.59179688 C-0.03777631 10.39450393 -0.02050016 5.19726392 0 0 Z " fill="#2391CC" transform="translate(165,126)"/>
<path d="M0 0 C25.41 0 50.82 0 77 0 C77 2.64 77 5.28 77 8 C51.59 8 26.18 8 0 8 C0 5.36 0 2.72 0 0 Z " fill="#2692CC" transform="translate(103,199)"/>
<path d="M0 0 C25.41 0 50.82 0 77 0 C77 2.31 77 4.62 77 7 C75.32664004 8.67335996 73.28612091 8.11962895 71.05252075 8.12442017 C70.3454599 8.12082489 69.63839905 8.11722961 68.90991211 8.11352539 C68.16849472 8.11367142 67.42707733 8.11381744 66.66319275 8.1139679 C64.20121379 8.11326865 61.73930957 8.10547574 59.27734375 8.09765625 C57.57483461 8.09579211 55.87232493 8.09436819 54.16981506 8.09336853 C49.68006927 8.08954302 45.19035562 8.07971247 40.70062256 8.06866455 C36.12268509 8.05845113 31.54474244 8.05387106 26.96679688 8.04882812 C17.97785043 8.03809022 8.98892788 8.02101341 0 8 C0 5.36 0 2.72 0 0 Z " fill="#2692CB" transform="translate(103,242)"/>
<path d="M0 0 C9.89189376 -0.02312428 19.78378114 -0.04091552 29.67569637 -0.05181217 C34.2684264 -0.05704082 38.861138 -0.06413812 43.45385742 -0.07543945 C47.88233688 -0.086269 52.31079856 -0.09227698 56.73929024 -0.09487724 C58.43265628 -0.09673137 60.12602129 -0.10035175 61.81937981 -0.10573006 C64.18291232 -0.1129414 66.54637045 -0.1139909 68.90991211 -0.11352539 C69.61697296 -0.11712067 70.32403381 -0.12071594 71.05252075 -0.12442017 C75.88594784 -0.11405216 75.88594784 -0.11405216 77 1 C77 3.31 77 5.62 77 8 C51.59 8 26.18 8 0 8 C0 5.36 0 2.72 0 0 Z " fill="#2491CC" transform="translate(103,227)"/>
<path d="M0 0 C9.89189376 -0.02312428 19.78378114 -0.04091552 29.67569637 -0.05181217 C34.2684264 -0.05704082 38.861138 -0.06413812 43.45385742 -0.07543945 C47.88233688 -0.086269 52.31079856 -0.09227698 56.73929024 -0.09487724 C58.43265628 -0.09673137 60.12602129 -0.10035175 61.81937981 -0.10573006 C64.18291232 -0.1129414 66.54637045 -0.1139909 68.90991211 -0.11352539 C69.61697296 -0.11712067 70.32403381 -0.12071594 71.05252075 -0.12442017 C75.88594784 -0.11405216 75.88594784 -0.11405216 77 1 C77 3.31 77 5.62 77 8 C51.59 8 26.18 8 0 8 C0 5.36 0 2.72 0 0 Z " fill="#2391CC" transform="translate(103,185)"/>
<path d="M0 0 C25.41 0 50.82 0 77 0 C77 2.31 77 4.62 77 7 C51.59 7 26.18 7 0 7 C0 4.69 0 2.38 0 0 Z " fill="#2090CC" transform="translate(103,256)"/>
<path d="M0 0 C25.41 0 50.82 0 77 0 C77 2.31 77 4.62 77 7 C51.59 7 26.18 7 0 7 C0 4.69 0 2.38 0 0 Z " fill="#238DC7" transform="translate(103,214)"/>
<path d="M0 0 C9.78143205 0 15.42103247 1.96459277 22.5546875 8.55078125 C24.27992793 10.2806845 25.81438469 11.85107225 27 14 C25.69552567 17.91342298 24.30794137 18.21639593 20.72265625 20.13671875 C19.65208984 20.71357422 18.58152344 21.29042969 17.47851562 21.88476562 C15.78758789 22.77711914 15.78758789 22.77711914 14.0625 23.6875 C12.93908203 24.29400391 11.81566406 24.90050781 10.65820312 25.52539062 C2.28781461 30 2.28781461 30 0 30 C0 20.1 0 10.2 0 0 Z " fill="#2190CC" transform="translate(66,188)"/>
<path d="M0 0 C21.45 0 42.9 0 65 0 C65.92538169 3.70152678 66.08174162 4.63458162 65 8 C56.67271053 8.02312684 48.34543437 8.04091683 40.01812077 8.05181217 C36.15179882 8.05704026 32.28549879 8.06413654 28.41918945 8.07543945 C24.69096599 8.086271 20.96276366 8.0922774 17.23452568 8.09487724 C15.80910344 8.09673101 14.38368241 8.10035071 12.95826912 8.10573006 C10.96836592 8.11294393 8.97844166 8.11340808 6.98852539 8.11352539 C5.85379288 8.115746 4.71906036 8.11796661 3.54994202 8.12025452 C1 8 1 8 0 7 C0 4.69 0 2.38 0 0 Z " fill="#2591CC" transform="translate(30,157)"/>
<path d="M0 0 C21.45 0 42.9 0 65 0 C65 2.64 65 5.28 65 8 C43.55 8 22.1 8 0 8 C0 5.36 0 2.72 0 0 Z " fill="#2692CC" transform="translate(30,114)"/>
<path d="M0 0 C1.70209877 0.00333092 1.70209877 0.00333092 3.43858337 0.00672913 C4.71983597 0.00680466 6.00108856 0.00688019 7.32116699 0.00695801 C8.73001646 0.01206542 10.13886554 0.01728143 11.54771423 0.02259827 C12.98118033 0.02446249 14.41464706 0.02588637 15.84811401 0.02688599 C19.62765755 0.03071079 23.40716288 0.04054075 27.18669128 0.05158997 C31.04075097 0.06180489 34.8948168 0.06638378 38.74888611 0.07142639 C46.31596085 0.08216306 53.88300407 0.09923903 61.45005798 0.12025452 C61.45005798 2.76025452 61.45005798 5.40025452 61.45005798 8.12025452 C40.00005798 8.12025452 18.55005798 8.12025452 -3.54994202 8.12025452 C-3.54994202 0.16741422 -3.54994202 0.16741422 0 0 Z " fill="#2290CC" transform="translate(33.54994201660156,141.87974548339844)"/>
<path d="M0 0 C1.70209877 0.00333092 1.70209877 0.00333092 3.43858337 0.00672913 C4.71983597 0.00680466 6.00108856 0.00688019 7.32116699 0.00695801 C8.73001646 0.01206542 10.13886554 0.01728143 11.54771423 0.02259827 C12.98118033 0.02446249 14.41464706 0.02588637 15.84811401 0.02688599 C19.62765755 0.03071079 23.40716288 0.04054075 27.18669128 0.05158997 C31.04075097 0.06180489 34.8948168 0.06638378 38.74888611 0.07142639 C46.31596085 0.08216306 53.88300407 0.09923903 61.45005798 0.12025452 C61.45005798 2.76025452 61.45005798 5.40025452 61.45005798 8.12025452 C40.00005798 8.12025452 18.55005798 8.12025452 -3.54994202 8.12025452 C-3.54994202 0.16741422 -3.54994202 0.16741422 0 0 Z " fill="#2290CC" transform="translate(33.54994201660156,99.87974548339844)"/>
<path d="M0 0 C-0.39595843 1.48484412 -0.81750706 2.9628831 -1.25 4.4375 C-1.48203125 5.26121094 -1.7140625 6.08492188 -1.953125 6.93359375 C-2.29859375 7.61550781 -2.6440625 8.29742187 -3 9 C-4.32105391 9.37908503 -5.65769063 9.70488234 -7 10 C-9.51659387 11.93472266 -9.51659387 11.93472266 -12 14.3125 C-12.845625 15.09238281 -13.69125 15.87226562 -14.5625 16.67578125 C-16.13906433 18.17907576 -17.6838111 19.71678057 -19.1875 21.29296875 C-21 23 -21 23 -23 23 C-23 23.66 -23 24.32 -23 25 C-26.22263832 27.14842555 -27.159473 27.18894917 -30.83203125 26.5625 C-34.48831917 25.61384151 -37.95842547 24.17405462 -41.44921875 22.7421875 C-44.25265611 21.92648597 -45.35174938 21.83325024 -48 23 C-49.96623783 24.56496643 -49.96623783 24.56496643 -51.8125 26.5625 C-52.50988281 27.28695312 -53.20726563 28.01140625 -53.92578125 28.7578125 C-56.39859543 31.43087341 -58.81578164 34.14266897 -61.19140625 36.90234375 C-63.24980358 39.28972899 -65.34122086 41.64583063 -67.4375 44 C-68.11683594 44.763125 -68.79617187 45.52625 -69.49609375 46.3125 C-69.99238281 46.869375 -70.48867187 47.42625 -71 48 C-72.65 47.34 -74.3 46.68 -76 46 C-73.06990721 41.03158178 -69.41689724 37.31477112 -65.30078125 33.29296875 C-63.23603867 31.23523718 -61.28802081 29.13553068 -59.375 26.9375 C-58.53775391 25.9784375 -58.53775391 25.9784375 -57.68359375 25 C-56.49659139 23.58991831 -55.34586509 22.14890578 -54.22265625 20.6875 C-53.63355469 19.945 -53.04445313 19.2025 -52.4375 18.4375 C-51.66212891 17.41462891 -51.66212891 17.41462891 -50.87109375 16.37109375 C-49 15 -49 15 -46.27734375 15.125 C-42.50295138 16.13270428 -38.81591004 17.28570263 -35.125 18.5625 C-34.43664062 18.79646484 -33.74828125 19.03042969 -33.0390625 19.27148438 C-31.35796355 19.84352499 -29.67877837 20.42118456 -28 21 C-27.20335937 20.26394531 -26.40671875 19.52789062 -25.5859375 18.76953125 C-24.5156933 17.78378001 -23.44537693 16.79810712 -22.375 15.8125 C-21.85292969 15.32974609 -21.33085937 14.84699219 -20.79296875 14.34960938 C-20.27089844 13.86943359 -19.74882812 13.38925781 -19.2109375 12.89453125 C-18.6859668 12.41064941 -18.16099609 11.92676758 -17.62011719 11.42822266 C-15.9999186 9.99992824 -14.31440796 8.70131002 -12.6015625 7.38671875 C-11.74304688 6.59910156 -10.88453125 5.81148438 -10 5 C-10 3.68 -10 2.36 -10 1 C-6.59437148 0.22157062 -3.49234244 -0.09978121 0 0 Z " fill="#2491CC" transform="translate(180,109)"/>
<path d="M0 0 C21.45 0 42.9 0 65 0 C65 2.64 65 5.28 65 8 C56.67271053 8.02312684 48.34543437 8.04091683 40.01812077 8.05181217 C36.15179882 8.05704026 32.28549879 8.06413654 28.41918945 8.07543945 C24.69096599 8.086271 20.96276366 8.0922774 17.23452568 8.09487724 C15.80910344 8.09673101 14.38368241 8.10035071 12.95826912 8.10573006 C10.96836592 8.11294393 8.97844166 8.11340808 6.98852539 8.11352539 C5.85379288 8.115746 4.71906036 8.11796661 3.54994202 8.12025452 C1 8 1 8 0 7 C0 4.69 0 2.38 0 0 Z " fill="#2090CC" transform="translate(30,171)"/>
<path d="M0 0 C21.45 0 42.9 0 65 0 C66 4 66 4 65 7 C43.55 7 22.1 7 0 7 C0 4.69 0 2.38 0 0 Z " fill="#2090CC" transform="translate(30,129)"/>
<path d="M0 0 C0 9.57 0 19.14 0 29 C-3.40887983 29.85221996 -5.80434631 30.10783755 -9.25 30.0625 C-10.14203125 30.05347656 -11.0340625 30.04445312 -11.953125 30.03515625 C-12.62859375 30.02355469 -13.3040625 30.01195312 -14 30 C-14.8632601 26.28111134 -15.11721556 22.85703512 -15.09765625 19.04296875 C-15.09443359 17.93115234 -15.09121094 16.81933594 -15.08789062 15.67382812 C-15.07951172 14.52333984 -15.07113281 13.37285156 -15.0625 12.1875 C-15.05798828 11.01767578 -15.05347656 9.84785156 -15.04882812 8.64257812 C-15.0370693 5.76166642 -15.02063426 2.88085956 -15 0 C-12 -1 -12 -1 0 0 Z " fill="#2090CD" transform="translate(140,141)"/>
<path d="M0 0 C1.1859375 0.00257813 2.371875 0.00515625 3.59375 0.0078125 C4.7796875 0.00523437 5.965625 0.00265625 7.1875 0 C10.09375 0.1328125 10.09375 0.1328125 11.09375 1.1328125 C11.18112645 2.98650861 11.20073153 4.84348791 11.19140625 6.69921875 C11.18818359 7.82392578 11.18496094 8.94863281 11.18164062 10.10742188 C11.17326172 11.29142578 11.16488281 12.47542969 11.15625 13.6953125 C11.15173828 14.88318359 11.14722656 16.07105469 11.14257812 17.29492188 C11.13074675 20.24093476 11.11426287 23.18684931 11.09375 26.1328125 C8.34869537 27.50533981 6.09047588 27.26510505 3.03125 27.2578125 C1.40509766 27.26167969 1.40509766 27.26167969 -0.25390625 27.265625 C-2.90625 27.1328125 -2.90625 27.1328125 -3.90625 26.1328125 C-4.00584621 24.29122227 -4.03705411 22.44584283 -4.0390625 20.6015625 C-4.04035156 19.48136719 -4.04164063 18.36117187 -4.04296875 17.20703125 C-4.03910156 16.02753906 -4.03523437 14.84804687 -4.03125 13.6328125 C-4.03511719 12.45332031 -4.03898438 11.27382812 -4.04296875 10.05859375 C-4.04167969 8.93839844 -4.04039062 7.81820312 -4.0390625 6.6640625 C-4.03793457 5.62830078 -4.03680664 4.59253906 -4.03564453 3.52539062 C-3.84515979 0.00321987 -3.57669136 0.16345095 0 0 Z " fill="#2391CD" transform="translate(148.90625,143.8671875)"/>
<path d="M0 0 C3.19384423 0.61654307 5.29707314 1.69475278 7.93359375 3.58203125 C8.66513672 4.10216797 9.39667969 4.62230469 10.15039062 5.15820312 C11.28250977 5.97708008 11.28250977 5.97708008 12.4375 6.8125 C13.18837891 7.34681641 13.93925781 7.88113281 14.71289062 8.43164062 C18.56403127 11.18535861 22.33935696 13.99434279 26 17 C24.2851719 21.87321205 21.69148004 26.14293038 19.0625 30.5625 C18.61970703 31.31724609 18.17691406 32.07199219 17.72070312 32.84960938 C15.63823527 36.37211461 13.56950033 39.80296494 11 43 C5.88453814 42.10255055 3.15006381 38.94856836 0 35 C-4.29573203 27.34742347 -6.53837156 19.2533805 -4.3984375 10.5546875 C-3.195783 6.87383584 -1.77852297 3.44105531 0 0 Z M1 5 C-2.27889259 12.37750832 -2.09133335 20.83492414 0.5625 28.375 C2.69364763 33.14507773 5.74534554 36.05998596 10 39 C10.54269531 38.04738281 11.08539063 37.09476563 11.64453125 36.11328125 C12.36715839 34.84633756 13.08981627 33.57941141 13.8125 32.3125 C14.16892578 31.68666016 14.52535156 31.06082031 14.89257812 30.41601562 C15.41948242 29.49272461 15.41948242 29.49272461 15.95703125 28.55078125 C16.3020166 27.94443848 16.64700195 27.3380957 17.00244141 26.71337891 C17.88531031 25.19698782 18.81994469 23.71099604 19.76171875 22.23046875 C21.24269145 19.98803968 21.24269145 19.98803968 21 17 C19.34691089 15.4585589 19.34691089 15.4585589 17.1328125 14.08203125 C16.32972656 13.55029297 15.52664062 13.01855469 14.69921875 12.47070312 C13.84972656 11.92349609 13.00023437 11.37628906 12.125 10.8125 C11.28324219 10.25369141 10.44148438 9.69488281 9.57421875 9.11914062 C5.59538427 6.15252573 5.59538427 6.15252573 1 5 Z " fill="#2691CA" transform="translate(35,205)"/>
<path d="M0 0 C0 10.23 0 20.46 0 31 C-5.52857969 27.84081161 -10.72205767 24.61103462 -15.9375 21 C-16.71673828 20.47921875 -17.49597656 19.9584375 -18.29882812 19.421875 C-19.03423828 18.91140625 -19.76964844 18.4009375 -20.52734375 17.875 C-21.19499756 17.41867188 -21.86265137 16.96234375 -22.55053711 16.4921875 C-24 15 -24 15 -24 11 C-18.27551714 3.52044647 -9.16596455 0 0 0 Z M-20 12 C-15.32898547 17.15422293 -9.74755221 21.11365178 -4 25 C-3.67 25 -3.34 25 -3 25 C-3 18.07 -3 11.14 -3 4 C-10.04599746 4 -15.03820394 7.41033864 -20 12 Z " fill="#2690C9" transform="translate(63,187)"/>
<path d="M0 0 C4.62 0 9.24 0 14 0 C14 3.96 14 7.92 14 12 C9.38 12 4.76 12 0 12 C0 8.04 0 4.08 0 0 Z " fill="#2290CB" transform="translate(106,159)"/>
</svg>
