<svg width="52" height="54" viewBox="0 0 52 54" fill="none" xmlns="http://www.w3.org/2000/svg">
<path d="M2.62655 0.128956C1.60281 0.44643 0.819959 1.18379 0.308093 2.30006L0.0371047 2.89405L0.00699489 26.4485C-0.0130783 44.78 0.00699489 50.1054 0.107361 50.4638C0.25791 51.0373 0.890215 51.703 1.45226 51.8771C1.74333 51.959 2.91761 52 5.48698 52H9.11019L9.1403 45.7222L9.17041 39.4547L9.49158 38.8402C9.85289 38.1131 10.4852 37.4884 11.248 37.0788L11.7799 36.792H15.4935H19.207L19.7791 37.0788C20.8931 37.6318 21.6258 38.6354 21.8667 39.9155C21.9269 40.233 21.9671 42.783 21.9671 46.224V52H26.4835H31L30.9799 29.1829L30.9498 6.37601L30.6788 5.80251C30.3275 5.0754 29.635 4.35852 28.9425 4.02057C28.3303 3.71333 28.4206 3.72358 18.4041 2.17717C14.54 1.58319 9.76256 0.83559 7.78536 0.528358C4.04171 -0.0451431 3.33914 -0.10659 2.62655 0.128956ZM12.4925 9.04893C12.9943 9.29472 13.2653 9.74533 13.3155 10.411C13.3456 10.8821 13.3155 11.0459 13.1148 11.3327C12.6531 12.0291 12.4022 12.111 10.3648 12.1417C9.26073 12.1622 8.38755 12.1315 8.14667 12.07C7.6047 11.9164 7.05268 11.302 6.96236 10.7387C6.87203 10.1959 7.21327 9.44833 7.70506 9.12062C8.02623 8.89532 8.13664 8.88507 10.0938 8.88507C11.7799 8.88507 12.2115 8.9158 12.4925 9.04893ZM23.2718 9.11038C23.7536 9.44833 23.9945 9.82726 24.0446 10.3393C24.1149 10.9333 23.8138 11.5478 23.3019 11.8652C22.9306 12.1008 22.8503 12.111 20.863 12.111C18.8758 12.111 18.7955 12.1008 18.4241 11.8652C17.9123 11.5478 17.6112 10.9333 17.6814 10.3393C17.7316 9.82726 17.9725 9.44833 18.4543 9.11038C18.7754 8.89532 18.8758 8.88507 20.863 8.88507C22.8503 8.88507 22.9507 8.89532 23.2718 9.11038ZM12.4925 15.6032C12.9943 15.849 13.2653 16.2996 13.3155 16.9653C13.3456 17.4364 13.3155 17.6002 13.1148 17.887C12.6531 18.5834 12.4022 18.6653 10.3648 18.696C9.26073 18.7165 8.38755 18.6858 8.14667 18.6243C7.6047 18.4707 7.05268 17.8563 6.96236 17.293C6.87203 16.7502 7.21327 16.0026 7.70506 15.6749C8.02623 15.4496 8.13664 15.4394 10.0938 15.4394C11.7799 15.4394 12.2115 15.4701 12.4925 15.6032ZM23.2718 15.6647C23.7536 16.0026 23.9945 16.3815 24.0446 16.8936C24.1149 17.4876 23.8138 18.102 23.3019 18.4195C22.9306 18.6551 22.8503 18.6653 20.863 18.6653C18.8758 18.6653 18.7955 18.6551 18.4241 18.4195C17.9123 18.102 17.6112 17.4876 17.6814 16.8936C17.7316 16.3815 17.9725 16.0026 18.4543 15.6647C18.7754 15.4496 18.8758 15.4394 20.863 15.4394C22.8503 15.4394 22.9507 15.4496 23.2718 15.6647ZM12.4925 22.1575C12.9943 22.4033 13.2653 22.8539 13.3155 23.5196C13.3456 23.9907 13.3155 24.1545 13.1148 24.4413C12.6531 25.1377 12.4022 25.2196 10.3648 25.2503C9.26073 25.2708 8.38755 25.2401 8.14667 25.1786C7.6047 25.025 7.05268 24.4105 6.96236 23.8473C6.87203 23.3045 7.21327 22.5569 7.70506 22.2292C8.02623 22.0039 8.13664 21.9937 10.0938 21.9937C11.7799 21.9937 12.2115 22.0244 12.4925 22.1575ZM23.2718 22.219C23.7536 22.5569 23.9945 22.9358 24.0446 23.4479C24.1149 24.0419 23.8138 24.6563 23.3019 24.9738C22.9306 25.2093 22.8503 25.2196 20.863 25.2196C18.8758 25.2196 18.7955 25.2093 18.4241 24.9738C17.9123 24.6563 17.6112 24.0419 17.6814 23.4479C17.7316 22.9358 17.9725 22.5569 18.4543 22.219C18.7754 22.0039 18.8758 21.9937 20.863 21.9937C22.8503 21.9937 22.9507 22.0039 23.2718 22.219ZM12.4925 28.7118C12.9943 28.9576 13.2653 29.4082 13.3155 30.0739C13.3456 30.545 13.3155 30.7088 13.1148 30.9956C12.6531 31.6919 12.4022 31.7739 10.3648 31.8046C9.26073 31.8251 8.38755 31.7944 8.14667 31.7329C7.6047 31.5793 7.05268 30.9648 6.96236 30.4016C6.87203 29.8588 7.21327 29.1112 7.70506 28.7835C8.02623 28.5582 8.13664 28.5479 10.0938 28.5479C11.7799 28.5479 12.2115 28.5787 12.4925 28.7118ZM23.2718 28.7732C23.7536 29.1112 23.9945 29.4901 24.0446 30.0022C24.1149 30.5962 23.8138 31.2106 23.3019 31.5281C22.9306 31.7636 22.8503 31.7739 20.863 31.7739C18.8758 31.7739 18.7955 31.7636 18.4241 31.5281C17.9123 31.2106 17.6112 30.5962 17.6814 30.0022C17.7316 29.4901 17.9725 29.1112 18.4543 28.7732C18.7754 28.5582 18.8758 28.5479 20.863 28.5479C22.8503 28.5479 22.9507 28.5582 23.2718 28.7732Z" fill="#8EC64E"/>
<path d="M35.2543 39.5115L35.251 39.5103C33.2734 38.8045 31.4723 37.1407 30.7069 35.2528C29.7295 32.8533 30.0865 30.1676 31.6629 28.0847C32.9126 26.4245 34.9243 25.3036 37.0527 25.0525L35.2543 39.5115ZM35.2543 39.5115C35.3694 39.5521 35.487 39.5901 35.6068 39.6254C35.4937 39.6278 35.407 39.6309 35.3567 39.6353L35.3494 39.6359L35.3422 39.6366C32.0718 39.9662 29.215 41.4654 27.2597 43.9207M35.2543 39.5115L26.3349 52.5994M43.773 37.5493L43.7716 37.5508C42.8575 38.4961 41.5836 39.2639 40.2941 39.6534C41.076 39.6773 41.4632 39.7215 41.97 39.8275C44.745 40.3983 47.1024 41.8293 48.7745 43.9664L48.7757 43.9679C50.0271 45.5737 50.7302 47.3423 50.9502 49.4098M43.773 37.5493L49.9558 49.5157M43.773 37.5493C47.0721 34.1239 46.3236 28.7185 42.2611 26.2077M43.773 37.5493L42.2611 26.2077M50.9502 49.4098L49.9558 49.5157M50.9502 49.4098C50.9502 49.4096 50.9501 49.4094 50.9501 49.4092L49.9558 49.5157M50.9502 49.4098C51.0079 49.9494 51.0321 50.4466 50.9297 50.9044C50.8153 51.4157 50.5669 51.7852 50.2645 52.1126L50.2639 52.1132C50.2457 52.1329 50.2295 52.1519 50.1987 52.1883L50.1955 52.1921C50.1691 52.2233 50.1232 52.2775 50.0702 52.3322C49.9371 52.4694 49.7684 52.6014 49.5329 52.7028C49.1499 52.8676 48.6447 52.9192 47.982 52.9506C46.7544 53.0088 44.4249 53.0038 39.8488 52.994C39.2115 52.9926 38.5307 52.9912 37.8032 52.9898H37.803L27.2274 52.967L26.9547 52.9664L26.7201 52.8274L26.3354 52.5997L26.8438 51.7386M49.9558 49.5157C50.0683 50.5662 49.9799 50.9469 49.5299 51.4341C49.4957 51.471 49.4664 51.5056 49.439 51.538L49.4389 51.5381C49.4042 51.5792 49.3724 51.6167 49.3374 51.651C48.9678 52.0134 48.2414 52.0118 39.8356 51.994L37.8051 51.9898L27.2295 51.967L26.8438 51.7386M26.8438 51.7386L26.3343 52.5991L26.3349 52.5994M26.8438 51.7386C26.2893 51.4112 26 50.8783 26 50.1856C26 48.3357 26.8197 46.0747 28.0412 44.5445C29.8172 42.314 32.4209 40.9361 35.4425 40.6316L26.3349 52.5994M26.3349 52.5994C25.4487 52.076 25 51.1989 25 50.1856C25 48.0943 25.9061 45.6162 27.2597 43.9207M27.2597 43.9207C27.2594 43.921 27.2591 43.9213 27.2589 43.9216L28.0412 44.5445L27.2597 43.9207ZM42.2611 26.2077C40.742 25.266 38.8195 24.8434 37.0532 25.0524L42.2611 26.2077Z" fill="#172B47" stroke="white" stroke-width="2"/>
</svg>
