<svg width="28" height="28" viewBox="0 0 28 28" fill="none" xmlns="http://www.w3.org/2000/svg">
<path d="M12.1654 23.4997C14.6799 23.4992 17.122 22.6574 19.1028 21.1083L25.3304 27.336L27.3336 25.3328L21.1059 19.1052C22.6558 17.1242 23.4981 14.6815 23.4987 12.1663C23.4987 5.91742 18.4143 0.833008 12.1654 0.833008C5.91645 0.833008 0.832031 5.91742 0.832031 12.1663C0.832031 18.4153 5.91645 23.4997 12.1654 23.4997ZM12.1654 3.66634C16.8531 3.66634 20.6654 7.47859 20.6654 12.1663C20.6654 16.8541 16.8531 20.6663 12.1654 20.6663C7.47761 20.6663 3.66536 16.8541 3.66536 12.1663C3.66536 7.47859 7.47761 3.66634 12.1654 3.66634Z" fill="white"/>
<path d="M14.1679 10.1634C14.7048 10.7017 15.0009 11.4129 15.0009 12.1665H17.8342C17.8355 11.422 17.6891 10.6846 17.4037 9.9969C17.1182 9.30924 16.6993 8.68498 16.1711 8.16021C14.0262 6.01821 10.3075 6.01821 8.16406 8.16021L10.1644 10.1662C11.2411 9.09238 13.0969 9.09521 14.1679 10.1634Z" fill="white"/>
</svg>
