<svg width="9" height="6" viewBox="0 0 9 6" fill="none" xmlns="http://www.w3.org/2000/svg">
<path d="M0.0490813 0.425678L4.32001 5.91687C4.34221 5.94293 4.36979 5.96386 4.40087 5.97821C4.43195 5.99257 4.46577 6 4.5 6C4.53423 6 4.56805 5.99257 4.59913 5.97821C4.6302 5.96386 4.65779 5.94293 4.67999 5.91687L8.95092 0.425679C8.97754 0.392048 8.99411 0.351571 8.9987 0.308923C9.00328 0.266276 8.99571 0.223201 8.97685 0.184676C8.95784 0.146281 8.9285 0.113948 8.89212 0.0913138C8.85574 0.0686793 8.81377 0.0566397 8.77093 0.0565486L0.22907 0.0565478C0.186226 0.0566389 0.144257 0.0686786 0.10788 0.0913131C0.0715032 0.113948 0.0421605 0.14628 0.023151 0.184675C0.00429013 0.2232 -0.00328395 0.266275 0.00130512 0.308922C0.00589325 0.35157 0.0224567 0.392047 0.0490813 0.425678Z" fill="black"/>
</svg>
