<svg width="19" height="19" viewBox="0 0 19 19" fill="none" xmlns="http://www.w3.org/2000/svg">
<path fill-rule="evenodd" clip-rule="evenodd" d="M4.75 0C3.49022 0 2.28204 0.500445 1.39124 1.39124C0.500445 2.28204 0 3.49022 0 4.75V14.25C0 15.5098 0.500445 16.718 1.39124 17.6088C2.28204 18.4996 3.49022 19 4.75 19H14.25C15.5098 19 16.718 18.4996 17.6088 17.6088C18.4996 16.718 19 15.5098 19 14.25V4.75C19 3.49022 18.4996 2.28204 17.6088 1.39124C16.718 0.500445 15.5098 0 14.25 0H4.75ZM13.0435 8.2498C13.1288 8.15873 13.1954 8.05174 13.2394 7.93495C13.2834 7.81815 13.3039 7.69384 13.2999 7.5691C13.2958 7.44436 13.2672 7.32165 13.2157 7.20796C13.1642 7.09427 13.0909 6.99183 12.9998 6.9065C12.9087 6.82117 12.8017 6.75461 12.6849 6.71062C12.5682 6.66664 12.4438 6.64609 12.3191 6.65014C12.1944 6.6542 12.0716 6.68279 11.958 6.73427C11.8443 6.78576 11.7418 6.85913 11.6565 6.9502L8.72765 10.0757L7.2808 8.79035C7.09124 8.63276 6.84784 8.55503 6.60202 8.57358C6.35621 8.59212 6.12723 8.70549 5.96346 8.88974C5.79968 9.07399 5.71394 9.31468 5.72434 9.56097C5.73474 9.80726 5.84048 10.0399 6.0192 10.2097L8.1567 12.1097C8.34165 12.2739 8.5834 12.3596 8.83053 12.3484C9.07766 12.3373 9.31068 12.2301 9.48005 12.0498L13.0435 8.2498Z" fill="#26A7DF"/>
</svg>
