<svg width="18" height="18" viewBox="0 0 18 18" fill="none" xmlns="http://www.w3.org/2000/svg">
<path d="M15.75 10.3486C15.7305 12.6531 15.6025 13.9235 14.7647 14.7612C13.776 15.75 12.1846 15.75 9.00176 15.75C5.81895 15.75 4.22754 15.75 3.23877 14.7612C2.25 13.7725 2.25 12.181 2.25 8.99824C2.25 5.81543 2.25 4.22402 3.23877 3.23525C4.07655 2.39748 5.34695 2.26954 7.65141 2.25" stroke="#26A1D6" stroke-width="1.5" stroke-linecap="round"/>
<path d="M15.75 5.71154H10.2115C9.03376 5.71154 8.29384 6.25253 7.97329 6.55357C7.84984 6.66949 7.78812 6.72746 7.77702 6.73856C7.76592 6.74966 7.70796 6.81138 7.59203 6.93482C7.29099 7.25538 6.75 7.9953 6.75 9.17308V11.25M15.75 5.71154L12.2885 2.25M15.75 5.71154L12.2885 9.17308" stroke="#26A1D6" stroke-width="1.5" stroke-linecap="round" stroke-linejoin="round"/>
</svg>
