<svg width="19" height="19" viewBox="0 0 19 19" fill="none" xmlns="http://www.w3.org/2000/svg">
<path d="M9.39269 18.5322C6.42922 18.5322 3.71617 17.1758 1.96313 14.7966C1.77533 14.5462 1.83793 14.2122 2.0675 14.0244C2.31789 13.8366 2.65185 13.8992 2.83964 14.1288C4.40486 16.2366 6.78399 17.4261 9.39269 17.4261C13.9005 17.4261 17.5527 13.7739 17.5527 9.26609C17.5527 4.75826 13.9005 1.10608 9.39269 1.10608C6.49182 1.10608 3.88312 2.5879 2.40138 5.0713C2.2344 5.34265 1.90047 5.42607 1.62924 5.25909C1.35789 5.09212 1.27448 4.75819 1.44145 4.48696C3.13185 1.66964 6.11624 0 9.39276 0C14.5058 0 18.6588 4.15304 18.6588 9.26609C18.6588 14.3791 14.5058 18.5322 9.39276 18.5322L9.39269 18.5322Z" fill="white"/>
<path d="M1.54582 6.17715C1.29542 6.17715 1.06585 6.01018 0.982299 5.7598C0.898884 5.44681 1.06571 5.13367 1.37886 5.02929L4.71806 4.06921C5.03105 3.9858 5.34419 4.15263 5.44857 4.46577C5.53199 4.77876 5.36516 5.0919 5.05201 5.19628L1.71281 6.15636C1.65007 6.17717 1.58747 6.17717 1.54583 6.17717L1.54582 6.17715Z" fill="white"/>
<path d="M1.54495 6.17718C1.29456 6.17718 1.06499 6.0102 0.981437 5.75982L0.0213618 2.39982C-0.0620532 2.08684 0.104777 1.7737 0.417921 1.66931C0.730905 1.5859 1.04405 1.75273 1.14843 2.06587L2.10851 5.42587C2.19192 5.73885 2.02509 6.052 1.71195 6.15638C1.6492 6.1772 1.58661 6.1772 1.54497 6.1772L1.54495 6.17718Z" fill="white"/>
<path d="M6.5943 10.4348C6.44814 10.4348 6.32295 10.393 6.19774 10.2887C5.94735 10.0799 5.92639 9.70431 6.15596 9.45395L9.22378 5.96873C9.43254 5.71834 9.80813 5.69738 10.0585 5.92695C10.3089 6.13571 10.3298 6.5113 10.1003 6.76166L7.03245 10.247C6.92821 10.3722 6.76124 10.4348 6.59426 10.4348L6.5943 10.4348Z" fill="white"/>
<path d="M12.7305 10.4349C12.5635 10.4349 12.4175 10.3723 12.2922 10.2471L9.22434 6.76175C9.01558 6.51136 9.03654 6.1566 9.28693 5.92704C9.53733 5.71828 9.89208 5.73925 10.1008 5.96882L13.1687 9.45404C13.3774 9.70443 13.3565 10.0592 13.1061 10.2887C13.0017 10.3931 12.8765 10.4349 12.7305 10.4349V10.4349Z" fill="white"/>
<path d="M9.66241 6.99121L7.67969 9.24513V11.5826H9.14067V9.9548L10.2676 9.93384V11.5826H11.6658V9.24511L9.66241 6.99121Z" fill="white"/>
</svg>
