<svg width="23" height="18" viewBox="0 0 23 18" fill="none" xmlns="http://www.w3.org/2000/svg">
<path d="M6.00142 13.8771C4.7537 13.8771 3.55708 13.403 2.6748 12.5591C1.79253 11.7152 1.29687 10.5706 1.29688 9.37715C1.29687 8.18367 1.79253 7.03908 2.6748 6.19517C3.55708 5.35125 4.7537 4.87715 6.00142 4.87715C6.29611 3.56433 7.15818 2.41063 8.39801 1.66986C9.01191 1.30307 9.70007 1.0487 10.4232 0.921261C11.1463 0.793826 11.8903 0.795827 12.6125 0.927149C13.3348 1.05847 14.0213 1.31654 14.6327 1.68663C15.2442 2.05671 15.7686 2.53157 16.1762 3.08408C16.5837 3.63659 16.8664 4.25593 17.008 4.90674C17.1496 5.55756 17.1473 6.22711 17.0014 6.87715H18.0014C18.9297 6.87715 19.8199 7.2459 20.4763 7.90228C21.1327 8.55865 21.5014 9.44889 21.5014 10.3771C21.5014 11.3054 21.1327 12.1956 20.4763 12.852C19.8199 13.5084 18.9297 13.8771 18.0014 13.8771H17.0014M8 10.8772L11 7.8772M11 7.8772L14 10.8772M11 7.8772V16.8772" stroke="white" stroke-width="1.5" stroke-linecap="round" stroke-linejoin="round"/>
</svg>
