<svg width="45" height="44" viewBox="0 0 45 44" fill="none" xmlns="http://www.w3.org/2000/svg">
<path d="M25.1371 34.5089C25.1371 33.4492 24.439 32.5496 23.4785 32.2456C23.2022 28.3318 19.9294 25.2319 15.9464 25.2319H12.1454L11.5484 16.602H33.3111L31.955 12.2871H30.4838L29.5345 9.35297H22.7208V4.81832L26.3982 3.96023C27.2817 3.75407 27.8987 2.97651 27.8987 2.06927V1.98393C27.8987 1.38383 27.628 0.827215 27.156 0.456653C26.684 0.0861773 26.0789 -0.0446193 25.4961 0.0977788L18.8374 1.72543V9.35314H12.0237L11.0744 12.2873H9.60317L8.24708 16.6022H10.2508L10.8478 25.232H9.9055C5.92239 25.232 2.64981 28.332 2.37335 32.2458C1.413 32.5496 0.714844 33.4493 0.714844 34.5089C0.714844 35.1882 1.00179 35.8018 1.46087 36.2349C1.00179 36.6679 0.714844 37.2815 0.714844 37.9608C0.714844 39.0261 1.42039 39.9297 2.38873 40.2288C2.65591 42.3293 4.45441 43.9585 6.62622 43.9585H19.2257C21.3976 43.9585 23.1961 42.3293 23.4632 40.2288C24.4316 39.9296 25.1371 39.0261 25.1371 37.9608C25.1371 37.2815 24.8502 36.6679 24.3911 36.2349C24.8502 35.8018 25.1371 35.1882 25.1371 34.5089ZM20.1319 2.74164L25.8033 1.3553C25.8986 1.33172 25.9979 1.33025 26.0938 1.35098C26.1898 1.37172 26.2796 1.41411 26.3567 1.47492C26.434 1.53529 26.4965 1.61254 26.5394 1.70078C26.5824 1.78902 26.6045 1.8859 26.6042 1.98402V2.06935C26.6047 2.21556 26.5554 2.35759 26.4646 2.47212C26.3737 2.58666 26.2466 2.66691 26.1041 2.6997L21.4264 3.79111V9.35314H20.132V2.74164H20.1319ZM12.9654 10.6475H28.5929L29.1233 12.2872H12.435L12.9654 10.6475ZM10.0108 15.3077L10.5532 13.5817H31.0049L31.5474 15.3077H10.0108ZM9.90558 26.5263H15.9465C19.1778 26.5263 21.8449 28.9889 22.1699 32.1357H3.68217C4.0071 28.9889 6.67425 26.5263 9.90558 26.5263ZM3.088 39.0395C2.49315 39.0395 2.00932 38.5556 2.00932 37.9608C2.00932 37.366 2.49323 36.8821 3.088 36.8821H3.80567L6.85773 39.0396H3.088V39.0395ZM11.891 38.675L10.2378 39.8435L6.04829 36.8821H9.35473L11.891 38.675ZM11.5973 36.8821H19.9763L15.7867 39.8435L11.5973 36.8821ZM19.2257 42.6641H6.62622C5.20679 42.6641 4.01613 41.6655 3.71981 40.3341H8.68914L10.2378 41.4287L13.0123 39.4676L15.7869 41.4287L17.3356 40.3341H22.1322C21.8358 41.6655 20.6452 42.6641 19.2257 42.6641ZM22.764 39.0395H19.1668L22.2189 36.8821H22.7639C23.3587 36.8821 23.8426 37.366 23.8426 37.9607C23.8426 38.5557 23.3588 39.0395 22.764 39.0395ZM22.764 35.5877H3.088C2.49315 35.5877 2.00932 35.1038 2.00932 34.509C2.00932 33.9141 2.49323 33.4303 3.088 33.4303H22.764C23.3588 33.4303 23.8426 33.9141 23.8426 34.509C23.8426 35.1038 23.3588 35.5877 22.764 35.5877Z" fill="#26A1D6"/>
<path d="M43.7776 25.2319V16.9473H39.8942V19.7951H36.0107V17.8965H32.1273V19.7951H30.876V17.8965H26.9925V25.2319H25.4512L27.4907 43.9585H42.6753L44.7148 25.2319H43.7776ZM41.1887 18.2417H42.4832V25.2319H41.1887V18.2417ZM38.5998 21.0896H39.8943V27.6934L38.9209 30.4098H38.5998V21.0896ZM36.0108 21.0896H37.3053V30.4098H36.0108V21.0896ZM33.4219 19.191H34.7164V30.4098H33.4219V19.191ZM30.8761 21.0896H32.1274V30.4098H31.2453L30.8761 29.3792V21.0896ZM28.2871 19.191H29.5816V25.7667L29.3899 25.2319H28.2871V19.191ZM41.5142 42.6641H28.652L26.8945 26.5265H28.4788L30.3342 31.7044H39.8321L41.6875 26.5265H43.2719L41.5142 42.6641Z" fill="#26A1D6"/>
<path d="M28.9007 32.9987L29.8124 41.3696H40.3524L41.264 32.9987H28.9007ZM39.1913 40.0751H30.9735L30.3437 34.2932H39.8209L39.1913 40.0751ZM8.35156 27.907H9.64604V29.2015H8.35156V27.907ZM10.969 28.6837H12.2635V29.9782H10.969V28.6837ZM13.5873 28.6837H14.8818V29.9782H13.5873V28.6837ZM16.2047 27.907H17.4992V29.2015H16.2047V27.907ZM13.6287 17.8965H20.4462V19.191H13.6287V17.8965ZM21.7407 17.8965H23.454V19.191H21.7407V17.8965Z" fill="#26A1D6"/>
<path d="M34.4795 36.5369H35.774V37.8313H34.4795V36.5369ZM37.0684 36.5369H38.2766V37.8313H37.0684V36.5369ZM31.8906 36.5369H33.1851V37.8313H31.8906V36.5369Z" fill="#26A1D6"/>
</svg>
