<svg width="40" height="44" viewBox="0 0 40 44" fill="none" xmlns="http://www.w3.org/2000/svg">
<path d="M38.9797 38.5H36.5219L34.6897 15.5753C34.5625 13.9734 33.0569 12.7188 31.2522 12.7188H25.1128C25.718 12.1244 26.1554 11.3806 26.3806 10.5628C26.6058 9.74491 26.6108 8.88207 26.3952 8.06167C26.1795 7.24126 25.7508 6.49243 25.1526 5.89105C24.5543 5.28967 23.8077 4.8571 22.9884 4.63719C23.8547 3.61625 25.5528 2.0625 27.8766 2.0625C28.0589 2.0625 28.2338 1.99007 28.3627 1.86114C28.4916 1.7322 28.5641 1.55734 28.5641 1.375C28.5641 1.19266 28.4916 1.0178 28.3627 0.888864C28.2338 0.759933 28.0589 0.6875 27.8766 0.6875C24.3084 0.6875 22.0328 3.52 21.3659 4.48938C20.4473 4.56515 19.5697 4.90315 18.8376 5.46319C18.1055 6.02323 17.5496 6.78174 17.236 7.64854C16.9225 8.51534 16.8645 9.45395 17.0689 10.3528C17.2733 11.2516 17.7315 12.0728 18.3891 12.7188H12.3253C10.5309 12.7188 9.02532 13.9734 8.88782 15.5753L8.7022 17.8441C8.69497 17.9343 8.70561 18.0252 8.73348 18.1113C8.76136 18.1975 8.80594 18.2774 8.86467 18.3463C8.9234 18.4153 8.99514 18.472 9.07579 18.5132C9.15644 18.5544 9.24441 18.5793 9.3347 18.5866C9.42498 18.5938 9.5158 18.5832 9.60198 18.5553C9.68815 18.5274 9.76799 18.4828 9.83694 18.4241C9.90589 18.3654 9.96259 18.2936 10.0038 18.213C10.045 18.1323 10.07 18.0443 10.0772 17.9541L10.2628 15.6853C10.335 14.7916 11.2391 14.0938 12.3253 14.0938H31.2591C32.3453 14.0938 33.2494 14.7813 33.3216 15.6853L33.9163 23.1069H33.8509C33.1012 23.1069 32.3822 23.4045 31.8517 23.9343C31.3213 24.4641 31.0228 25.1828 31.0219 25.9325V26.4447C31.0219 26.7246 30.9107 26.993 30.7128 27.1909C30.5149 27.3888 30.2465 27.5 29.9666 27.5C29.6867 27.5 29.4183 27.3888 29.2204 27.1909C29.0224 26.993 28.9113 26.7246 28.9113 26.4447V25.9325C28.9103 25.1828 28.6119 24.4641 28.0814 23.9343C27.551 23.4045 26.8319 23.1069 26.0822 23.1069H25.9516C25.2019 23.1069 24.4828 23.4045 23.9523 23.9343C23.4219 24.4641 23.1234 25.1828 23.1225 25.9325V31.2572C23.1246 31.4435 23.0762 31.6269 22.9823 31.7879C22.8885 31.9489 22.7528 32.0815 22.5897 32.1716C22.4537 32.2431 22.3457 32.3581 22.2827 32.4982C22.2197 32.6383 22.2055 32.7955 22.2423 32.9447C22.2791 33.0938 22.3648 33.2263 22.4857 33.3211C22.6066 33.4159 22.7558 33.4674 22.9094 33.4675C23.0209 33.4683 23.1308 33.4411 23.2291 33.3884C23.4335 33.2799 23.6201 33.1408 23.7825 32.9759C24.0099 32.7513 24.1902 32.4836 24.3129 32.1885C24.4357 31.8934 24.4985 31.5768 24.4975 31.2572V25.9325C24.4984 25.5475 24.652 25.1785 24.9246 24.9065C25.1972 24.6346 25.5665 24.4819 25.9516 24.4819H26.0788C26.4638 24.4819 26.8331 24.6346 27.1057 24.9065C27.3783 25.1785 27.5319 25.5475 27.5328 25.9325V26.4447C27.5328 27.0892 27.7889 27.7074 28.2446 28.1632C28.7004 28.6189 29.3186 28.875 29.9631 28.875C30.6077 28.875 31.2259 28.6189 31.6816 28.1632C32.1374 27.7074 32.3934 27.0892 32.3934 26.4447V25.9325C32.3944 25.5475 32.548 25.1785 32.8205 24.9065C33.0931 24.6346 33.4625 24.4819 33.8475 24.4819H34.0228L35.1434 38.5H21.5172C21.3349 38.5 21.16 38.5724 21.0311 38.7014C20.9021 38.8303 20.8297 39.0052 20.8297 39.1875C20.8297 39.3698 20.9021 39.5447 21.0311 39.6736C21.16 39.8026 21.3349 39.875 21.5172 39.875H38.1959C38.0565 40.4577 37.7265 40.9771 37.2581 41.3508C36.7898 41.7245 36.21 41.931 35.6109 41.9375H19.6231C19.7175 41.7443 19.7823 41.538 19.8156 41.3256L21.4278 31.3844C22.0301 30.3389 22.3466 29.1534 22.3456 27.9469C22.3491 24.4303 19.7984 21.5806 16.4606 21.3125C15.8809 20.5378 15.1286 19.9088 14.2634 19.4756C13.3982 19.0424 12.4439 18.8169 11.4763 18.8169C10.5086 18.8169 9.55436 19.0424 8.68914 19.4756C7.82392 19.9088 7.0716 20.5378 6.49188 21.3125C3.1747 21.5806 0.617197 24.4303 0.617197 27.9469C0.61516 29.1531 0.930506 30.3386 1.53157 31.3844L3.14376 41.3256C3.26293 41.9081 3.58669 42.4287 4.05643 42.7931C4.52618 43.1576 5.11088 43.3418 5.7047 43.3125H35.6109C36.6938 43.3007 37.7276 42.8597 38.4856 42.0863C39.2435 41.3129 39.6635 40.2703 39.6534 39.1875C39.6535 39.0075 39.5829 38.8347 39.457 38.7062C39.331 38.5776 39.1596 38.5036 38.9797 38.5ZM18.3134 9.28125C18.3134 8.60138 18.5151 7.93677 18.8928 7.37148C19.2705 6.80618 19.8074 6.36559 20.4355 6.10541C21.0636 5.84524 21.7548 5.77716 22.4216 5.9098C23.0884 6.04244 23.7009 6.36983 24.1816 6.85057C24.6624 7.33131 24.9898 7.94382 25.1224 8.61063C25.255 9.27744 25.187 9.9686 24.9268 10.5967C24.6666 11.2248 24.226 11.7617 23.6607 12.1394C23.0954 12.5171 22.4308 12.7188 21.7509 12.7188C20.8393 12.7188 19.9649 12.3566 19.3203 11.7119C18.6756 11.0673 18.3134 10.1929 18.3134 9.28125ZM6.88032 22.6669C6.93982 22.6639 6.99871 22.6535 7.05563 22.6359H7.1072C7.7159 22.6454 8.31616 22.7799 8.87063 23.0312C8.95957 23.0743 9.05713 23.0967 9.15595 23.0966C9.31357 23.0982 9.46697 23.0457 9.59046 22.9477C9.71395 22.8497 9.80002 22.7123 9.83426 22.5584C9.8685 22.4046 9.84882 22.2436 9.77853 22.1025C9.70823 21.9614 9.59159 21.8488 9.44813 21.7834C9.07908 21.6136 8.69307 21.4834 8.29657 21.395C9.17321 20.6132 10.3068 20.1811 11.4814 20.1811C12.656 20.1811 13.7896 20.6132 14.6663 21.395C14.2687 21.4834 13.8815 21.6136 13.5113 21.7834C13.3681 21.8487 13.2516 21.961 13.1813 22.1017C13.111 22.2425 13.091 22.4031 13.1248 22.5567C13.1586 22.7104 13.2441 22.8478 13.367 22.946C13.4898 23.0443 13.6427 23.0974 13.8 23.0966C13.8999 23.0967 13.9986 23.0744 14.0888 23.0312C14.6415 22.7775 15.2407 22.6406 15.8488 22.6291H15.9072C15.9641 22.6466 16.023 22.657 16.0825 22.66C18.8325 22.7356 20.9741 25.0662 20.9741 27.94C20.974 28.8245 20.7605 29.6959 20.3519 30.4803H2.61095C2.2035 29.6956 1.99125 28.8242 1.9922 27.94C1.9922 25.0594 4.14063 22.7425 6.88032 22.6669ZM16.0516 41.9375L17.2513 33.0653C17.2754 32.883 17.2262 32.6985 17.1143 32.5525C17.0025 32.4065 16.8372 32.3109 16.6549 32.2867C16.4725 32.2626 16.2881 32.3118 16.142 32.4237C15.996 32.5355 15.9004 32.7008 15.8763 32.8831L14.6663 41.9375H12.1672V32.9038C12.1672 32.7214 12.0948 32.5465 11.9658 32.4176C11.8369 32.2887 11.662 32.2163 11.4797 32.2163C11.2974 32.2163 11.1225 32.2887 10.9936 32.4176C10.8646 32.5465 10.7922 32.7214 10.7922 32.9038V41.9375H8.29657L7.0797 32.8831C7.06773 32.7928 7.03811 32.7058 6.9925 32.627C6.9469 32.5481 6.88622 32.4791 6.81392 32.4237C6.74162 32.3683 6.65912 32.3277 6.57113 32.3042C6.48314 32.2807 6.39139 32.2748 6.3011 32.2867C6.21082 32.2987 6.12378 32.3283 6.04494 32.3739C5.96611 32.4195 5.89703 32.4802 5.84165 32.5525C5.78627 32.6248 5.74567 32.7073 5.72217 32.7953C5.69867 32.8833 5.69273 32.975 5.7047 33.0653L6.91126 41.9375H5.7047C5.43996 41.958 5.17628 41.8864 4.95828 41.7348C4.74028 41.5832 4.58137 41.3609 4.50845 41.1056L3.00282 31.8622H19.96L18.4578 41.1056C18.3862 41.361 18.2281 41.5836 18.0105 41.7353C17.7929 41.887 17.5294 41.9585 17.265 41.9375H16.0516Z" fill="#26A1D6"/>
</svg>
