<svg width="45" height="44" viewBox="0 0 45 44" fill="none" xmlns="http://www.w3.org/2000/svg">
<path d="M20.9896 31.6868C20.8183 31.6868 20.654 31.7548 20.5329 31.8759C20.4118 31.997 20.3438 32.1613 20.3438 32.3326V43.3541C20.3438 43.5254 20.4118 43.6896 20.5329 43.8107C20.654 43.9319 20.8183 43.9999 20.9896 43.9999C21.1609 43.9999 21.3251 43.9319 21.4462 43.8107C21.5674 43.6896 21.6354 43.5254 21.6354 43.3541V32.3326C21.6354 32.1613 21.5674 31.997 21.4462 31.8759C21.3251 31.7548 21.1609 31.6868 20.9896 31.6868Z" fill="#26A1D6"/>
<path d="M41.5772 31.114C41.8936 31.6099 42.1908 32.1178 42.4682 32.6365C42.6451 32.9677 43.0801 33.0773 43.3937 32.871C43.6687 32.6902 43.7622 32.3178 43.6073 32.0279C39.4082 24.1694 31.2696 19.2876 22.3674 19.2876C13.4698 19.2876 5.33306 24.1657 1.13252 32.0184C1.05362 32.1692 1.03747 32.3452 1.0876 32.5079C1.13774 32.6706 1.25009 32.8069 1.40022 32.8872C1.55035 32.9675 1.72611 32.9852 1.88927 32.9366C2.05243 32.888 2.18978 32.7769 2.27145 32.6275C2.54754 32.1119 2.84318 31.607 3.15773 31.114L4.36781 31.9746C2.27738 35.269 1.06231 39.1722 1.05664 43.3534C1.05644 43.5246 1.12427 43.689 1.24521 43.8103C1.36616 43.9315 1.53033 43.9998 1.7016 44H1.70246C1.87358 44 2.03769 43.9321 2.15877 43.8111C2.27985 43.6902 2.34801 43.5262 2.34828 43.3551C2.36323 32.3157 11.3439 23.3346 22.3674 23.3346C33.391 23.3346 42.3716 32.3157 42.3867 43.355C42.3869 43.5261 42.455 43.6902 42.5761 43.8111C42.6972 43.932 42.8613 44 43.0325 44H43.0333C43.2046 43.9997 43.3688 43.9314 43.4897 43.8102C43.6107 43.6889 43.6785 43.5246 43.6783 43.3533C43.6726 39.1721 42.4575 35.2689 40.3671 31.9745L41.5772 31.114ZM5.09278 30.9051L3.88244 30.0442C5.78969 27.3933 8.24519 25.1838 11.0821 23.5661L11.778 24.8709C9.14551 26.3875 6.86576 28.4514 5.09278 30.9051ZM21.7217 22.0537C18.5686 22.1483 15.5855 22.9332 12.9169 24.2619L12.2217 22.9585C15.1314 21.5117 18.3625 20.6833 21.7217 20.5889V22.0537ZM31.8181 24.2619C29.1494 22.9332 26.1662 22.1483 23.0132 22.0537V20.589C26.3727 20.6834 29.6038 21.5117 32.5134 22.9583L31.8181 24.2619ZM32.957 24.871L33.653 23.5659C36.49 25.1837 38.9455 27.3931 40.8527 30.0442L39.6421 30.9051C37.8692 28.4513 35.5894 26.3874 32.957 24.871Z" fill="#26A1D6"/>
<path d="M22.3659 26.865C13.2901 26.865 5.8932 34.2615 5.87695 43.353C5.87666 43.5243 5.94441 43.6887 6.06532 43.8101C6.18622 43.9314 6.35037 43.9997 6.52166 44.0001H6.52277C6.69385 44.0001 6.85793 43.9322 6.97901 43.8113C7.10009 43.6905 7.16828 43.5265 7.16859 43.3555C7.17641 38.9463 9.06781 34.9703 12.0763 32.1914V43.3542C12.0763 43.5255 12.1444 43.6898 12.2655 43.8109C12.3866 43.932 12.5509 44.0001 12.7221 44.0001C12.8934 44.0001 13.0577 43.932 13.1788 43.8109C13.2999 43.6898 13.368 43.5255 13.368 43.3542V31.1229C13.8372 30.7758 14.3259 30.456 14.8317 30.165V43.3542C14.8317 43.5254 14.8998 43.6897 15.0209 43.8108C15.142 43.9319 15.3063 44 15.4775 44C15.6488 44 15.8131 43.9319 15.9342 43.8108C16.0553 43.6897 16.1234 43.5254 16.1234 43.3542V29.5027C17.463 28.8951 18.8845 28.4872 20.3426 28.2921V30.2658C20.3426 30.4371 20.4106 30.6013 20.5317 30.7225C20.6528 30.8436 20.8171 30.9116 20.9884 30.9116C21.1597 30.9116 21.3239 30.8436 21.445 30.7225C21.5662 30.6013 21.6342 30.4371 21.6342 30.2658V28.1746C21.8768 28.163 22.1207 28.1566 22.3661 28.1566C22.6116 28.1566 22.8555 28.163 23.0981 28.1746V43.3542C23.0981 43.4391 23.1148 43.523 23.1472 43.6014C23.1797 43.6797 23.2272 43.7509 23.2872 43.8109C23.3472 43.8709 23.4184 43.9185 23.4967 43.9509C23.5751 43.9834 23.6591 44.0001 23.7439 44.0001C23.8287 44.0001 23.9127 43.9834 23.991 43.9509C24.0694 43.9185 24.1406 43.8709 24.2005 43.8109C24.2605 43.7509 24.3081 43.6797 24.3405 43.6014C24.373 43.523 24.3897 43.4391 24.3897 43.3542V28.2921C25.8477 28.4872 27.2692 28.8951 28.6089 29.5027V43.3542C28.6089 43.5255 28.6769 43.6898 28.798 43.8109C28.9192 43.932 29.0834 44.0001 29.2547 44.0001C29.426 44.0001 29.5903 43.932 29.7114 43.8109C29.8325 43.6898 29.9005 43.5255 29.9005 43.3542V30.1651C30.4064 30.4561 30.8951 30.7759 31.3643 31.1229V43.3542C31.3643 43.4391 31.381 43.523 31.4135 43.6014C31.4459 43.6797 31.4935 43.7509 31.5535 43.8109C31.6134 43.8709 31.6846 43.9185 31.763 43.9509C31.8413 43.9834 31.9253 44.0001 32.0101 44.0001C32.0949 44.0001 32.1789 43.9834 32.2573 43.9509C32.3356 43.9185 32.4068 43.8709 32.4668 43.8109C32.5268 43.7509 32.5743 43.6797 32.6068 43.6014C32.6392 43.523 32.6559 43.4391 32.6559 43.3542V32.1914C35.6643 34.9702 37.5558 38.9463 37.5637 43.3555C37.564 43.5265 37.6321 43.6905 37.7532 43.8114C37.8743 43.9322 38.0384 44.0001 38.2095 44.0001H38.2106C38.3819 43.9997 38.546 43.9314 38.6669 43.8101C38.7878 43.6887 38.8556 43.5243 38.8553 43.353C38.8386 34.2615 31.4417 26.865 22.3659 26.865Z" fill="#26A1D6"/>
<path d="M38.4392 34.0757C38.3518 33.9307 38.2109 33.8257 38.047 33.7835C37.883 33.7413 37.709 33.7652 37.5624 33.85C37.4159 33.9348 37.3085 34.0737 37.2634 34.2369C37.2182 34.4001 37.239 34.5745 37.3212 34.7225C38.8319 37.3342 39.6304 40.319 39.6304 43.3542C39.6304 43.5255 39.6985 43.6897 39.8196 43.8108C39.9407 43.932 40.105 44 40.2762 44C40.4475 44 40.6118 43.932 40.7329 43.8108C40.854 43.6897 40.9221 43.5255 40.9221 43.3542C40.922 40.0922 40.0635 36.8837 38.4392 34.0757ZM36.9932 31.9348C33.4475 27.3995 28.1163 24.7985 22.3663 24.7985C17.4099 24.7985 12.7501 26.7286 9.24549 30.2333C5.7407 33.7381 3.81055 38.3979 3.81055 43.3543C3.81055 43.4391 3.82725 43.5231 3.85971 43.6014C3.89216 43.6798 3.93973 43.751 3.9997 43.8109C4.05967 43.8709 4.13087 43.9185 4.20922 43.9509C4.28758 43.9834 4.37156 44.0001 4.45637 44.0001C4.54118 44.0001 4.62516 43.9834 4.70351 43.9509C4.78187 43.9185 4.85306 43.8709 4.91303 43.8109C4.973 43.751 5.02057 43.6798 5.05303 43.6014C5.08548 43.5231 5.10219 43.4391 5.10219 43.3543C5.10219 33.8348 12.8469 26.0901 22.3663 26.0901C27.7161 26.0901 32.6764 28.5104 35.9756 32.7303C36.0811 32.8653 36.2359 32.9528 36.4059 32.9736C36.5759 32.9944 36.7472 32.9469 36.8821 32.8414C37.0171 32.7359 37.1046 32.5811 37.1254 32.4111C37.1462 32.2411 37.0987 32.0697 36.9932 31.9348ZM25.8105 11.0215H24.4329C24.2616 11.0215 24.0973 11.0895 23.9762 11.2106C23.8551 11.3318 23.7871 11.496 23.7871 11.6673V13.7769H21.6344V11.6673C21.6344 11.496 21.5664 11.3318 21.4453 11.2106C21.3241 11.0895 21.1599 11.0215 20.9886 11.0215H16.1666C15.9954 11.0215 15.8311 11.0895 15.71 11.2106C15.5889 11.3318 15.5208 11.496 15.5208 11.6673V15.1115C15.5208 16.9869 17.0466 18.5127 18.922 18.5127H28.5658C28.7371 18.5127 28.9013 18.4446 29.0225 18.3235C29.1436 18.2024 29.2116 18.0381 29.2116 17.8668V14.4226C29.2117 12.5473 27.6859 11.0215 25.8105 11.0215ZM19.5679 12.3131H20.3429V13.7769H19.5679V12.3131ZM27.9201 17.2211H18.9221C17.7589 17.2211 16.8125 16.2748 16.8125 15.1115V12.3131H18.2762V14.4227C18.2762 14.594 18.3443 14.7583 18.4654 14.8794C18.5865 15.0005 18.7508 15.0685 18.9221 15.0685H24.4328C24.6041 15.0685 24.7683 15.0005 24.8895 14.8794C25.0106 14.7583 25.0786 14.594 25.0786 14.4227V12.3131H25.8105C26.9737 12.3131 27.9201 13.2595 27.9201 14.4227V17.2211Z" fill="#26A1D6"/>
<path d="M22.4527 15.8435H22.3665C22.1953 15.8435 22.031 15.9115 21.9099 16.0326C21.7888 16.1538 21.7207 16.318 21.7207 16.4893C21.7207 16.6606 21.7888 16.8249 21.9099 16.946C22.031 17.0671 22.1953 17.1351 22.3665 17.1351H22.4527C22.6239 17.1351 22.7882 17.0671 22.9093 16.946C23.0304 16.8249 23.0985 16.6606 23.0985 16.4893C23.0985 16.318 23.0304 16.1538 22.9093 16.0326C22.7882 15.9115 22.6239 15.8435 22.4527 15.8435ZM24.5192 15.8435H24.4331C24.2618 15.8435 24.0975 15.9115 23.9764 16.0326C23.8553 16.1538 23.7873 16.318 23.7873 16.4893C23.7873 16.6606 23.8553 16.8249 23.9764 16.946C24.0975 17.0671 24.2618 17.1351 24.4331 17.1351H24.5192C24.6905 17.1351 24.8547 17.0671 24.9759 16.946C25.097 16.8249 25.165 16.6606 25.165 16.4893C25.165 16.318 25.097 16.1538 24.9759 16.0326C24.8547 15.9115 24.6905 15.8435 24.5192 15.8435ZM20.3861 15.8435H20.3C20.1287 15.8435 19.9645 15.9115 19.8433 16.0326C19.7222 16.1538 19.6542 16.318 19.6542 16.4893C19.6542 16.6606 19.7222 16.8249 19.8433 16.946C19.9645 17.0671 20.1287 17.1351 20.3 17.1351H20.3861C20.5574 17.1351 20.7217 17.0671 20.8428 16.946C20.9639 16.8249 21.0319 16.6606 21.0319 16.4893C21.0319 16.318 20.9639 16.1538 20.8428 16.0326C20.7217 15.9115 20.5574 15.8435 20.3861 15.8435ZM15.7051 17.8432L13.7797 14.9876C12.7312 13.4325 10.6132 13.0204 9.05818 14.0688L7.9159 14.8391C7.84557 14.8865 7.78528 14.9473 7.73846 15.018C7.69164 15.0887 7.65921 15.1679 7.64301 15.2512C7.62682 15.3344 7.62719 15.4201 7.64409 15.5032C7.661 15.5863 7.6941 15.6652 7.74153 15.7356L8.92085 17.4846L7.13601 18.688L5.95661 16.9388C5.9092 16.8685 5.84841 16.8082 5.77771 16.7614C5.707 16.7146 5.62776 16.6822 5.54452 16.666C5.46128 16.6498 5.37566 16.6501 5.29256 16.667C5.20946 16.684 5.1305 16.7171 5.06019 16.7645L1.06212 19.4601C0.991807 19.5075 0.931516 19.5683 0.884694 19.639C0.837872 19.7097 0.805435 19.7889 0.789235 19.8722C0.773036 19.9554 0.773391 20.041 0.79028 20.1241C0.807169 20.2072 0.840262 20.2862 0.887669 20.3565L2.81327 23.2124C3.4694 24.1855 4.54448 24.711 5.63838 24.711C6.31423 24.7114 6.97473 24.5094 7.53468 24.131L15.5307 18.7396C15.8221 18.5431 15.9018 18.1348 15.7051 17.8432ZM5.24676 18.1964L6.06506 19.4102L5.42251 19.8434L4.60412 18.6296L5.24676 18.1964ZM6.81254 23.06C5.84807 23.7103 4.53434 23.4546 3.88405 22.4903L2.31956 20.1699L3.53334 19.3515L4.71266 21.1006C4.90869 21.3915 5.31801 21.4714 5.60916 21.2751L10.1784 18.1944C10.4697 17.998 10.5495 17.5896 10.3527 17.298L9.17333 15.5488L9.78022 15.1397C10.7447 14.4892 12.0584 14.7449 12.7088 15.7095L14.2732 18.0297L6.81254 23.06Z" fill="#26A1D6"/>
<path d="M9.86598 20.1182C9.81855 20.0479 9.75773 19.9876 9.68699 19.9408C9.61626 19.894 9.537 19.8616 9.45374 19.8455C9.37048 19.8293 9.28485 19.8297 9.20174 19.8466C9.11863 19.8636 9.03968 19.8967 8.96939 19.9442L8.89798 19.9924C8.75817 20.0891 8.66213 20.2371 8.6307 20.4041C8.59927 20.5712 8.63498 20.7439 8.73009 20.8848C8.82519 21.0258 8.97203 21.1235 9.13873 21.1568C9.30543 21.1902 9.47855 21.1564 9.62054 21.0629L9.69195 21.0147C9.76225 20.9673 9.82251 20.9065 9.8693 20.8357C9.91609 20.765 9.94848 20.6858 9.96464 20.6025C9.9808 20.5193 9.98041 20.4337 9.96348 20.3506C9.94655 20.2675 9.91342 20.1885 9.86598 20.1182ZM11.5795 18.963C11.5321 18.8927 11.4712 18.8324 11.4005 18.7856C11.3298 18.7388 11.2505 18.7064 11.1672 18.6902C11.084 18.674 10.9984 18.6744 10.9152 18.6914C10.8321 18.7083 10.7532 18.7415 10.6829 18.7889L10.6115 18.8372C10.4717 18.9339 10.3756 19.0818 10.3442 19.2489C10.3128 19.416 10.3485 19.5887 10.4436 19.7296C10.5387 19.8705 10.6855 19.9682 10.8522 20.0016C11.0189 20.0349 11.1921 20.0012 11.334 19.9077L11.4055 19.8595C11.4758 19.812 11.536 19.7512 11.5828 19.6805C11.6296 19.6098 11.662 19.5305 11.6782 19.4473C11.6943 19.364 11.6939 19.2784 11.677 19.1953C11.6601 19.1122 11.6269 19.0333 11.5795 18.963ZM8.15255 21.2736C8.10513 21.2032 8.04432 21.143 7.97358 21.0961C7.90285 21.0493 7.82359 21.0169 7.74032 21.0008C7.65706 20.9846 7.57142 20.985 7.48832 21.002C7.40521 21.0189 7.32626 21.0521 7.25597 21.0995L7.18455 21.1478C7.04474 21.2445 6.94871 21.3924 6.91728 21.5595C6.88584 21.7266 6.92156 21.8993 7.01667 22.0402C7.11177 22.1811 7.2586 22.2788 7.42531 22.3122C7.59201 22.3455 7.76513 22.3118 7.90712 22.2183L7.97853 22.1701C8.04882 22.1226 8.10909 22.0618 8.15587 21.9911C8.20266 21.9204 8.23506 21.8411 8.25122 21.7579C8.26738 21.6746 8.26699 21.589 8.25006 21.5059C8.23313 21.4228 8.2 21.3439 8.15255 21.2736ZM15.4783 2.69801C15.4639 2.69801 15.4496 2.69809 15.4352 2.69835V2.65495C15.4352 1.19101 14.2442 0 12.7803 0C11.3163 0 10.1254 1.19101 10.1254 2.65495C10.1254 2.69268 10.1262 2.73049 10.1278 2.76805C9.47565 2.94465 8.95315 3.43991 8.73856 4.07576H8.58989C7.47416 4.07576 6.56641 4.98352 6.56641 6.09924C6.56641 7.21497 7.47416 8.12273 8.58989 8.12273H15.4783C16.9739 8.12273 18.1907 6.90594 18.1907 5.41037C18.1907 3.9148 16.9739 2.69801 15.4783 2.69801ZM15.4783 6.83109H8.5898C8.18624 6.83109 7.85787 6.5028 7.85787 6.09916C7.85787 5.69551 8.18616 5.36723 8.5898 5.36723H9.27868C9.44996 5.36723 9.61423 5.29918 9.73534 5.17807C9.85646 5.05696 9.9245 4.89269 9.9245 4.72141C9.9245 4.31784 10.2528 3.98948 10.6564 3.98948C10.7962 3.98948 10.9209 4.02806 11.061 3.99231C11.1491 3.96985 11.2315 3.92903 11.3028 3.87253C11.374 3.81602 11.4326 3.74509 11.4745 3.6644C11.5165 3.58371 11.5409 3.49507 11.5462 3.40428C11.5515 3.31349 11.5376 3.22261 11.5053 3.13758C11.4468 2.98334 11.4169 2.81974 11.4171 2.65478C11.4171 1.90309 12.0287 1.29138 12.7804 1.29138C13.5321 1.29138 14.1437 1.90309 14.1437 2.65478V3.46165C14.1437 3.56496 14.1685 3.66675 14.216 3.7585C14.2635 3.85024 14.3323 3.92925 14.4166 3.9889C14.501 4.04854 14.5984 4.08709 14.7007 4.10129C14.8031 4.11549 14.9073 4.10494 15.0047 4.07052C15.1568 4.01674 15.317 3.9893 15.4783 3.98939C16.2617 3.98939 16.899 4.6267 16.899 5.41011C16.899 6.19377 16.2617 6.83109 15.4783 6.83109ZM41.6544 13.0307C41.6401 13.0307 41.6257 13.0308 41.6114 13.031V12.9876C41.6114 11.5237 40.4204 10.3327 38.9565 10.3327C37.4926 10.3327 36.3016 11.5237 36.3016 12.9876C36.3016 13.0254 36.3024 13.0632 36.304 13.1007C35.6519 13.2773 35.1294 13.7726 34.9148 14.4085H34.7661C33.6504 14.4085 32.7426 15.3162 32.7426 16.4319C32.7426 17.5477 33.6503 18.4554 34.766 18.4554H41.6545C43.1501 18.4554 44.3669 17.2386 44.3669 15.7431C44.3667 14.2475 43.15 13.0307 41.6544 13.0307ZM41.6543 17.1638H34.7659C34.3623 17.1638 34.0339 16.8355 34.0339 16.4319C34.0339 16.0282 34.3623 15.6999 34.7659 15.6999H35.4548C35.6261 15.6999 35.7904 15.6319 35.9115 15.5108C36.0326 15.3897 36.1006 15.2254 36.1006 15.0541C36.1006 14.6505 36.4289 14.3222 36.8326 14.3222C36.9681 14.3222 37.0901 14.3604 37.226 14.3266C37.343 14.2967 37.4494 14.235 37.5335 14.1483C37.7071 13.9703 37.7702 13.7045 37.6814 13.4704C37.6229 13.3161 37.593 13.1525 37.5931 12.9876C37.5931 12.2359 38.2047 11.6242 38.9564 11.6242C39.7081 11.6242 40.3197 12.2359 40.3197 12.9876V13.7944C40.3197 14.2325 40.7671 14.5492 41.1808 14.4033C41.3329 14.3495 41.4931 14.3221 41.6544 14.3222C42.4378 14.3222 43.0751 14.9596 43.0751 15.7429C43.0751 16.5265 42.4378 17.1638 41.6543 17.1638Z" fill="#26A1D6"/>
</svg>
