<svg width="44" height="38" viewBox="0 0 44 38" fill="none" xmlns="http://www.w3.org/2000/svg">
<path d="M39.875 0.738281H36.3516C36.192 0.738281 36.039 0.80166 35.9262 0.914475C35.8134 1.02729 35.75 1.1803 35.75 1.33984V8.21484H21.5621C21.5689 8.08869 21.5744 7.96253 21.5744 7.83672C21.5614 5.96297 20.8079 4.17041 19.4783 2.85006C18.1488 1.5297 16.351 0.788706 14.4772 0.788706C12.6034 0.788706 10.8056 1.5297 9.47607 2.85006C8.1465 4.17041 7.39301 5.96297 7.37997 7.83672C7.37997 7.96391 7.38547 8.09006 7.39234 8.21484H0.601562C0.442018 8.21484 0.289008 8.27822 0.176194 8.39104C0.0633787 8.50385 0 8.65686 0 8.81641L0 36.6602C0 36.8197 0.0633787 36.9727 0.176194 37.0855C0.289008 37.1983 0.442018 37.2617 0.601562 37.2617H39.875C40.9687 37.2605 42.0172 36.8256 42.7905 36.0522C43.5638 35.2789 43.9988 34.2304 44 33.1367V4.86328C43.9988 3.76963 43.5638 2.7211 42.7905 1.94777C42.0172 1.17444 40.9687 0.739464 39.875 0.738281ZM4.64062 15.7973L4.99297 16.15L5.621 17.9127C5.66546 18.0336 5.74697 18.1373 5.85389 18.2091C5.96081 18.2809 6.08767 18.3171 6.21637 18.3125L7.83647 18.2345L10.1097 19.6531L9.86287 21.0883C9.8381 21.2306 9.86544 21.377 9.93987 21.5008L11.0571 23.3629C11.1057 23.444 11.1727 23.5124 11.2527 23.5627C11.3328 23.613 11.4236 23.6437 11.5177 23.6523L11.2344 25.8111C11.2272 25.8646 11.2272 25.9188 11.2344 25.9723L11.8075 30.0973C11.8275 30.241 11.8989 30.3727 12.0083 30.468C12.1178 30.5634 12.258 30.6159 12.4032 30.616H13.6854C13.828 30.616 13.9659 30.5653 14.0746 30.473C14.1833 30.3807 14.2556 30.2528 14.2787 30.1121L14.8057 26.9152L16.2456 25.0844L19.6656 24.6843C19.8111 24.6673 19.9454 24.5978 20.0433 24.4888C20.1412 24.3798 20.1958 24.2388 20.197 24.0923L20.2252 20.8542C20.2263 20.718 20.1813 20.5855 20.0977 20.4781L18.3507 18.2437C18.285 18.1597 18.198 18.0947 18.0989 18.0553C17.9997 18.016 17.8918 18.0036 17.7863 18.0196L16.3924 18.231C16.8954 17.2356 17.3413 16.2123 17.7279 15.1662C17.8781 14.7537 18.0166 14.3346 18.1376 13.9159C18.6287 13.6187 19.0822 13.2633 19.4882 12.8575H31.5171L32.7645 14.105V15.2789L30.5528 16.1104H28.3185L27.478 15.2703C27.3952 15.1874 27.29 15.1305 27.1753 15.1066C27.0606 15.0827 26.9414 15.0929 26.8324 15.1359L25.1553 15.7969C25.0779 15.8268 25.0077 15.8724 24.949 15.931L22.7638 18.1162C22.7079 18.172 22.6635 18.2383 22.6333 18.3112C22.603 18.3842 22.5874 18.4624 22.5875 18.5414V20.6256C22.5874 20.7046 22.603 20.7828 22.6333 20.8558C22.6635 20.9287 22.7079 20.995 22.7638 21.0508L24.2375 22.5245C24.3503 22.6372 24.5032 22.7007 24.6627 22.7008H26.2969L28.1552 24.5591V27.1304C28.1551 27.29 28.2184 27.443 28.3312 27.5559L29.9705 29.1946C30.0263 29.2505 30.0926 29.2948 30.1656 29.3251C30.2386 29.3553 30.3168 29.3709 30.3958 29.3709C30.4747 29.3709 30.5529 29.3553 30.6259 29.3251C30.6989 29.2948 30.7652 29.2505 30.821 29.1946L32.9178 27.0977C33.0306 26.9848 33.0939 26.8317 33.0938 26.6722V25.7004L33.8845 24.9097C33.9973 24.797 34.0607 24.644 34.0608 24.4845V22.8098L35.4121 21.4582C35.468 21.4023 35.5123 21.3361 35.5426 21.2631C35.5728 21.1901 35.5884 21.1119 35.5884 21.0329C35.5884 20.954 35.5728 20.8757 35.5426 20.8028C35.5123 20.7298 35.468 20.6635 35.4121 20.6077L33.88 19.0773L34.8769 18.7742L34.9216 18.8188C35.1619 19.0565 35.4423 19.2498 35.75 19.3898V29.6133C35.75 29.7728 35.8134 29.9258 35.9262 30.0386C36.039 30.1515 36.192 30.2148 36.3516 30.2148H39.3594V32.6211H4.64062V15.7973ZM11.8577 16.7313L10.6511 15.9441L11.4823 15.8361C11.6036 16.14 11.7298 16.438 11.8577 16.7313ZM9.46584 12.8555C9.87196 13.2608 10.3254 13.6157 10.8164 13.9125C10.8852 14.1552 10.9639 14.3975 11.0447 14.6392C11.0488 14.6516 11.0519 14.6632 11.0564 14.6756L9.60575 14.864C9.51412 14.8756 9.42639 14.9081 9.34935 14.959C9.27231 15.0099 9.20803 15.0779 9.16149 15.1577C9.11496 15.2375 9.08741 15.3269 9.081 15.419C9.07458 15.5112 9.08947 15.6035 9.1245 15.689L9.44006 16.4624C9.48662 16.5751 9.5662 16.6709 9.66831 16.7374L11.6445 18.0265C11.7115 18.0699 11.7863 18.0996 11.8648 18.114C11.9432 18.1284 12.0237 18.1271 12.1017 18.1104L12.462 18.0313C12.8964 18.9153 13.3682 19.7805 13.8758 20.6246C13.9266 20.7444 14.0094 20.8479 14.1153 20.9237C14.2211 20.9995 14.3458 21.0445 14.4757 21.0539C14.5834 21.0521 14.6889 21.0222 14.7816 20.9673C14.8744 20.9124 14.9512 20.8343 15.0047 20.7408C15.0734 20.6328 15.3354 20.2017 15.6956 19.55L17.6182 19.2582L19.0193 21.0501L18.9977 23.5475L15.8575 23.9156C15.7788 23.9249 15.7028 23.9495 15.6336 23.9882C15.5645 24.0269 15.5037 24.0789 15.4547 24.1411L13.7648 26.2896C13.7019 26.3695 13.6604 26.4642 13.6441 26.5646L13.1749 29.4122H12.9274L12.4379 25.887L12.7995 23.1319C12.8106 23.047 12.8035 22.9607 12.7786 22.8788C12.7537 22.7969 12.7116 22.7213 12.6552 22.6569C12.5988 22.5926 12.5292 22.541 12.4513 22.5057C12.3733 22.4703 12.2887 22.452 12.2031 22.4519H11.9133L11.0863 21.0732L11.3637 19.4603C11.3839 19.3425 11.3685 19.2213 11.3196 19.1122C11.2706 19.0032 11.1902 18.9112 11.0887 18.8481L8.31359 17.1135C8.20942 17.0489 8.08817 17.0173 7.96572 17.0228L6.60344 17.0884L6.08094 15.6185C6.05102 15.5345 6.00276 15.4582 5.93966 15.3951L4.64062 14.0957V12.8555H9.46584ZM35.75 17.9471L35.4712 17.668C35.3942 17.5908 35.2976 17.536 35.1918 17.5096C35.086 17.4831 34.975 17.4859 34.8707 17.5177L32.5703 18.2183C32.471 18.2486 32.3812 18.3041 32.3097 18.3794C32.2382 18.4547 32.1874 18.5472 32.1622 18.6479C32.1371 18.7487 32.1384 18.8542 32.1661 18.9543C32.1939 19.0543 32.247 19.1455 32.3204 19.219L34.1344 21.0329L33.032 22.1353C32.9193 22.2482 32.856 22.4011 32.856 22.5606V24.2363L32.0653 25.027C31.9525 25.1398 31.8891 25.2929 31.889 25.4525V26.4229L30.3944 27.9176L29.3569 26.8805V24.3078C29.3568 24.1483 29.2934 23.9954 29.1806 23.8826L26.9699 21.6716C26.9141 21.6158 26.8478 21.5715 26.7748 21.5413C26.7019 21.5111 26.6237 21.4956 26.5447 21.4956H24.9143L23.793 20.375V18.7886L25.7125 16.8687L26.9063 16.3982L27.644 17.1355C27.7568 17.2483 27.9097 17.3118 28.0693 17.3118H30.6625C30.7348 17.3119 30.8066 17.2988 30.8743 17.2733L33.5782 16.2569C33.6927 16.2138 33.7913 16.1368 33.861 16.0362C33.9306 15.9356 33.968 15.8162 33.968 15.6938V13.8537C33.9679 13.6942 33.9045 13.5413 33.7917 13.4285L33.219 12.8555H35.75V17.9471ZM21.3943 9.41797H35.75V11.6523H20.4559C20.8935 10.9663 21.2108 10.2107 21.3943 9.41797ZM14.4774 1.94141C16.04 1.94314 17.5382 2.56466 18.6431 3.66961C19.7481 4.77456 20.3696 6.27271 20.3713 7.83534C20.364 8.88633 20.0791 9.91672 19.5455 10.8222C19.0118 11.7277 18.2484 12.476 17.3326 12.9916C17.2625 13.0307 17.2008 13.0833 17.1513 13.1465C17.1018 13.2096 17.0654 13.282 17.0442 13.3594C16.5166 15.1269 15.8051 16.8343 14.9215 18.4534C14.7593 18.759 14.6087 19.0323 14.477 19.2657C13.685 17.8712 12.9978 16.4196 12.4211 14.9231C12.326 14.6693 12.2359 14.4136 12.1509 14.1562C12.145 14.1383 12.1395 14.1218 12.134 14.1029C12.0535 13.8569 11.9788 13.609 11.9099 13.3594C11.8888 13.282 11.8525 13.2096 11.803 13.1464C11.7535 13.0832 11.6919 13.0306 11.6218 12.9916C10.706 12.476 9.94265 11.7276 9.40904 10.8221C8.87542 9.91668 8.59049 8.88631 8.58309 7.83534C8.58482 6.27265 9.20639 4.77445 10.3114 3.66949C11.4164 2.56453 12.9147 1.94304 14.4774 1.94141ZM39.875 36.0586H1.20312V9.41797H7.56009C7.56422 9.43516 7.57041 9.45234 7.57453 9.46816C7.67907 9.90943 7.82584 10.3396 8.01281 10.7527L8.02278 10.7754C8.16082 11.0784 8.31979 11.3714 8.49853 11.6523H4.03906C3.87952 11.6523 3.72651 11.7157 3.61369 11.8285C3.50088 11.9414 3.4375 12.0944 3.4375 12.2539V33.2227C3.4375 33.3822 3.50088 33.5352 3.61369 33.648C3.72651 33.7608 3.87952 33.8242 4.03906 33.8242H39.9609C40.1205 33.8242 40.2735 33.7608 40.3863 33.648C40.4991 33.5352 40.5625 33.3822 40.5625 33.2227V30.3008C41.2572 30.4688 41.8662 30.8857 42.274 31.4726C42.6819 32.0595 42.8604 32.7756 42.7757 33.4853C42.691 34.195 42.3489 34.8489 41.8143 35.3233C41.2797 35.7977 40.5897 36.0596 39.875 36.0593V36.0586ZM42.6566 30.0997C41.8971 29.4035 40.9053 29.0156 39.875 29.0117H36.9531V1.94141H39.875C40.6497 1.94232 41.3923 2.25045 41.9401 2.79821C42.4878 3.34597 42.796 4.08863 42.7969 4.86328V30.2276C42.7529 30.1825 42.703 30.142 42.6566 30.0997Z" fill="#26A1D6"/>
<path d="M14.4761 11.1851C15.1386 11.1852 15.7862 10.9888 16.337 10.6208C16.8879 10.2528 17.3173 9.72972 17.5709 9.1177C17.8244 8.50569 17.8908 7.83222 17.7617 7.18247C17.6325 6.53272 17.3135 5.93586 16.8451 5.46737C16.3768 4.99889 15.78 4.67982 15.1302 4.55051C14.4805 4.4212 13.807 4.48747 13.195 4.74092C12.5829 4.99437 12.0597 5.42363 11.6916 5.97442C11.3235 6.5252 11.127 7.17277 11.127 7.83524C11.1279 8.72328 11.481 9.57469 12.1089 10.2027C12.7367 10.8307 13.5881 11.184 14.4761 11.1851ZM14.4761 5.68921C14.9007 5.68914 15.3157 5.81498 15.6687 6.0508C16.0217 6.28662 16.2969 6.62183 16.4594 7.01404C16.6219 7.40626 16.6644 7.83785 16.5816 8.25424C16.4988 8.67063 16.2944 9.05311 15.9942 9.3533C15.694 9.6535 15.3115 9.85793 14.8951 9.94074C14.4787 10.0235 14.0471 9.98101 13.6549 9.81851C13.2627 9.65601 12.9275 9.38086 12.6917 9.02783C12.4558 8.67481 12.33 8.25978 12.3301 7.83524C12.3308 7.2663 12.5571 6.72087 12.9594 6.31857C13.3617 5.91627 13.9072 5.68994 14.4761 5.68921Z" fill="#26A1D6"/>
</svg>
