<svg width="42" height="44" viewBox="0 0 42 44" fill="none" xmlns="http://www.w3.org/2000/svg">
<path d="M41.0511 33.5475C40.4986 32.9952 39.7643 32.6911 38.9828 32.6911H38.9138C38.1679 32.6913 37.5064 33.0593 37.1008 33.623L32.747 29.2692L31.8609 22.624C31.4704 19.6949 28.9474 17.486 25.9903 17.486C25.178 17.486 24.5173 18.1467 24.5173 18.9589V20.4794C24.5173 22.1824 23.1318 23.568 21.4287 23.568C19.7257 23.568 18.3401 22.1824 18.3401 20.4794V18.9589C18.3401 18.1466 17.6794 17.486 16.8651 17.486C13.91 17.486 11.387 19.6949 10.9966 22.624L10.1105 29.2692L5.75777 33.6219C5.68669 33.5234 5.6078 33.4307 5.52187 33.3449C5.10009 32.9232 4.53952 32.6911 3.94251 32.6911H3.94208C2.29173 32.6914 0.949219 34.0343 0.949219 35.6846C0.949219 37.3053 2.24412 38.6284 3.85356 38.6758C3.44745 39.2451 3.22942 39.927 3.23 40.6263C3.23009 42.4866 4.74353 44 6.60373 44H36.2539C38.1142 44 39.6275 42.4866 39.6275 40.6264C39.6275 39.9 39.396 39.2272 39.0041 38.676C40.6133 38.6291 41.9083 37.3007 41.9083 35.6734V35.6162C41.9083 34.8347 41.6039 34.1 41.0511 33.5475ZM27.5886 30.861L27.8343 28.7721L28.0616 29.9087C28.2649 30.93 28.7669 31.8681 29.504 32.6037L34.153 37.2527H28.8277L27.7122 32.7906C27.5541 32.1602 27.5122 31.5064 27.5886 30.861ZM16.8672 18.9114C16.8935 18.9114 16.9148 18.9327 16.9148 18.9589V20.4794C16.9148 22.9684 18.9398 24.9935 21.4288 24.9935C23.9178 24.9935 25.9429 22.9684 25.9429 20.4794V18.9589C25.9429 18.9525 25.9443 18.9462 25.9468 18.9404C25.9494 18.9345 25.953 18.9292 25.9576 18.9248C25.9623 18.9204 25.9677 18.9169 25.9737 18.9146C25.9796 18.9123 25.986 18.9112 25.9924 18.9114C26.5286 18.9114 27.0458 19.0082 27.5269 19.1844L26.1728 30.6944C26.0761 31.5111 26.129 32.3385 26.3291 33.1362L27.3582 37.2526H15.4994L16.5285 33.1362C16.7285 32.3385 16.7815 31.5111 16.6849 30.6944L15.3308 19.1847C15.8229 19.004 16.343 18.9115 16.8672 18.9114ZM15.0234 28.772L15.2692 30.8609C15.3455 31.5063 15.3036 32.1602 15.1456 32.7906L14.03 37.2527H8.70456L13.3535 32.6037C14.0906 31.8681 14.5926 30.93 14.7959 29.9087L15.0234 28.772ZM3.94285 37.2527C3.07823 37.2527 2.37484 36.5493 2.37484 35.6847C2.37484 34.8202 3.07806 34.1168 3.94294 34.1167C4.15864 34.1167 4.36145 34.2005 4.51399 34.3531C4.58928 34.4279 4.64896 34.517 4.68959 34.615C4.73022 34.7131 4.75097 34.8182 4.75066 34.9244C4.75065 35.0654 4.79245 35.2032 4.87077 35.3204C4.94909 35.4376 5.06042 35.5289 5.19066 35.5829C5.32089 35.6368 5.4642 35.651 5.60246 35.6235C5.74072 35.596 5.86772 35.528 5.96737 35.4283L11.2892 30.1065C11.3999 29.9959 11.4711 29.8519 11.4918 29.6967L12.4097 22.8124C12.5627 21.6642 13.148 20.6626 13.9868 19.9615L14.4849 24.1954L13.3982 29.629C13.2499 30.3743 12.8836 31.0588 12.3457 31.5957L6.68881 37.2526H3.94285V37.2527ZM18.4353 42.5746H6.60373C5.52952 42.5746 4.65553 41.7007 4.65553 40.6264C4.65553 39.552 5.52943 38.6781 6.60373 38.6781H11.5929V39.0265C11.5929 40.0812 12.312 40.9777 13.3417 41.2065L18.4352 42.3385V42.5746H18.4353ZM18.4353 40.8781L13.651 39.8149C13.4711 39.7759 13.3102 39.6762 13.195 39.5327C13.0799 39.3891 13.0176 39.2104 13.0185 39.0264V38.6781H18.4353V40.8781ZM36.2539 42.5746H19.8608V38.6782H36.254C37.3281 38.6783 38.202 39.5522 38.202 40.6264C38.202 41.7006 37.3281 42.5746 36.2539 42.5746ZM40.4828 35.6734C40.4828 36.5442 39.78 37.2527 38.9162 37.2527H36.169L30.5121 31.5957C29.9742 31.0588 29.6078 30.3743 29.4595 29.629L28.3727 24.1953L28.8708 19.9614C29.7095 20.6626 30.2949 21.6642 30.448 22.8125L31.3659 29.6968C31.3866 29.8519 31.4577 29.9959 31.5684 30.1066L36.8903 35.4284C36.99 35.528 37.117 35.5958 37.2552 35.6233C37.3934 35.6508 37.5367 35.6366 37.6669 35.5827C37.7971 35.5288 37.9084 35.4375 37.9868 35.3203C38.0651 35.2032 38.107 35.0654 38.107 34.9245C38.107 34.4792 38.4693 34.1168 38.9147 34.1167H38.9832C39.3837 34.1167 39.7602 34.2726 40.0435 34.5557C40.1832 34.6947 40.294 34.86 40.3694 35.042C40.4448 35.2241 40.4834 35.4193 40.4829 35.6164V35.6734H40.4828ZM24.3389 3.69712C24.3943 3.46809 24.4224 3.2328 24.4224 2.99346C24.4224 1.34295 23.0794 0 21.4288 0C19.7782 0 18.4353 1.34295 18.4353 2.99355C18.4353 3.23305 18.4638 3.46818 18.5191 3.69695C16.2243 4.78904 14.6339 7.12989 14.6339 9.83589V10.5343C14.6339 10.7226 14.7084 10.9032 14.8412 11.0368C14.9739 11.1703 15.1541 11.2459 15.3424 11.2471C15.3887 11.247 15.682 11.247 16.1544 11.2165V12.1168C16.1544 15.0251 18.5204 17.3911 21.4287 17.3911C24.337 17.3911 26.7031 15.0251 26.7031 12.1168V11.2295C26.9611 11.2801 27.2305 11.309 27.5109 11.309C27.6999 11.309 27.8812 11.2339 28.0149 11.1003C28.1485 10.9666 28.2236 10.7853 28.2236 10.5963V9.83598C28.2236 7.13006 26.6334 4.78921 24.3389 3.69712ZM21.4288 1.42545C22.2934 1.42545 22.9968 2.12884 22.9968 2.99346C22.9968 3.07055 22.9896 3.14634 22.9787 3.22145C22.4707 3.10186 21.9507 3.04131 21.4288 3.04098C20.8956 3.04098 20.3772 3.10466 19.879 3.22137C19.8675 3.14593 19.8614 3.06977 19.8608 2.99346C19.8608 2.12893 20.5642 1.42545 21.4288 1.42545ZM25.2776 12.1167C25.2776 14.2389 23.551 15.9655 21.4288 15.9655C19.3066 15.9655 17.58 14.2389 17.58 12.1167V11.0712C19.1814 10.8509 21.4164 10.3546 23.5259 9.2351C23.8916 9.65714 24.4907 10.2492 25.2777 10.6928L25.2776 12.1167ZM24.3015 7.91837C24.2002 7.7672 24.0448 7.66055 23.8673 7.62026C23.6898 7.57998 23.5036 7.60912 23.3469 7.70172C20.6274 9.30884 17.448 9.69762 16.0596 9.79155C16.0837 6.85128 18.483 4.46652 21.4288 4.46652C24.3739 4.46652 26.7728 6.84999 26.7979 9.78931C25.3171 9.4001 24.3131 7.93538 24.3015 7.91837Z" fill="#26A1D6"/>
</svg>
