<svg width="45" height="44" viewBox="0 0 45 44" fill="none" xmlns="http://www.w3.org/2000/svg">
<path d="M33.3696 33.205C33.3696 32.8248 33.6814 32.523 34.0615 32.523C34.4417 32.523 34.7435 32.8248 34.7435 33.205V43.3085C34.7435 43.6883 34.4414 44.0005 34.0615 44.0005H4.78161C4.40177 44.0005 4.09961 43.6887 4.09961 43.3085V25.9364C4.09961 25.5562 4.40142 25.2544 4.78161 25.2544C5.1618 25.2544 5.47358 25.5562 5.47358 25.9364V42.6261H33.3696V33.205Z" fill="#26A1D6"/>
<path d="M10.8619 41.5249C10.8619 41.9048 10.5501 42.2169 10.1699 42.2169C9.78975 42.2169 9.48828 41.9051 9.48828 41.5249V32.7466C9.48828 31.441 10.0142 30.2523 10.8815 29.395C11.7392 28.5377 12.9278 28.0015 14.2334 28.0015C15.539 28.0015 16.7277 28.5377 17.585 29.395C18.0263 29.8346 18.3765 30.3569 18.6156 30.932C18.8548 31.5071 18.9781 32.1237 18.9785 32.7466V41.5249C18.9779 41.7082 18.9048 41.8838 18.7753 42.0134C18.6457 42.143 18.4702 42.2162 18.2869 42.2169C17.9067 42.2169 17.6046 41.9051 17.6046 41.5249V32.7466C17.6046 31.8212 17.2247 30.9828 16.6108 30.3696C15.9968 29.7556 15.1588 29.3754 14.2331 29.3754C13.3073 29.3754 12.4597 29.7553 11.8461 30.3696C11.2417 30.9828 10.8619 31.8212 10.8619 32.7466V41.5249ZM23.4019 36.0397H29.7156V31.2362H23.4019V36.0397ZM30.4075 37.4137H22.7199C22.3401 37.4137 22.0279 37.1115 22.0279 36.7317V30.5445C22.0279 30.1647 22.3397 29.8625 22.7199 29.8625H30.4075C30.7874 29.8625 31.0995 30.1647 31.0995 30.5445V36.7313C31.0995 37.1115 30.7874 37.4137 30.4075 37.4137Z" fill="#26A1D6"/>
<path fill-rule="evenodd" clip-rule="evenodd" d="M15.3834 37.8324C15.5635 37.8302 15.7357 37.7577 15.8631 37.6304C15.9906 37.503 16.0631 37.3309 16.0654 37.1507C16.0654 36.7709 15.7536 36.4587 15.3834 36.4587C15.2001 36.4595 15.0245 36.5326 14.8949 36.6622C14.7653 36.7918 14.6921 36.9674 14.6914 37.1507C14.6914 37.5206 15.0032 37.8324 15.3834 37.8324Z" fill="#26A1D6"/>
<path d="M16.1819 21.2984V21.2592L16.6402 12.7535H13.9991L12.4402 21.3372C12.4498 21.8828 12.6547 22.3702 12.9957 22.7308C13.1646 22.9099 13.3685 23.0525 13.5947 23.1497C13.8209 23.2469 14.0647 23.2967 14.3109 23.2959C14.5555 23.2957 14.7976 23.2454 15.0221 23.1483C15.2466 23.0511 15.4489 22.909 15.6165 22.7308C15.9674 22.3606 16.172 21.8539 16.172 21.2984H16.1819ZM18.0042 12.7538L17.5559 21.2984C17.5559 21.8539 17.7704 22.3606 18.1114 22.7308C18.2798 22.9094 18.4828 23.0517 18.7082 23.1489C18.9335 23.2462 19.1764 23.2963 19.4218 23.2963C19.6672 23.2963 19.91 23.2462 20.1354 23.1489C20.3607 23.0517 20.5638 22.9094 20.7322 22.7308C21.0831 22.3606 21.2877 21.8539 21.2877 21.2984H21.2973L21.0632 17.0115C21.0587 16.9212 21.072 16.831 21.1023 16.7459C21.1327 16.6608 21.1796 16.5825 21.2402 16.5155C21.3009 16.4485 21.3742 16.3942 21.4559 16.3555C21.5375 16.3169 21.6261 16.2947 21.7163 16.2903C21.8065 16.2857 21.8968 16.299 21.9819 16.3293C22.0669 16.3597 22.1452 16.4065 22.2122 16.4672C22.2791 16.5278 22.3335 16.601 22.3721 16.6827C22.4107 16.7644 22.4328 16.8529 22.4372 16.9431L22.6613 21.2592V21.2984H22.6709C22.6709 21.8539 22.8854 22.3606 23.2264 22.7308C23.3953 22.9099 23.5992 23.0525 23.8254 23.1497C24.0516 23.2469 24.2954 23.2967 24.5416 23.2959C24.9211 23.2959 25.2232 23.6077 25.2232 23.9876C25.2232 24.3674 24.9211 24.6795 24.5416 24.6795C23.6355 24.6795 22.8167 24.2897 22.2323 23.6761C22.1446 23.5788 22.057 23.4816 21.9789 23.374C21.9012 23.4816 21.8136 23.5788 21.7259 23.6761C21.1412 24.2897 20.3224 24.6795 19.4263 24.6795C18.5201 24.6795 17.7017 24.2897 17.1169 23.6761C17.0293 23.5788 16.9416 23.4816 16.8636 23.374C16.7856 23.4816 16.6982 23.5788 16.6106 23.6761C16.0259 24.2897 15.2074 24.6795 14.3109 24.6795C13.4048 24.6795 12.5863 24.2897 12.0016 23.6761C11.9139 23.5788 11.8263 23.4816 11.7482 23.374C11.6702 23.4816 11.5826 23.5788 11.4949 23.6761C10.9102 24.2897 10.0917 24.6795 9.19556 24.6795C8.28944 24.6795 7.47062 24.2897 6.88625 23.6761C6.79859 23.5788 6.71094 23.4816 6.63291 23.374C6.55487 23.4816 6.46722 23.5788 6.37956 23.6761C5.79519 24.2897 4.97672 24.6795 4.08022 24.6795C3.31056 24.6795 2.60897 24.397 2.05347 23.9391C1.47975 23.4622 1.08181 22.8073 0.922874 22.0784C0.86478 21.835 0.845187 21.6009 0.86478 21.3672C0.88403 21.1334 0.942812 20.8997 1.04009 20.6656L3.88531 13.7283C4.1775 13.0072 4.65497 12.4228 5.23969 12.0137C5.84408 11.5972 6.56166 11.3761 7.29566 11.3802H19.8649C20.0481 11.3809 20.2237 11.4541 20.3532 11.5837C20.4828 11.7133 20.5559 11.8889 20.5565 12.0722C20.5565 12.4424 20.2447 12.7542 19.8649 12.7542L18.0042 12.7538ZM12.6159 12.7538H9.82909L7.32522 21.3764C7.34481 21.9027 7.54934 22.3802 7.88072 22.7308C8.04918 22.9093 8.25232 23.0514 8.47767 23.1486C8.70303 23.2458 8.94585 23.2959 9.19126 23.2959C9.43668 23.2959 9.6795 23.2458 9.90485 23.1486C10.1302 23.0514 10.3333 22.9093 10.5018 22.7308C10.8528 22.3606 11.0573 21.8539 11.0573 21.2984H11.0669C11.0669 21.2592 11.0669 21.2108 11.0766 21.1716L12.6159 12.7538ZM8.40666 12.7538H7.296C6.81853 12.7538 6.37991 12.8899 6.01966 13.1436C5.64944 13.4066 5.34728 13.7768 5.15272 14.2543L2.30716 21.1815C2.26774 21.275 2.24148 21.3734 2.22912 21.4741C2.22912 21.5713 2.22912 21.669 2.25834 21.7759C2.35152 22.211 2.58834 22.6022 2.93072 22.8865C3.25387 23.154 3.66107 23.2989 4.08056 23.2956C4.3252 23.2953 4.5672 23.245 4.7917 23.1479C5.01621 23.0507 5.21849 22.9086 5.38612 22.7305C5.73709 22.3603 5.94162 21.8536 5.94162 21.2981H5.95125C5.95125 21.2297 5.96087 21.1712 5.97084 21.1032L8.40666 12.7538ZM21.6971 39.7323C21.3172 39.7323 21.0051 39.4305 21.0051 39.0507C21.0051 38.6708 21.3172 38.3587 21.6971 38.3587H31.4307C31.8102 38.3587 32.1123 38.6705 32.1123 39.0507C32.1123 39.4309 31.8102 39.7323 31.4307 39.7323H21.6971ZM43.4836 16.0762L34.6368 31.0417C34.592 31.1197 34.5321 31.1881 34.4605 31.2427C34.3889 31.2973 34.3072 31.3371 34.2201 31.3598C34.133 31.3824 34.0422 31.3875 33.9531 31.3747C33.864 31.3618 33.7783 31.3314 33.7012 31.285C33.5943 31.2268 33.5064 31.1389 33.4482 31.032L24.6103 16.0762C24.6028 16.0587 24.593 16.0423 24.5811 16.0273C24.1525 15.2477 23.8211 14.4004 23.5873 13.5235C23.3602 12.6352 23.2456 11.7219 23.2463 10.8051C23.2463 7.82375 24.4546 5.12497 26.4033 3.16663C28.3617 1.20794 31.0605 0 34.0518 0C37.0331 0 39.7323 1.20794 41.6909 3.16628C43.6496 5.12463 44.8576 7.82375 44.8576 10.8051C44.8576 11.7404 44.7311 12.6466 44.5066 13.5235C44.2766 14.4071 43.9361 15.2581 43.4932 16.0566L43.4836 16.0762ZM34.0518 4.24772C34.9132 4.24603 35.7664 4.41472 36.5624 4.74409C37.3583 5.07346 38.0813 5.557 38.6897 6.16688C39.2997 6.77515 39.7833 7.49808 40.1127 8.29405C40.4422 9.09002 40.6109 9.9433 40.6092 10.8047C40.6092 12.617 39.8783 14.2539 38.6897 15.4426C37.501 16.6313 35.8637 17.3717 34.0518 17.3717C33.1882 17.3718 32.3332 17.2015 31.5356 16.8704C30.738 16.5394 30.0136 16.0542 29.4039 15.4426C28.2249 14.2539 27.4848 12.617 27.4848 10.8047C27.4848 8.9925 28.2249 7.35556 29.4039 6.16688C30.0142 5.55682 30.7389 5.07325 31.5365 4.74392C32.3341 4.41458 33.1889 4.24596 34.0518 4.24772ZM37.7155 7.14141C36.7801 6.19644 35.4842 5.62134 34.0521 5.62134C33.3698 5.61978 32.6939 5.7533 32.0634 6.01418C31.4329 6.27507 30.8602 6.65817 30.3785 7.14141C29.8964 7.6219 29.514 8.19285 29.2531 8.82151C28.9923 9.45016 28.8581 10.1241 28.8584 10.8047C28.8584 12.2372 29.4431 13.5331 30.3785 14.4781C31.3551 15.4475 32.676 15.9905 34.0521 15.9882C35.4842 15.9882 36.7805 15.4134 37.7155 14.4781C38.6512 13.5331 39.2359 12.2372 39.2359 10.8047C39.2359 9.37269 38.6508 8.07709 37.7155 7.14141ZM34.0518 29.3463L42.3045 15.3746C42.6881 14.6803 42.9827 13.9404 43.1814 13.1725C43.3763 12.4221 43.4836 11.6328 43.4836 10.8047C43.4836 8.20359 42.4214 5.84547 40.7168 4.14047C39.0111 2.43547 36.6533 1.37363 34.0518 1.37363C31.4403 1.37363 29.0825 2.43547 27.3775 4.14047C26.5015 5.01485 25.8069 6.05373 25.3337 7.19742C24.8604 8.3411 24.6179 9.56703 24.62 10.8047C24.62 11.6328 24.7172 12.4221 24.9122 13.1725C25.1138 13.9318 25.4049 14.6644 25.7794 15.355L25.7891 15.3746L34.0518 29.3463Z" fill="#26A1D6"/>
<path d="M34.0513 7.65796C34.909 7.65796 35.6979 8.01855 36.2727 8.58368C36.8381 9.1488 37.1887 9.93771 37.1887 10.805C37.1887 11.6723 36.8378 12.4612 36.2727 13.0263C35.6979 13.6011 34.919 13.952 34.0513 13.952C33.6367 13.9523 33.2261 13.8707 32.8432 13.7118C32.4602 13.553 32.1124 13.32 31.8197 13.0263C31.8101 13.0167 31.8001 12.9971 31.7809 12.9875C31.2161 12.4016 30.9017 11.6188 30.9043 10.805C30.9029 9.97247 31.2321 9.17345 31.8197 8.58368C31.8393 8.57405 31.8489 8.55446 31.8685 8.54449C32.4534 7.97676 33.2362 7.65883 34.0513 7.65796ZM35.2985 9.5479C34.9649 9.22263 34.5173 9.04078 34.0513 9.04121C33.5949 9.0404 33.1555 9.21474 32.8238 9.5283L32.7946 9.55752C32.6302 9.72083 32.4998 9.91516 32.411 10.1292C32.3223 10.3433 32.2769 10.5729 32.2776 10.8046C32.2776 11.2821 32.4629 11.7108 32.7654 12.0325L32.7946 12.0617C33.1163 12.3735 33.5546 12.5781 34.0513 12.5781C34.5388 12.5781 34.9771 12.3735 35.2985 12.0617C35.4637 11.897 35.5944 11.7009 35.683 11.4851C35.7717 11.2693 35.8165 11.038 35.8148 10.8046C35.8155 10.573 35.7702 10.3434 35.6816 10.1294C35.5929 9.91529 35.4627 9.72092 35.2985 9.55752V9.5479Z" fill="#26A1D6"/>
</svg>
