<svg width="40" height="34" viewBox="0 0 40 34" fill="none" xmlns="http://www.w3.org/2000/svg">
<path d="M36.1556 33.9297C35.7482 33.9297 35.4182 33.5997 35.4182 33.1923V15.6141C35.4182 15.2066 35.7482 14.8766 36.1556 14.8766C36.5631 14.8766 36.8931 15.2066 36.8931 15.6141V33.1923C36.8931 33.5997 36.5631 33.9297 36.1556 33.9297ZM4.45331 33.9297C4.04587 33.9297 3.71586 33.5997 3.71586 33.1923V15.6141C3.71586 15.2066 4.04587 14.8766 4.45331 14.8766C4.86076 14.8766 5.19077 15.2066 5.19077 15.6141V33.1923C5.19077 33.5997 4.86076 33.9297 4.45331 33.9297ZM31.5318 31.4002H29.5582C29.5397 31.4002 29.5204 31.4002 29.5019 31.3984C29.1222 31.3698 28.7811 31.2094 28.5156 30.9356C28.2234 30.6508 28.0611 30.2867 28.0473 29.8792V29.0173C25.4699 29.1777 22.8612 29.2588 20.2791 29.2588C17.6971 29.2588 15.093 29.1777 12.5192 29.0173V29.87C12.5109 30.2756 12.3533 30.6425 12.0648 30.932C11.7947 31.2076 11.4509 31.368 11.0683 31.3975C11.0499 31.3993 11.0305 31.3993 11.0121 31.3993H9.03845C9.02001 31.3993 9.00158 31.3993 8.98314 31.3975C8.59597 31.368 8.24753 31.2057 7.97743 30.9273C7.68522 30.6333 7.53035 30.2507 7.53496 29.8248V24.9586C7.53035 24.9401 7.52759 24.9217 7.5239 24.9032C7.44831 24.4128 7.37733 23.8745 7.30727 23.2578L7.30451 23.2265V23.22C7.30174 23.2099 7.30082 23.1997 7.29897 23.1896C7.26763 22.9213 7.23721 22.6273 7.20034 22.2336C7.18928 22.1267 7.1819 22.0345 7.17822 21.9488C7.14319 21.156 7.34046 20.4435 7.76265 19.8314C7.84838 19.7023 7.93964 19.5889 8.0097 19.5041C8.01431 19.4977 8.01984 19.4922 8.02537 19.4857L9.32329 18.0126C9.35095 17.9822 9.44589 17.8605 9.74456 17.3572L11.1503 14.4996C11.2367 14.3241 11.3892 14.1901 11.5743 14.127C11.7595 14.0639 11.9621 14.0769 12.1376 14.1631C12.3131 14.2495 12.4471 14.402 12.5102 14.5871C12.5733 14.7722 12.5603 14.9748 12.4741 15.1504L11.0563 18.0338C11.048 18.0504 11.0388 18.067 11.0296 18.0827C10.7374 18.5777 10.5631 18.8414 10.4258 18.9944L9.14077 20.4518C9.07256 20.5347 9.02554 20.5965 8.98867 20.6527C8.98591 20.6573 8.98314 20.661 8.98037 20.6656C8.73978 21.0132 8.63193 21.4123 8.65313 21.8843C8.65589 21.9396 8.6605 22.0078 8.66972 22.0908C8.70567 22.4696 8.73425 22.7508 8.76375 23.0043C8.76836 23.0338 8.77389 23.0725 8.77665 23.1177C8.8421 23.692 8.90847 24.1944 8.97853 24.6516C8.98314 24.6709 8.98683 24.6903 8.99051 24.7097L8.99236 24.7216C9.00526 24.7779 9.01079 24.8277 9.01079 24.8857V29.8442C9.01079 29.8755 9.01264 29.8783 9.02923 29.8949C9.04951 29.9161 9.05965 29.9235 9.07717 29.9262H10.9734C10.9863 29.9235 10.9964 29.917 11.013 29.9004L11.0204 29.8931C11.0425 29.8709 11.0443 29.8636 11.0453 29.846V28.8744C10.8766 28.8431 10.7143 28.8053 10.5585 28.7611C10.1668 28.6495 9.93999 28.2421 10.0506 27.8503C10.1621 27.4585 10.5696 27.2318 10.9614 27.3424C11.225 27.417 11.5228 27.4677 11.8463 27.4908C11.8721 27.4926 11.8979 27.4963 11.9228 27.5C14.6883 27.6881 17.4998 27.7839 20.2782 27.7839C23.0566 27.7839 25.8921 27.6881 28.6705 27.4982C28.6926 27.4945 28.7156 27.4917 28.7387 27.4899C29.065 27.4668 29.3655 27.4161 29.6319 27.3415C30.0237 27.2299 30.4311 27.4576 30.5427 27.8494C30.6542 28.2412 30.4265 28.6486 30.0348 28.7601C29.8716 28.8062 29.7001 28.8459 29.5222 28.8772V29.8387C29.5231 29.8543 29.5259 29.8599 29.5453 29.8783C29.5545 29.8866 29.5637 29.8958 29.572 29.905C29.5831 29.917 29.5895 29.9216 29.5969 29.9235H31.4922C31.506 29.9207 31.5198 29.9133 31.5419 29.8912C31.5585 29.8746 31.5631 29.87 31.5631 29.8295V24.883C31.5631 24.8452 31.5659 24.8074 31.5714 24.7696C31.6461 24.2912 31.718 23.7445 31.7927 23.0983C31.7927 23.0716 31.7945 23.0449 31.7973 23.0181C31.8323 22.7167 31.8673 22.4033 31.9014 22.0825C31.9669 21.5192 31.8655 21.0565 31.5936 20.6629C31.5917 20.6601 31.5899 20.6573 31.5871 20.6537C31.5475 20.5947 31.4995 20.531 31.4313 20.4481L30.1454 18.9842C30.055 18.8838 29.9085 18.692 29.5471 18.0799C29.5379 18.0643 29.5296 18.0486 29.5213 18.032L28.0952 15.1485C28.0085 14.9732 27.9949 14.7706 28.0574 14.5853C28.12 14.4 28.2537 14.2471 28.4289 14.1603C28.6042 14.0736 28.8068 14.06 28.9922 14.1225C29.1775 14.1851 29.3303 14.3187 29.4171 14.494L30.8312 17.3526C31.1419 17.8771 31.2387 17.9924 31.2488 18.0043L32.5476 19.4829C32.5522 19.4885 32.5578 19.494 32.5624 19.5005C32.6647 19.6249 32.7412 19.7254 32.8094 19.8259C33.286 20.5163 33.4741 21.3303 33.3681 22.2456C33.3349 22.5508 33.3008 22.854 33.2676 23.1472C33.2676 23.1794 33.2648 23.22 33.2584 23.2652C33.1846 23.9049 33.1127 24.4525 33.039 24.9364V29.8258C33.039 30.2526 32.8823 30.6342 32.5854 30.9301C32.3126 31.203 31.9678 31.3634 31.5889 31.3919C31.5705 31.3938 31.5512 31.3938 31.5327 31.3938L31.5318 31.4002ZM20.387 24.9586H20.2856C18.3488 24.9586 16.6693 24.2598 15.2948 22.8808C15.1393 22.725 14.9901 22.5629 14.8478 22.395C14.8422 22.3885 14.8367 22.3811 14.8312 22.3747C14.8118 22.3498 14.7915 22.3258 14.7713 22.3009C14.7445 22.2687 14.7178 22.2364 14.692 22.2032C14.4394 21.8843 14.4929 21.4197 14.8127 21.1671C15.1317 20.9145 15.5963 20.968 15.8489 21.2879C15.8682 21.3128 15.8885 21.3367 15.9088 21.3616C15.9327 21.3902 15.9558 21.4188 15.9788 21.4473C16.0959 21.5847 16.2176 21.7156 16.3393 21.8382C17.4427 22.9453 18.7332 23.4836 20.2856 23.4836H20.3815C21.896 23.4615 23.1589 22.9241 24.2439 21.8382C24.3785 21.7036 24.4983 21.5727 24.6006 21.4483C24.6034 21.4455 24.6052 21.4427 24.608 21.44C24.6366 21.4059 24.6679 21.3644 24.7057 21.3118C24.9454 20.9827 25.4063 20.9099 25.7363 21.1496C26.0654 21.3893 26.1382 21.8502 25.8985 22.1802C25.8497 22.2466 25.7971 22.3185 25.7372 22.3894C25.5956 22.5609 25.4454 22.7252 25.2874 22.8817C23.9351 24.234 22.2905 24.9327 20.3971 24.9586H20.387ZM27.1568 17.6928C27.1412 17.6928 27.1264 17.6928 27.1107 17.6909L26.9291 17.6799C24.7804 17.5831 22.5413 17.5296 20.2718 17.5213C18.099 17.525 15.8581 17.5785 13.6162 17.6799C13.5849 17.6817 13.5535 17.6826 13.5213 17.6845C13.4945 17.6863 13.4687 17.6891 13.442 17.69C13.0373 17.7149 12.6852 17.4061 12.6603 16.9995C12.6354 16.593 12.9442 16.2427 13.3507 16.2178C13.3664 16.2169 13.383 16.2151 13.3987 16.2142C13.4438 16.2105 13.5001 16.2059 13.5627 16.2049C15.8212 16.1026 18.0787 16.0492 20.2727 16.0455C22.568 16.0538 24.8311 16.1072 27.002 16.2059H27.014L27.2011 16.2178C27.6076 16.2427 27.9164 16.593 27.8915 16.9995C27.88 17.1869 27.7975 17.3628 27.6609 17.4914C27.5242 17.62 27.3436 17.6917 27.1559 17.6918L27.1568 17.6928ZM36.0764 4.32267C35.6689 4.32267 35.3389 3.99266 35.3389 3.58521V2.50115C35.3389 2.22553 35.2513 2.01535 35.0541 1.81808C34.8642 1.63003 34.6558 1.54523 34.383 1.54523H6.11167C5.83881 1.54523 5.63048 1.63003 5.43782 1.82177C5.247 2.01535 5.15851 2.22737 5.15851 2.50208V3.58614C5.15851 3.99358 4.8285 4.32359 4.42105 4.32359C4.01361 4.32359 3.68359 3.99358 3.68359 3.58614V2.50208C3.68359 1.83652 3.92235 1.2567 4.39432 0.779193C4.87182 0.307221 5.44796 0.0703125 6.11167 0.0703125H34.383C35.0458 0.0703125 35.621 0.306298 36.0939 0.772739C36.5732 1.25301 36.8138 1.83283 36.8138 2.50208V3.58614C36.8138 3.99358 36.4838 4.32359 36.0764 4.32359V4.32267Z" fill="#26A1D6"/>
<path d="M29.1311 24.0017C28.5512 24.0017 28.0304 23.785 27.6239 23.3739C27.2128 22.9674 26.9952 22.4447 26.9952 21.8612C26.9952 21.2777 27.2137 20.7513 27.6276 20.3448C28.0341 19.9383 28.5549 19.7217 29.1311 19.7217C29.7072 19.7217 30.2372 19.9392 30.6475 20.3494C31.0567 20.7513 31.2752 21.2759 31.2752 21.8612C31.2752 22.4466 31.0577 22.9637 30.6465 23.3739C30.2299 23.785 29.7063 24.0008 29.1311 24.0008V24.0017ZM29.1311 21.1966C28.9449 21.1966 28.802 21.2565 28.6665 21.392C28.5291 21.5266 28.4701 21.6704 28.4701 21.8612C28.4701 22.052 28.5273 22.194 28.6619 22.3267L28.6702 22.335C28.8011 22.4678 28.943 22.5268 29.1311 22.5268C29.3191 22.5268 29.4685 22.465 29.6076 22.3277C29.7422 22.194 29.8003 22.0539 29.8003 21.8621C29.8003 21.6704 29.7432 21.5294 29.6086 21.3975C29.4666 21.2556 29.3256 21.1975 29.1311 21.1975V21.1966ZM11.4091 24.0017C10.832 24.0017 10.3093 23.7851 9.89728 23.3748C9.48614 22.9628 9.26952 22.4401 9.26952 21.8612C9.26952 21.2823 9.48614 20.7596 9.89635 20.3494C10.302 19.9392 10.8256 19.7217 11.4091 19.7217C11.9926 19.7217 12.5143 19.9383 12.9255 20.3494C13.3375 20.7615 13.5514 21.2869 13.5458 21.8686C13.5458 22.4447 13.3311 22.9674 12.9255 23.3739C12.5152 23.785 11.9907 24.0017 11.4091 24.0017ZM11.4091 21.1966C11.2155 21.1966 11.0763 21.2547 10.9426 21.3892C10.8043 21.5275 10.7444 21.6722 10.7444 21.8612C10.7444 22.0502 10.8025 22.194 10.9399 22.3313C11.0754 22.4659 11.2201 22.5268 11.4091 22.5268C11.598 22.5268 11.7446 22.4687 11.882 22.3313C12.0147 22.1986 12.0709 22.0585 12.0709 21.8612C12.0728 21.6667 12.0147 21.5238 11.882 21.392C11.7464 21.2565 11.6008 21.1966 11.4091 21.1966ZM15.0834 13.8764C14.1754 13.8801 13.3781 13.5759 12.7254 12.9675C12.6323 12.879 12.5457 12.7877 12.4655 12.6928C12.3853 12.7859 12.2995 12.8762 12.2074 12.9638C11.5621 13.574 10.7721 13.881 9.85948 13.8764C8.95794 13.8764 8.16978 13.5704 7.52267 12.9675C7.42956 12.8799 7.34383 12.7896 7.26363 12.6965C7.18528 12.7877 7.10047 12.8771 7.00921 12.9629C6.36855 13.5685 5.58684 13.8764 4.6853 13.8764H4.6641C3.75979 13.8764 2.97072 13.5704 2.3236 12.9675C1.66081 12.3406 1.32711 11.5746 1.32711 10.6869V9.96419C1.32718 9.83688 1.36021 9.71176 1.42298 9.601L3.73122 5.52931C3.79547 5.41573 3.88872 5.32124 4.00144 5.25549C4.11416 5.18973 4.24231 5.15508 4.3728 5.15505H31.549C31.5739 5.15229 31.5997 5.15137 31.6246 5.15137H36.1627C36.4282 5.15137 36.6734 5.29425 36.8043 5.5247L39.1162 9.59639C39.1791 9.70744 39.2121 9.83289 39.2121 9.96051V10.7182C39.202 11.5949 38.871 12.3471 38.2267 12.961C37.5777 13.5694 36.7942 13.8764 35.8935 13.8764H35.8723C34.968 13.8764 34.1817 13.5704 33.5374 12.9656C33.4443 12.8781 33.3585 12.7877 33.2783 12.6946C33.1991 12.7868 33.1133 12.8762 33.0221 12.9629C32.3694 13.574 31.5757 13.8801 30.6696 13.8755C29.7634 13.8755 28.9753 13.5694 28.3309 12.9647C28.2406 12.8781 28.1558 12.7896 28.0783 12.6983C28.0009 12.7887 27.9179 12.8762 27.8285 12.961C27.1814 13.5694 26.3951 13.8755 25.488 13.8755H25.4668C24.5625 13.8755 23.7753 13.5694 23.1319 12.9647C23.0397 12.8771 22.953 12.7868 22.8728 12.6937C22.7935 12.7859 22.7078 12.8753 22.6166 12.962C21.9713 13.5731 21.1785 13.8801 20.2678 13.8746C19.3662 13.8746 18.5781 13.5685 17.9309 12.9656C17.8388 12.8781 17.7521 12.7877 17.6728 12.6946C17.5945 12.7859 17.5088 12.8753 17.4175 12.962C16.7722 13.5685 15.9868 13.8746 15.0825 13.8746L15.0834 13.8764ZM13.2038 10.6445C13.2057 10.6666 13.2075 10.6887 13.2075 10.7109C13.2121 11.1801 13.3808 11.5562 13.7367 11.8945C14.1017 12.2346 14.5386 12.4024 15.0659 12.4024C15.6006 12.4024 16.0375 12.2383 16.4063 11.8917C16.7446 11.5718 16.9133 11.216 16.9335 10.7772C16.9326 10.7597 16.9317 10.7413 16.9317 10.7238V9.96604C16.9317 9.94668 16.9317 9.9264 16.9345 9.90704L17.1972 6.63089H14.0335L13.2048 10.0536V10.6454L13.2038 10.6445ZM23.6057 10.6141C23.6103 10.6454 23.613 10.6777 23.613 10.7109C23.6186 11.1801 23.7873 11.5553 24.144 11.8926C24.5091 12.2346 24.9432 12.4024 25.4714 12.4024H25.4853C26.0153 12.4024 26.4495 12.2356 26.8164 11.8908C27.1436 11.5792 27.3114 11.2317 27.3381 10.8077C27.3344 10.78 27.3335 10.7514 27.3335 10.7229V10.0545L26.4937 6.63089H23.3374L23.6038 9.90612C23.6057 9.9264 23.6066 9.94576 23.6066 9.96604V10.615L23.6057 10.6141ZM18.4066 10.6445C18.4084 10.6666 18.4103 10.6878 18.4103 10.7109C18.4158 11.1801 18.5836 11.5553 18.9413 11.8926C19.3081 12.2346 19.7451 12.4024 20.2724 12.4024C20.8043 12.4061 21.2384 12.2383 21.6035 11.8936C21.9344 11.5801 22.1086 11.2225 22.1344 10.8021C22.1318 10.7761 22.1306 10.7499 22.1308 10.7238V9.99554L21.857 6.63089H18.6758L18.4066 9.99461V10.6445ZM8.00109 10.7146C8.00754 11.1819 8.17624 11.5562 8.53206 11.8926C8.90171 12.2374 9.34326 12.4033 9.877 12.4024C10.4024 12.4024 10.832 12.2356 11.1943 11.8936C11.5372 11.57 11.7087 11.2114 11.7317 10.7717C11.7308 10.756 11.7299 10.7394 11.7299 10.7238V9.96604C11.7299 9.90796 11.7372 9.84897 11.7501 9.79274L12.5162 6.63181H9.40871L8.00201 10.1098V10.7155L8.00109 10.7146ZM34.0103 10.6076C34.0158 10.6417 34.0186 10.6758 34.0186 10.7109C34.0232 11.1801 34.1919 11.5553 34.5495 11.8926C34.9146 12.2346 35.3487 12.4024 35.8769 12.4024H35.8899C36.4153 12.4024 36.8467 12.2346 37.2145 11.8908C37.5602 11.5608 37.7326 11.1736 37.7381 10.7109V10.1559L35.7341 6.62628H32.7123L33.9559 9.68672C33.9918 9.77522 34.0103 9.86925 34.0103 9.96419V10.6076ZM28.8075 10.6076C28.8121 10.6408 28.8149 10.6758 28.8158 10.7099C28.8213 11.1792 28.9891 11.5553 29.3449 11.8936C29.7072 12.2337 30.1441 12.4015 30.6742 12.4015C31.2042 12.4015 31.6412 12.2374 32.0118 11.8899C32.3381 11.5811 32.5123 11.2243 32.54 10.8058C32.5372 10.7782 32.5354 10.7505 32.5354 10.7229V10.1089L31.1222 6.62997H28.012L28.7863 9.78905C28.8001 9.8462 28.8075 9.9052 28.8075 9.96419V10.6076ZM2.80202 10.1596V10.6878C2.80202 11.1672 2.97072 11.5497 3.33299 11.8936C3.70264 12.2374 4.14143 12.4043 4.68069 12.4024C5.20429 12.4024 5.63293 12.2356 5.99521 11.8926C6.35011 11.5562 6.5188 11.1819 6.52618 10.7136V9.96512C6.52618 9.87017 6.54461 9.77614 6.57964 9.68857L7.81673 6.63089H4.80237L2.80202 10.1596ZM1.21207 32.4548C1.01648 32.4548 0.828905 32.5325 0.690605 32.6708C0.552305 32.8091 0.474609 32.9966 0.474609 33.1922C0.474609 33.3878 0.552305 33.5754 0.690605 33.7137C0.828905 33.852 1.01648 33.9297 1.21207 33.9297H39.2709C39.4665 33.9297 39.6541 33.852 39.7924 33.7137C39.9307 33.5754 40.0084 33.3878 40.0084 33.1922C40.0084 32.9966 39.9307 32.8091 39.7924 32.6708C39.6541 32.5325 39.4665 32.4548 39.2709 32.4548H1.21207Z" fill="#26A1D6"/>
</svg>
