<svg width="168" height="150" viewBox="0 0 168 150" fill="none" xmlns="http://www.w3.org/2000/svg">
<path d="M158.061 91.351C152.611 86.2212 145.718 82.8548 138.183 81.893V23.2212C138.183 16.9693 135.618 11.3586 131.611 7.19068C127.443 3.02275 121.832 0.618164 115.58 0.618164H22.6031C16.3511 0.618164 10.7405 3.18305 6.57252 7.19068C2.40458 11.3586 0 16.9693 0 23.2212V118.924C0 125.175 2.56489 130.786 6.57252 134.954C10.7405 139.122 16.3511 141.527 22.6031 141.527H112.534C118.466 146.336 125.84 149.382 134.015 149.382C143.473 149.382 151.969 145.534 158.061 139.443C164.153 133.351 168 124.855 168 115.397C168 105.939 164.153 97.4426 158.061 91.351ZM8.49618 23.2212C8.49618 19.3739 10.0992 15.8472 12.6641 13.4426C15.229 10.8777 18.7557 9.27465 22.6031 9.27465H115.58C119.427 9.27465 122.954 10.8777 125.519 13.4426C128.084 16.0075 129.687 19.5342 129.687 23.3815V73.3968L105.962 49.6716C104.359 48.0685 101.634 47.9082 99.8702 49.6716L64.1221 85.58L39.916 61.2136C38.313 59.6105 35.5878 59.4502 33.8244 61.2136L8.49618 86.8624V23.2212ZM22.4427 133.351V133.03C18.5954 133.03 15.0687 131.427 12.5038 128.862C10.0992 126.298 8.49618 122.771 8.49618 118.924V99.0456L36.8702 70.5113L61.0763 94.7174C62.6794 96.3205 65.4046 96.3205 67.1679 94.7174L102.916 58.809L126.321 82.3739L124.878 82.8548C124.237 83.0151 123.595 83.1754 122.794 83.496C122.153 83.6563 121.511 83.9769 120.87 84.1372C120.389 84.2976 120.069 84.4579 119.588 84.7785C118.947 85.0991 118.466 85.2594 117.985 85.58L115.58 87.0227C115.099 87.3434 114.779 87.5037 114.298 87.8243C113.977 87.9846 113.817 88.1449 113.496 88.3052C112.053 89.267 110.771 90.3892 109.649 91.6716C103.557 97.7632 99.7099 106.259 99.7099 115.717C99.7099 118.122 100.031 120.366 100.511 122.771C100.672 123.412 100.832 123.893 100.992 124.534C101.473 126.137 101.954 127.74 102.595 129.343V129.504C103.237 130.786 103.878 132.229 104.679 133.351H22.4427ZM151.809 133.351C147.16 138 140.908 140.725 133.855 140.725C127.122 140.725 120.87 138 116.382 133.672C115.74 133.03 115.099 132.229 114.458 131.588C113.977 131.107 113.496 130.465 113.015 129.985C112.374 129.183 111.893 128.221 111.412 127.259C111.092 126.618 110.771 126.137 110.45 125.496C110.13 124.695 109.809 123.733 109.649 122.771C109.489 122.13 109.168 121.328 109.008 120.687C108.687 119.084 108.527 117.32 108.527 115.557C108.527 108.504 111.412 102.252 115.901 97.6029C120.389 92.954 126.802 90.2289 133.855 90.2289C140.908 90.2289 147.16 93.1143 151.809 97.6029C156.458 102.252 159.183 108.504 159.183 115.557C159.183 122.45 156.298 128.702 151.809 133.351Z" fill="white"/>
</svg>
