<svg width="19" height="16" viewBox="0 0 19 16" fill="none" xmlns="http://www.w3.org/2000/svg">
<path d="M4.83452 12C3.79475 12 2.79756 11.6049 2.06234 10.9017C1.32711 10.1984 0.914062 9.24456 0.914062 8.25C0.914062 7.25544 1.32711 6.30161 2.06234 5.59835C2.79756 4.89509 3.79475 4.5 4.83452 4.5C5.08009 3.40598 5.79849 2.44457 6.83167 1.82726C7.34326 1.5216 7.91672 1.30962 8.51933 1.20343C9.12194 1.09723 9.74188 1.0989 10.3438 1.20833C10.9457 1.31777 11.5177 1.53283 12.0273 1.84123C12.5368 2.14964 12.9739 2.54535 13.3135 3.00577C13.6531 3.4662 13.8886 3.98232 14.0066 4.52466C14.1246 5.06701 14.1228 5.62496 14.0012 6.16667H14.8345C15.6081 6.16667 16.3499 6.47396 16.8969 7.02094C17.4439 7.56792 17.7512 8.30979 17.7512 9.08333C17.7512 9.85688 17.4439 10.5987 16.8969 11.1457C16.3499 11.6927 15.6081 12 14.8345 12H14.0012M6.5 9.50004L9 7.00004M9 7.00004L11.5 9.50004M9 7.00004V14.5" stroke="#182230" stroke-width="1.5" stroke-linecap="round" stroke-linejoin="round"/>
</svg>
