<svg width="55" height="37" viewBox="0 0 55 37" fill="none" xmlns="http://www.w3.org/2000/svg">
<path d="M22.1946 11.5404C21.6079 11.302 20.941 11.5908 20.7049 12.1775L16.4081 22.9162H16.0391V12.6037C16.0391 11.9712 15.5257 11.4579 14.8932 11.4579H10.3099C9.67743 11.4579 9.16406 11.9712 9.16406 12.6037C9.16406 13.2362 9.67743 13.7495 10.3099 13.7495H13.7474V24.062C13.7474 24.6945 14.2608 25.2079 14.8933 25.2079H17.1849C17.6524 25.2079 18.0764 24.9214 18.2483 24.4883L22.8317 13.0299C23.0677 12.4433 22.7834 11.7764 22.1946 11.5404Z" fill="#2091CE"/>
<path d="M26.5755 11.4815C25.9843 11.3577 25.354 11.7565 25.228 12.3799L22.9364 23.8382C22.8126 24.4592 23.216 25.062 23.837 25.1857C23.9126 25.2017 23.9883 25.2086 24.0639 25.2086C24.5979 25.2086 25.0745 24.8327 25.1845 24.2874L27.4761 12.829C27.5999 12.208 27.1965 11.6052 26.5755 11.4815Z" fill="#2091CE"/>
<path d="M35.8043 11.7034C35.6187 11.653 31.2095 10.5713 29.509 13.3305C28.9682 14.2036 28.8032 15.0859 29.014 15.9499C29.415 17.5999 31.1247 18.6174 31.945 19.1077C33.265 19.8915 33.964 20.6844 33.8173 21.223C33.7394 21.5002 33.4827 22.1877 32.7288 22.5889C31.8694 23.0472 30.5838 23.006 29.014 22.4742C28.4137 22.2771 27.765 22.5911 27.5588 23.1915C27.3572 23.7919 27.6779 24.4427 28.2761 24.6467C29.3669 25.018 30.3752 25.2036 31.2873 25.2036C32.2269 25.2036 33.0679 25.0089 33.8082 24.6124C34.8944 24.0349 35.7034 23.0196 36.0311 21.8257C36.345 20.6661 36.0976 18.9107 33.1183 17.1392C32.6118 16.8367 31.4156 16.124 31.2414 15.4067C31.2208 15.3151 31.1521 15.0355 31.4614 14.5359C32.1352 13.4359 34.4749 13.7338 35.2427 13.924C35.8637 14.0821 36.4779 13.7063 36.6314 13.0921C36.7874 12.4802 36.4184 11.8591 35.8043 11.7034Z" fill="#2091CE"/>
<path d="M44.684 11.459H42.3924C41.9249 11.459 41.5009 11.7455 41.329 12.1786L36.7456 23.637C36.5096 24.2236 36.7937 24.8905 37.3827 25.1266C37.5225 25.1838 37.6669 25.2091 37.809 25.2091C38.2627 25.2091 38.6936 24.9363 38.8724 24.4895L43.1692 13.7507H43.5382V24.0632C43.5382 24.6957 44.0516 25.2091 44.6841 25.2091C45.3166 25.2091 45.83 24.6957 45.83 24.0632V12.6049C45.8299 11.9724 45.3165 11.459 44.684 11.459Z" fill="#2091CE"/>
<path d="M44.6902 18.334H40.1068C39.4743 18.334 38.9609 18.8474 38.9609 19.4799C38.9609 20.1124 39.4743 20.6257 40.1068 20.6257H44.6902C45.3227 20.6257 45.836 20.1124 45.836 19.4799C45.836 18.8474 45.3227 18.334 44.6902 18.334Z" fill="#2091CE"/>
<path d="M46.9791 0H8.02087C3.59788 0 0 3.59799 0 8.02087V28.6459C0 33.0687 3.59788 36.6667 8.02087 36.6667H46.9792C51.4021 36.6667 55 33.0687 55 28.6459V8.02087C55 3.59799 51.4021 0 46.9791 0ZM52.7084 28.6459C52.7084 31.8037 50.1394 34.375 46.9792 34.375H8.02087C4.86062 34.375 2.29174 31.8037 2.29174 28.6459V8.02087C2.29174 4.86299 4.86073 2.29174 8.02087 2.29174H46.9792C50.1395 2.29174 52.7084 4.86299 52.7084 8.02087V28.6459Z" fill="#2091CE"/>
</svg>
