<svg width="26" height="26" viewBox="0 0 26 26" fill="none" xmlns="http://www.w3.org/2000/svg">
<path d="M1 13C1 14.0609 1.42143 15.0783 2.17157 15.8284C2.92172 16.5786 3.93913 17 5 17C6.06087 17 7.07828 16.5786 7.82843 15.8284C8.57857 15.0783 9 14.0609 9 13C9 11.9391 8.57857 10.9217 7.82843 10.1716C7.07828 9.42143 6.06087 9 5 9C3.93913 9 2.92172 9.42143 2.17157 10.1716C1.42143 10.9217 1 11.9391 1 13Z" fill="#182230" fill-opacity="0.25"/>
<path d="M17 5C17 6.06087 17.4214 7.07828 18.1716 7.82843C18.9217 8.57857 19.9391 9 21 9C22.0609 9 23.0783 8.57857 23.8284 7.82843C24.5786 7.07828 25 6.06087 25 5C25 3.93913 24.5786 2.92172 23.8284 2.17157C23.0783 1.42143 22.0609 1 21 1C19.9391 1 18.9217 1.42143 18.1716 2.17157C17.4214 2.92172 17 3.93913 17 5Z" fill="#182230" fill-opacity="0.25"/>
<path d="M17 21C17 22.0609 17.4214 23.0783 18.1716 23.8284C18.9217 24.5786 19.9391 25 21 25C22.0609 25 23.0783 24.5786 23.8284 23.8284C24.5786 23.0783 25 22.0609 25 21C25 19.9391 24.5786 18.9217 23.8284 18.1716C23.0783 17.4214 22.0609 17 21 17C19.9391 17 18.9217 17.4214 18.1716 18.1716C17.4214 18.9217 17 19.9391 17 21Z" fill="#182230" fill-opacity="0.25"/>
<path d="M8.59896 11.2667L17.399 6.73332Z" fill="#182230" fill-opacity="0.25"/>
<path d="M8.59896 14.7333L17.399 19.2667Z" fill="#182230" fill-opacity="0.25"/>
<path d="M8.59896 11.2667L17.399 6.73332M8.59896 14.7333L17.399 19.2667M1 13C1 14.0609 1.42143 15.0783 2.17157 15.8284C2.92172 16.5786 3.93913 17 5 17C6.06087 17 7.07828 16.5786 7.82843 15.8284C8.57857 15.0783 9 14.0609 9 13C9 11.9391 8.57857 10.9217 7.82843 10.1716C7.07828 9.42143 6.06087 9 5 9C3.93913 9 2.92172 9.42143 2.17157 10.1716C1.42143 10.9217 1 11.9391 1 13ZM17 5C17 6.06087 17.4214 7.07828 18.1716 7.82843C18.9217 8.57857 19.9391 9 21 9C22.0609 9 23.0783 8.57857 23.8284 7.82843C24.5786 7.07828 25 6.06087 25 5C25 3.93913 24.5786 2.92172 23.8284 2.17157C23.0783 1.42143 22.0609 1 21 1C19.9391 1 18.9217 1.42143 18.1716 2.17157C17.4214 2.92172 17 3.93913 17 5ZM17 21C17 22.0609 17.4214 23.0783 18.1716 23.8284C18.9217 24.5786 19.9391 25 21 25C22.0609 25 23.0783 24.5786 23.8284 23.8284C24.5786 23.0783 25 22.0609 25 21C25 19.9391 24.5786 18.9217 23.8284 18.1716C23.0783 17.4214 22.0609 17 21 17C19.9391 17 18.9217 17.4214 18.1716 18.1716C17.4214 18.9217 17 19.9391 17 21Z" stroke="white" stroke-width="1.5" stroke-linecap="round" stroke-linejoin="round"/>
</svg>
