<svg width="20" height="20" viewBox="0 0 20 20" fill="none" xmlns="http://www.w3.org/2000/svg">
<path d="M13.334 11.6667C13.334 12.3571 13.8937 12.9167 14.584 12.9167C15.2743 12.9167 15.834 12.3571 15.834 11.6667C15.834 10.9764 15.2743 10.4167 14.584 10.4167C13.8937 10.4167 13.334 10.9764 13.334 11.6667Z" stroke="#344054" stroke-width="1.5"/>
<path d="M15.75 6.66675C15.8047 6.39749 15.8333 6.11881 15.8333 5.83341C15.8333 3.53223 13.9678 1.66675 11.6667 1.66675C9.3655 1.66675 7.5 3.53223 7.5 5.83341C7.5 6.11881 7.52869 6.39749 7.58335 6.66675" stroke="#344054" stroke-width="1.5"/>
<path d="M5.83268 6.66095H13.3327C15.6897 6.66095 16.8682 6.66095 17.6004 7.39354C18.3327 8.12613 18.3327 9.30517 18.3327 11.6633V13.3308C18.3327 15.689 18.3327 16.8681 17.6004 17.6007C16.8682 18.3333 15.6897 18.3333 13.3327 18.3333H8.33268C5.18998 18.3333 3.61864 18.3333 2.64232 17.3565C1.66602 16.3797 1.66602 14.8076 1.66602 11.6633V9.99592C1.66602 6.85168 1.66602 5.27957 2.64232 4.30279C3.42823 3.5165 4.59971 3.36316 6.66602 3.33325H8.33268" stroke="#344054" stroke-width="1.5" stroke-linecap="round"/>
</svg>
