<svg width="24" height="25" viewBox="0 0 24 25" fill="none" xmlns="http://www.w3.org/2000/svg">
<path d="M22 12.877V17.877C22 20.877 20 22.877 17 22.877H7C4 22.877 2 20.877 2 17.877V12.877C2 10.157 3.64 8.25695 6.19 7.93695C6.45 7.89695 6.72 7.87695 7 7.87695H17C17.26 7.87695 17.51 7.88694 17.75 7.92694C20.33 8.22694 22 10.137 22 12.877Z" stroke="#182230" stroke-width="1.5" stroke-linecap="round" stroke-linejoin="round"/>
<path d="M17.7514 7.92695C17.5114 7.88695 17.2614 7.87696 17.0014 7.87696H7.00141C6.72141 7.87696 6.45141 7.89696 6.19141 7.93696C6.33141 7.65696 6.53141 7.39696 6.77141 7.15696L10.0214 3.89695C11.3914 2.53695 13.6114 2.53695 14.9814 3.89695L16.7314 5.66697C17.3714 6.29697 17.7114 7.09695 17.7514 7.92695Z" stroke="#182230" stroke-width="1.5" stroke-linecap="round" stroke-linejoin="round"/>
<path d="M22 13.377H19C17.9 13.377 17 14.277 17 15.377C17 16.477 17.9 17.377 19 17.377H22" stroke="#182230" stroke-width="1.5" stroke-linecap="round" stroke-linejoin="round"/>
</svg>
