<svg width="40" height="40" viewBox="0 0 40 40" fill="none" xmlns="http://www.w3.org/2000/svg">
<path d="M9.19531 19.8906C9.19531 21.8359 9.74219 23.7344 10.7734 25.3672L11.0156 25.7578L9.97656 29.5547L13.875 28.5312L14.25 28.7578C15.8281 29.6953 17.6406 30.1953 19.4922 30.1953H19.5C25.1719 30.1953 29.9141 25.5781 29.9141 19.8984C29.9141 17.1484 28.7266 14.5625 26.7812 12.6172C24.8281 10.6641 22.25 9.59375 19.5 9.59375C13.8203 9.59375 9.20312 14.2109 9.19531 19.8906ZM23.4688 25.7812C22.4844 25.9297 21.7188 25.8516 19.7578 25.0078C16.8828 23.7656 14.9297 20.9844 14.5312 20.4219C14.5 20.375 14.4766 20.3516 14.4688 20.3359C14.3125 20.1328 13.2031 18.6562 13.2031 17.1328C13.2031 15.6953 13.9063 14.9531 14.2344 14.6094C14.2578 14.5859 14.2734 14.5703 14.2891 14.5469C14.5703 14.2344 14.9062 14.1562 15.1172 14.1562C15.3203 14.1562 15.5312 14.1562 15.7109 14.1641H15.7734C15.9531 14.1641 16.1797 14.1641 16.4062 14.6953C16.5 14.9219 16.6406 15.2656 16.7891 15.6172C17.0469 16.2422 17.3125 16.8906 17.3594 16.9922C17.4375 17.1484 17.4922 17.3281 17.3828 17.5312C17.1172 18.0625 16.8438 18.3438 16.6562 18.5469C16.4141 18.7969 16.3047 18.9141 16.4766 19.2188C17.6719 21.2734 18.8672 21.9844 20.6875 22.8984C21 23.0547 21.1797 23.0312 21.3594 22.8203C21.5391 22.6172 22.1328 21.9141 22.3359 21.6094C22.5391 21.2969 22.75 21.3516 23.0312 21.4531C23.3125 21.5547 24.8359 22.3047 25.1484 22.4609C25.2109 22.4922 25.2656 22.5156 25.3125 22.5391C25.5312 22.6484 25.6797 22.7188 25.7422 22.8203C25.8125 22.9688 25.8125 23.5938 25.5547 24.3125C25.2969 25.0391 24.0625 25.6953 23.4688 25.7812ZM37 7.5C37 4.74219 34.7578 2.5 32 2.5H7C4.24219 2.5 2 4.74219 2 7.5V32.5C2 35.2578 4.24219 37.5 7 37.5H32C34.7578 37.5 37 35.2578 37 32.5V7.5ZM13.5703 30.7734L7 32.5L8.75781 26.0781C7.67188 24.2031 7.10156 22.0703 7.10156 19.8828C7.10938 13.0547 12.6641 7.5 19.4922 7.5C22.8047 7.5 25.9141 8.78906 28.2578 11.1328C30.5938 13.4766 32 16.5859 32 19.8984C32 26.7266 26.3203 32.2812 19.4922 32.2812C17.4141 32.2812 15.375 31.7578 13.5703 30.7734Z" fill="#2AA61A"/>
</svg>
