<svg width="28" height="28" viewBox="0 0 28 28" fill="none" xmlns="http://www.w3.org/2000/svg">
<path d="M23.9117 4.14276C21.1619 1.38099 17.8611 0 14.0091 0C10.1206 0 6.81376 1.38099 4.08825 4.14276C1.36275 6.86827 0 10.1573 0 14.0091C0 17.8973 1.36275 21.1986 4.08825 23.9117C6.81376 26.6372 10.1207 28 14.0091 28C17.8611 28 21.1618 26.6372 23.9117 23.9117C26.6372 21.1984 28 17.8975 28 14.0091C28 10.1571 26.6372 6.86827 23.9117 4.14276ZM14.0091 2.344C17.2312 2.344 19.9689 3.48877 22.2219 5.77826C24.5234 8.06749 25.6742 10.8113 25.6742 14.0093C25.6742 17.2313 24.5234 19.987 22.2219 22.2766C19.9687 24.5418 17.2313 25.6744 14.0091 25.6744C10.7748 25.6744 8.01298 24.5418 5.72356 22.2766C3.47058 19.9872 2.34383 17.2315 2.34383 14.0093C2.34383 10.775 3.47053 8.03128 5.72356 5.77826C8.01308 3.48877 10.7749 2.344 14.0091 2.344ZM19.7872 7.94049C19.7024 7.62541 19.5268 7.37116 19.2603 7.17722C18.9817 7.01981 18.685 6.9833 18.3701 7.06822C18.0671 7.14097 17.8189 7.33464 17.625 7.64972L12.4284 16.8619L9.86653 14.3001C9.67266 14.1062 9.43641 14.0274 9.15779 14.0639C8.89133 14.0639 8.66116 14.1607 8.46749 14.3546C7.95869 14.8634 7.94045 15.3478 8.41294 15.8081L11.6653 19.0786C11.7865 19.3453 11.9622 19.5572 12.1923 19.7146C12.3134 19.7995 12.5072 19.8418 12.7737 19.8418C13.1249 19.8418 13.4157 19.745 13.6459 19.5511L19.6602 8.81261C19.8178 8.53402 19.8601 8.24328 19.7873 7.94058L19.7872 7.94049Z" fill="#8EC64E"/>
</svg>
