<svg width="48" height="33" viewBox="0 0 48 33" fill="none" xmlns="http://www.w3.org/2000/svg">
<g clip-path="url(#clip0_684_20285)">
<path d="M47.2095 18.7557C47.2206 17.6926 46.7861 16.9327 45.954 16.3521C45.3476 15.9287 44.6783 15.6273 43.9794 15.3906C41.7514 14.64 39.4513 14.3127 37.1105 14.2646C36.5521 14.2535 36.3709 14.0816 36.3839 13.5177C36.419 12.0163 36.3968 10.5131 36.3968 9.00992C36.3968 7.56774 36.382 6.12741 36.4024 4.68523C36.4172 3.611 35.9642 2.79376 35.1118 2.18546C34.5109 1.7565 33.8453 1.44218 33.1427 1.21661C28.6886 -0.20523 24.1512 -0.251453 19.5788 0.414168C17.9961 0.643437 16.4504 1.03172 15.0341 1.80642C13.8489 2.45356 13.0982 3.3392 13.2665 4.8313C13.383 5.86301 13.2794 6.91691 13.3497 7.95602C13.3941 8.6087 13.2702 8.74737 12.5694 8.65492C4.94994 7.65464 -1.49734 14.86 0.305385 22.3205C2.2061 30.1896 11.1901 33.5806 17.8371 28.9231C18.1921 28.6735 18.5046 28.5533 18.9298 28.6457C20.555 28.9933 22.2025 29.1449 23.861 29.1875C24.0644 29.193 24.2973 29.1246 24.4138 29.3909C25.2015 31.188 26.8932 31.6836 28.5462 32.1199C32.5806 33.1849 36.6742 33.2163 40.7807 32.5858C42.4817 32.3251 44.1458 31.9202 45.6471 31.0235C46.701 30.393 47.2409 29.5295 47.2169 28.2334C47.1577 25.0754 47.1743 21.9156 47.2095 18.7576V18.7557ZM34.4943 8.97294C34.4906 9.64411 33.9858 9.91036 33.4903 10.16C31.8484 10.9864 30.0623 11.2823 28.267 11.4894C25.2015 11.8444 22.147 11.7538 19.1073 11.1713C17.7058 10.9032 16.7666 9.74765 15.4446 9.33718C15.2689 9.28172 15.2948 9.09127 15.2948 8.94151C15.2929 8.23891 15.2948 7.53816 15.2948 6.83741C21.694 8.93596 28.0729 8.92672 34.4943 6.71168C34.4943 7.45681 34.498 8.21487 34.4943 8.97294ZM17.0827 2.9842C20.5199 1.83971 24.0643 1.76945 27.6291 2.04494C29.5261 2.19101 31.401 2.50902 33.1612 3.27449C33.6234 3.47602 34.3112 3.64982 34.3094 4.19896C34.3057 4.74255 33.6234 4.90896 33.1593 5.10679C30.4506 6.25684 27.5736 6.39181 24.8964 6.47871C22.11 6.43988 19.5418 6.25684 17.0846 5.40078C16.3635 5.14932 15.2412 4.96443 15.2597 4.1398C15.2763 3.42425 16.3709 3.22087 17.0846 2.98235L17.0827 2.9842ZM11.2844 29.1764C6.14066 29.1875 1.90842 24.9719 1.89733 19.8281C1.88808 14.6899 6.12957 10.441 11.2567 10.4558C16.4227 10.4706 20.6346 14.664 20.6456 19.8041C20.6567 24.9367 16.4337 29.1653 11.2826 29.1764H11.2844ZM22.6961 27.2368C22.2709 27.198 21.8419 27.1906 21.4167 27.1425C20.9932 27.0945 20.5717 27.015 20.0189 26.9299C20.6845 25.9888 21.2632 25.1346 21.6367 24.1676C21.8123 23.7127 22.1821 23.8773 22.4909 23.8921C23.673 23.9525 24.2764 24.5645 24.301 25.7281C24.3257 26.8338 23.7913 27.3361 22.698 27.235L22.6961 27.2368ZM23.04 18.7076C23.6761 18.7557 24.3916 18.6078 24.1864 19.6543C24.1346 19.9187 24.179 20.2016 24.179 20.4752H24.1919C24.1919 20.5973 24.1919 20.7193 24.1919 20.8413C24.2086 22.0173 23.6964 22.3723 22.5667 22.0228C22.2228 21.9156 22.3448 21.7177 22.3855 21.5384C22.526 20.906 22.465 20.2626 22.5242 19.6266C22.5575 19.2771 22.147 18.6392 23.0382 18.7076H23.04ZM25.1164 16.5888C24.8631 16.8106 24.6116 16.8624 24.2936 16.8864C22.9402 16.9881 21.7661 16.929 21.4832 15.1762C21.3834 14.5568 20.8879 14.0002 20.5458 13.3642C25.2884 13.758 29.92 13.7469 34.4776 11.8647C34.4776 12.6431 34.6976 13.4529 34.4184 14.015C34.1041 14.6474 33.2092 14.235 32.5751 14.3238C30.8149 14.5734 29.051 14.7768 27.3647 15.3851C26.553 15.6772 25.7672 16.0174 25.1146 16.5906L25.1164 16.5888ZM26.553 17.8423C27.6957 17.1453 28.9696 16.8106 30.2694 16.5906C34.4887 15.8769 38.6858 15.9268 42.8386 17.0454C43.3655 17.1878 43.8777 17.406 44.375 17.6353C44.73 17.7998 45.2181 17.9773 45.2366 18.3841C45.2551 18.8056 44.7522 18.9591 44.412 19.1385C43.1233 19.8226 41.7125 20.1128 40.2926 20.3403C38.7173 20.5936 37.1253 20.6768 35.452 20.7045C33.0169 20.6139 30.5135 20.4678 28.1006 19.6543C27.5478 19.4676 27.0208 19.2346 26.529 18.9203C25.9299 18.5375 25.9909 18.1862 26.5549 17.8423H26.553ZM44.4619 29.5388C43.1769 30.2266 41.7717 30.552 40.3425 30.7517C36.5447 31.2842 32.7636 31.2638 29.0195 30.3153C28.9604 30.3005 28.8956 30.2987 28.8402 30.2784C25.7617 29.193 26.1444 29.3151 26.2646 26.2661C32.6028 28.3185 38.928 28.3166 45.3235 26.1293C45.3235 26.9022 45.3069 27.6861 45.3291 28.4701C45.3457 29.0932 44.8798 29.3151 44.4601 29.5388H44.4619ZM44.3011 24.3802C42.7997 25.1235 41.1745 25.4378 39.5345 25.6338C36.0733 26.0498 32.625 25.9962 29.2174 25.166C26.211 24.4338 25.9762 24.1084 26.1684 21.017C32.5806 23.1322 38.928 23.1007 45.3402 20.9338C45.3402 21.6641 45.3346 22.3907 45.3402 23.1155C45.3457 23.8311 44.8225 24.1195 44.2992 24.3784L44.3011 24.3802Z" fill="#208DCB"/>
<path d="M11.5485 18.5504C11.2749 18.5209 10.9883 18.5357 10.7313 18.4543C9.98431 18.2195 9.49804 17.4004 9.61822 16.6497C9.7495 15.8343 10.4835 15.2094 11.2934 15.2223C12.1051 15.2353 12.7966 15.8196 12.9093 16.696C12.9944 17.3634 13.2163 17.846 13.9632 17.8016C14.6178 17.7628 14.823 17.3043 14.8008 16.5665C14.7176 15.3795 14.089 14.3829 12.9186 13.7561C12.5322 13.549 12.192 13.4215 12.1809 12.8686C12.1716 12.3768 11.763 12.1254 11.2897 12.1161C10.8459 12.1087 10.4318 12.3861 10.4225 12.791C10.4096 13.4344 9.99726 13.5546 9.56275 13.7839C8.28698 14.4569 7.60472 15.8417 7.76003 17.3301C7.9024 18.6928 8.9452 19.9279 10.3005 20.2885C10.7424 20.4049 11.2157 20.3957 11.6595 20.5011C12.5728 20.7193 13.0961 21.5716 12.8983 22.4536C12.7078 23.2985 11.9202 23.8403 11.0271 23.7053C10.1433 23.5722 9.69403 23.0009 9.61083 22.1448C9.54981 21.5199 9.2207 21.1316 8.62349 21.1649C7.96896 21.2018 7.69162 21.6659 7.74339 22.3241C7.84878 23.6591 8.50516 24.6464 9.68109 25.2418C10.1359 25.4711 10.4188 25.6596 10.3652 26.2328C10.3079 26.8467 10.6795 27.2534 11.286 27.259C11.8961 27.2645 12.2641 26.8652 12.2141 26.2458C12.1679 25.6874 12.3824 25.4063 12.8927 25.2455C13.1164 25.1752 13.3198 25.0051 13.5066 24.848C14.6825 23.8588 15.0541 22.5848 14.6899 21.126C14.3386 19.719 13.0591 18.7113 11.5485 18.5467V18.5504Z" fill="#208DCB"/>
</g>
<defs>
<clipPath id="clip0_684_20285">
<rect width="47.2165" height="33" fill="white"/>
</clipPath>
</defs>
</svg>
