<svg width="24" height="24" viewBox="0 0 24 24" fill="none" xmlns="http://www.w3.org/2000/svg">
<path d="M7.05629 2.41781L8.22329 2.06681C8.86258 1.87403 9.55018 1.92044 10.1578 2.19737C10.7654 2.4743 11.2514 2.96283 11.5253 3.57181L12.4273 5.57781C12.6628 6.10161 12.7283 6.68599 12.6148 7.24895C12.5013 7.81191 12.2144 8.3252 11.7943 8.71681L10.3003 10.1098C10.2566 10.1505 10.229 10.2055 10.2223 10.2648C10.1783 10.6618 10.4473 11.4348 11.0673 12.5098C11.5183 13.2908 11.9273 13.8398 12.2743 14.1468C12.5163 14.3618 12.6493 14.4078 12.7063 14.3918L14.7163 13.7768C15.2652 13.6089 15.8529 13.617 16.397 13.7999C16.9411 13.9828 17.4143 14.3314 17.7503 14.7968L19.0313 16.5728C19.4208 17.1129 19.6012 17.776 19.5388 18.439C19.4765 19.102 19.1757 19.7198 18.6923 20.1778L17.8063 21.0178C17.3361 21.4631 16.7585 21.7791 16.1299 21.9348C15.5013 22.0906 14.8431 22.081 14.2193 21.9068C11.4653 21.1378 8.99629 18.8138 6.78429 14.9828C4.56929 11.1468 3.79229 7.84281 4.50829 5.06981C4.66947 4.44615 4.98858 3.87451 5.43487 3.41001C5.88115 2.94551 6.43957 2.60379 7.05629 2.41781ZM7.48929 3.85481C7.11937 3.96626 6.78437 4.1711 6.51657 4.44958C6.24878 4.72806 6.0572 5.07081 5.96029 5.44481C5.35829 7.77681 6.04729 10.7058 8.08329 14.2328C10.1163 17.7548 12.3053 19.8148 14.6233 20.4628C14.9974 20.567 15.3922 20.5726 15.7691 20.479C16.146 20.3854 16.4923 20.1959 16.7743 19.9288L17.6613 19.0888C17.8811 18.8806 18.0179 18.5997 18.0462 18.2982C18.0745 17.9968 17.9925 17.6953 17.8153 17.4498L16.5353 15.6748C16.3826 15.463 16.1673 15.3044 15.9198 15.2212C15.6723 15.1379 15.405 15.1343 15.1553 15.2108L13.1403 15.8278C11.9703 16.1758 10.9083 15.2348 9.76829 13.2598C9.00029 11.9298 8.64229 10.8998 8.73129 10.0988C8.77829 9.68281 8.97129 9.29881 9.27729 9.01281L10.7713 7.61981C10.9623 7.44182 11.0928 7.20849 11.1445 6.95256C11.1961 6.69663 11.1663 6.43095 11.0593 6.19281L10.1573 4.18681C10.0328 3.91022 9.81201 3.68832 9.53604 3.56248C9.26006 3.43663 8.94775 3.41543 8.65729 3.50281L7.48929 3.85481Z" fill="#1F88C8"/>
</svg>
