<svg width="24" height="24" viewBox="0 0 24 24" fill="none" xmlns="http://www.w3.org/2000/svg">
<path d="M8 13C7.73478 13 7.48043 12.8946 7.29289 12.7071C7.10536 12.5196 7 12.2652 7 12C7 11.7348 7.10536 11.4804 7.29289 11.2929C7.48043 11.1054 7.73478 11 8 11C8.26522 11 8.51957 11.1054 8.70711 11.2929C8.89464 11.4804 9 11.7348 9 12C9 12.2652 8.89464 12.5196 8.70711 12.7071C8.51957 12.8946 8.26522 13 8 13ZM8 17C7.73478 17 7.48043 16.8946 7.29289 16.7071C7.10536 16.5196 7 16.2652 7 16C7 15.7348 7.10536 15.4804 7.29289 15.2929C7.48043 15.1054 7.73478 15 8 15C8.26522 15 8.51957 15.1054 8.70711 15.2929C8.89464 15.4804 9 15.7348 9 16C9 16.2652 8.89464 16.5196 8.70711 16.7071C8.51957 16.8946 8.26522 17 8 17ZM11 16C11 16.2652 11.1054 16.5196 11.2929 16.7071C11.4804 16.8946 11.7348 17 12 17C12.2652 17 12.5196 16.8946 12.7071 16.7071C12.8946 16.5196 13 16.2652 13 16C13 15.7348 12.8946 15.4804 12.7071 15.2929C12.5196 15.1054 12.2652 15 12 15C11.7348 15 11.4804 15.1054 11.2929 15.2929C11.1054 15.4804 11 15.7348 11 16ZM16 17C15.7348 17 15.4804 16.8946 15.2929 16.7071C15.1054 16.5196 15 16.2652 15 16C15 15.7348 15.1054 15.4804 15.2929 15.2929C15.4804 15.1054 15.7348 15 16 15C16.2652 15 16.5196 15.1054 16.7071 15.2929C16.8946 15.4804 17 15.7348 17 16C17 16.2652 16.8946 16.5196 16.7071 16.7071C16.5196 16.8946 16.2652 17 16 17ZM11 12C11 12.2652 11.1054 12.5196 11.2929 12.7071C11.4804 12.8946 11.7348 13 12 13C12.2652 13 12.5196 12.8946 12.7071 12.7071C12.8946 12.5196 13 12.2652 13 12C13 11.7348 12.8946 11.4804 12.7071 11.2929C12.5196 11.1054 12.2652 11 12 11C11.7348 11 11.4804 11.1054 11.2929 11.2929C11.1054 11.4804 11 11.7348 11 12ZM16 13C15.7348 13 15.4804 12.8946 15.2929 12.7071C15.1054 12.5196 15 12.2652 15 12C15 11.7348 15.1054 11.4804 15.2929 11.2929C15.4804 11.1054 15.7348 11 16 11C16.2652 11 16.5196 11.1054 16.7071 11.2929C16.8946 11.4804 17 11.7348 17 12C17 12.2652 16.8946 12.5196 16.7071 12.7071C16.5196 12.8946 16.2652 13 16 13ZM8 7C7.73478 7 7.48043 7.10536 7.29289 7.29289C7.10536 7.48043 7 7.73478 7 8C7 8.26522 7.10536 8.51957 7.29289 8.70711C7.48043 8.89464 7.73478 9 8 9H16C16.2652 9 16.5196 8.89464 16.7071 8.70711C16.8946 8.51957 17 8.26522 17 8C17 7.73478 16.8946 7.48043 16.7071 7.29289C16.5196 7.10536 16.2652 7 16 7H8Z" fill="black"/>
<path fill-rule="evenodd" clip-rule="evenodd" d="M6 3C5.20435 3 4.44129 3.31607 3.87868 3.87868C3.31607 4.44129 3 5.20435 3 6V18C3 18.7956 3.31607 19.5587 3.87868 20.1213C4.44129 20.6839 5.20435 21 6 21H18C18.7956 21 19.5587 20.6839 20.1213 20.1213C20.6839 19.5587 21 18.7956 21 18V6C21 5.20435 20.6839 4.44129 20.1213 3.87868C19.5587 3.31607 18.7956 3 18 3H6ZM18 5H6C5.73478 5 5.48043 5.10536 5.29289 5.29289C5.10536 5.48043 5 5.73478 5 6V18C5 18.2652 5.10536 18.5196 5.29289 18.7071C5.48043 18.8946 5.73478 19 6 19H18C18.2652 19 18.5196 18.8946 18.7071 18.7071C18.8946 18.5196 19 18.2652 19 18V6C19 5.73478 18.8946 5.48043 18.7071 5.29289C18.5196 5.10536 18.2652 5 18 5Z" fill="black"/>
</svg>
