<svg width="24" height="24" viewBox="0 0 24 24" fill="none" xmlns="http://www.w3.org/2000/svg">
<path d="M13.408 12.0002L17.708 7.71019C17.8963 7.52188 18.0021 7.26649 18.0021 7.00019C18.0021 6.73388 17.8963 6.47849 17.708 6.29019C17.5197 6.10188 17.2643 5.99609 16.998 5.99609C16.7317 5.99609 16.4763 6.10188 16.288 6.29019L11.998 10.5902L7.70799 6.29019C7.51968 6.10188 7.26429 5.99609 6.99799 5.99609C6.73168 5.99609 6.47629 6.10188 6.28799 6.29019C6.09968 6.47849 5.99389 6.73388 5.99389 7.00019C5.99389 7.26649 6.09968 7.52188 6.28799 7.71019L10.588 12.0002L6.28799 16.2902C6.19426 16.3831 6.11986 16.4937 6.06909 16.6156C6.01833 16.7375 5.99219 16.8682 5.99219 17.0002C5.99219 17.1322 6.01833 17.2629 6.06909 17.3848C6.11986 17.5066 6.19426 17.6172 6.28799 17.7102C6.38095 17.8039 6.49155 17.8783 6.61341 17.9291C6.73527 17.9798 6.86597 18.006 6.99799 18.006C7.13 18.006 7.2607 17.9798 7.38256 17.9291C7.50442 17.8783 7.61502 17.8039 7.70799 17.7102L11.998 13.4102L16.288 17.7102C16.3809 17.8039 16.4915 17.8783 16.6134 17.9291C16.7353 17.9798 16.866 18.006 16.998 18.006C17.13 18.006 17.2607 17.9798 17.3826 17.9291C17.5044 17.8783 17.615 17.8039 17.708 17.7102C17.8017 17.6172 17.8761 17.5066 17.9269 17.3848C17.9776 17.2629 18.0038 17.1322 18.0038 17.0002C18.0038 16.8682 17.9776 16.7375 17.9269 16.6156C17.8761 16.4937 17.8017 16.3831 17.708 16.2902L13.408 12.0002Z" fill="black"/>
</svg>
