<svg width="31" height="31" viewBox="0 0 31 31" fill="none" xmlns="http://www.w3.org/2000/svg">
<circle cx="15.5" cy="15.5" r="15.5" fill="white"/>
<path d="M17.4119 16.0002L21.7119 11.7102C21.9002 11.5219 22.006 11.2665 22.006 11.0002C22.006 10.7339 21.9002 10.4785 21.7119 10.2902C21.5236 10.1019 21.2682 9.99609 21.0019 9.99609C20.7356 9.99609 20.4802 10.1019 20.2919 10.2902L16.0019 14.5902L11.7119 10.2902C11.5236 10.1019 11.2682 9.99609 11.0019 9.99609C10.7356 9.99609 10.4802 10.1019 10.2919 10.2902C10.1036 10.4785 9.9978 10.7339 9.9978 11.0002C9.9978 11.2665 10.1036 11.5219 10.2919 11.7102L14.5919 16.0002L10.2919 20.2902C10.1982 20.3831 10.1238 20.4937 10.073 20.6156C10.0222 20.7375 9.99609 20.8682 9.99609 21.0002C9.99609 21.1322 10.0222 21.2629 10.073 21.3848C10.1238 21.5066 10.1982 21.6172 10.2919 21.7102C10.3849 21.8039 10.4955 21.8783 10.6173 21.9291C10.7392 21.9798 10.8699 22.006 11.0019 22.006C11.1339 22.006 11.2646 21.9798 11.3865 21.9291C11.5083 21.8783 11.6189 21.8039 11.7119 21.7102L16.0019 17.4102L20.2919 21.7102C20.3849 21.8039 20.4955 21.8783 20.6173 21.9291C20.7392 21.9798 20.8699 22.006 21.0019 22.006C21.1339 22.006 21.2646 21.9798 21.3865 21.9291C21.5083 21.8783 21.6189 21.8039 21.7119 21.7102C21.8056 21.6172 21.88 21.5066 21.9308 21.3848C21.9816 21.2629 22.0077 21.1322 22.0077 21.0002C22.0077 20.8682 21.9816 20.7375 21.9308 20.6156C21.88 20.4937 21.8056 20.3831 21.7119 20.2902L17.4119 16.0002Z" fill="black"/>
</svg>
