<svg width="67" height="2" viewBox="0 0 67 2" fill="none" xmlns="http://www.w3.org/2000/svg">
<path d="M4.49512 0.0234375V1.45215H0.755859V0.0234375H4.49512ZM9.63574 0.0234375V1.45215H5.89648V0.0234375H9.63574ZM14.7764 0.0234375V1.45215H11.0371V0.0234375H14.7764ZM19.917 0.0234375V1.45215H16.1777V0.0234375H19.917ZM25.0576 0.0234375V1.45215H21.3184V0.0234375H25.0576ZM30.1982 0.0234375V1.45215H26.459V0.0234375H30.1982ZM35.3389 0.0234375V1.45215H31.5996V0.0234375H35.3389ZM40.4795 0.0234375V1.45215H36.7402V0.0234375H40.4795ZM45.6201 0.0234375V1.45215H41.8809V0.0234375H45.6201ZM50.7607 0.0234375V1.45215H47.0215V0.0234375H50.7607ZM55.9014 0.0234375V1.45215H52.1621V0.0234375H55.9014ZM61.042 0.0234375V1.45215H57.3027V0.0234375H61.042ZM66.1826 0.0234375V1.45215H62.4434V0.0234375H66.1826Z" fill="#454545"/>
</svg>
