<svg width="18" height="13" viewBox="0 0 18 13" fill="none" xmlns="http://www.w3.org/2000/svg">
<path d="M0 3.9494V10.4C0 11.0896 0.31607 11.7509 0.87868 12.2385C1.44129 12.7261 2.20435 13 3 13H15C15.7956 13 16.5587 12.7261 17.1213 12.2385C17.6839 11.7509 18 11.0896 18 10.4V2.6C18 1.91044 17.6839 1.24912 17.1213 0.761522C16.5587 0.273928 15.7956 0 15 0H3C2.20435 0 1.44129 0.273928 0.87868 0.761522C0.31607 1.24912 0 1.91044 0 2.6V3.9494ZM3 1.3H15C15.3978 1.3 15.7794 1.43696 16.0607 1.68076C16.342 1.92456 16.5 2.25522 16.5 2.6V3.562L9 7.0616L1.5 3.562V2.6C1.5 2.25522 1.65804 1.92456 1.93934 1.68076C2.22064 1.43696 2.60218 1.3 3 1.3ZM1.5 5.0388L8.6445 8.372C8.75376 8.42297 8.87591 8.44966 9 8.44966C9.12409 8.44966 9.24624 8.42297 9.3555 8.372L16.5 5.0388V10.4C16.5 10.7448 16.342 11.0754 16.0607 11.3192C15.7794 11.563 15.3978 11.7 15 11.7H3C2.60218 11.7 2.22064 11.563 1.93934 11.3192C1.65804 11.0754 1.5 10.7448 1.5 10.4V5.0388Z" fill="#1F88C8"/>
</svg>
