<svg version="1.2" xmlns="http://www.w3.org/2000/svg" viewBox="0 0 448 512" width="448" height="512">
	<title>8665333_database_icon-svg</title>
	<style>
		.s0 { fill: #1f88c8 } 
	</style>
	<path id="Layer" class="s0" d="m448 73.1v45.8c0 40.2-100.4 73.1-224 73.1-123.6 0-224-32.9-224-73.1v-45.8c0-40.2 100.4-73.1 224-73.1 123.6 0 224 32.9 224 73.1zm0 102.9v102.9c0 40.2-100.4 73.1-224 73.1-123.6 0-224-32.9-224-73.1v-102.9c48.1 33.1 136.2 48.6 224 48.6 87.8 0 175.9-15.5 224-48.6zm0 160v102.9c0 40.2-100.4 73.1-224 73.1-123.6 0-224-32.9-224-73.1v-102.9c48.1 33.1 136.2 48.6 224 48.6 87.8 0 175.9-15.5 224-48.6z"/>
</svg>