<svg width="20" height="20" viewBox="0 0 20 20" fill="none" xmlns="http://www.w3.org/2000/svg">
<path d="M10 20C4.5 20 0 15.5 0 10C0 4.5 4.5 0 10 0C15.5 0 20 4.5 20 10C20 15.5 15.5 20 10 20ZM10 1.25C5.1875 1.25 1.25 5.1875 1.25 10C1.25 14.8125 5.1875 18.75 10 18.75C14.8125 18.75 18.75 14.8125 18.75 10C18.75 5.1875 14.8125 1.25 10 1.25Z" fill="black"/>
<path d="M14.4375 10.625H7.375L9.8125 12.625C10.0625 12.875 10.125 13.25 9.875 13.5C9.625 13.75 9.25 13.8125 9 13.5625L5.1875 10.4375C5.0625 10.375 5 10.1875 5 10C5 9.81253 5.0625 9.62503 5.25 9.50003L9.0625 6.37503C9.1875 6.25003 9.3125 6.25003 9.4375 6.25003C9.625 6.25003 9.8125 6.31253 9.9375 6.50003C10.1875 6.75003 10.125 7.18753 9.875 7.37503L7.375 9.37503H14.4375C14.8125 9.37503 15.0625 9.62503 15.0625 10C15.0625 10.375 14.75 10.625 14.4375 10.625Z" fill="black"/>
</svg>
