<svg width="27" height="35" viewBox="0 0 27 35" fill="none" xmlns="http://www.w3.org/2000/svg">
<g clip-path="url(#clip0_684_20261)">
<path d="M7.67415 2.2397C8.8883 2.47188 9.929 2.00753 10.926 1.2031C12.9118 -0.400286 13.4485 -0.404384 15.4289 1.2031C16.4286 2.01435 17.4816 2.42681 18.7572 2.26019C18.9142 2.2397 19.0754 2.24517 19.2338 2.24107C21.0981 2.19463 21.7591 2.60709 22.2016 4.43992C22.584 6.02282 23.3857 7.15503 24.7924 7.99906C26.4286 8.98103 26.669 9.7636 25.926 11.55C25.31 13.0318 25.2977 14.4017 25.9164 15.8876C26.6812 17.7245 26.4272 18.4798 24.7064 19.5287C23.398 20.3277 22.6591 21.3888 22.2385 22.8611C21.9503 23.8731 21.9967 24.7008 22.3955 25.6363C23.1453 27.3899 23.8064 29.1818 24.4961 30.96C24.8552 31.8846 24.5124 32.2984 23.5236 32.1755C22.5307 32.0526 21.531 31.9761 20.5436 31.8204C20.0915 31.7494 19.8307 31.8969 19.563 32.2274C18.962 32.9704 18.3283 33.686 17.7097 34.414C16.979 35.2744 16.4887 35.1897 16.0708 34.1176C15.2773 32.0867 14.4974 30.0504 13.6848 28.0264C13.5933 27.7997 13.3297 27.6412 13.1467 27.4514C12.9855 27.6412 12.7602 27.8051 12.6741 28.0236C11.8574 30.0695 11.068 32.1277 10.2636 34.1791C9.8689 35.1843 9.36085 35.2566 8.65066 34.4208C8.10573 33.7789 7.51026 33.1739 7.02815 32.4883C6.60067 31.8805 6.11037 31.7275 5.40974 31.8546C4.53839 32.0116 3.65066 32.0785 2.77248 32.1919C1.88065 32.308 1.51736 31.8737 1.83968 31.0351C2.6564 28.9155 3.50179 26.8068 4.29802 24.6803C4.41138 24.3798 4.36904 23.9961 4.31714 23.6628C4.00029 21.6251 2.91862 20.1679 1.11174 19.1217C1.70625e-05 18.4825 -0.260841 17.6522 0.25268 16.4831C1.07759 14.6052 1.06257 12.8488 0.247217 10.9737C-0.259475 9.80731 0.0464525 9.04112 1.11583 8.32001C3.90059 6.44074 3.46082 6.51722 4.283 3.99196C4.71321 2.67128 5.3155 2.27111 6.70993 2.24107C7.00493 2.23424 7.3013 2.24107 7.67278 2.24107L7.67415 2.2397ZM7.67005 23.7652C8.21362 23.8008 8.75992 23.8089 9.29802 23.8786C10.4671 24.0288 11.2934 24.8155 12.177 25.4861C13.1153 26.1976 13.2956 26.2577 14.1792 25.4683C15.6433 24.1586 17.289 23.6068 19.2502 23.7898C20.5108 23.9073 20.6214 23.8253 20.8905 22.5989C21.307 20.7005 22.3109 19.3156 23.9921 18.3364C25.0861 17.6986 25.1325 17.562 24.6313 16.4162C23.8446 14.6175 23.8296 12.8843 24.6217 11.0815C25.1284 9.92749 25.0792 9.77726 24.0071 9.15175C22.3313 8.17251 21.3111 6.8013 20.8946 4.89745C20.6173 3.6273 20.4876 3.55628 19.2065 3.67647C17.3559 3.84992 15.773 3.38283 14.3636 2.13864C13.2587 1.16486 13.1508 1.22086 11.9872 2.12771C11.7714 2.2957 11.5529 2.45959 11.3425 2.63167C10.4029 3.40195 9.31851 3.7352 8.11255 3.69422C7.70283 3.68057 7.29447 3.65871 6.88475 3.64779C5.94921 3.62457 5.81127 3.72837 5.53129 4.63386C5.45754 4.87286 5.36877 5.10777 5.31824 5.35224C4.99319 6.91739 4.0918 8.03457 2.7479 8.8786C1.24968 9.8196 1.23056 9.87423 1.89977 11.535C2.5048 13.0346 2.49114 14.47 1.88885 15.9668C1.23056 17.6016 1.25104 17.6535 2.77522 18.6123C4.09726 19.444 4.91944 20.5598 5.3237 22.0799C5.86453 24.1121 5.73069 23.8021 7.67415 23.7652H7.67005ZM22.8981 30.7005C22.1797 28.869 21.5242 27.1769 20.8399 25.497C20.7785 25.3468 20.5286 25.1883 20.3606 25.1802C19.6804 25.1487 18.9962 25.2047 18.316 25.1747C17.3614 25.131 16.5406 25.4 15.7921 26.0023C14.7405 26.8505 14.7241 26.8313 15.2213 28.1029C15.8386 29.6803 16.4573 31.2577 17.121 32.9554C17.7397 32.2329 18.3161 31.6265 18.8118 30.9627C19.2229 30.411 19.705 30.2785 20.351 30.385C21.1541 30.5189 21.9667 30.5885 22.8981 30.7005V30.7005ZM9.2393 32.9622C10.0396 30.9163 10.7949 29.0015 11.5269 27.0785C11.5693 26.9652 11.4668 26.7371 11.3603 26.6374C10.2759 25.6172 9.05902 24.9603 7.49114 25.1829C6.87519 25.2703 6.08169 25.0081 5.65967 25.3113C5.224 25.624 5.13659 26.4271 4.90441 27.0185C4.43733 28.2121 3.97571 29.4071 3.47448 30.7019C4.42504 30.5871 5.25951 30.5052 6.08715 30.3796C6.67852 30.2894 7.12922 30.4055 7.51163 30.9177C8.01285 31.5882 8.59193 32.2028 9.24066 32.9635L9.2393 32.9622Z" fill="#208DCB"/>
<path d="M13.1487 4.74443C18.0462 4.70482 22.1203 8.71602 22.1776 13.6354C22.2363 18.6068 18.2006 22.6931 13.2074 22.7163C8.25246 22.7395 4.20438 18.727 4.1798 13.7652C4.15522 8.82665 8.17461 4.78404 13.1473 4.74443H13.1487ZM13.2265 6.15115C9.02137 6.1252 5.62886 9.46582 5.57423 13.6873C5.52096 17.8351 8.95445 21.3109 13.1295 21.3355C17.3142 21.3601 20.734 17.9867 20.7832 13.7857C20.8324 9.61878 17.4262 6.1771 13.2265 6.15115V6.15115Z" fill="#208DCB"/>
<path d="M9.67966 17.8448C9.8135 17.039 9.97193 16.2346 10.0662 15.4247C10.0921 15.2007 9.99241 14.8975 9.84081 14.7295C9.38466 14.2242 8.84109 13.7967 8.39859 13.2818C8.1869 13.036 7.96155 12.6071 8.04213 12.3613C8.12407 12.1141 8.56111 11.9079 8.8766 11.8328C9.53762 11.6771 10.2273 11.647 10.8924 11.5077C11.1164 11.4613 11.3786 11.2783 11.4906 11.083C11.8498 10.4534 12.1162 9.77049 12.4835 9.14634C12.6242 8.9087 12.9397 8.63418 13.1773 8.63282C13.4136 8.63145 13.7332 8.90324 13.8725 9.14088C14.2413 9.76502 14.5076 10.4479 14.8668 11.0775C14.9788 11.2742 15.2382 11.4613 15.4609 11.5077C16.126 11.6484 16.8157 11.6771 17.4767 11.8328C17.7949 11.9079 18.2306 12.1114 18.3153 12.3599C18.3986 12.603 18.1746 13.036 17.9643 13.2805C17.5218 13.7953 16.9782 14.2228 16.5221 14.7281C16.3705 14.8961 16.2694 15.198 16.2926 15.4233C16.3677 16.1444 16.5453 16.856 16.6136 17.5771C16.6395 17.8557 16.5644 18.2641 16.3773 18.4102C16.1929 18.555 15.7682 18.5345 15.5182 18.4266C14.7097 18.077 13.9353 17.3504 13.1446 17.3449C12.3811 17.3395 11.6177 18.0565 10.846 18.4402C10.2232 18.7503 9.69058 18.4717 9.67829 17.8475L9.67966 17.8448ZM16.2667 13.1248C15.424 12.9295 14.6715 12.9417 14.1839 12.588C13.7113 12.2452 13.5119 11.5268 13.0845 10.7866C12.7499 12.4801 11.7693 13.1248 10.1659 13.0606C11.5371 13.936 11.8867 15.0846 11.2434 16.5842C12.0042 16.2578 12.5996 15.803 13.1965 15.8003C13.7824 15.7989 14.3696 16.2578 15.1358 16.5938C14.4693 15.0655 14.8354 13.9442 16.268 13.1248H16.2667Z" fill="#208DCB"/>
</g>
<defs>
<clipPath id="clip0_684_20261">
<rect width="26.3261" height="35" fill="white"/>
</clipPath>
</defs>
</svg>
