<svg width="39" height="33" viewBox="0 0 39 33" fill="none" xmlns="http://www.w3.org/2000/svg">
<path d="M33.6067 15.0352V3.71814C33.6067 1.66795 31.876 0 29.7486 0L4.67838 0.000254459C2.55103 0.000254459 0.820312 1.6682 0.820312 3.71839V23.4686C0.820312 25.5188 2.55103 27.1867 4.67838 27.1867H19.5887C21.203 30.2532 24.5003 32.3644 28.3055 32.3644C33.6968 32.3644 38.0828 28.1374 38.0828 22.9417C38.0826 19.6292 36.2958 16.7159 33.6061 15.0349L33.6067 15.0352ZM4.67825 25.5034C3.51409 25.5034 2.56732 24.5909 2.56732 23.469V3.71814C2.56732 2.59621 3.51416 1.68377 4.67825 1.68377H29.7485C30.9126 1.68377 31.8594 2.59628 31.8594 3.71814V14.1727C30.756 13.7556 29.5604 13.519 28.3055 13.519C27.7296 13.519 27.1683 13.5767 26.6191 13.6694L23.7715 11.4385C23.7675 11.4357 23.7633 11.434 23.7593 11.4307C23.7348 11.4121 23.7087 11.3976 23.6825 11.3818C23.6588 11.3673 23.636 11.3515 23.611 11.3398C23.5922 11.3309 23.5724 11.3253 23.5526 11.3174C23.5188 11.3039 23.4855 11.2899 23.4507 11.2803C23.4378 11.277 23.424 11.2765 23.4106 11.2729C23.3699 11.264 23.3279 11.2556 23.2865 11.2528C23.2701 11.2518 23.2527 11.2533 23.2363 11.2528C23.1978 11.2523 23.1589 11.251 23.1204 11.2556C23.0995 11.2579 23.0789 11.264 23.0581 11.2673C23.0232 11.2734 22.9889 11.279 22.9551 11.2897C22.9358 11.2958 22.9174 11.3049 22.8975 11.3126C22.8627 11.3256 22.8289 11.339 22.7956 11.3563C22.7922 11.3586 22.788 11.3591 22.7845 11.3614L18.8293 13.5518L14.1274 9.32988C14.1226 9.3253 14.1158 9.32428 14.111 9.32046C14.0318 9.25201 13.9433 9.20087 13.8483 9.16499C13.8367 9.16041 13.8256 9.15608 13.814 9.15201C13.7189 9.12046 13.6212 9.10595 13.5217 9.10723C13.5087 9.10723 13.4961 9.10723 13.4831 9.10773C13.386 9.11282 13.2899 9.13471 13.1977 9.1716C13.1842 9.17669 13.1716 9.18178 13.1581 9.18789C13.0905 9.21868 13.0253 9.25583 12.9654 9.30469L4.06201 16.6012C3.69448 16.9019 3.64959 17.4335 3.96247 17.7877C4.13488 17.9837 4.38123 18.0842 4.6281 18.0842C4.8285 18.0842 5.02944 18.0185 5.19367 17.8839L13.5062 11.0721L20.471 17.3274C19.2562 18.8976 18.5272 20.8372 18.5272 22.9418C18.5272 23.8309 18.664 24.6871 18.904 25.5032L4.67825 25.5034ZM21.6353 16.0716L20.1672 14.7532L23.1355 13.1099L24.5732 14.2356C23.4777 14.6743 22.4884 15.3023 21.6353 16.0716ZM28.3054 30.6815C23.8772 30.6815 20.2753 27.2091 20.2753 22.9427C20.2753 18.6756 23.8784 15.2039 28.3054 15.2039C32.733 15.2039 36.3354 18.6762 36.3354 22.9427C36.3354 27.2091 32.7332 30.6815 28.3054 30.6815Z" fill="black"/>
<path d="M7.43772 9.69025C9.46896 9.69025 11.1215 8.09761 11.1215 6.14005C11.1215 4.18249 9.46896 2.58984 7.43772 2.58984C5.40649 2.58984 3.75391 4.18249 3.75391 6.14005C3.75391 8.09761 5.40649 9.69025 7.43772 9.69025ZM7.43772 4.27284C8.50576 4.27284 9.37466 5.11023 9.37466 6.13953C9.37466 7.16883 8.50576 8.00622 7.43772 8.00622C6.36969 8.00622 5.50078 7.16883 5.50078 6.13953C5.50078 5.11023 6.36969 4.27284 7.43772 4.27284Z" fill="black"/>
<path d="M28.872 18.2293C28.8685 18.2265 28.8643 18.2247 28.8604 18.2219C28.8482 18.2112 28.8342 18.2028 28.8213 18.1934C28.8009 18.1794 28.7793 18.1659 28.7579 18.1535C28.7439 18.1451 28.7304 18.1361 28.7159 18.1283C28.703 18.1216 28.6885 18.1166 28.6758 18.1102C28.6531 18.1 28.6304 18.0921 28.6071 18.0837C28.5908 18.0776 28.5744 18.0708 28.5578 18.0657C28.5443 18.0618 28.5298 18.0596 28.5163 18.0562C28.4931 18.0507 28.4691 18.0468 28.4453 18.0433C28.4279 18.0405 28.4104 18.0367 28.393 18.0349C28.3772 18.0331 28.3603 18.0339 28.3447 18.0331C28.3325 18.0326 28.3215 18.0298 28.309 18.0298C28.2969 18.0298 28.2858 18.0326 28.2734 18.0331C28.2576 18.0336 28.2407 18.0331 28.2251 18.0349C28.2077 18.0367 28.1902 18.0405 28.1728 18.0433C28.149 18.0471 28.125 18.0512 28.1018 18.0562C28.0883 18.0596 28.0738 18.0618 28.0603 18.0657C28.0434 18.0708 28.0271 18.0774 28.011 18.0837C27.9877 18.0921 27.965 18.1 27.9423 18.1102C27.9294 18.1163 27.9156 18.1219 27.9022 18.1283C27.8882 18.1361 27.8742 18.1451 27.8597 18.1535C27.838 18.1659 27.8172 18.1792 27.7973 18.1934C27.7839 18.2028 27.7699 18.2115 27.7577 18.2219C27.7538 18.2247 27.7496 18.2265 27.7461 18.2293L24.2397 21.0831C23.8712 21.3828 23.8244 21.9136 24.136 22.2688C24.3084 22.4663 24.5553 22.5673 24.8035 22.5673C25.0025 22.5673 25.2029 22.5022 25.3666 22.3686L27.4356 20.6843V27.0104C27.4356 27.4751 27.8269 27.8522 28.309 27.8522C28.7912 27.8522 29.1825 27.4751 29.1825 27.0104V20.6851L31.2514 22.3693C31.4151 22.5029 31.6153 22.568 31.8146 22.568C32.0633 22.568 32.3102 22.4665 32.4821 22.2695C32.7936 21.9143 32.7472 21.3833 32.3783 21.0838L28.872 18.2293Z" fill="black"/>
</svg>
