<svg width="42" height="42" viewBox="0 0 42 42" fill="none" xmlns="http://www.w3.org/2000/svg">
<path d="M2.66709 7.33523C1.19616 7.33523 -0.000267029 6.13881 -0.000267029 4.66787V2.66736C-0.000267029 1.19642 1.19616 0 2.66709 0H38.6764C40.1473 0 41.3438 1.19642 41.3438 2.66736V4.66787C41.3438 6.13881 40.1473 7.33523 38.6764 7.33523H38.2316V24.1175H38.6764C40.1473 24.1175 41.3438 25.3139 41.3438 26.7848V28.7853C41.3438 30.2563 40.1473 31.4527 38.6764 31.4527H23.8916L31.6178 39.1781C32.1385 39.6988 32.1385 40.543 31.6178 41.064C31.3576 41.3248 31.0165 41.4549 30.675 41.4549C30.3336 41.4549 29.9921 41.3248 29.7322 41.064L22.006 33.3386V40.0103C22.006 40.7465 21.4086 41.3439 20.6723 41.3439C19.9361 41.3439 19.3387 40.7465 19.3387 40.0103V33.3386L11.7239 40.9534C11.4634 41.2139 11.122 41.3439 10.7811 41.3439C10.4402 41.3439 10.0982 41.2139 9.83831 40.9531C9.31765 40.4324 9.31765 39.5881 9.83831 39.0672L17.4528 31.4527H2.668C1.19707 31.4527 0.000648499 30.2563 0.000648499 28.7854V26.7848C0.000648499 25.3139 1.19707 24.1175 2.668 24.1175H3.11276V7.33524L2.66709 7.33523ZM2.66709 4.66787V6.00155V4.66787ZM38.6764 2.66736H2.66709L2.67096 4.66787H38.6765L38.6764 2.66736ZM2.66709 28.7853V30.119V28.7853ZM2.67096 28.7853H38.6765V26.7848H2.66715L2.67096 28.7853ZM5.77919 24.1175H35.5644V7.33523H5.77843V24.1175H5.77919Z" fill="#1F88C8"/>
<path d="M19.0256 15.4144H14.3879H14.3745C13.6383 15.4144 13.0408 14.817 13.0408 14.0807C13.0408 14.0081 13.0467 13.9361 13.0581 13.8667C13.1709 10.6724 15.8049 8.10986 19.0257 8.10986C19.7619 8.10986 20.3594 8.70734 20.3594 9.44354V14.0813C20.3594 14.8175 19.7619 15.4144 19.0257 15.4144L19.0256 15.4144ZM17.692 11.0586C16.9412 11.3914 16.3356 11.996 16.0028 12.7477H17.692V11.0586Z" fill="#1F88C8"/>
<path d="M22.3176 23.3433C19.0248 23.3433 16.3462 20.6647 16.3462 17.3718C16.3462 16.6356 16.9436 16.0382 17.6798 16.0382H20.9839V12.7341C20.9839 11.9979 21.5814 11.4004 22.3176 11.4004C25.6104 11.4004 28.2891 14.079 28.2891 17.3718C28.2894 20.6647 25.6104 23.3433 22.3176 23.3433ZM23.6513 14.3497V17.3725C23.6513 18.1087 23.0538 18.7062 22.3176 18.7062H19.2948C19.8083 19.8657 20.9699 20.6766 22.3176 20.6766C24.1395 20.6766 25.6217 19.1941 25.6217 17.3725C25.622 16.0245 24.8111 14.8629 23.6513 14.3497Z" fill="#1F88C8"/>
</svg>
