<svg width="46" height="46" viewBox="0 0 46 46" fill="none" xmlns="http://www.w3.org/2000/svg">
<path d="M36.1989 6.23008H33.9046V3.93502C33.9046 2.83349 33.3171 1.81584 32.3629 1.2649L32.3628 1.26489C31.409 0.714317 30.2337 0.714317 29.2798 1.26489L29.2798 1.2649C28.3257 1.81583 27.7381 2.83349 27.7381 3.93502V6.22974L13.3719 6.23007V3.93501C13.3719 2.83349 12.7844 1.81583 11.8302 1.2649L11.8302 1.26489C10.8763 0.714309 9.70103 0.714309 8.74715 1.26489L8.74713 1.2649C7.793 1.81582 7.20543 2.83348 7.20543 3.93501V6.22975L4.91105 6.23007H4.91092C3.83415 6.23113 2.80199 6.65957 2.04078 7.42084C1.27953 8.18209 0.851088 9.21421 0.85 10.291V10.2911L0.85 36.2005L0.85 36.2007C0.851062 37.2774 1.27951 38.3096 2.04078 39.0708C2.80202 39.8321 3.83414 40.2605 4.91092 40.2616H4.91107H24.0373C26.0132 43.0387 29.1087 44.8106 32.5065 45.1068C35.9305 45.4049 39.3111 44.1737 41.7413 41.7434C44.1716 39.3131 45.4029 35.9327 45.1048 32.5086C44.8089 29.1105 43.037 26.0149 40.26 24.0391V10.2912V10.291C40.2589 9.21423 39.8305 8.18207 39.0692 7.42086C38.308 6.65962 37.2758 6.23117 36.1991 6.23008H36.1989ZM4.91193 8.48619H7.20569V9.31349C7.20569 10.415 7.79316 11.433 8.74738 11.9836C9.70125 12.5345 10.8765 12.5345 11.8304 11.9836C12.7846 11.433 13.3722 10.415 13.3722 9.31349V8.48619H27.7383V9.31349C27.7383 10.415 28.3258 11.433 29.28 11.9836C30.2339 12.5345 31.4092 12.5345 32.3631 11.9836C33.3173 11.433 33.9048 10.415 33.9048 9.31349V8.48619H36.199C36.6779 8.48682 37.1367 8.67732 37.4752 9.01583C37.8137 9.35434 38.0042 9.81313 38.0049 10.2921V15.0299H3.10604V10.2921C3.10667 9.81313 3.29717 9.35433 3.63568 9.01583C3.9742 8.67733 4.43298 8.48681 4.91193 8.48619ZM40.142 40.1449C38.3904 41.8965 36.0176 42.885 33.5408 42.8961H33.5104C31.0219 42.8961 28.6355 41.9073 26.8757 40.1479C25.1162 38.3882 24.1278 36.0017 24.1278 33.5129C24.1278 31.0244 25.1163 28.638 26.876 26.8782C28.6355 25.1187 31.0222 24.1303 33.5107 24.1303C35.9992 24.1303 38.3856 25.1188 40.1454 26.8785C41.9049 28.638 42.8936 31.0246 42.8937 33.513C42.8906 36.0005 41.9011 38.3857 40.142 40.1449ZM29.9937 3.93581C29.9937 3.47887 30.3643 3.10815 30.8217 3.10815C31.2786 3.10815 31.6493 3.47885 31.6493 3.93581V9.31358C31.6493 9.77056 31.2786 10.1412 30.8217 10.1412C30.3643 10.1412 29.9937 9.77051 29.9937 9.31358V3.93581ZM9.46101 3.93581C9.46101 3.47883 9.83171 3.10815 10.2887 3.10815C10.746 3.10815 11.1167 3.47888 11.1167 3.93581V9.31358C11.1167 9.77052 10.746 10.1412 10.2887 10.1412C9.83169 10.1412 9.46101 9.77054 9.46101 9.31358V3.93581ZM4.91153 38.0074C4.43258 38.0068 3.97378 37.8163 3.63529 37.4778C3.29683 37.1393 3.10631 36.6806 3.10564 36.2017C3.10564 36.2017 3.10564 36.2016 3.10564 36.2015L3.10564 17.2857H38.0045V22.7812C35.1757 21.5937 31.9887 21.5711 29.1396 22.7242C26.2191 23.9064 23.903 26.2224 22.7212 29.1426C21.5681 31.9918 21.5907 35.1788 22.7778 38.0075L4.91153 38.0074Z" fill="#2296D2" stroke="#2296D2" stroke-width="0.3"/>
</svg>
