<svg width="50" height="41" viewBox="0 0 50 41" fill="none" xmlns="http://www.w3.org/2000/svg">
<path d="M38.9072 40.4963C38.7039 40.5114 38.4983 40.5086 38.2911 40.4879C38.0544 40.4644 37.8173 40.4154 37.5834 40.3429L7.25843 30.9427H3.57163C1.61423 30.9427 0 29.3285 0 27.3711V3.56771C0 1.61 1.61423 0.000465393 3.57163 0.000465393H46.4124C48.3698 0.000465393 49.984 1.6099 49.984 3.56771V9.64259C49.9832 10.2076 49.5847 10.6945 49.0308 10.807C46.8077 11.2608 45.2213 13.2042 45.2221 15.4723C45.2233 17.7389 46.8093 19.6747 49.0308 20.1283C49.5863 20.241 49.9848 20.73 49.984 21.2962V27.3715C49.984 29.3289 48.3698 30.9431 46.4124 30.9431H44.2367L42.0506 37.993C41.6067 39.4243 40.3287 40.3891 38.9066 40.4967L38.9072 40.4963ZM38.733 38.1241C39.204 38.0918 39.6212 37.7834 39.7755 37.2861L41.7444 30.9426H15.2989L38.2872 38.0719C38.3681 38.097 38.4506 38.1125 38.5287 38.1205C38.5976 38.1273 38.6662 38.1285 38.7335 38.1241L38.733 38.1241ZM3.57169 28.5621H46.4124C47.0923 28.5621 47.6027 28.0509 47.6027 27.3711V21.8852C44.8795 20.8459 42.8424 18.4626 42.8408 15.472C42.8396 12.4786 44.8771 10.0893 47.6027 9.04929V3.56739C47.6027 2.88718 47.0923 2.38192 46.4124 2.38192H3.57169C2.89187 2.38192 2.38019 2.88719 2.38019 3.56739V27.3708C2.38019 28.0506 2.89184 28.5618 3.57169 28.5618V28.5621Z" fill="#2296D2"/>
</svg>
