<svg width="43" height="43" viewBox="0 0 43 43" fill="none" xmlns="http://www.w3.org/2000/svg">
<path d="M37.587 1.20009V1.20009ZM5.07095 6.1233V33.4081H1.70366C1.23275 33.4081 0.85 33.7903 0.85 34.2618V37.7791C0.85 40.1898 2.81021 42.1501 5.221 42.1501H29.842C32.6393 42.1501 34.9161 39.8733 34.9161 37.076V10.4946H41.097C41.5679 10.4946 41.9506 10.1125 41.9506 9.64096V5.41997C41.9506 3.07188 40.0828 1.11566 37.6916 1.05252L37.6907 1.0502H37.5974C37.5925 1.04965 37.5865 1.04922 37.5799 1.04922H10.145C7.3467 1.04922 5.07095 3.3255 5.07095 6.1233ZM37.3149 2.76862L37.3152 2.7686C38.9338 2.61208 40.243 3.89252 40.243 5.41969V8.78698H34.9153V5.57081C34.9153 4.12067 35.9773 2.896 37.3149 2.76862ZM28.4345 12.3038H28.4343H11.5513C11.0798 12.3038 10.6977 12.6866 10.6977 13.1575C10.6977 13.629 11.0804 14.0111 11.5513 14.0111L28.4343 14.0116C28.9059 14.0116 29.288 13.6289 29.288 13.158C29.288 12.6864 28.9052 12.3044 28.4345 12.3038ZM28.4345 16.5248H28.4343H11.5513C11.0798 16.5248 10.6977 16.9076 10.6977 17.3785C10.6977 17.85 11.0804 18.2321 11.5513 18.2321H28.4343C28.9059 18.2321 29.288 17.8494 29.288 17.3785C29.288 16.9073 28.9052 16.5254 28.4345 16.5248ZM28.4345 24.9663H28.4343H11.5513C11.0798 24.9663 10.6977 25.3491 10.6977 25.82C10.6977 26.2915 11.0804 26.6736 11.5513 26.6736L28.4343 26.6741C28.9059 26.6741 29.288 26.2914 29.288 25.8205C29.288 25.3489 28.9052 24.9669 28.4345 24.9663ZM5.22016 40.4426C3.75101 40.4426 2.55658 39.2477 2.55658 37.779V35.1154H25.4707V37.779C25.4707 38.7807 25.8095 39.7051 26.3784 40.4426H5.22016ZM33.2085 37.0753C33.2085 38.9317 31.6976 40.4426 29.8412 40.4426C28.372 40.4426 27.1776 39.2477 27.1776 37.779V34.2617C27.1776 33.7908 26.7955 33.4081 26.3239 33.4081H6.77712V6.1232C6.77712 4.26676 8.28797 2.75591 10.1444 2.75591H34.1677C33.5678 3.53468 33.2085 4.51705 33.2085 5.57073L33.2085 37.0753ZM28.4343 22.4531C28.9059 22.4531 29.288 22.0704 29.288 21.5995C29.288 21.1285 28.9053 20.7458 28.4343 20.7458H11.5513C11.0798 20.7458 10.6977 21.1286 10.6977 21.5995C10.6977 22.071 11.0804 22.4531 11.5513 22.4531H28.4343Z" fill="#208DCB" stroke="#208DCB" stroke-width="0.3"/>
</svg>
