<svg width="42" height="40" viewBox="0 0 42 40" fill="none" xmlns="http://www.w3.org/2000/svg">
<path d="M38.5961 8.51487C37.9689 8.51487 37.4606 9.02286 37.4606 9.65001V25.5434H6.80897C6.1818 25.5434 5.67383 26.0514 5.67383 26.6786C5.67383 27.3054 6.18182 27.8137 6.80897 27.8137H37.4606V38.0309C37.4606 38.6577 37.969 39.1661 38.5961 39.1661C39.2229 39.1661 39.7313 38.6577 39.7313 38.0309V9.64981C39.7313 9.3485 39.6117 9.05986 39.3987 8.84684C39.1857 8.63422 38.897 8.51465 38.5961 8.51465L38.5961 8.51487Z" fill="#208FCD"/>
<path d="M41.8095 5.61362L38.4035 0.505224C38.1933 0.190052 37.8401 0.000395308 37.4612 0H4.53911C4.16019 0.000396018 3.80701 0.190052 3.59676 0.505224L0.190828 5.61362C-0.041198 5.96165 -0.0633657 6.40907 0.133812 6.77806C0.330595 7.14707 0.714663 7.37791 1.13317 7.3787H2.26832V38.0303C2.26832 38.6571 2.7767 39.1654 3.40346 39.1654C4.03063 39.1654 4.53901 38.6571 4.53901 38.0303V7.3787H40.8668C41.2853 7.37791 41.6694 7.14707 41.8662 6.77806C42.0634 6.40904 42.0412 5.96162 41.8092 5.61362H41.8095ZM3.40375 5.1084H3.25607L5.14625 2.27029H36.854L38.7442 5.1084H3.40375Z" fill="#208FCD"/>
<path d="M34.6243 23.8405C34.9256 23.8405 35.2143 23.721 35.4273 23.5079C35.6403 23.2949 35.7599 23.0063 35.7599 22.7054V10.2177C35.7599 9.91676 35.6403 9.62813 35.4273 9.41511C35.2143 9.20209 34.9256 9.08252 34.6243 9.08252H23.2719C22.6451 9.08252 22.1367 9.59091 22.1367 10.2177V22.7053C22.1367 23.0063 22.2563 23.2949 22.4693 23.5079C22.6823 23.7209 22.971 23.8405 23.2719 23.8405L34.6243 23.8405ZM24.4071 11.3528H33.4889V21.57H24.4071V11.3528Z" fill="#208FCD"/>
<path d="M20.4333 10.2172C20.4333 9.91627 20.3137 9.62764 20.1011 9.41462C19.8881 9.2016 19.5995 9.08203 19.2981 9.08203H7.94569C7.31891 9.08203 6.81055 9.59042 6.81055 10.2172V12.4879C6.81055 13.1146 7.31893 13.623 7.94569 13.623C8.57286 13.623 9.08083 13.1146 9.08083 12.4879V11.3527H19.298C19.5993 11.3527 19.888 11.2331 20.101 11.0201C20.3136 10.8071 20.4332 10.5185 20.4332 10.2172L20.4333 10.2172Z" fill="#208FCD"/>
<path d="M9.08008 22.7049C9.08008 23.0058 9.19965 23.2944 9.41266 23.5074C9.62569 23.7205 9.91432 23.84 10.2156 23.84H17.5944C18.2216 23.84 18.73 23.3316 18.73 22.7049C18.73 22.0777 18.2216 21.5693 17.5944 21.5693H10.2156C9.58847 21.5693 9.08009 22.0777 9.08009 22.7049L9.08008 22.7049Z" fill="#208FCD"/>
<path d="M16.4584 20.4343C17.0856 20.4343 17.5935 19.9264 17.5935 19.2992C17.5935 18.6721 17.0855 18.1641 16.4584 18.1641H11.35C10.7228 18.1641 10.2148 18.6721 10.2148 19.2992C10.2148 19.9264 10.7228 20.4343 11.35 20.4343H16.4584Z" fill="#208FCD"/>
<path d="M19.8655 15.894C19.8655 15.593 19.7459 15.3044 19.5329 15.0914C19.3199 14.8784 19.0313 14.7588 18.7303 14.7588H9.08045C8.45368 14.7588 7.94531 15.2672 7.94531 15.8939C7.94531 16.5211 8.4537 17.0295 9.08045 17.0295H18.7303C19.0313 17.0295 19.3199 16.9099 19.5329 16.6969C19.7459 16.4839 19.8655 16.1952 19.8655 15.8939V15.894Z" fill="#208FCD"/>
</svg>
