<svg width="47" height="47" viewBox="0 0 47 47" fill="none" xmlns="http://www.w3.org/2000/svg">
<path d="M23.0049 10.0641C24.3396 10.0641 25.6195 9.5336 26.563 8.59013C27.5065 7.64632 28.0367 6.3665 28.0367 5.0318C28.0367 3.69742 27.5066 2.4176 26.5628 1.47371C25.619 0.530233 24.3392 0 23.0047 0C21.67 0 20.3902 0.53016 19.4464 1.47396C18.5029 2.41743 17.9727 3.69726 17.9727 5.03204C17.973 6.36674 18.5031 7.64657 19.4469 8.59013C20.3904 9.53393 21.6702 10.0641 23.005 10.0641H23.0049ZM23.0049 1.43773C23.9581 1.43773 24.8723 1.81674 25.5464 2.49063C26.2203 3.16489 26.5989 4.07887 26.5989 5.03237C26.5989 5.98554 26.2202 6.89977 25.546 7.57378C24.8721 8.24771 23.9578 8.62636 23.0046 8.62636C22.0512 8.62636 21.1372 8.24767 20.4629 7.57345C19.7889 6.89952 19.4103 5.98521 19.4103 5.03204C19.4113 4.07887 19.7903 3.16522 20.4642 2.49162C21.1381 1.81769 22.0518 1.43871 23.0049 1.43773Z" fill="#1F88C8"/>
<path d="M23.7229 17.9717C23.7229 18.3686 23.401 18.6905 23.004 18.6905C22.607 18.6905 22.2852 18.3686 22.2852 17.9717C22.2852 17.5747 22.607 17.2528 23.004 17.2528C23.401 17.2528 23.7229 17.5747 23.7229 17.9717Z" fill="#1F88C8"/>
<path d="M23.7229 20.847C23.7229 21.244 23.401 21.5658 23.004 21.5658C22.607 21.5658 22.2852 21.244 22.2852 20.847C22.2852 20.45 22.607 20.1281 23.004 20.1281C23.401 20.1281 23.7229 20.45 23.7229 20.847Z" fill="#1F88C8"/>
<path d="M11.1415 21.566C9.61623 21.566 8.15344 22.1719 7.07515 23.2505C5.99652 24.3288 5.39062 25.7916 5.39062 27.3169C5.39062 28.8422 5.99652 30.305 7.07515 31.3833C8.15344 32.4619 9.61623 33.0678 11.1415 33.0678C12.6668 33.0678 14.1296 32.4619 15.2079 31.3833C16.2865 30.305 16.8924 28.8422 16.8924 27.3169C16.8928 25.7916 16.2869 24.3288 15.2082 23.2502C14.1296 22.1715 12.6668 21.5657 11.1415 21.566ZM11.1415 31.6301C9.99743 31.6301 8.90057 31.1756 8.0915 30.3669C7.28277 29.5579 6.82835 28.461 6.82835 27.3169C6.82835 26.1728 7.28277 25.0759 8.0915 24.2669C8.90054 23.4581 9.99743 23.0037 11.1415 23.0037C12.2856 23.0037 13.3825 23.4581 14.1916 24.2669C15.0003 25.0759 15.4547 26.1728 15.4547 27.3169C15.4534 28.4603 14.9987 29.5566 14.1899 30.3653C13.3812 31.1739 12.2849 31.6287 11.1415 31.6301Z" fill="#1F88C8"/>
<path d="M5.03136 42.413C4.63439 42.413 4.3125 42.7349 4.3125 43.1318V45.2884C4.3125 45.6854 4.63439 46.0073 5.03136 46.0073C5.42834 46.0073 5.75023 45.6854 5.75023 45.2884V43.1318C5.75023 42.7349 5.42834 42.413 5.03136 42.413Z" fill="#1F88C8"/>
<path d="M17.254 42.413C16.857 42.413 16.5352 42.7349 16.5352 43.1318V45.2884C16.5352 45.6854 16.857 46.0073 17.254 46.0073C17.651 46.0073 17.9729 45.6854 17.9729 45.2884V43.1318C17.9729 42.7349 17.651 42.413 17.254 42.413Z" fill="#1F88C8"/>
<path d="M29.1863 31.708C25.9229 32.1541 23.7227 34.6656 23.7227 38.1306V45.2881C23.7227 45.6851 24.0445 46.007 24.4415 46.007C24.8385 46.007 25.1604 45.6851 25.1604 45.2881V38.1306C25.1604 35.0549 27.1549 33.0674 30.2412 33.0674H30.5702C30.05 32.6785 29.5843 32.2212 29.1863 31.708H29.1863Z" fill="#1F88C8"/>
<path d="M40.544 31.708C40.146 32.2212 39.6804 32.6784 39.1602 33.0674H39.4891C42.5754 33.0674 44.5699 35.0549 44.5699 38.1306V45.2881C44.5699 45.6851 44.8918 46.007 45.2888 46.007C45.6858 46.007 46.0077 45.6851 46.0077 45.2881V38.1306C46.0077 34.6656 43.8075 32.1541 40.544 31.708H40.544Z" fill="#1F88C8"/>
<path d="M34.8642 21.566C33.3389 21.566 31.8761 22.1719 30.7978 23.2505C29.7192 24.3288 29.1133 25.7916 29.1133 27.3169C29.1133 28.8422 29.7192 30.305 30.7978 31.3833C31.8761 32.4619 33.3389 33.0678 34.8642 33.0678C36.3895 33.0678 37.8523 32.4619 38.9306 31.3833C40.0092 30.305 40.6151 28.8422 40.6151 27.3169C40.6154 25.7916 40.0095 24.3288 38.9309 23.2502C37.8523 22.1715 36.3895 21.5657 34.8642 21.566ZM34.8642 31.6301C33.7201 31.6301 32.6232 31.1756 31.8142 30.3669C31.0054 29.5579 30.551 28.461 30.551 27.3169C30.551 26.1728 31.0054 25.0759 31.8142 24.2669C32.6232 23.4581 33.7201 23.0037 34.8642 23.0037C36.0083 23.0037 37.1051 23.4581 37.9142 24.2669C38.7229 25.0759 39.1774 26.1728 39.1774 27.3169C39.1761 28.4603 38.7213 29.5566 37.9126 30.3653C37.1038 31.1739 36.0075 31.6287 34.8642 31.6301Z" fill="#1F88C8"/>
<path d="M28.754 42.413C28.357 42.413 28.0352 42.7349 28.0352 43.1318V45.2884C28.0352 45.6854 28.357 46.0073 28.754 46.0073C29.151 46.0073 29.4729 45.6854 29.4729 45.2884V43.1318C29.4729 42.7349 29.151 42.413 28.754 42.413Z" fill="#1F88C8"/>
<path d="M40.9767 42.413C40.5797 42.413 40.2578 42.7349 40.2578 43.1318V45.2884C40.2578 45.6854 40.5797 46.0073 40.9767 46.0073C41.3737 46.0073 41.6955 45.6854 41.6955 45.2884V43.1318C41.6955 42.7349 41.3737 42.413 40.9767 42.413Z" fill="#1F88C8"/>
<path d="M5.46369 31.708C2.20021 32.1541 0 34.6656 0 38.1306V45.2881C0 45.6851 0.321886 46.007 0.718863 46.007C1.11584 46.007 1.43773 45.6851 1.43773 45.2881V38.1306C1.43773 35.0549 3.43222 33.0674 6.51857 33.0674H6.84751C6.3273 32.6785 5.86164 32.2212 5.46368 31.708H5.46369Z" fill="#1F88C8"/>
<path d="M16.8213 31.708C16.4234 32.2212 15.9577 32.6784 15.4375 33.0674H15.7664C18.8527 33.0674 20.8473 35.0549 20.8473 38.1306V45.2881C20.8473 45.6851 21.1692 46.007 21.5661 46.007C21.9631 46.007 22.285 45.6851 22.285 45.2881V38.1306C22.285 34.6656 20.0848 32.1541 16.8213 31.708H16.8213Z" fill="#1F88C8"/>
<path d="M8.64867 12.7308C10.4391 14.4975 12.6502 16.6788 14.1223 18.3383V20.7824C14.6339 21.0167 15.1166 21.3103 15.56 21.657V18.0669C15.56 17.8932 15.4968 17.7254 15.3826 17.5945C13.8807 15.8724 11.5396 13.5631 9.65794 11.7075C8.36234 10.4296 7.2433 9.32564 6.67692 8.69403C5.16155 7.00474 5.8335 6.38085 6.42628 5.83049C7.36178 4.9589 8.44041 5.5484 9.18523 6.20179L15.6733 12.6985C15.8081 12.8336 15.991 12.9093 16.182 12.9093H20.2866L22.2359 15.5258C22.4108 15.7778 22.6977 15.9286 23.0045 15.9309H23.0051C23.3078 15.9296 23.5914 15.7819 23.766 15.5348L25.723 12.9094H29.8276C30.0185 12.9094 30.2014 12.8333 30.3362 12.6982L36.8246 6.20183C37.5701 5.54812 38.6481 4.96021 39.5836 5.83085C40.176 6.3809 40.8481 7.00477 39.3326 8.69414C38.7659 9.32667 37.6452 10.4316 36.3484 11.7111C34.4261 13.6078 32.033 15.9678 30.5349 17.7011C30.4219 17.8314 30.3597 17.9983 30.3597 18.171V21.7242C30.8019 21.3693 31.2846 21.0679 31.7974 20.8259V18.4405C33.2676 16.7695 35.5274 14.54 37.3577 12.7345C38.6719 11.4387 39.8067 10.319 40.4029 9.6537C42.08 7.784 42.1304 6.2343 40.5624 4.77759C39.2508 3.55774 37.4912 3.69289 35.8558 5.13959C35.8445 5.14954 35.834 5.15949 35.8234 5.17008L29.5298 11.4717H25.3623C25.1351 11.4717 24.9214 11.5789 24.7859 11.7608L23.0045 14.1514L21.2236 11.7615V11.7612C21.0882 11.5789 20.8745 11.4717 20.6473 11.4717H16.4798L10.1862 5.17009C10.1756 5.1595 10.1647 5.14923 10.1538 5.1396C8.51841 3.69325 6.75945 3.55778 5.44751 4.77728C3.87883 6.23423 3.92952 7.78402 5.60636 9.65364C6.20231 10.3183 7.33583 11.4363 8.64868 12.7309L8.64867 12.7308Z" fill="#1F88C8"/>
</svg>
