<svg width="34" height="43" viewBox="0 0 34 43" fill="none" xmlns="http://www.w3.org/2000/svg">
<path d="M16.5514 0C18.9753 0 21.1697 0.982684 22.7581 2.57123C24.3466 4.15978 25.3294 6.35405 25.3294 8.77797C25.3294 11.2019 24.3467 13.3962 22.7581 14.9847C21.1696 16.5732 18.9753 17.5559 16.5514 17.5559C14.1275 17.5559 11.9331 16.5733 10.3447 14.9847C8.7562 13.3962 7.77344 11.2019 7.77344 8.77797C7.77344 6.35405 8.75612 4.15971 10.3447 2.57123C11.9332 0.982761 14.1275 0 16.5514 0ZM21.8256 3.50377C20.4756 2.15438 18.611 1.31905 16.5514 1.31905C14.4919 1.31905 12.6272 2.15386 11.2772 3.50377C9.92781 4.85316 9.09249 6.71842 9.09249 8.77797C9.09249 10.8375 9.9273 12.7021 11.2772 14.0522C12.6272 15.4016 14.4919 16.2369 16.5514 16.2369C18.611 16.2369 20.4756 15.4021 21.8256 14.0522C23.175 12.7028 24.0103 10.8375 24.0103 8.77797C24.0103 6.71842 23.1755 4.85381 21.8256 3.50377Z" fill="#1F88C8"/>
<path d="M13.6657 26.1993V26.1808C13.6657 25.6143 13.897 25.0997 14.2691 24.7277C14.6418 24.355 15.1558 24.1242 15.7222 24.1242H17.3817C17.9482 24.1242 18.4628 24.3556 18.8349 24.7277C19.2075 25.1003 19.4383 25.6143 19.4383 26.1808V26.1993L19.4514 26.1862C19.8521 25.7855 20.3792 25.5851 20.9058 25.5851C21.4323 25.5851 21.96 25.7855 22.3601 26.1862L23.5336 27.3597C23.9343 27.7604 24.1346 28.2875 24.1346 28.814C24.1346 29.3405 23.9343 29.8682 23.5336 30.2683L23.5205 30.2809H23.5384C24.1048 30.2809 24.6194 30.5122 24.9915 30.8843C25.3642 31.257 25.5949 31.7716 25.5949 32.3375V33.9969C25.5949 34.5634 25.3636 35.078 24.9915 35.4501C24.6188 35.8227 24.1048 36.0535 23.5384 36.0535H23.5199L23.533 36.0666C23.9337 36.4673 24.134 36.9944 24.134 37.521C24.134 38.0475 23.9337 38.5752 23.533 38.9753L22.3595 40.1488C21.9588 40.5495 21.4317 40.7498 20.9052 40.7498C20.3786 40.7498 19.8509 40.5495 19.4508 40.1488L19.4377 40.1357V40.1536C19.4377 40.72 19.2063 41.2346 18.8343 41.6067C18.4616 41.9794 17.9476 42.2101 17.3811 42.2101H15.7217C15.1552 42.2101 14.6406 41.9788 14.2685 41.6067C13.8958 41.234 13.6651 40.72 13.6651 40.1536V40.1357L13.6519 40.1488C13.2512 40.5495 12.7241 40.7498 12.1976 40.7498C11.6711 40.7498 11.1434 40.5495 10.7433 40.1488L9.56977 38.9753C9.16906 38.5746 8.96871 38.0475 8.96871 37.521C8.96871 36.9944 9.16906 36.4667 9.56977 36.0666L9.58289 36.0535H9.56441C8.99794 36.0535 8.48334 35.8221 8.11126 35.4501C7.73858 35.0774 7.50781 34.5634 7.50781 33.9969V32.3375C7.50781 31.771 7.73917 31.2564 8.11126 30.8843C8.48394 30.5116 8.99853 30.2809 9.56441 30.2809H9.58229L9.56918 30.2683C9.16847 29.8676 8.96812 29.3405 8.96812 28.814C8.96812 28.2875 9.16847 27.7598 9.56918 27.3597L10.7427 26.1862C11.1434 25.7855 11.6705 25.5851 12.197 25.5851C12.7235 25.5851 13.2512 25.7855 13.6514 26.1862L13.6645 26.1993H13.6657ZM14.9846 26.1808V27.7914C14.9846 27.9602 14.9202 28.1289 14.7914 28.2577C14.5339 28.5153 14.1165 28.5153 13.8589 28.2577L12.7199 27.1188C12.5768 26.9757 12.3878 26.9041 12.1982 26.9041C12.0086 26.9041 11.8189 26.9757 11.6764 27.1188L10.5029 28.2923C10.3598 28.4354 10.2883 28.6244 10.2883 28.814C10.2883 29.0037 10.3598 29.1933 10.5029 29.3358L11.6389 30.4717C11.7599 30.5916 11.8351 30.7574 11.8351 30.941C11.8351 31.3053 11.5399 31.6005 11.1756 31.6005H9.56495C9.36281 31.6005 9.17857 31.684 9.04439 31.8176C8.91022 31.9517 8.82733 32.136 8.82733 32.3381V33.9976C8.82733 34.1997 8.91081 34.384 9.04439 34.5181C9.17855 34.6523 9.3628 34.7352 9.56495 34.7352H11.1756C11.3443 34.7352 11.5131 34.7996 11.6419 34.9284C11.8995 35.186 11.8995 35.6034 11.6419 35.861L10.503 36.9999C10.3598 37.143 10.2883 37.332 10.2883 37.5217C10.2883 37.7113 10.3599 37.9009 10.503 38.0434L11.6764 39.2169C11.8196 39.36 12.0086 39.4316 12.1982 39.4316C12.3878 39.4316 12.5774 39.36 12.72 39.2169L13.8559 38.081C13.9757 37.9599 14.1415 37.8848 14.3252 37.8848C14.6895 37.8848 14.9847 38.18 14.9847 38.5443V40.1549C14.9847 40.357 15.0681 40.5413 15.2017 40.6755C15.3359 40.8096 15.5201 40.8925 15.7223 40.8925H17.3817C17.5839 40.8925 17.7681 40.809 17.9023 40.6755C18.0365 40.5413 18.1194 40.357 18.1194 40.1549V38.5443C18.1194 38.3755 18.1838 38.2068 18.3125 38.078C18.5701 37.8204 18.9875 37.8204 19.2451 38.078L20.384 39.2169C20.5272 39.36 20.7162 39.4315 20.9058 39.4315C21.0954 39.4315 21.285 39.36 21.4276 39.2169L22.6011 38.0434C22.7442 37.9003 22.8157 37.7113 22.8157 37.5216C22.8157 37.332 22.7442 37.1424 22.6011 36.9999L21.4651 35.864C21.3441 35.7441 21.2689 35.5783 21.2689 35.3947C21.2689 35.0303 21.5641 34.7352 21.9284 34.7352H23.539C23.7412 34.7352 23.9254 34.6517 24.0596 34.5181C24.1938 34.384 24.2767 34.1997 24.2767 33.9976V32.3381C24.2767 32.136 24.1932 31.9517 24.0596 31.8175C23.9254 31.6834 23.7412 31.6005 23.539 31.6005H21.9284C21.7597 31.6005 21.5909 31.5361 21.4621 31.4073C21.2045 31.1497 21.2045 30.7323 21.4621 30.4747L22.601 29.3358C22.7442 29.1927 22.8157 29.0037 22.8157 28.814C22.8157 28.6244 22.7441 28.4348 22.601 28.2923L21.4275 27.1188C21.2844 26.9757 21.0954 26.9041 20.9058 26.9041C20.7162 26.9041 20.5265 26.9757 20.384 27.1188L19.2481 28.2547C19.1283 28.3758 18.9625 28.4509 18.7788 28.4509C18.4145 28.4509 18.1193 28.1557 18.1193 27.7914V26.1808C18.1193 25.9787 18.0359 25.7944 17.9023 25.6602C17.7681 25.5261 17.5839 25.4432 17.3817 25.4432H15.7223C15.5201 25.4432 15.3359 25.5267 15.2017 25.6602C15.0675 25.7944 14.9846 25.9786 14.9846 26.1808Z" fill="#1F88C8"/>
<path d="M16.5538 29.2553C17.5472 29.2553 18.4464 29.6578 19.097 30.3089C19.7481 30.9601 20.1506 31.8593 20.1506 32.8521C20.1506 33.8455 19.7481 34.7446 19.097 35.3952C18.4458 36.0464 17.5466 36.4489 16.5538 36.4489C15.5604 36.4489 14.6613 36.0464 14.0107 35.3952C13.3595 34.7441 12.957 33.8449 12.957 32.8521C12.957 31.8587 13.3595 30.9595 14.0107 30.3089C14.6618 29.6578 15.561 29.2553 16.5538 29.2553ZM18.1644 31.2416C17.7524 30.8296 17.1829 30.5743 16.5538 30.5743C15.9247 30.5743 15.3553 30.8296 14.9432 31.2416C14.5312 31.6536 14.276 32.2231 14.276 32.8522C14.276 33.4813 14.5312 34.0507 14.9432 34.4628C15.3552 34.8748 15.9247 35.1301 16.5538 35.1301C17.1829 35.1301 17.7524 34.8748 18.1644 34.4628C18.5765 34.0508 18.8317 33.4813 18.8317 32.8522C18.8317 32.2231 18.5764 31.6537 18.1644 31.2416Z" fill="#1F88C8"/>
<path d="M25.1178 33.5112C24.7535 33.5112 24.4583 33.2161 24.4583 32.8517C24.4583 32.4874 24.7535 32.1922 25.1178 32.1922H31.7718C31.7671 32.011 31.7623 31.8261 31.7575 31.6395C31.7086 29.7045 31.6556 27.6068 31.3008 25.8716C30.9484 24.1484 30.2728 22.7602 28.8452 21.5736C27.3986 20.3709 25.1745 19.3471 21.7536 18.371C21.0398 18.8433 20.2563 19.2213 19.4203 19.4879C18.5104 19.7783 17.5469 19.9345 16.5528 19.9345C15.56 19.9345 14.5971 19.7783 13.6876 19.4885C12.8569 19.2237 12.0776 18.8486 11.3668 18.3806C8.23156 19.3942 6.08668 20.3494 4.62277 21.4204C3.18511 22.4717 2.41469 23.6439 1.99078 25.1174C1.45889 26.9642 1.39986 29.4477 1.34739 31.626C1.34262 31.818 1.33845 32.0076 1.33368 32.1924H8.02813C8.39246 32.1924 8.68763 32.4876 8.68763 32.8519C8.68763 33.2163 8.39246 33.5114 8.02813 33.5114H0.65744V33.509H0.63657C0.274027 33.4977 -0.0110004 33.1942 0.00032622 32.8317C0.0140409 32.4196 0.0235809 32.013 0.0337184 31.595C0.0879808 29.3309 0.149398 26.7489 0.723619 24.7561C1.22987 22.9976 2.14398 21.6024 3.84515 20.3584C5.46767 19.1718 7.81344 18.1337 11.2397 17.0418C11.4382 16.9667 11.669 16.9881 11.855 17.1205C12.5312 17.6011 13.2819 17.9803 14.0845 18.2362C14.8573 18.4824 15.6867 18.6154 16.5531 18.6154C17.4207 18.6154 18.2501 18.4824 19.0242 18.2356C19.8274 17.9797 20.5788 17.5999 21.2549 17.1181C21.4105 17.0078 21.6127 16.9655 21.8112 17.0203C25.5869 18.0746 28.0508 19.2046 29.6858 20.5635C31.381 21.9725 32.1783 23.5998 32.5897 25.6087C32.9671 27.4548 33.022 29.6158 33.0721 31.6086C33.0816 31.9974 33.0917 32.3796 33.1043 32.7755C33.1073 32.8006 33.1084 32.8262 33.1084 32.8519C33.1084 33.2162 32.8133 33.5114 32.449 33.5114L25.1178 33.5112Z" fill="#1F88C8"/>
</svg>
