<svg width="34" height="34" viewBox="0 0 34 34" fill="none" xmlns="http://www.w3.org/2000/svg">
<path d="M33.1054 5.36842H31.316V0.89484C31.316 0.657571 31.2216 0.429896 31.0539 0.262132C30.8861 0.0943692 30.6584 0 30.4212 0H3.57905C3.08505 0 2.68421 0.400837 2.68421 0.89484V5.36842H0.89484C0.400837 5.36842 0 5.76926 0 6.26326V10.7368C0.00269625 11.5283 0.267524 12.2968 0.753136 12.9216C1.23875 13.5466 1.91793 13.9926 2.68424 14.1907V33.1052C2.68424 33.3424 2.7786 33.5701 2.94637 33.7379C3.11413 33.9056 3.34181 34 3.57908 34H30.4212C30.6585 34 30.8861 33.9056 31.0539 33.7379C31.2217 33.5701 31.316 33.3424 31.316 33.1052V14.1907C32.0824 13.9926 32.7615 13.5466 33.2471 12.9216C33.7328 12.2967 33.9976 11.5283 34.0003 10.7368V6.26326C34.0003 6.026 33.9059 5.79832 33.7381 5.63056C33.5704 5.46279 33.3427 5.36842 33.1054 5.36842H33.1054ZM4.47405 1.78968H29.5262V5.36873L4.47405 5.36843V1.78968ZM26.842 10.7365C26.842 11.3758 26.5011 11.9666 25.9474 12.2863C25.3938 12.6059 24.7114 12.6059 24.1578 12.2863C23.6041 11.9666 23.2632 11.3758 23.2632 10.7365V7.1578H26.8423L26.842 10.7365ZM21.4735 10.7365C21.4735 11.3758 21.1326 11.9666 20.579 12.2863C20.0254 12.6059 19.343 12.6059 18.7893 12.2863C18.2357 11.9666 17.8948 11.3758 17.8948 10.7365V7.1578H21.4739L21.4735 10.7365ZM16.1051 10.7365C16.1051 11.3758 15.7642 11.9666 15.2106 12.2863C14.657 12.6059 13.9745 12.6059 13.4209 12.2863C12.8673 11.9666 12.5264 11.3758 12.5264 10.7365V7.1578H16.1054L16.1051 10.7365ZM10.7367 10.7365C10.7367 11.3758 10.3958 11.9666 9.84216 12.2863C9.28854 12.6059 8.60612 12.6059 8.05248 12.2863C7.49886 11.9666 7.15795 11.3758 7.15795 10.7365V7.1578H10.737L10.7367 10.7365ZM1.78983 10.7365V7.1578H5.36888V10.7368L5.36859 10.7366C5.36859 11.3758 5.02767 11.9666 4.47405 12.2863C3.92043 12.6059 3.23801 12.6059 2.68437 12.2863C2.13075 11.9666 1.78984 11.3759 1.78984 10.7366L1.78983 10.7365ZM12.5267 32.2102V19.6842H21.4735V32.2102H12.5267ZM23.2635 32.2102V18.7892C23.2635 18.5519 23.1692 18.3245 23.0014 18.1565C22.8336 17.9887 22.606 17.8946 22.3687 17.8946H11.6318C11.1378 17.8946 10.737 18.2952 10.737 18.7892V32.2102H4.47405V14.1907C5.16697 14.0062 5.78977 13.62 6.26342 13.0811C6.94286 13.8516 7.92034 14.2929 8.94763 14.2929C9.97492 14.2929 10.9524 13.8516 11.6318 13.0811C12.3113 13.8516 13.2888 14.2929 14.3161 14.2929C15.3433 14.2929 16.3209 13.8516 17.0003 13.0811C17.6797 13.8516 18.6572 14.2929 19.6845 14.2929C20.7118 14.2929 21.6893 13.8516 22.3687 13.0811C23.0481 13.8516 24.0256 14.2929 25.0529 14.2929C26.0802 14.2929 27.0577 13.8516 27.7371 13.0811C28.2108 13.62 28.8336 14.0061 29.5265 14.1907V32.2102L23.2635 32.2102ZM32.2104 10.7365C32.2104 11.3758 31.8695 11.9666 31.3159 12.2863C30.7622 12.6059 30.0798 12.6059 29.5262 12.2863C28.9726 11.9666 28.6316 11.3758 28.6316 10.7365V7.1578H32.2107L32.2104 10.7365Z" fill="#1F88C8"/>
</svg>
