<svg width="58" height="49" viewBox="0 0 58 49" fill="none" xmlns="http://www.w3.org/2000/svg">
<path d="M57.4136 0.0780986C57.058 -0.074237 56.6459 0.00042038 56.3658 0.267543L35.0992 20.5675C34.911 20.7471 34.8031 20.9952 34.8001 21.2554C34.7971 21.5157 34.8994 21.766 35.0832 21.9502L36.3329 23.1999L35.2312 24.3017L27.6937 27.1283C27.6549 27.143 27.6173 27.1603 27.5807 27.1801L26.7836 26.383C26.6412 26.2406 26.4578 26.1461 26.2588 26.1129L20.7644 25.1972L19.7334 24.1662L20.9831 22.9165L20.9836 22.9169C21.3482 22.5518 21.3625 21.9649 21.0151 21.583L1.68175 0.316358C1.41332 0.0207454 0.990408 -0.0789372 0.617982 0.0652011C0.245556 0.208909 0 0.567526 0 0.966709V28.0334C0 28.2897 0.101846 28.5357 0.283095 28.7169L7.04976 35.4836C7.23101 35.6649 7.47699 35.7667 7.73333 35.7667C7.98967 35.7667 8.23566 35.6649 8.4169 35.4836L9.66661 34.2339L14.1094 38.6767V38.6763C13.5462 39.3581 13.3106 40.2523 13.4643 41.1231C13.6179 41.9935 14.1457 42.7531 14.9082 43.2006C15.6707 43.6481 16.5912 43.7392 17.4263 43.4487C17.6196 44.059 18.0028 44.5915 18.5194 44.9696C19.0359 45.3472 19.6599 45.5504 20.2999 45.5496C20.6378 45.5496 20.9736 45.493 21.2929 45.3821C21.6079 46.3712 22.4097 47.129 23.4153 47.3875C24.4208 47.646 25.4885 47.3698 26.2419 46.6556C26.6454 47.5644 27.4705 48.2161 28.448 48.3981C29.4255 48.5802 30.4297 48.2695 31.1336 47.567L32.1002 46.6003C32.5603 46.1411 32.8593 45.5447 32.9512 44.9013L34.1065 44.6445H34.1069C34.8759 44.4736 35.5807 44.087 36.1374 43.5294L46.4001 33.2671L48.6164 35.4835C48.7977 35.6647 49.0437 35.7666 49.3 35.7666C49.5563 35.7666 49.8023 35.6648 49.9836 35.4835L57.7169 27.7502C57.8982 27.5689 58 27.3229 58 27.0666V0.966598C58 0.5795 57.7691 0.229943 57.4135 0.0780379L57.4136 0.0780986ZM7.7336 33.4331L1.9336 27.6331V3.46751L18.9646 22.2021L7.7336 33.4331ZM16.4336 41.6843C15.9951 41.6843 15.5998 41.4202 15.432 41.015C15.2645 40.6102 15.3573 40.1437 15.6672 39.8339L17.6005 37.9006C17.8038 37.6973 18.0795 37.5829 18.3669 37.5829C18.6544 37.5829 18.9301 37.6973 19.1334 37.9006C19.5567 38.3239 19.5567 39.0101 19.1334 39.4334L17.2 41.3667C16.9972 41.5709 16.7214 41.6852 16.4336 41.6844V41.6843ZM19.5338 43.3C19.1113 42.8767 19.1113 42.1905 19.5338 41.7672L20.5005 40.8005C20.7037 40.5973 20.9795 40.4829 21.2669 40.4829C21.5543 40.4829 21.8301 40.5973 22.0333 40.8005C22.4567 41.2239 22.4567 41.91 22.0333 42.3334L21.0666 43.3C20.6429 43.7225 19.9576 43.7225 19.5338 43.3ZM24.9333 45.2334C24.51 45.6567 23.8238 45.6567 23.4005 45.2334C22.9771 44.81 22.9771 44.1239 23.4005 43.7005L24.3671 42.7338C24.5704 42.5306 24.8461 42.4162 25.1335 42.4162C25.421 42.4162 25.6967 42.5306 25.9 42.7338C26.3233 43.1572 26.3233 43.8434 25.9 44.2667L24.9333 45.2334ZM30.7333 45.2334L29.7666 46.2C29.3433 46.6234 28.6571 46.6234 28.2338 46.2C27.8104 45.7767 27.8104 45.0905 28.2338 44.6672L29.2005 43.7005C29.4037 43.4973 29.6795 43.3829 29.9669 43.3829C30.2543 43.3829 30.5301 43.4973 30.7333 43.7005C31.1567 44.1239 31.1567 44.81 30.7333 45.2334ZM33.6877 42.7571L32.6019 42.9984C32.1492 42.1841 31.3448 41.6247 30.4234 41.4841C29.5021 41.343 28.5673 41.6364 27.8915 42.2781C27.5851 41.5855 27.0289 41.0331 26.334 40.7319C25.6388 40.4303 24.856 40.4018 24.1405 40.6516C23.9532 40.0596 23.5873 39.5404 23.0927 39.165C22.5986 38.7895 22.0005 38.5759 21.3799 38.5539C21.3514 37.7672 21.0161 37.0228 20.4456 36.4803C19.8755 35.9374 19.116 35.6392 18.3289 35.6491C17.5417 35.659 16.7895 35.9762 16.2333 36.5333L15.4668 37.2998L11.034 32.8669L18.3668 25.5341L19.6165 26.7838C19.7589 26.9262 19.9423 27.0207 20.1413 27.0539L25.6357 27.9697L26.1833 28.5173L22.7452 31.9554L22.7448 31.955C22.1743 32.5229 21.8925 33.3187 21.9779 34.1188C22.0634 34.9193 22.5074 35.6374 23.185 36.072C23.8625 36.5061 24.7002 36.6097 25.4631 36.3538L30.0289 34.8318L30.589 34.944C30.6248 34.9513 30.6607 34.9569 30.6965 34.9638L34.7707 39.0381V39.0376C35.1457 39.4131 35.3732 39.9102 35.412 40.4394C35.4504 40.9684 35.2976 41.4936 34.9809 41.9192C34.6646 42.3447 34.2054 42.6425 33.6876 42.7573L33.6877 42.7571ZM37.2471 39.6862V39.6867C37.0762 38.9228 36.6917 38.2238 36.1376 37.6709L33.4943 35.0277C35.3466 34.7653 37.0624 33.9073 38.3838 32.5838L37.0166 31.2167C35.4346 32.8018 33.1638 33.4896 30.9681 33.0482L30.1563 32.8859V32.8855C29.9915 32.8527 29.8206 32.8635 29.6613 32.9165L24.8522 34.5198H24.8518C24.5337 34.6255 24.1846 34.4991 24.0081 34.2138C23.832 33.9286 23.8747 33.5596 24.1121 33.3222L28.5691 28.8652L36.1066 26.0385C36.2356 25.9902 36.353 25.9147 36.4506 25.8171L37.7003 24.5674L45.0331 31.9003L37.2471 39.6862ZM56.0667 26.6666L49.3 33.4333L37.1499 21.2831L56.0667 3.22579V26.6666Z" fill="#2296D2"/>
</svg>
