<svg width="37" height="36" viewBox="0 0 37 36" fill="none" xmlns="http://www.w3.org/2000/svg">
<mask id="path-1-outside-1_934_1171" maskUnits="userSpaceOnUse" x="-0.601562" y="-0.534668" width="37" height="37" fill="black">
<rect fill="white" x="-0.601562" y="-0.534668" width="37" height="37"/>
<path d="M34.3809 6.87414H24.6015C25.0519 6.66005 25.4726 6.38802 25.8529 6.06521C26.6814 5.23632 27.005 4.02851 26.7018 2.89675C26.3985 1.7646 25.5143 0.880761 24.3826 0.577159C23.2504 0.273904 22.0426 0.597476 21.2141 1.42636C21.0056 1.66415 20.825 1.92489 20.6745 2.20294C20.0598 1.48957 19.1646 1.07946 18.2233 1.07946C17.2815 1.07946 16.3865 1.48957 15.7716 2.20294C15.6215 1.92489 15.4405 1.66414 15.2321 1.42636C14.4036 0.597473 13.1958 0.273884 12.0636 0.577159C10.9319 0.880789 10.0477 1.7646 9.74444 2.89675C9.44118 4.02851 9.76476 5.23627 10.5933 6.06521C10.9706 6.39518 11.3898 6.67435 11.8395 6.89597H2.01671C1.58741 6.89597 1.17578 7.06641 0.872517 7.36967C0.568887 7.6733 0.398438 8.08493 0.398438 8.51386V14.8894C0.398438 15.0328 0.455251 15.1697 0.55646 15.2709C0.657674 15.3721 0.795008 15.4289 0.937976 15.4289H2.94982V34.8799C2.94982 35.0229 3.00663 35.1602 3.10784 35.261C3.20906 35.3622 3.34639 35.419 3.48936 35.419H32.9075C33.0505 35.419 33.1878 35.3622 33.289 35.261C33.3903 35.1602 33.4471 35.0228 33.4471 34.8799V15.4289H35.4589C35.6019 15.4289 35.7392 15.3721 35.8404 15.2709C35.9416 15.1697 35.9984 15.0327 35.9984 14.8894V8.49238C35.9984 8.06308 35.828 7.65146 35.5244 7.34819C35.2211 7.04456 34.8095 6.87411 34.3802 6.87411L34.3809 6.87414ZM25.0872 2.16533C25.4984 2.57883 25.7294 3.13836 25.7294 3.72148C25.7294 4.3046 25.4984 4.86413 25.0872 5.27763C24.8983 5.46651 24.2673 5.91952 22.1204 6.89591H19.6447V6.84211L19.9845 6.03317L20.0439 5.89283L20.3566 5.21821L20.4104 5.09405L20.723 4.40889L20.7716 4.31182L21.0033 3.83172L21.1057 3.62139L21.1064 3.62177C21.3337 3.10179 21.6253 2.61233 21.9748 2.16531C22.3876 1.75256 22.9475 1.52079 23.531 1.52079C24.1145 1.52079 24.6744 1.75256 25.0871 2.16531L25.0872 2.16533ZM19.0081 14.3499H17.0881V7.95245H19.0081V14.3499ZM18.1992 2.14317C18.9746 2.14506 19.6918 2.55479 20.0873 3.22187C19.6376 4.11735 19.1128 5.30739 18.5122 6.79246L18.4799 6.86809H17.9403L17.908 6.79246C17.3075 5.31077 16.7826 4.12073 16.3329 3.22187C16.7242 2.56117 17.4316 2.15252 18.1991 2.14317H18.1992ZM11.3111 5.27696C10.8984 4.8642 10.6666 4.30431 10.6666 3.72081C10.6666 3.1373 10.8984 2.57739 11.3111 2.16465C11.7239 1.7519 12.2838 1.52014 12.8673 1.52014C13.4508 1.52014 14.0107 1.7519 14.4234 2.16465C14.7764 2.60938 15.0717 3.09701 15.3027 3.61543L15.4051 3.82576L15.6368 4.30585L15.6854 4.40293L15.998 5.08808L16.0518 5.21225L16.3321 5.86504L16.3916 6.00538L16.7313 6.81432V6.86812H14.2778C12.1309 5.91884 11.4999 5.46579 11.311 5.27691L11.3111 5.27696ZM1.47777 8.49165C1.47777 8.19365 1.71933 7.9521 2.01732 7.9521H16.0098V14.3495H1.47793L1.47777 8.49165ZM4.02911 15.4283H14.6552V34.3398H4.02911V15.4283ZM15.734 34.3398V15.4283H20.6587V34.3398H15.734ZM32.3637 34.3398H21.7434V15.4283H32.3694L32.3637 34.3398ZM34.9207 14.3495H20.0874V7.95206H34.3813C34.5243 7.95206 34.6616 8.00888 34.7628 8.11009C34.864 8.2113 34.9208 8.34863 34.9208 8.4916L34.9207 14.3495Z"/>
</mask>
<path d="M34.3809 6.87414H24.6015C25.0519 6.66005 25.4726 6.38802 25.8529 6.06521C26.6814 5.23632 27.005 4.02851 26.7018 2.89675C26.3985 1.7646 25.5143 0.880761 24.3826 0.577159C23.2504 0.273904 22.0426 0.597476 21.2141 1.42636C21.0056 1.66415 20.825 1.92489 20.6745 2.20294C20.0598 1.48957 19.1646 1.07946 18.2233 1.07946C17.2815 1.07946 16.3865 1.48957 15.7716 2.20294C15.6215 1.92489 15.4405 1.66414 15.2321 1.42636C14.4036 0.597473 13.1958 0.273884 12.0636 0.577159C10.9319 0.880789 10.0477 1.7646 9.74444 2.89675C9.44118 4.02851 9.76476 5.23627 10.5933 6.06521C10.9706 6.39518 11.3898 6.67435 11.8395 6.89597H2.01671C1.58741 6.89597 1.17578 7.06641 0.872517 7.36967C0.568887 7.6733 0.398438 8.08493 0.398438 8.51386V14.8894C0.398438 15.0328 0.455251 15.1697 0.55646 15.2709C0.657674 15.3721 0.795008 15.4289 0.937976 15.4289H2.94982V34.8799C2.94982 35.0229 3.00663 35.1602 3.10784 35.261C3.20906 35.3622 3.34639 35.419 3.48936 35.419H32.9075C33.0505 35.419 33.1878 35.3622 33.289 35.261C33.3903 35.1602 33.4471 35.0228 33.4471 34.8799V15.4289H35.4589C35.6019 15.4289 35.7392 15.3721 35.8404 15.2709C35.9416 15.1697 35.9984 15.0327 35.9984 14.8894V8.49238C35.9984 8.06308 35.828 7.65146 35.5244 7.34819C35.2211 7.04456 34.8095 6.87411 34.3802 6.87411L34.3809 6.87414ZM25.0872 2.16533C25.4984 2.57883 25.7294 3.13836 25.7294 3.72148C25.7294 4.3046 25.4984 4.86413 25.0872 5.27763C24.8983 5.46651 24.2673 5.91952 22.1204 6.89591H19.6447V6.84211L19.9845 6.03317L20.0439 5.89283L20.3566 5.21821L20.4104 5.09405L20.723 4.40889L20.7716 4.31182L21.0033 3.83172L21.1057 3.62139L21.1064 3.62177C21.3337 3.10179 21.6253 2.61233 21.9748 2.16531C22.3876 1.75256 22.9475 1.52079 23.531 1.52079C24.1145 1.52079 24.6744 1.75256 25.0871 2.16531L25.0872 2.16533ZM19.0081 14.3499H17.0881V7.95245H19.0081V14.3499ZM18.1992 2.14317C18.9746 2.14506 19.6918 2.55479 20.0873 3.22187C19.6376 4.11735 19.1128 5.30739 18.5122 6.79246L18.4799 6.86809H17.9403L17.908 6.79246C17.3075 5.31077 16.7826 4.12073 16.3329 3.22187C16.7242 2.56117 17.4316 2.15252 18.1991 2.14317H18.1992ZM11.3111 5.27696C10.8984 4.8642 10.6666 4.30431 10.6666 3.72081C10.6666 3.1373 10.8984 2.57739 11.3111 2.16465C11.7239 1.7519 12.2838 1.52014 12.8673 1.52014C13.4508 1.52014 14.0107 1.7519 14.4234 2.16465C14.7764 2.60938 15.0717 3.09701 15.3027 3.61543L15.4051 3.82576L15.6368 4.30585L15.6854 4.40293L15.998 5.08808L16.0518 5.21225L16.3321 5.86504L16.3916 6.00538L16.7313 6.81432V6.86812H14.2778C12.1309 5.91884 11.4999 5.46579 11.311 5.27691L11.3111 5.27696ZM1.47777 8.49165C1.47777 8.19365 1.71933 7.9521 2.01732 7.9521H16.0098V14.3495H1.47793L1.47777 8.49165ZM4.02911 15.4283H14.6552V34.3398H4.02911V15.4283ZM15.734 34.3398V15.4283H20.6587V34.3398H15.734ZM32.3637 34.3398H21.7434V15.4283H32.3694L32.3637 34.3398ZM34.9207 14.3495H20.0874V7.95206H34.3813C34.5243 7.95206 34.6616 8.00888 34.7628 8.11009C34.864 8.2113 34.9208 8.34863 34.9208 8.4916L34.9207 14.3495Z" fill="#1F88C8"/>
<path d="M34.3809 6.87414H24.6015C25.0519 6.66005 25.4726 6.38802 25.8529 6.06521C26.6814 5.23632 27.005 4.02851 26.7018 2.89675C26.3985 1.7646 25.5143 0.880761 24.3826 0.577159C23.2504 0.273904 22.0426 0.597476 21.2141 1.42636C21.0056 1.66415 20.825 1.92489 20.6745 2.20294C20.0598 1.48957 19.1646 1.07946 18.2233 1.07946C17.2815 1.07946 16.3865 1.48957 15.7716 2.20294C15.6215 1.92489 15.4405 1.66414 15.2321 1.42636C14.4036 0.597473 13.1958 0.273884 12.0636 0.577159C10.9319 0.880789 10.0477 1.7646 9.74444 2.89675C9.44118 4.02851 9.76476 5.23627 10.5933 6.06521C10.9706 6.39518 11.3898 6.67435 11.8395 6.89597H2.01671C1.58741 6.89597 1.17578 7.06641 0.872517 7.36967C0.568887 7.6733 0.398438 8.08493 0.398438 8.51386V14.8894C0.398438 15.0328 0.455251 15.1697 0.55646 15.2709C0.657674 15.3721 0.795008 15.4289 0.937976 15.4289H2.94982V34.8799C2.94982 35.0229 3.00663 35.1602 3.10784 35.261C3.20906 35.3622 3.34639 35.419 3.48936 35.419H32.9075C33.0505 35.419 33.1878 35.3622 33.289 35.261C33.3903 35.1602 33.4471 35.0228 33.4471 34.8799V15.4289H35.4589C35.6019 15.4289 35.7392 15.3721 35.8404 15.2709C35.9416 15.1697 35.9984 15.0327 35.9984 14.8894V8.49238C35.9984 8.06308 35.828 7.65146 35.5244 7.34819C35.2211 7.04456 34.8095 6.87411 34.3802 6.87411L34.3809 6.87414ZM25.0872 2.16533C25.4984 2.57883 25.7294 3.13836 25.7294 3.72148C25.7294 4.3046 25.4984 4.86413 25.0872 5.27763C24.8983 5.46651 24.2673 5.91952 22.1204 6.89591H19.6447V6.84211L19.9845 6.03317L20.0439 5.89283L20.3566 5.21821L20.4104 5.09405L20.723 4.40889L20.7716 4.31182L21.0033 3.83172L21.1057 3.62139L21.1064 3.62177C21.3337 3.10179 21.6253 2.61233 21.9748 2.16531C22.3876 1.75256 22.9475 1.52079 23.531 1.52079C24.1145 1.52079 24.6744 1.75256 25.0871 2.16531L25.0872 2.16533ZM19.0081 14.3499H17.0881V7.95245H19.0081V14.3499ZM18.1992 2.14317C18.9746 2.14506 19.6918 2.55479 20.0873 3.22187C19.6376 4.11735 19.1128 5.30739 18.5122 6.79246L18.4799 6.86809H17.9403L17.908 6.79246C17.3075 5.31077 16.7826 4.12073 16.3329 3.22187C16.7242 2.56117 17.4316 2.15252 18.1991 2.14317H18.1992ZM11.3111 5.27696C10.8984 4.8642 10.6666 4.30431 10.6666 3.72081C10.6666 3.1373 10.8984 2.57739 11.3111 2.16465C11.7239 1.7519 12.2838 1.52014 12.8673 1.52014C13.4508 1.52014 14.0107 1.7519 14.4234 2.16465C14.7764 2.60938 15.0717 3.09701 15.3027 3.61543L15.4051 3.82576L15.6368 4.30585L15.6854 4.40293L15.998 5.08808L16.0518 5.21225L16.3321 5.86504L16.3916 6.00538L16.7313 6.81432V6.86812H14.2778C12.1309 5.91884 11.4999 5.46579 11.311 5.27691L11.3111 5.27696ZM1.47777 8.49165C1.47777 8.19365 1.71933 7.9521 2.01732 7.9521H16.0098V14.3495H1.47793L1.47777 8.49165ZM4.02911 15.4283H14.6552V34.3398H4.02911V15.4283ZM15.734 34.3398V15.4283H20.6587V34.3398H15.734ZM32.3637 34.3398H21.7434V15.4283H32.3694L32.3637 34.3398ZM34.9207 14.3495H20.0874V7.95206H34.3813C34.5243 7.95206 34.6616 8.00888 34.7628 8.11009C34.864 8.2113 34.9208 8.34863 34.9208 8.4916L34.9207 14.3495Z" stroke="#1F88C8" stroke-width="0.6" mask="url(#path-1-outside-1_934_1171)"/>
</svg>
