<svg width="69" height="74" viewBox="0 0 69 74" fill="none" xmlns="http://www.w3.org/2000/svg">
<path d="M17.8506 30.7033C19.3023 34.6125 21.6035 38.4115 24.4479 41.1842C26.0546 42.7589 27.8394 44.0043 29.7396 44.7602C31.0478 45.2753 32.4123 45.5661 33.8179 45.5661C35.2183 45.5661 36.5829 45.2791 37.8898 44.7602C39.8578 43.9773 41.7029 42.673 43.3532 41.0214C46.1284 38.2526 48.3758 34.5113 49.7954 30.6713C50.8935 30.3484 52.0428 28.2971 52.5105 25.6743C53.0153 22.8286 52.5387 20.348 51.4406 19.9367C51.4803 19.241 51.5059 18.5376 51.5021 17.82C51.4778 7.50831 45.4314 0.698317 35.8987 0.0615217C27.5883 -0.498397 21.3267 2.80474 18.4746 8.29118C17.5136 10.1375 16.9691 13.2638 16.7564 15.7726C16.4361 17.0807 16.249 18.4389 16.249 19.8445H16.2823C16.2823 19.8573 16.281 19.8675 16.2785 19.8778C16.2567 19.8791 16.24 19.8803 16.217 19.8855C15.0049 20.0943 14.4488 22.6889 14.9818 25.6781C15.47 28.4201 16.7038 30.5419 17.8506 30.7033ZM18.1222 23.0195C18.2388 22.6697 18.3964 22.3968 18.6027 22.2507C18.6898 22.1905 18.7846 22.1469 18.8807 22.1315C19.1075 22.0931 19.342 22.1802 19.5752 22.366C19.5752 22.366 19.5752 22.366 19.5765 22.366C19.5765 22.3481 19.5778 22.3289 19.579 22.3122C19.6239 21.8779 19.9698 19.5434 21.4241 17.6932C22.5542 16.2543 24.3556 15.1076 27.209 15.3702C27.209 15.3702 32.9236 17.4754 38.1204 15.6124C38.6803 15.6022 39.2262 15.5983 39.7284 15.6137C41.8784 15.6944 43.3532 16.8104 44.8971 17.5279C44.8446 16.8181 44.2975 16.0942 44.3244 15.6111C44.5717 15.6816 44.7946 15.7892 45.0111 15.9032C46.122 17.0884 47.2008 19.0757 48.0542 22.3199C48.0542 22.334 48.0542 22.3481 48.0542 22.3583C48.0606 22.3571 48.0606 22.3571 48.0657 22.3558C48.0657 22.3571 48.0657 22.3571 48.0657 22.3583L48.0798 22.3442C48.19 22.2558 48.3053 22.1905 48.4181 22.1546C48.4796 22.1328 48.5385 22.1418 48.5987 22.1354C48.6487 22.1328 48.7063 22.1136 48.7525 22.1226H48.7563C48.8101 22.1315 48.8678 22.1533 48.919 22.1725C49.4482 22.4237 49.7532 23.4192 49.7275 24.7005C49.7211 25.1246 49.6763 25.5833 49.5904 26.0574C49.5699 26.183 49.5379 26.2919 49.5071 26.4123C49.2265 27.6974 48.7128 28.7494 48.1656 29.217C48.0426 29.3234 47.9107 29.399 47.7851 29.4387C47.6685 29.4784 47.5519 29.4938 47.4379 29.4746C47.311 29.4553 47.1893 29.3887 47.0817 29.2862C45.7633 33.3863 43.2519 37.4685 40.0821 39.9516C39.6118 40.3155 39.1288 40.6486 38.6368 40.9394C37.1313 41.8235 35.5117 42.345 33.823 42.345C31.6256 42.345 29.5423 41.4724 27.6831 40.0515C24.4569 37.5799 21.8943 33.444 20.5605 29.2875C20.4516 29.3874 20.3299 29.4541 20.2017 29.4758C19.9288 29.5245 19.6393 29.3861 19.3625 29.1132C18.8013 28.5508 18.2913 27.4207 18.0505 26.0612C18.0338 25.9715 18.0223 25.887 18.012 25.796C18.0146 24.8517 18.0582 23.9305 18.1222 23.0195Z" fill="#8EC64E"/>
<path d="M63.6072 51.7513C60.5732 47.8319 57.3815 47.2002 56.0208 46.9401C55.8542 46.9094 55.7158 46.8825 55.6018 46.8569C54.0848 46.5032 52.3448 46.3994 50.8085 46.3098C49.5734 46.2367 48.3946 46.1739 47.4349 45.9805C46.3189 48.9351 40.8338 51.0812 34.0776 51.0812C27.3188 51.0812 21.8375 48.9338 20.7228 45.9805C19.758 46.1727 18.578 46.2406 17.3441 46.3136C15.8078 46.3982 14.0679 46.5019 12.5534 46.8569C12.4393 46.8825 12.2984 46.9094 12.1318 46.9401C10.8493 47.1874 7.93309 47.7486 5.05405 51.1056C3.3192 53.1313 1.59844 56.1692 0.259508 60.7754C-0.0736247 61.9234 -0.0761875 63.1342 0.195444 64.263C0.321009 64.7755 0.485013 65.2842 0.731018 65.7519C3.69718 71.3703 19.881 73.3729 34.034 73.3729H34.1135C48.269 73.3729 64.4439 71.3703 67.4177 65.7519C67.7073 65.2125 67.879 64.6218 68.002 64.0145C68.2096 62.96 68.1916 61.8491 67.8867 60.7831C66.6849 56.624 65.1678 53.7642 63.6072 51.7513Z" fill="#8EC64E"/>
</svg>
