<svg width="41" height="50" viewBox="0 0 41 50" fill="none" xmlns="http://www.w3.org/2000/svg">
<path d="M40.4 47.1333C40.4 48.3733 39.3949 49.3776 38.1558 49.3776C36.9158 49.3776 35.9107 48.3733 35.9107 47.1333C35.9107 38.456 28.8772 31.4226 20.2 31.4226C11.5228 31.4226 4.48929 38.4562 4.48929 47.1333C4.48929 48.3733 3.48418 49.3776 2.24424 49.3776C1.00507 49.3776 0 48.3733 0 47.1333C0 35.9768 9.04371 26.9333 20.2 26.9333C31.3563 26.9333 40.4 35.9771 40.4 47.1333ZM20.2 24.6889C13.3825 24.6889 7.85516 19.1623 7.85516 12.344C7.85516 5.52654 13.3825 0 20.2 0C27.0175 0 32.5449 5.52654 32.5449 12.344C32.5449 19.1621 27.0175 24.6889 20.2 24.6889ZM20.2 20.2004C24.5382 20.2004 28.0554 16.6832 28.0554 12.3442C28.0554 8.00606 24.5382 4.48889 20.2 4.48889C15.8618 4.48889 12.3446 8.00606 12.3446 12.3442C12.3446 16.6832 15.8618 20.2004 20.2 20.2004Z" fill="#208DCB"/>
</svg>
