<svg width="16" height="20" viewBox="0 0 16 20" fill="none" xmlns="http://www.w3.org/2000/svg">
<path d="M14.1875 7.9375C14.1875 6.29647 13.5356 4.72266 12.3752 3.56228C11.2148 2.4019 9.64103 1.75 8 1.75C6.35897 1.75 4.78516 2.4019 3.62478 3.56228C2.4644 4.72266 1.8125 6.29647 1.8125 7.9375C1.8125 10.4757 3.84337 13.784 8 17.7467C12.1566 13.784 14.1875 10.4757 14.1875 7.9375ZM8 19.625C2.95788 15.0421 0.4375 11.1454 0.4375 7.9375C0.4375 5.9318 1.23426 4.00825 2.65251 2.59001C4.07075 1.17176 5.9943 0.375 8 0.375C10.0057 0.375 11.9293 1.17176 13.3475 2.59001C14.7657 4.00825 15.5625 5.9318 15.5625 7.9375C15.5625 11.1454 13.0421 15.0421 8 19.625Z" fill="#1F88C8"/>
</svg>
