<svg width="22" height="22" viewBox="0 0 22 22" fill="none" xmlns="http://www.w3.org/2000/svg">
<path d="M6.1875 19.25H15.8125C16.2708 19.25 16.5 19.4792 16.5 19.9375C16.5 20.3958 16.2708 20.625 15.8125 20.625H6.1875C5.72917 20.625 5.5 20.3958 5.5 19.9375C5.5 19.4792 5.72917 19.25 6.1875 19.25Z" fill="#1F88C8"/>
<path d="M17.1875 8.5625C17.1875 6.92147 16.5356 5.34766 15.3752 4.18728C14.2148 3.0269 12.641 2.375 11 2.375C9.35897 2.375 7.78516 3.0269 6.62478 4.18728C5.4644 5.34766 4.8125 6.92147 4.8125 8.5625C4.8125 11.1007 6.84337 14.409 11 18.3717C15.1566 14.409 17.1875 11.1007 17.1875 8.5625ZM11 20.25C5.95788 15.6671 3.4375 11.7704 3.4375 8.5625C3.4375 6.5568 4.23426 4.63325 5.65251 3.21501C7.07075 1.79676 8.9943 1 11 1C13.0057 1 14.9293 1.79676 16.3475 3.21501C17.7657 4.63325 18.5625 6.5568 18.5625 8.5625C18.5625 11.7704 16.0421 15.6671 11 20.25Z" fill="#1F88C8"/>
<path d="M11 11C11.547 11 12.0716 10.7827 12.4584 10.3959C12.8452 10.0091 13.0625 9.48451 13.0625 8.9375C13.0625 8.39049 12.8452 7.86589 12.4584 7.47909C12.0716 7.0923 11.547 6.875 11 6.875C10.453 6.875 9.92839 7.0923 9.54159 7.47909C9.1548 7.86589 8.9375 8.39049 8.9375 8.9375C8.9375 9.48451 9.1548 10.0091 9.54159 10.3959C9.92839 10.7827 10.453 11 11 11ZM11 12.375C10.0883 12.375 9.21398 12.0128 8.56932 11.3682C7.92466 10.7235 7.5625 9.84918 7.5625 8.9375C7.5625 8.02582 7.92466 7.15148 8.56932 6.50682C9.21398 5.86216 10.0883 5.5 11 5.5C11.9117 5.5 12.786 5.86216 13.4307 6.50682C14.0753 7.15148 14.4375 8.02582 14.4375 8.9375C14.4375 9.84918 14.0753 10.7235 13.4307 11.3682C12.786 12.0128 11.9117 12.375 11 12.375Z" fill="#1F88C8"/>
</svg>
