<svg width="186" height="59" viewBox="0 0 186 59" fill="none" xmlns="http://www.w3.org/2000/svg">
<path d="M113.345 15.2781L101.738 6.31299V29.6064H105.901V14.8512L113.345 20.5612L120.816 14.9046V29.6064H124.978V6.31299L113.345 15.2781Z" fill="#929497"/>
<path d="M139.973 15.2781L128.34 6.31299V29.6064H132.502V14.8512L139.973 20.5612L147.417 14.9046V29.6064H151.58V6.31299L139.973 15.2781Z" fill="#929497"/>
<path d="M98.4026 6.31299H94.2402V29.6064H98.4026V6.31299Z" fill="#929497"/>
<path d="M185.44 6.31299H181.277V29.6064H185.44V6.31299Z" fill="#929497"/>
<path d="M163.428 25.444C165.776 22.3756 175.941 9.1146 178.103 6.31299C174.661 6.31299 158.705 6.31299 154.916 6.31299V10.4754H169.671C167.323 13.5438 157.157 26.8048 154.996 29.6064C158.438 29.6064 174.421 29.6064 178.183 29.6064V25.444H163.428Z" fill="#929497"/>
<path d="M90.9043 29.6069V16.7996C88.2361 16.7996 81.9658 16.7996 79.2443 16.7996V20.962C79.6178 20.962 86.6085 20.962 86.7419 20.962V25.4712H79.2443C69.3186 25.071 69.3452 10.9028 79.2443 10.5026C81.8858 10.5026 88.1561 10.5026 90.7175 10.5026V6.31354C88.2628 6.31354 81.7791 6.31354 79.2443 6.31354C72.974 6.20681 67.5042 11.7033 67.6109 17.9469C67.5042 24.1905 72.974 29.687 79.2443 29.5802L90.9043 29.6069Z" fill="#929497"/>
<path d="M70.3341 34.9165C69.8271 34.9165 69.3468 35.1833 69.3468 35.6636C69.3468 36.2506 70.0672 36.4107 70.6542 36.6241C71.7215 36.9977 73.0023 37.4779 73.0023 39.0789C73.0023 40.7332 71.4547 41.4269 70.1473 41.4269C68.9733 41.4269 68.0661 40.9733 67.2656 40.1728L68.2795 39.1589C68.8932 39.7459 69.3735 40.1195 70.1473 40.1195C70.761 40.1195 71.348 39.826 71.348 39.1589C71.348 38.5185 70.6542 38.2517 69.8805 37.9849C68.8932 37.6114 67.7993 37.1844 67.7993 35.7436C67.7993 34.3028 69.0266 33.6357 70.2807 33.6357C71.2412 33.6357 72.015 33.9559 72.7888 34.5429L71.9083 35.6369C71.4814 35.2367 70.9211 34.9165 70.3341 34.9165Z" fill="#929497"/>
<path d="M81.4616 41.2937H80.3676L78.153 35.7438V41.2937H76.6055V33.7427H78.8734L80.9013 38.999L83.0091 33.7427H85.2504V41.2937H83.7029V35.7705L81.4616 41.2937Z" fill="#929497"/>
<path d="M94.0538 41.2937L93.5736 39.8795H90.8787L90.3717 41.2937H88.6641L91.7592 33.7427H93.0132L95.8415 41.2937H94.0538ZM91.3323 38.6255H93.1466L92.2661 36.0907L91.3323 38.6255Z" fill="#929497"/>
<path d="M101.659 33.7427C102.887 33.7427 104.434 34.3564 104.434 36.0106C104.434 37.1847 103.634 37.825 102.78 38.1185C103.447 39.0524 104.568 40.6 105.101 41.2937H103.153L101.072 38.2786H100.805V41.2937H99.2578V33.7427H101.659ZM100.805 36.9712H101.419C102.193 36.9712 102.78 36.6777 102.78 36.0373C102.78 35.4503 102.326 35.0501 101.633 35.0501H100.832V36.9712H100.805Z" fill="#929497"/>
<path d="M111.05 35.0501V41.2937H109.503V35.0501H107.715V33.7427H112.864V35.0501H111.05Z" fill="#929497"/>
<path d="M123.646 33.7427C124.873 33.7427 126.42 34.3564 126.42 36.0106C126.42 37.1847 125.62 37.825 124.766 38.1185C125.433 39.0524 126.554 40.6 127.087 41.2937H125.14L123.059 38.2786H122.792V41.2937H121.244V33.7427H123.646ZM122.792 36.9712H123.405C124.179 36.9712 124.766 36.6777 124.766 36.0373C124.766 35.4503 124.313 35.0501 123.619 35.0501H122.818V36.9712H122.792Z" fill="#929497"/>
<path d="M130.475 41.2937V33.7427H135.331V35.0501H132.022V36.7577H135.331V38.0652H132.022V39.9863H135.331V41.2937H130.475Z" fill="#929497"/>
<path d="M145.683 38.5721L146.991 33.7427H148.725L146.564 41.2937H145.043L143.682 36.3308H143.656L142.241 41.2937H140.774L138.666 33.7427H140.4L141.654 38.5721H141.681L143.042 33.7427H144.483L145.683 38.5721Z" fill="#929497"/>
<path d="M156.196 41.2937L155.716 39.8795H153.021L152.514 41.2937H150.807L153.902 33.7427H155.156L157.984 41.2937H156.196ZM153.475 38.6255H155.289L154.409 36.0907L153.475 38.6255Z" fill="#929497"/>
<path d="M163.774 33.7427C165.002 33.7427 166.549 34.3564 166.549 36.0106C166.549 37.1847 165.749 37.825 164.895 38.1185C165.562 39.0524 166.683 40.6 167.216 41.2937H165.269L163.187 38.2786H162.921V41.2937H161.373V33.7427H163.774ZM162.921 36.9712H163.534C164.308 36.9712 164.895 36.6777 164.895 36.0373C164.895 35.4503 164.441 35.0501 163.748 35.0501H162.947V36.9712H162.921Z" fill="#929497"/>
<path d="M170.605 33.7427H172.82C174.768 33.7427 176.956 34.7566 176.956 37.4782C176.956 40.2798 174.795 41.2937 172.713 41.2937H170.605V33.7427ZM172.153 39.9863H172.313C174.074 39.9863 175.301 39.3726 175.301 37.5849C175.301 35.9306 174.314 35.0501 172.633 35.0501H172.153V39.9863Z" fill="#929497"/>
<path d="M182.932 34.9165C182.425 34.9165 181.944 35.1833 181.944 35.6636C181.944 36.2506 182.665 36.4107 183.252 36.6241C184.319 36.9977 185.6 37.4779 185.6 39.0789C185.6 40.7332 184.052 41.4269 182.745 41.4269C181.571 41.4269 180.664 40.9733 179.863 40.1728L180.877 39.1589C181.491 39.7459 181.971 40.1195 182.745 40.1195C183.359 40.1195 183.946 39.826 183.946 39.1589C183.946 38.5185 183.252 38.2517 182.478 37.9849C181.491 37.6114 180.397 37.1844 180.397 35.7436C180.397 34.3028 181.624 33.6357 182.878 33.6357C183.839 33.6357 184.613 33.9559 185.386 34.5429L184.506 35.6369C184.079 35.2367 183.519 34.9165 182.932 34.9165Z" fill="#929497"/>
<path d="M29.0567 0L26.6019 2.45474C19.3711 11.0997 19.3711 19.3711 19.3711 19.3711H48.4278L29.0567 0Z" fill="url(#paint0_linear_684_19032)"/>
<path d="M9.71225 19.3449H9.6322L0 28.9771L0.426912 29.404C3.78884 32.3391 11.9002 38.6627 19.3711 38.6627V19.3716V9.68604L9.71225 19.3449Z" fill="url(#paint1_linear_684_19032)"/>
<path d="M56.7793 28.8169H29.3769L38.7156 38.1556L39.2492 38.6625H38.3954H19.3711H9.68555L19.3711 48.3481L29.0567 58.0337L43.4116 43.6788L43.8385 43.2785L56.7793 56.2193V28.8169Z" fill="url(#paint2_linear_684_19032)"/>
<defs>
<linearGradient id="paint0_linear_684_19032" x1="19.3713" y1="9.68567" x2="48.4283" y2="9.68567" gradientUnits="userSpaceOnUse">
<stop stop-color="#1B75BB"/>
<stop offset="0.0650182" stop-color="#1E84C6"/>
<stop offset="0.1707" stop-color="#2295D1"/>
<stop offset="0.3024" stop-color="#24A0DA"/>
<stop offset="0.4871" stop-color="#26A7DF"/>
<stop offset="1" stop-color="#26A9E0"/>
</linearGradient>
<linearGradient id="paint1_linear_684_19032" x1="18.2717" y1="9.85002" x2="8.96125" y2="35.8553" gradientUnits="userSpaceOnUse">
<stop stop-color="#26A9E0"/>
<stop offset="0.5129" stop-color="#26A7DF"/>
<stop offset="0.6976" stop-color="#24A0DA"/>
<stop offset="0.8293" stop-color="#2295D1"/>
<stop offset="0.935" stop-color="#1E84C6"/>
<stop offset="1" stop-color="#1B75BB"/>
</linearGradient>
<linearGradient id="paint2_linear_684_19032" x1="57.8287" y1="30.965" x2="18.3332" y2="57.4178" gradientUnits="userSpaceOnUse">
<stop stop-color="#9ACA3D"/>
<stop offset="0.1366" stop-color="#8CC651"/>
<stop offset="0.4155" stop-color="#68BC84"/>
<stop offset="0.8089" stop-color="#2EABD5"/>
<stop offset="0.861" stop-color="#26A9E0"/>
</linearGradient>
</defs>
</svg>
