<svg width="35" height="37" viewBox="0 0 35 37" fill="none" xmlns="http://www.w3.org/2000/svg">
<path d="M17.5039 0C12.8927 0 8.71798 0.504308 5.61222 1.34955C4.05933 1.77219 2.77527 2.26827 1.79206 2.90104C0.808838 3.53377 2.14998e-05 4.39998 2.14998e-05 5.55133C2.14998e-05 5.62328 0.00216717 5.69402 0.00891211 5.76386V13.8846C0.00308681 13.9314 -0.000285202 13.9782 2.0901e-05 14.0249C2.0901e-05 14.0957 0.00216717 14.1673 0.00891211 14.2375V22.8852L0.00860491 22.9022V22.9089V31.6017C0.00829834 31.6443 0.010751 31.6868 0.01535 31.7293C0.152704 32.8429 0.977454 33.6175 1.97912 34.2201C2.98078 34.8228 4.27277 35.2995 5.81647 35.7057C8.90355 36.5182 13.0021 37 17.5041 37C22.0064 37 26.0985 36.5182 29.1854 35.7057C30.7291 35.2995 32.019 34.8228 33.0206 34.2201C34.0222 33.6175 34.847 32.8429 34.9844 31.7293C34.9899 31.6868 34.9926 31.6442 34.9933 31.6017V14.2122C34.9975 14.1502 35 14.0874 35 14.0251C35.0003 13.9823 34.9979 13.9398 34.9933 13.8976V5.71077C34.9966 5.65794 35 5.60542 35 5.55137C35 4.4001 34.1998 3.53385 33.2165 2.90108C32.233 2.26835 30.9489 1.77227 29.396 1.3496C26.2903 0.50433 22.1149 0 17.5039 0ZM17.5039 2.17632C21.9517 2.17632 25.9814 2.67698 28.8117 3.44729C30.2269 3.83258 31.3392 4.29559 32.0158 4.73101C32.5993 5.10628 32.759 5.38348 32.7928 5.50462V5.59813C32.759 5.7211 32.5993 6.00285 32.0158 6.37811C31.3392 6.8135 30.2269 7.27864 28.8117 7.66393C25.9812 8.43421 21.9513 8.93272 17.5039 8.93272C13.0565 8.93272 9.02644 8.43418 6.19617 7.66393C4.78095 7.27894 3.66219 6.81353 2.98554 6.37811C2.4021 6.00284 2.24021 5.72109 2.20649 5.59813V5.50462C2.24021 5.38348 2.4021 5.10628 2.98554 4.73101C3.66219 4.29562 4.78095 3.83258 6.19617 3.44729C9.0266 2.67701 13.0565 2.17632 17.5039 2.17632ZM2.20584 8.45026C3.12627 8.96824 4.26827 9.39393 5.61183 9.75948C8.7179 10.6047 12.8925 11.109 17.5035 11.109C22.1145 11.109 26.2895 10.6047 29.3952 9.75948C30.7341 9.39514 31.8737 8.97219 32.7926 8.45664V14.0505C32.7785 14.1437 32.596 14.5044 31.8848 14.9325C31.167 15.3643 30.0369 15.8063 28.6248 16.1779C25.8008 16.9212 21.846 17.4 17.503 17.4C13.1601 17.4 9.2061 16.9212 6.38132 16.1779C4.96917 15.8063 3.83902 15.3645 3.12133 14.9325C2.40972 14.5047 2.21903 14.1438 2.2049 14.0505L2.20584 8.45026ZM5.62894 11.1579C5.02525 11.1603 4.53654 11.6443 4.53442 12.2418V13.5765C4.53657 14.1743 5.02528 14.6583 5.62894 14.6604C5.9202 14.6616 6.20012 14.5481 6.40707 14.3446C6.61402 14.1415 6.73083 13.8652 6.73206 13.5765V12.2418C6.73083 11.9533 6.61402 11.6771 6.40707 11.4736C6.20012 11.2705 5.9202 11.157 5.62894 11.1579ZM8.87394 11.872C8.26873 11.8732 7.77848 12.3587 7.77723 12.9581V14.2907C7.77937 14.8891 8.26961 15.3734 8.87394 15.3746C9.47731 15.3725 9.96602 14.8885 9.96845 14.2907V12.9581C9.96723 12.3597 9.47821 11.8745 8.87394 11.872ZM2.20584 16.9196C3.17281 17.4619 4.38632 17.9058 5.81566 18.2819C8.90274 19.0944 13.0013 19.5762 17.5033 19.5762C22.0053 19.5762 26.0977 19.0944 29.1846 18.2819C30.614 17.9057 31.8254 17.4618 32.7923 16.9196V22.7642C32.7782 22.8574 32.5958 23.2117 31.8845 23.6399C31.1668 24.0716 30.0367 24.5222 28.6245 24.8938C25.8006 25.6371 21.8458 26.1137 17.5028 26.1137C13.1598 26.1137 9.20586 25.637 6.38108 24.8938C4.96893 24.5222 3.83878 24.0719 3.12109 23.6399C2.40949 23.2121 2.21879 22.8575 2.20467 22.7642L2.20584 16.9196ZM5.62894 19.8249C5.33737 19.8261 5.05837 19.9418 4.85326 20.1468C4.64784 20.3517 4.53317 20.6289 4.5344 20.9173V22.2435C4.53317 22.5322 4.64784 22.8094 4.85326 23.0144C5.05837 23.219 5.33737 23.335 5.62894 23.3359C5.92173 23.3371 6.20288 23.2224 6.41013 23.0174C6.61739 22.8122 6.73328 22.5337 6.73206 22.2435V20.9173C6.73328 20.6274 6.6174 20.349 6.41013 20.1437C6.20288 19.9385 5.92173 19.824 5.62894 19.8249ZM8.87394 20.539C8.58175 20.5396 8.30183 20.6553 8.09611 20.8609C7.89008 21.0661 7.77541 21.3442 7.77725 21.6336V22.9576C7.77602 23.2467 7.891 23.5242 8.09672 23.7291C8.30244 23.934 8.58206 24.0494 8.87393 24.05C9.16519 24.0491 9.44419 23.9331 9.64961 23.7285C9.85472 23.5236 9.96939 23.2464 9.96847 22.9576V21.6336C9.97 21.3448 9.85564 21.067 9.65022 20.8615C9.44511 20.6562 9.16581 20.5402 8.87394 20.539ZM2.20584 25.6355C3.17281 26.1778 4.38632 26.6217 5.81566 26.9978C8.90274 27.8103 13.0013 28.2836 17.5033 28.2836C22.0053 28.2836 26.0977 27.8103 29.1846 26.9978C30.614 26.6216 31.8254 26.1777 32.7923 25.6355V31.4716C32.7782 31.5648 32.5958 31.9276 31.8845 32.3557C31.1668 32.7875 30.0367 33.2295 28.6245 33.6011C25.8006 34.3444 21.8458 34.8211 17.5028 34.8211C13.1598 34.8211 9.20586 34.3444 6.38108 33.6011C4.96893 33.2295 3.83878 32.7877 3.12109 32.3557C2.40949 31.928 2.21879 31.5648 2.20467 31.4716L2.20584 25.6355ZM5.62894 28.4282C5.33737 28.4294 5.05837 28.5451 4.85326 28.75C4.64784 28.955 4.53317 29.2322 4.5344 29.5206V30.8468C4.53317 31.1355 4.64784 31.4127 4.85326 31.6176C5.05837 31.8223 5.33737 31.9383 5.62894 31.9392C5.92173 31.9404 6.20288 31.8256 6.41013 31.6207C6.61739 31.4154 6.73328 31.137 6.73206 30.8468V29.5206C6.73328 29.2306 6.6174 28.9522 6.41013 28.747C6.20288 28.5417 5.92173 28.4273 5.62894 28.4282ZM8.87394 29.1423C8.26873 29.1435 7.77848 29.629 7.77723 30.2284V31.561C7.776 31.85 7.89097 32.1275 8.0967 32.3325C8.30242 32.5374 8.58203 32.6528 8.87391 32.6534C9.16517 32.6525 9.44417 32.5365 9.64959 32.3318C9.8547 32.1269 9.96936 31.8497 9.96844 31.561V30.2284C9.96722 29.6299 9.47821 29.1448 8.87394 29.1423Z" fill="white"/>
</svg>
