<svg width="69" height="56" viewBox="0 0 69 56" fill="none" xmlns="http://www.w3.org/2000/svg">
<path d="M28.0386 0L25.6699 2.36875C18.6924 10.7109 18.6924 18.6925 18.6924 18.6925H46.7312L28.0386 0Z" fill="url(#paint0_linear_684_26043)"/>
<path d="M9.37201 18.6687H9.29477L0 27.9634L0.411957 28.3754C3.65611 31.2076 11.4833 37.3097 18.6925 37.3097V18.6944V9.34814L9.37201 18.6687Z" fill="url(#paint1_linear_684_26043)"/>
<path d="M54.7906 27.8066H28.3482L37.3597 36.8182L37.8747 37.3074H37.0508H18.6929H9.34668L18.6929 46.6537L28.0392 55.9999L41.8912 42.1479L42.3032 41.7617L54.7906 54.2491V27.8066Z" fill="url(#paint2_linear_684_26043)"/>
<path d="M57.5776 40.691C58.079 40.7161 58.3947 40.7588 58.785 40.8404C61.3896 41.3761 63.6041 42.7198 65.1749 44.7275L65.1761 44.7291C66.3519 46.2379 67.0127 47.9005 67.2193 49.8421M57.5776 40.691L66.2249 49.9479M57.5776 40.691C58.6694 40.2991 59.723 39.6316 60.501 38.827L60.5023 38.8256C63.6118 35.5971 62.9051 30.5023 59.0783 28.1372C57.6476 27.2503 55.8381 26.8525 54.1747 27.0494L57.5776 40.691ZM67.2193 49.8421L66.2249 49.9479M67.2193 49.8421C67.2193 49.8419 67.2193 49.8417 67.2192 49.8414L66.2249 49.9479M67.2193 49.8421C67.2733 50.3467 67.2971 50.82 67.1989 51.2587C67.0888 51.7508 66.8494 52.1058 66.562 52.417L66.5614 52.4176C66.5456 52.4347 66.5314 52.4513 66.5025 52.4854L66.4993 52.4892C66.4748 52.5183 66.4306 52.5704 66.3795 52.6231C66.2502 52.7564 66.0857 52.8852 65.8566 52.9838C65.4864 53.1431 65.003 53.1912 64.3859 53.2205C63.2384 53.2748 61.0623 53.2702 56.793 53.2611C56.1978 53.2598 55.5619 53.2584 54.8824 53.2571H54.8821L45.0116 53.2358L44.7389 53.2352L44.5043 53.0963L44.1454 52.8838L44.6538 52.0226M66.2249 49.9479C66.3299 50.9284 66.2474 51.2837 65.8274 51.7384C65.7955 51.7729 65.7681 51.8053 65.7425 51.8355C65.7101 51.8738 65.6804 51.9089 65.6478 51.9409C65.3028 52.2791 64.6248 52.2777 56.7794 52.261L54.8843 52.2571L45.0138 52.2358L44.6538 52.0226M44.6538 52.0226L44.1443 52.8831L44.1451 52.8836M44.6538 52.0226C44.1362 51.7171 43.8662 51.2198 43.8662 50.5732C43.8662 48.8466 44.6313 46.7364 45.7713 45.3082M44.1451 52.8836L55.4168 41.649C54.0743 41.6419 52.8442 41.6419 52.6792 41.6561C49.859 41.9403 47.4289 43.2264 45.7713 45.3082M44.1451 52.8836C43.2957 52.382 42.8662 51.5404 42.8662 50.5732C42.8662 48.6055 43.7175 46.2784 44.9894 44.6848M44.1451 52.8836L44.9894 44.6848M45.7713 45.3082L44.989 44.6853C44.9891 44.6852 44.9893 44.685 44.9894 44.6848M45.7713 45.3082L44.9898 44.6843C46.8063 42.4034 49.4503 41.0019 52.4766 40.6719C50.6148 40.0069 48.9194 38.4414 48.1976 36.661C47.2764 34.3996 47.613 31.8681 49.0984 29.9056C50.2763 28.3408 52.1706 27.2858 54.1742 27.0494L44.9894 44.6848" fill="#172B47" stroke="white" stroke-width="2"/>
<defs>
<linearGradient id="paint0_linear_684_26043" x1="18.6926" y1="9.34637" x2="46.7317" y2="9.34637" gradientUnits="userSpaceOnUse">
<stop stop-color="#1B75BB"/>
<stop offset="0.0650182" stop-color="#1E84C6"/>
<stop offset="0.1707" stop-color="#2295D1"/>
<stop offset="0.3024" stop-color="#24A0DA"/>
<stop offset="0.4871" stop-color="#26A7DF"/>
<stop offset="1" stop-color="#26A9E0"/>
</linearGradient>
<linearGradient id="paint1_linear_684_26043" x1="17.6317" y1="9.50639" x2="8.64733" y2="34.6006" gradientUnits="userSpaceOnUse">
<stop stop-color="#26A9E0"/>
<stop offset="0.5129" stop-color="#26A7DF"/>
<stop offset="0.6976" stop-color="#24A0DA"/>
<stop offset="0.8293" stop-color="#2295D1"/>
<stop offset="0.935" stop-color="#1E84C6"/>
<stop offset="1" stop-color="#1B75BB"/>
</linearGradient>
<linearGradient id="paint2_linear_684_26043" x1="55.8033" y1="29.8795" x2="17.6913" y2="55.4056" gradientUnits="userSpaceOnUse">
<stop stop-color="#9ACA3D"/>
<stop offset="0.1366" stop-color="#8CC651"/>
<stop offset="0.4155" stop-color="#68BC84"/>
<stop offset="0.8089" stop-color="#2EABD5"/>
<stop offset="0.861" stop-color="#26A9E0"/>
</linearGradient>
</defs>
</svg>
