<svg width="72" height="72" viewBox="0 0 72 72" fill="none" xmlns="http://www.w3.org/2000/svg">
<g filter="url(#filter0_d_684_26056)">
<path d="M30.1588 6.92064C32.6549 2.25405 39.3451 2.25405 41.8412 6.92064C43.331 9.70607 46.5804 11.052 49.6035 10.1359C54.6682 8.60107 59.3989 13.3318 57.8641 18.3965C56.948 21.4196 58.2939 24.669 61.0794 26.1588C65.7459 28.6549 65.7459 35.3451 61.0794 37.8412C58.2939 39.331 56.948 42.5804 57.8641 45.6035C59.3989 50.6682 54.6682 55.3989 49.6035 53.8641C46.5804 52.948 43.331 54.2939 41.8412 57.0794C39.3451 61.7459 32.6549 61.7459 30.1588 57.0794C28.669 54.2939 25.4196 52.948 22.3965 53.8641C17.3318 55.3989 12.6011 50.6682 14.1359 45.6035C15.052 42.5804 13.7061 39.331 10.9206 37.8412C6.25405 35.3451 6.25405 28.6549 10.9206 26.1588C13.7061 24.669 15.052 21.4196 14.1359 18.3965C12.6011 13.3318 17.3318 8.60108 22.3965 10.1359C25.4196 11.052 28.669 9.70607 30.1588 6.92064Z" fill="url(#paint0_linear_684_26056)"/>
<path d="M43.1638 6.21317C40.1026 0.489877 31.8974 0.489876 28.8362 6.21317C27.6837 8.36787 25.1701 9.40902 22.8316 8.70035C16.62 6.818 10.818 12.62 12.7004 18.8316C13.409 21.1701 12.3679 23.6837 10.2132 24.8362C4.48988 27.8974 4.48988 36.1026 10.2132 39.1638C12.3679 40.3163 13.409 42.8299 12.7004 45.1684C10.818 51.38 16.62 57.182 22.8316 55.2996C25.1701 54.591 27.6837 55.6321 28.8361 57.7868C31.8974 63.5101 40.1026 63.5101 43.1638 57.7868C44.3163 55.6321 46.8299 54.591 49.1684 55.2996C55.38 57.182 61.182 51.38 59.2996 45.1684C58.591 42.8299 59.6321 40.3163 61.7868 39.1638C67.5101 36.1026 67.5101 27.8974 61.7868 24.8362C59.6321 23.6837 58.591 21.1701 59.2996 18.8316C61.182 12.62 55.38 6.818 49.1684 8.70035C46.8299 9.40902 44.3163 8.36787 43.1638 6.21317Z" stroke="white" stroke-width="3"/>
</g>
<defs>
<filter id="filter0_d_684_26056" x="0.420898" y="0.420654" width="71.1582" height="71.1587" filterUnits="userSpaceOnUse" color-interpolation-filters="sRGB">
<feFlood flood-opacity="0" result="BackgroundImageFix"/>
<feColorMatrix in="SourceAlpha" type="matrix" values="0 0 0 0 0 0 0 0 0 0 0 0 0 0 0 0 0 0 127 0" result="hardAlpha"/>
<feOffset dy="4"/>
<feGaussianBlur stdDeviation="2"/>
<feComposite in2="hardAlpha" operator="out"/>
<feColorMatrix type="matrix" values="0 0 0 0 0.783333 0 0 0 0 0.750694 0 0 0 0 0.750694 0 0 0 0.25 0"/>
<feBlend mode="normal" in2="BackgroundImageFix" result="effect1_dropShadow_684_26056"/>
<feBlend mode="normal" in="SourceGraphic" in2="effect1_dropShadow_684_26056" result="shape"/>
</filter>
<linearGradient id="paint0_linear_684_26056" x1="14.2326" y1="9.39535" x2="53.1628" y2="71.3488" gradientUnits="userSpaceOnUse">
<stop stop-color="#8EC64E"/>
<stop offset="1" stop-color="#69BC81"/>
</linearGradient>
</defs>
</svg>
