<svg width="34" height="34" viewBox="0 0 34 34" fill="none" xmlns="http://www.w3.org/2000/svg">
<path d="M14.1654 25.4997C16.6799 25.4992 19.122 24.6574 21.1028 23.1083L27.3304 29.336L29.3336 27.3328L23.1059 21.1052C24.6558 19.1242 25.4981 16.6815 25.4987 14.1663C25.4987 7.91742 20.4143 2.83301 14.1654 2.83301C7.91645 2.83301 2.83203 7.91742 2.83203 14.1663C2.83203 20.4153 7.91645 25.4997 14.1654 25.4997ZM14.1654 5.66634C18.8531 5.66634 22.6654 9.47859 22.6654 14.1663C22.6654 18.8541 18.8531 22.6663 14.1654 22.6663C9.47761 22.6663 5.66536 18.8541 5.66536 14.1663C5.66536 9.47859 9.47761 5.66634 14.1654 5.66634Z" fill="white"/>
<path d="M16.1679 12.1634C16.7048 12.7017 17.0009 13.4129 17.0009 14.1665H19.8342C19.8355 13.422 19.6891 12.6846 19.4037 11.9969C19.1182 11.3092 18.6993 10.685 18.1711 10.1602C16.0262 8.01821 12.3075 8.01821 10.1641 10.1602L12.1644 12.1662C13.2411 11.0924 15.0969 11.0952 16.1679 12.1634Z" fill="white"/>
</svg>
