<svg width="19" height="18" viewBox="0 0 19 18" fill="none" xmlns="http://www.w3.org/2000/svg">
<path d="M9.49714 14.0959L14.371 16.632C14.4281 16.6459 14.478 16.6391 14.5207 16.611C14.5638 16.5831 14.5782 16.5407 14.5638 16.4839L13.6445 11.1157L17.5774 7.3116C17.6205 7.26918 17.6349 7.22344 17.6207 7.17423C17.6065 7.12517 17.5709 7.09331 17.5139 7.07897L12.0628 6.29718L9.6256 1.41515C9.5969 1.35869 9.554 1.33062 9.49689 1.33062C9.43994 1.33062 9.39703 1.35869 9.36833 1.41515L6.93114 6.29718L1.48 7.07897C1.42305 7.09286 1.38747 7.12471 1.37327 7.17423C1.35907 7.22389 1.37358 7.26963 1.41633 7.3116L5.34931 11.1157L4.40879 16.4839C4.40879 16.5404 4.43032 16.5827 4.47307 16.611C4.51598 16.6394 4.5659 16.6465 4.62285 16.632L9.49714 14.0959ZM5.26514 17.8155C4.99427 17.9567 4.7199 18.0166 4.44215 17.9955C4.16441 17.9742 3.9079 17.8791 3.67259 17.71C3.43729 17.5409 3.26628 17.3261 3.15957 17.0656C3.05284 16.8049 3.02078 16.5337 3.06323 16.2519L3.87582 11.5812L0.45566 8.28436C0.241746 8.0869 0.102958 7.85095 0.0391436 7.57638C-0.0248309 7.30178 -0.0103255 7.02704 0.0822025 6.752C0.17473 6.47696 0.328028 6.25159 0.541794 6.07571C0.755708 5.89985 1.00518 5.7907 1.29012 5.74828L6.03613 5.07199L8.15252 0.824514C8.28062 0.556565 8.46599 0.352465 8.70862 0.211796C8.95124 0.0711052 9.21476 0.000454311 9.49936 2.16351e-06C9.78396 -0.000450718 10.0475 0.070197 10.2901 0.211796C10.5327 0.353245 10.7181 0.557488 10.8462 0.824514L12.9626 5.07199L17.7082 5.74828C17.9933 5.7907 18.2461 5.89985 18.4667 6.07571C18.6875 6.25158 18.8408 6.47696 18.9265 6.752C19.0123 7.02704 19.023 7.3018 18.9586 7.57638C18.8943 7.85097 18.7555 8.08692 18.542 8.28436L15.1219 11.5812L15.9345 16.2519C15.9775 16.5337 15.9453 16.8049 15.8381 17.0656C15.7309 17.3261 15.5599 17.5409 15.3251 17.71C15.0903 17.8791 14.8338 17.9742 14.5555 17.9955C14.2774 18.0166 14.0031 17.9639 13.7326 17.8371L9.49977 15.6182L5.26514 17.8155Z" fill="#1F88C8"/>
</svg>
