<svg width="26" height="26" viewBox="0 0 26 26" fill="none" xmlns="http://www.w3.org/2000/svg">
<path d="M14.5321 13L17.9804 16.4482C18.4028 16.8708 18.4053 17.5533 17.9793 17.9793C17.5562 18.4023 16.8705 18.4024 16.4482 17.9804L13 14.5322L9.55173 17.9804C9.12916 18.4028 8.44668 18.4053 8.02065 17.9793C7.59772 17.5562 7.59754 16.8705 8.01957 16.4482L11.4678 13L8.01957 9.55175C7.59717 9.12918 7.59464 8.4467 8.02065 8.02068C8.44377 7.59774 9.12951 7.59756 9.55173 8.01959L13 11.4678L16.4482 8.01959C16.8708 7.59719 17.5533 7.59466 17.9793 8.02068C18.4022 8.44379 18.4024 9.12953 17.9804 9.55175L14.5321 13ZM13 26C5.82029 26 0 20.1797 0 13C0 5.82029 5.82029 0 13 0C20.1797 0 26 5.82029 26 13C26 20.1797 20.1797 26 13 26ZM13 23.8333C18.9832 23.8333 23.8332 18.9833 23.8332 13.0001C23.8332 7.01684 18.9832 2.16691 13 2.16691C7.01675 2.16691 2.16682 7.01684 2.16682 13.0001C2.16682 18.9833 7.01675 23.8333 13 23.8333Z" fill="#FFD12C"/>
</svg>
